<?xml version="1.0" encoding="UTF-8" standalone="no"?>
<!DOCTYPE svg PUBLIC "-//W3C//DTD SVG 1.1//EN" "http://www.w3.org/Graphics/SVG/1.1/DTD/svg11.dtd">
<svg version="1.1" xmlns="http://www.w3.org/2000/svg" xmlns:xlink="http://www.w3.org/1999/xlink" preserveAspectRatio="xMidYMid meet" viewBox="31.38217803666199 -1.0015315001743303 301.617821963338 407.2918227018037" width="169.95" height="230.29"><defs><path d="M293.78 388.32C293.88 388.58 293.99 388.83 294.12 389.07C295.14 390.91 297.19 391.27 298.87 392.13C300.55 392.98 302.14 395.47 301.03 397.23C300.47 398.11 299.5 398.35 298.61 398.54C297.62 398.74 289.68 400.36 288.69 400.56C276.61 403.02 263.85 405.41 252.4 400.11C247.66 397.91 247.33 394.59 248.98 391.79C187.59 395.04 125.91 392.56 64.43 390.08C59.44 390.08 53.86 388.46 52.53 382.32C84.21 364.98 114.93 364.87 149.23 363.76C161.29 363.37 257.78 360.25 269.84 359.86C271.91 359.79 274.12 359.77 275.88 361.09C277.65 362.42 278.66 364.95 280.14 366.82C284.57 372.45 291.99 371.26 298.38 370.68C307.69 369.86 317.05 371.31 325.9 374.95C327.12 375.45 328.43 376.09 329.05 377.46C330.74 381.21 326.06 384.28 322.57 384.78C308.19 386.81 296.66 387.96 293.78 388.32Z" id="a9Krn6ssI"></path><path d="M118.48 30.69C106.12 44.1 95.19 59.38 82.62 72.5C63.15 92.84 38.18 111.05 33.26 141.72C29.3 166.32 39.99 190.9 40.47 215.96C40.78 234.92 35.29 253.32 34.09 272.23C32.93 290.86 36.4 310.6 46.44 324.73C60.77 344.89 85.27 349.61 106.95 345.81C128.64 342.01 149.03 331.22 170.41 325.5C196.17 318.6 222.92 319.16 249.17 322.57C265.22 324.65 281.99 327.68 297.08 320.7C310.48 314.49 321.07 300.56 326.17 284.22C331.28 267.88 331.09 249.46 326.73 232.82C320.7 209.78 307.32 190.75 298.79 168.91C291.54 150.34 287.91 130.04 283.91 110.06C281.27 96.82 278.23 83.12 270.9 72.83C262.5 61.02 249.83 55.51 238.56 48.01C211.36 29.9 196.84 -7.67 161.27 1.38C145.07 5.51 130.84 17.27 118.48 30.69Z" id="cob0A5Wv1"></path><path d="M194.93 24.65L194.93 385.88C137.24 385.88 105.19 385.88 98.78 385.88C89.1 385.88 81.26 376.33 81.26 364.55C81.26 364.55 81.26 364.55 81.26 364.55C81.26 332.69 81.26 77.84 81.26 45.98C81.26 34.2 89.1 24.65 98.78 24.65C111.6 24.65 143.65 24.65 194.93 24.65Z" id="b1wH9JlEEF"></path><path d="M194.93 24.65L194.93 385.88C137.24 385.88 105.19 385.88 98.78 385.88C89.1 385.88 81.26 376.33 81.26 364.55C81.26 364.55 81.26 364.55 81.26 364.55C81.26 332.69 81.26 77.84 81.26 45.98C81.26 34.2 89.1 24.65 98.78 24.65C111.6 24.65 143.65 24.65 194.93 24.65Z" id="cuGc2jzWR"></path><linearGradient id="gradientj3zMEp0oG" gradientUnits="userSpaceOnUse" x1="0.03" y1="445.02" x2="237.76" y2="44.6"><stop style="stop-color: #0373ec;stop-opacity: 0" offset="0%"></stop><stop style="stop-color: #007cf0;stop-opacity: 0.51" offset="85%"></stop><stop style="stop-color: #000000;stop-opacity: 1" offset="99%"></stop></linearGradient><path d="M236.14 24.65C249.93 24.65 256.83 33.05 256.83 49.84C256.83 236.35 256.83 339.97 256.83 360.69C256.83 377.49 249.93 385.88 236.14 385.88C160.11 385.88 117.87 385.88 109.42 385.88C95.64 385.88 88.74 377.49 88.74 360.69C88.74 174.18 88.74 70.56 88.74 49.84C88.74 33.05 95.64 24.65 109.42 24.65C185.46 24.65 227.7 24.65 236.14 24.65Z" id="bsDMRwz2C"></path><path d="M249.44 346.8C249.44 353.85 244.75 359.56 238.96 359.56C238.96 359.56 238.96 359.56 238.96 359.56C225.73 359.56 119.83 359.56 106.6 359.56C100.81 359.56 96.12 353.85 96.12 346.8C96.12 316.76 96.12 76.38 96.12 46.33C96.12 39.29 100.81 33.57 106.6 33.57C108.35 33.57 117.07 33.57 132.77 33.57C132.77 35.98 132.77 37.32 132.77 37.59C132.77 44.67 137.49 50.42 143.31 50.42C149.18 50.42 196.17 50.42 202.04 50.42C207.86 50.42 212.58 44.67 212.58 37.59C212.58 37.32 212.58 35.98 212.58 33.57C228.41 33.57 237.2 33.57 238.96 33.57C244.75 33.57 249.44 39.28 249.44 46.33C249.44 46.33 249.44 46.33 249.44 46.33C249.44 106.43 249.44 316.76 249.44 346.8Z" id="a5FrVbw1F5"></path><path d="M187.94 34.69C188.88 34.69 189.35 35.26 189.35 36.4C189.35 36.58 189.35 36.68 189.35 36.7C189.35 37.84 188.88 38.41 187.94 38.41C169.76 38.41 159.65 38.41 157.63 38.41C156.69 38.41 156.23 37.84 156.23 36.7C156.23 36.52 156.23 36.42 156.23 36.4C156.23 35.26 156.69 34.69 157.63 34.69C175.82 34.69 185.92 34.69 187.94 34.69Z" id="agOmh0sPI"></path><linearGradient id="gradientc1UikFm" gradientUnits="userSpaceOnUse" x1="172.67" y1="26.92" x2="173.46" y2="89.82"><stop style="stop-color: #183866;stop-opacity: 1" offset="0%"></stop><stop style="stop-color: #1a7fc1;stop-opacity: 1" offset="100%"></stop></linearGradient><path d="M237.99 33.57C237.99 196.54 237.99 287.08 237.99 305.19C237.99 317.9 229.53 328.2 219.09 328.2C210.89 328.2 169.9 328.2 96.12 328.2C96.12 159.08 96.12 65.12 96.12 46.33C96.12 39.29 100.81 33.58 106.59 33.57C106.59 33.57 106.6 33.57 106.6 33.57C108.35 33.57 117.07 33.57 132.77 33.57C132.77 35.98 132.77 37.32 132.77 37.59C132.77 44.67 137.49 50.42 143.31 50.42C149.18 50.42 196.17 50.42 202.04 50.42C207.86 50.42 212.58 44.67 212.58 37.59C212.58 37.32 212.58 35.98 212.58 33.57L237.99 33.57Z" id="baCldyCfO"></path><path d="M281.99 153.36C288.77 153.36 292.15 157.48 292.15 165.73C292.15 193.73 292.15 209.29 292.15 212.4C292.15 220.65 288.77 224.78 281.99 224.78C188.63 224.78 136.77 224.78 126.39 224.78C119.62 224.78 116.23 220.65 116.23 212.4C116.23 184.4 116.23 168.84 116.23 165.73C116.23 157.48 119.62 153.36 126.39 153.36C219.75 153.36 271.62 153.36 281.99 153.36Z" id="af06V23pc"></path><path d="M281.99 153.36C288.77 153.36 292.15 157.48 292.15 165.73C292.15 193.73 292.15 209.29 292.15 212.4C292.15 220.65 288.77 224.78 281.99 224.78C188.63 224.78 136.77 224.78 126.39 224.78C119.62 224.78 116.23 220.65 116.23 212.4C116.23 184.4 116.23 168.84 116.23 165.73C116.23 157.48 119.62 153.36 126.39 153.36C219.75 153.36 271.62 153.36 281.99 153.36Z" id="dauDT8jjC"></path><linearGradient id="gradienta9lhlDLce" gradientUnits="userSpaceOnUse" x1="111.77" y1="431.35" x2="207.12" y2="181.4"><stop style="stop-color: #000000;stop-opacity: 0" offset="0%"></stop><stop style="stop-color: #000000;stop-opacity: 0.51" offset="85%"></stop><stop style="stop-color: #000000;stop-opacity: 1" offset="99%"></stop></linearGradient><path d="M285.04 148.89C291.82 148.89 295.2 153.02 295.2 161.27C295.2 189.27 295.2 204.83 295.2 207.94C295.2 216.19 291.82 220.31 285.04 220.31C191.68 220.31 139.82 220.31 129.44 220.31C122.67 220.31 119.28 216.19 119.28 207.94C119.28 179.93 119.28 164.38 119.28 161.27C119.28 153.02 122.67 148.89 129.44 148.89C222.8 148.89 274.67 148.89 285.04 148.89Z" id="b8MQkN60OC"></path><path d="M138.1 69.46C138.1 69.46 138.1 69.46 138.1 69.46C138.1 88.69 138.1 99.37 138.1 101.51C138.1 101.51 138.1 101.51 138.1 101.51C122.31 101.51 113.54 101.51 111.79 101.51C111.79 101.51 111.79 101.51 111.79 101.51C111.79 82.28 111.79 71.6 111.79 69.46C111.79 69.46 111.79 69.46 111.79 69.46C127.57 69.46 136.34 69.46 138.1 69.46Z" id="d1649QSEY5"></path><path d="M161.79 161.99C165.3 161.99 167.06 164.13 167.06 168.4C167.06 187.85 167.06 198.66 167.06 200.82C167.06 205.09 165.3 207.23 161.79 207.23C145.83 207.23 136.95 207.23 135.18 207.23C131.67 207.23 129.92 205.09 129.92 200.82C129.92 181.37 129.92 170.56 129.92 168.4C129.92 164.13 131.67 161.99 135.18 161.99C151.15 161.99 160.02 161.99 161.79 161.99Z" id="c4a3mBAfkB"></path><path d="M138.1 109.18C138.1 109.18 138.1 109.18 138.1 109.18C138.1 128.4 138.1 139.09 138.1 141.22C138.1 141.22 138.1 141.22 138.1 141.22C122.31 141.22 113.54 141.22 111.79 141.22C111.79 141.22 111.79 141.22 111.79 141.22C111.79 122 111.79 111.31 111.79 109.18C111.79 109.18 111.79 109.18 111.79 109.18C127.57 109.18 136.34 109.18 138.1 109.18Z" id="b6Do7lgJ2i"></path><path d="M138.1 235.47C138.1 235.47 138.1 235.47 138.1 235.47C138.1 254.69 138.1 265.38 138.1 267.51C138.1 267.51 138.1 267.51 138.1 267.51C122.31 267.51 113.54 267.51 111.79 267.51C111.79 267.51 111.79 267.51 111.79 267.51C111.79 248.28 111.79 237.6 111.79 235.47C111.79 235.47 111.79 235.47 111.79 235.47C127.57 235.47 136.34 235.47 138.1 235.47Z" id="a8HJh2hD96"></path><path d="M138.1 275.18C138.1 275.18 138.1 275.18 138.1 275.18C138.1 294.41 138.1 305.09 138.1 307.23C138.1 307.23 138.1 307.23 138.1 307.23C122.31 307.23 113.54 307.23 111.79 307.23C111.79 307.23 111.79 307.23 111.79 307.23C111.79 288 111.79 277.32 111.79 275.18C111.79 275.18 111.79 275.18 111.79 275.18C127.57 275.18 136.34 275.18 138.1 275.18Z" id="b2p31ibiFL"></path><path d="M167.05 200.81C167.05 204.35 164.7 207.22 161.79 207.22C161.79 207.22 161.79 207.22 161.79 207.22C159.13 207.22 137.83 207.22 135.17 207.22C132.26 207.22 129.91 204.35 129.91 200.81C129.91 200.81 129.91 200.81 129.91 200.81C129.91 200.21 129.91 195.4 129.91 194.8C134.34 191.2 139.36 188.83 144.62 187.84C140.83 185.25 139.48 179.41 141.61 174.79C143.74 170.17 148.54 168.53 152.33 171.13C156.12 173.72 157.46 179.56 155.33 184.18C154.6 185.76 153.52 187.06 152.21 187.92C160.08 189.46 167.05 194.8 167.05 194.8C167.05 196 167.05 200.21 167.05 200.81Z" id="d14dNxpoUj"></path><path d="M181.67 169.9C180.75 169.9 180.01 168.99 180.01 167.87C180.01 167.87 180.01 167.87 180.01 167.87C180.01 166.75 180.75 165.85 181.67 165.85C191.71 165.85 272.02 165.85 282.05 165.85C282.97 165.85 283.72 166.75 283.72 167.87C283.72 167.87 283.72 167.87 283.72 167.87C283.72 168.99 282.97 169.9 282.05 169.9C261.98 169.9 191.71 169.9 181.67 169.9Z" id="a1fmUgKzWg"></path><path d="M241.95 77.83C243 77.83 243.53 78.47 243.53 79.75C243.53 79.75 243.53 79.75 243.53 79.75C243.53 81.02 243 81.66 241.95 81.66C185.53 81.66 154.18 81.66 147.91 81.66C146.86 81.66 146.34 81.02 146.34 79.75C146.34 79.75 146.34 79.75 146.34 79.75C146.34 78.47 146.86 77.83 147.91 77.83C204.34 77.83 235.68 77.83 241.95 77.83Z" id="a1dnRZzfFi"></path><path d="M181.67 182.93C180.75 182.93 180.01 182.02 180.01 180.9C180.01 180.9 180.01 180.9 180.01 180.9C180.01 179.78 180.75 178.88 181.67 178.88C191.71 178.88 272.02 178.88 282.05 178.88C282.97 178.88 283.72 179.78 283.72 180.9C283.72 180.9 283.72 180.9 283.72 180.9C283.72 182.02 282.97 182.93 282.05 182.93C261.98 182.93 191.71 182.93 181.67 182.93ZM181.67 195.97C180.75 195.97 180.01 195.06 180.01 193.94C180.01 193.94 180.01 193.94 180.01 193.94C180.01 192.82 180.75 191.91 181.67 191.91C191.71 191.91 272.02 191.91 282.05 191.91C282.97 191.91 283.72 192.82 283.72 193.94C283.72 193.94 283.72 193.94 283.72 193.94C283.72 195.06 282.97 195.97 282.05 195.97C261.98 195.97 191.71 195.97 181.67 195.97Z" id="bgqEqCLNi"></path><path d="M262.96 284.29C259.17 317.93 257.06 336.62 256.64 340.36C256.38 342.72 256.58 345.12 257.23 347.37C257.98 350.07 261.75 363.58 268.52 387.9L275.12 385.42C272.12 361.23 270.46 347.8 270.13 345.11C270.02 344.28 270.06 343.43 270.25 342.62C270.82 340.22 273.68 328.2 278.83 306.57L282.55 387.9L288.65 387.9C291.81 339.72 293.56 312.95 293.91 307.6C295.69 294.19 292.43 284.29 292.43 284.29C288.5 284.29 278.68 284.29 262.96 284.29Z" id="cfzC1wios"></path><path d="M295.36 273.39C295.36 278.12 294.73 281.93 290.85 281.93C288.14 281.93 266.49 281.93 263.79 281.93C259.9 281.93 259.78 278.14 259.75 273.45C259.73 270.83 259.56 249.86 259.54 247.24C259.54 247.24 253.7 259.95 249.04 258.72C244.38 257.5 230.56 234.28 230.56 234.28C231.02 233.81 233.31 231.46 237.44 227.24C244.4 235.75 248.27 240.48 249.04 241.42C249.04 241.42 250.9 236.26 253.61 224.71C253.61 224.71 265.13 213.11 265.13 213.11C267.48 213.11 286.31 213.11 288.67 213.11C297.16 213.07 295.36 234.88 295.36 234.88C295.36 242.59 295.36 269.54 295.36 273.39Z" id="a37sxpsOwP"></path><path d="M295.2 195.97C295.2 195.97 303.8 217.44 304.25 224.79C304.25 224.79 295.51 242.11 295.51 242.11C295.06 240.17 292.78 230.49 288.67 213.06L295.2 213.06C295.2 203.94 295.2 198.25 295.2 195.97Z" id="a1mInOurfe"></path><path d="M295.2 195.97C295.2 195.97 303.8 217.44 304.25 224.79C304.25 224.79 295.51 242.11 295.51 242.11C295.06 240.17 292.78 230.49 288.67 213.06L295.2 213.06C295.2 203.94 295.2 198.25 295.2 195.97Z" id="a7tEcRxt"></path><linearGradient id="gradientb7nocOxEoc" gradientUnits="userSpaceOnUse" x1="269.7" y1="268.4" x2="312.5" y2="188.5"><stop style="stop-color: #000000;stop-opacity: 0" offset="0%"></stop><stop style="stop-color: #000000;stop-opacity: 0.51" offset="85%"></stop><stop style="stop-color: #000000;stop-opacity: 1" offset="99%"></stop></linearGradient><path d="M295.51 242.11C295.51 242.11 301.12 223.35 300.51 219.04C300.51 219.04 295.2 201.13 295.2 201.13C295.2 201.92 295.2 205.91 295.2 213.07L286.94 213.28C291.51 228.65 294.37 238.26 295.51 242.11Z" id="cahszNt0H"></path><path d="M292.44 281.67C292.44 281.67 292.44 281.67 292.44 281.67C292.44 283.24 292.44 284.12 292.44 284.29C292.44 284.29 292.44 284.29 292.44 284.29C274.75 284.29 264.93 284.29 262.96 284.29C262.96 284.29 262.96 284.29 262.96 284.29C262.96 282.72 262.96 281.85 262.96 281.67C262.96 281.67 262.96 281.67 262.96 281.67C280.65 281.67 290.48 281.67 292.44 281.67Z" id="aW4RwczTR"></path><linearGradient id="gradientar5YQg2wI" gradientUnits="userSpaceOnUse" x1="262.96" y1="282.98" x2="292.44" y2="282.98"><stop style="stop-color: #68e1fd;stop-opacity: 1" offset="0%"></stop><stop style="stop-color: #69b9eb;stop-opacity: 1" offset="100%"></stop></linearGradient><path d="M281.51 186.93C281.51 186.93 281.51 186.93 281.51 186.93C281.51 202.74 281.51 211.52 281.51 213.28C281.51 213.28 281.51 213.28 281.51 213.28C276.41 213.28 273.57 213.28 273 213.28C273 213.28 273 213.28 273 213.28C273 197.47 273 188.69 273 186.93C273 186.93 273 186.93 273 186.93C278.11 186.93 280.94 186.93 281.51 186.93Z" id="a1PF03dGQ"></path><linearGradient id="gradientc1uPyhgwXY" gradientUnits="userSpaceOnUse" x1="274.63" y1="200.16" x2="288.6" y2="199.85"><stop style="stop-color: #ecc4d7;stop-opacity: 1" offset="0%"></stop><stop style="stop-color: #efd4d1;stop-opacity: 1" offset="42%"></stop><stop style="stop-color: #f2eac9;stop-opacity: 1" offset="100%"></stop></linearGradient><path d="M281.53 184.04L281.53 213.28L277.05 213.28C277.05 212.21 277.05 211.62 277.05 211.5C277.05 209.32 275.6 207.55 273.81 207.55C273.81 207.55 273.8 207.55 273.8 207.55C273.78 207.55 273.57 207.55 273.55 207.55C269.09 207.58 265.47 203.2 265.45 197.77C265.45 197.76 265.45 197.74 265.45 197.73C265.45 196.82 265.45 192.25 265.45 184.04L281.53 184.04Z" id="aDAggrNpE"></path><linearGradient id="gradientc1ek1UVu1y" gradientUnits="userSpaceOnUse" x1="275.44" y1="197.4" x2="272.57" y2="199.26"><stop style="stop-color: #ecc4d7;stop-opacity: 1" offset="0%"></stop><stop style="stop-color: #efd4d1;stop-opacity: 1" offset="42%"></stop><stop style="stop-color: #f2eac9;stop-opacity: 1" offset="100%"></stop></linearGradient><path d="M273.62 173.68C274.07 173.67 277.59 173.54 278.03 173.53C279 173.45 279.98 173.5 280.95 173.66C284.88 174.47 287.52 179 286.86 183.78C286.77 184.41 286.63 185.02 286.44 185.61C286.26 186.04 286.15 186.49 286.11 186.96C286.11 187.71 286.51 188.36 286.72 189.06C287.33 191.06 286.34 193.23 285.23 194.88C284.12 196.53 282.8 198.2 282.64 200.32C282.59 201 282.64 201.81 282.27 202.35C281.79 202.9 281.06 202.96 280.52 202.5C280.01 202.04 279.59 201.44 279.3 200.74C279.34 201.74 278.19 202.3 277.47 201.83C276.78 201.25 276.33 200.34 276.23 199.33C276.13 198.33 275.87 197.37 275.48 196.48C275.11 195.81 274.51 195.33 274.31 194.56C273.96 193.2 275.06 191.69 274.64 190.35C274.3 189.25 273.06 188.93 272.17 189.39C271.32 189.96 270.61 190.79 270.11 191.81C270.93 190.46 270.26 188.14 269.42 187.04C268.03 185.25 265.95 186.77 264.8 185.48C262.6 183 265.66 176.46 267.61 175.11C269.4 173.86 271.56 173.76 273.62 173.68Z" id="aluadctkZ"></path><path d="M279.61 213.23C279.61 213.23 276.31 218.49 271.73 218.49C267.16 218.49 253.8 234.4 252.93 239.22C252.06 244.04 249.05 241.39 249.05 241.39C249.05 241.39 250.91 236.23 253.62 224.68C256.33 213.13 265.14 213.07 265.14 213.07C265.94 213.07 269.92 213.07 277.1 213.07C278.44 213.15 279.27 213.21 279.61 213.23Z" id="aY9JYCgNF"></path><linearGradient id="gradienta11YRfoOtk" gradientUnits="userSpaceOnUse" x1="250.16" y1="208.57" x2="279.63" y2="247.55"><stop style="stop-color: #68e1fd;stop-opacity: 1" offset="2%"></stop><stop style="stop-color: #ffffff;stop-opacity: 1" offset="100%"></stop></linearGradient><path d="M275.12 384.75L277.45 391.71L268.05 397.11C262.83 397.57 259.93 397.83 259.35 397.88C259.35 397.88 257.86 390.92 261.93 390.29C264.3 389.97 266.56 388.9 268.49 387.2C269.38 386.87 271.58 386.06 275.12 384.75ZM282.57 387.9L282.57 387.9" id="c4pkLxDzF"></path><path d="M237.44 227.22C234.74 223.17 233.25 220.92 232.95 220.47C232.95 220.47 231.42 213.26 230.56 217.73C230.08 220.23 228.71 224.77 228.71 224.77C228.02 224.77 222.52 224.77 221.83 224.77C221.83 224.77 226.66 230.97 228.71 232.11C229.65 232.61 230.63 232.96 231.65 233.14C232.42 232.35 234.35 230.38 237.44 227.22Z" id="d6vdTnZfIb"></path><linearGradient id="gradiente2CUfcE9HJ" gradientUnits="userSpaceOnUse" x1="221.83" y1="224.72" x2="237.44" y2="224.72"><stop style="stop-color: #ecc4d7;stop-opacity: 1" offset="0%"></stop><stop style="stop-color: #efd4d1;stop-opacity: 1" offset="42%"></stop><stop style="stop-color: #f2eac9;stop-opacity: 1" offset="100%"></stop></linearGradient><path d="M144.8 102.03C143.88 102.03 143.13 101.12 143.13 100C143.13 100 143.13 100 143.13 100C143.13 98.88 143.88 97.97 144.8 97.97C154.84 97.97 235.14 97.97 245.18 97.97C246.1 97.97 246.84 98.88 246.84 100C246.84 100 246.84 100 246.84 100C246.84 101.12 246.1 102.03 245.18 102.03C225.1 102.03 154.84 102.03 144.8 102.03Z" id="b3fh66CMQh"></path><path d="M238.42 113.61C239.47 113.61 240 114.25 240 115.53C240 115.53 240 115.53 240 115.53C240 116.81 239.47 117.44 238.42 117.44C182 117.44 150.66 117.44 144.39 117.44C143.34 117.44 142.81 116.81 142.81 115.53C142.81 115.53 142.81 115.53 142.81 115.53C142.81 114.25 143.34 113.61 144.39 113.61C200.81 113.61 232.16 113.61 238.42 113.61Z" id="a3C1NC5nt"></path><path d="M238.42 130C239.47 130 240 130.64 240 131.92C240 131.92 240 131.92 240 131.92C240 133.19 239.47 133.83 238.42 133.83C182 133.83 150.66 133.83 144.39 133.83C143.34 133.83 142.81 133.19 142.81 131.92C142.81 131.92 142.81 131.92 142.81 131.92C142.81 130.64 143.34 130 144.39 130C200.81 130 232.16 130 238.42 130Z" id="eOBS4i8Jq"></path><path d="M237.02 256.17C238.07 256.17 238.59 256.81 238.59 258.08C238.59 258.08 238.59 258.08 238.59 258.08C238.59 259.36 238.07 260 237.02 260C180.6 260 149.25 260 142.98 260C141.93 260 141.41 259.36 141.41 258.08C141.41 258.08 141.41 258.08 141.41 258.08C141.41 256.81 141.93 256.17 142.98 256.17C199.4 256.17 230.75 256.17 237.02 256.17Z" id="b65ohFMuK"></path><path d="M235.61 243.15C236.66 243.15 237.19 243.78 237.19 245.06C237.19 245.06 237.19 245.06 237.19 245.06C237.19 246.34 236.66 246.98 235.61 246.98C179.19 246.98 147.84 246.98 141.58 246.98C140.53 246.98 140 246.34 140 245.06C140 245.06 140 245.06 140 245.06C140 243.78 140.53 243.15 141.58 243.15C198 243.15 229.34 243.15 235.61 243.15Z" id="bcYZCY92L"></path><path d="M238.42 290C239.47 290 240 290.64 240 291.92C240 291.92 240 291.92 240 291.92C240 293.19 239.47 293.83 238.42 293.83C182 293.83 150.66 293.83 144.39 293.83C143.34 293.83 142.81 293.19 142.81 291.92C142.81 291.92 142.81 291.92 142.81 291.92C142.81 290.64 143.34 290 144.39 290C200.81 290 232.16 290 238.42 290Z" id="b1oP1CCTTm"></path><path d="M237.02 301.64C238.07 301.64 238.59 302.28 238.59 303.55C238.59 303.55 238.59 303.55 238.59 303.55C238.59 304.83 238.07 305.47 237.02 305.47C180.6 305.47 149.25 305.47 142.98 305.47C141.93 305.47 141.41 304.83 141.41 303.55C141.41 303.55 141.41 303.55 141.41 303.55C141.41 302.28 141.93 301.64 142.98 301.64C199.4 301.64 230.75 301.64 237.02 301.64Z" id="ahkXpbtWK"></path><path d="M238.42 276.17C239.47 276.17 240 276.81 240 278.08C240 278.08 240 278.08 240 278.08C240 279.36 239.47 280 238.42 280C182 280 150.66 280 144.39 280C143.34 280 142.81 279.36 142.81 278.08C142.81 278.08 142.81 278.08 142.81 278.08C142.81 276.81 143.34 276.17 144.39 276.17C200.81 276.17 232.16 276.17 238.42 276.17Z" id="dwKcFDtzO"></path></defs><g><g><use xlink:href="#a9Krn6ssI" opacity="1" fill="#1d2741" fill-opacity="1"></use><g><use xlink:href="#a9Krn6ssI" opacity="1" fill-opacity="0" stroke="#000000" stroke-width="1" stroke-opacity="0"></use></g></g><g><use xlink:href="#cob0A5Wv1" opacity="1" fill="#13007b" fill-opacity="1"></use><g><use xlink:href="#cob0A5Wv1" opacity="1" fill-opacity="0" stroke="#000000" stroke-width="1" stroke-opacity="0"></use></g></g><g><use xlink:href="#b1wH9JlEEF" opacity="1" fill="#68e1fd" fill-opacity="1"></use><g><use xlink:href="#b1wH9JlEEF" opacity="1" fill-opacity="0" stroke="#000000" stroke-width="1" stroke-opacity="0"></use></g></g><g><use xlink:href="#cuGc2jzWR" opacity="1" fill="url(#gradientj3zMEp0oG)"></use><g><use xlink:href="#cuGc2jzWR" opacity="1" fill-opacity="0" stroke="#000000" stroke-width="1" stroke-opacity="0"></use></g></g><g><use xlink:href="#bsDMRwz2C" opacity="1" fill="#0026ea" fill-opacity="1"></use><g><use xlink:href="#bsDMRwz2C" opacity="1" fill-opacity="0" stroke="#000000" stroke-width="1" stroke-opacity="0"></use></g></g><g><use xlink:href="#a5FrVbw1F5" opacity="1" fill="#8bbadb" fill-opacity="1"></use><g><use xlink:href="#a5FrVbw1F5" opacity="1" fill-opacity="0" stroke="#000000" stroke-width="1" stroke-opacity="0"></use></g></g><g><use xlink:href="#agOmh0sPI" opacity="1" fill="url(#gradientc1UikFm)"></use><g><use xlink:href="#agOmh0sPI" opacity="1" fill-opacity="0" stroke="#000000" stroke-width="1" stroke-opacity="0"></use></g></g><g><use xlink:href="#baCldyCfO" opacity="1" fill="#8585dd" fill-opacity="1"></use><g><use xlink:href="#baCldyCfO" opacity="1" fill-opacity="0" stroke="#000000" stroke-width="1" stroke-opacity="0"></use></g></g><g><use xlink:href="#af06V23pc" opacity="1" fill="#68e1fd" fill-opacity="1"></use><g><use xlink:href="#af06V23pc" opacity="1" fill-opacity="0" stroke="#000000" stroke-width="1" stroke-opacity="0"></use></g></g><g><use xlink:href="#dauDT8jjC" opacity="1" fill="url(#gradienta9lhlDLce)"></use><g><use xlink:href="#dauDT8jjC" opacity="1" fill-opacity="0" stroke="#000000" stroke-width="1" stroke-opacity="0"></use></g></g><g><use xlink:href="#b8MQkN60OC" opacity="1" fill="#223cea" fill-opacity="1"></use><g><use xlink:href="#b8MQkN60OC" opacity="1" fill-opacity="0" stroke="#000000" stroke-width="1" stroke-opacity="0"></use></g></g><g><use xlink:href="#d1649QSEY5" opacity="1" fill="#ffffff" fill-opacity="1"></use><g><use xlink:href="#d1649QSEY5" opacity="1" fill-opacity="0" stroke="#000000" stroke-width="1" stroke-opacity="0"></use></g></g><g><use xlink:href="#c4a3mBAfkB" opacity="1" fill="#ebebf0" fill-opacity="1"></use><g><use xlink:href="#c4a3mBAfkB" opacity="1" fill-opacity="0" stroke="#000000" stroke-width="1" stroke-opacity="0"></use></g></g><g><use xlink:href="#b6Do7lgJ2i" opacity="1" fill="#f9f9f9" fill-opacity="1"></use><g><use xlink:href="#b6Do7lgJ2i" opacity="1" fill-opacity="0" stroke="#000000" stroke-width="1" stroke-opacity="0"></use></g></g><g><use xlink:href="#a8HJh2hD96" opacity="1" fill="#ffffff" fill-opacity="1"></use><g><use xlink:href="#a8HJh2hD96" opacity="1" fill-opacity="0" stroke="#000000" stroke-width="1" stroke-opacity="0"></use></g></g><g><use xlink:href="#b2p31ibiFL" opacity="1" fill="#ffffff" fill-opacity="1"></use><g><use xlink:href="#b2p31ibiFL" opacity="1" fill-opacity="0" stroke="#000000" stroke-width="1" stroke-opacity="0"></use></g></g><g><use xlink:href="#d14dNxpoUj" opacity="1" fill="#ffffff" fill-opacity="1"></use><g><use xlink:href="#d14dNxpoUj" opacity="1" fill-opacity="0" stroke="#000000" stroke-width="1" stroke-opacity="0"></use></g></g><g><use xlink:href="#a1fmUgKzWg" opacity="1" fill="#ebebf0" fill-opacity="1"></use><g><use xlink:href="#a1fmUgKzWg" opacity="1" fill-opacity="0" stroke="#000000" stroke-width="1" stroke-opacity="0"></use></g></g><g><use xlink:href="#a1dnRZzfFi" opacity="1" fill="#ffffff" fill-opacity="1"></use><g><use xlink:href="#a1dnRZzfFi" opacity="1" fill-opacity="0" stroke="#000000" stroke-width="1" stroke-opacity="0"></use></g></g><g><use xlink:href="#bgqEqCLNi" opacity="1" fill="#ebebf0" fill-opacity="1"></use><g><use xlink:href="#bgqEqCLNi" opacity="1" fill-opacity="0" stroke="#000000" stroke-width="1" stroke-opacity="0"></use></g></g><g><use xlink:href="#cfzC1wios" opacity="1" fill="#3f3d56" fill-opacity="1"></use><g><use xlink:href="#cfzC1wios" opacity="1" fill-opacity="0" stroke="#000000" stroke-width="1" stroke-opacity="0"></use></g></g><g><use xlink:href="#a37sxpsOwP" opacity="1" fill="#68e1fd" fill-opacity="1"></use><g><use xlink:href="#a37sxpsOwP" opacity="1" fill-opacity="0" stroke="#000000" stroke-width="1" stroke-opacity="0"></use></g></g><g><use xlink:href="#a1mInOurfe" opacity="1" fill="#68e1fd" fill-opacity="1"></use><g><use xlink:href="#a1mInOurfe" opacity="1" fill-opacity="0" stroke="#000000" stroke-width="1" stroke-opacity="0"></use></g></g><g><use xlink:href="#a7tEcRxt" opacity="1" fill="url(#gradientb7nocOxEoc)"></use><g><use xlink:href="#a7tEcRxt" opacity="1" fill-opacity="0" stroke="#000000" stroke-width="1" stroke-opacity="0"></use></g></g><g><use xlink:href="#cahszNt0H" opacity="1" fill="#68e1fd" fill-opacity="1"></use><g><use xlink:href="#cahszNt0H" opacity="1" fill-opacity="0" stroke="#000000" stroke-width="1" stroke-opacity="0"></use></g></g><g><use xlink:href="#aW4RwczTR" opacity="1" fill="url(#gradientar5YQg2wI)"></use><g><use xlink:href="#aW4RwczTR" opacity="1" fill-opacity="0" stroke="#000000" stroke-width="1" stroke-opacity="0"></use></g></g><g><use xlink:href="#a1PF03dGQ" opacity="1" fill="url(#gradientc1uPyhgwXY)"></use><g><use xlink:href="#a1PF03dGQ" opacity="1" fill-opacity="0" stroke="#000000" stroke-width="1" stroke-opacity="0"></use></g></g><g><use xlink:href="#aDAggrNpE" opacity="1" fill="url(#gradientc1ek1UVu1y)"></use><g><use xlink:href="#aDAggrNpE" opacity="1" fill-opacity="0" stroke="#000000" stroke-width="1" stroke-opacity="0"></use></g></g><g><use xlink:href="#aluadctkZ" opacity="1" fill="#3f3d56" fill-opacity="1"></use><g><use xlink:href="#aluadctkZ" opacity="1" fill-opacity="0" stroke="#000000" stroke-width="1" stroke-opacity="0"></use></g></g><g><use xlink:href="#aY9JYCgNF" opacity="1" fill="url(#gradienta11YRfoOtk)"></use><g><use xlink:href="#aY9JYCgNF" opacity="1" fill-opacity="0" stroke="#000000" stroke-width="1" stroke-opacity="0"></use></g></g><g><use xlink:href="#c4pkLxDzF" opacity="1" fill="#222a72" fill-opacity="1"></use><g><use xlink:href="#c4pkLxDzF" opacity="1" fill-opacity="0" stroke="#000000" stroke-width="1" stroke-opacity="0"></use></g></g><g><use xlink:href="#d6vdTnZfIb" opacity="1" fill="url(#gradiente2CUfcE9HJ)"></use><g><use xlink:href="#d6vdTnZfIb" opacity="1" fill-opacity="0" stroke="#000000" stroke-width="1" stroke-opacity="0"></use></g></g><g><use xlink:href="#b3fh66CMQh" opacity="1" fill="#f9f9fb" fill-opacity="1"></use><g><use xlink:href="#b3fh66CMQh" opacity="1" fill-opacity="0" stroke="#000000" stroke-width="1" stroke-opacity="0"></use></g></g><g><use xlink:href="#a3C1NC5nt" opacity="1" fill="#ffffff" fill-opacity="1"></use><g><use xlink:href="#a3C1NC5nt" opacity="1" fill-opacity="0" stroke="#000000" stroke-width="1" stroke-opacity="0"></use></g></g><g><use xlink:href="#eOBS4i8Jq" opacity="1" fill="#ffffff" fill-opacity="1"></use><g><use xlink:href="#eOBS4i8Jq" opacity="1" fill-opacity="0" stroke="#000000" stroke-width="1" stroke-opacity="0"></use></g></g><g><use xlink:href="#b65ohFMuK" opacity="1" fill="#ffffff" fill-opacity="1"></use><g><use xlink:href="#b65ohFMuK" opacity="1" fill-opacity="0" stroke="#000000" stroke-width="1" stroke-opacity="0"></use></g></g><g><use xlink:href="#bcYZCY92L" opacity="1" fill="#ffffff" fill-opacity="1"></use><g><use xlink:href="#bcYZCY92L" opacity="1" fill-opacity="0" stroke="#000000" stroke-width="1" stroke-opacity="0"></use></g></g><g><use xlink:href="#b1oP1CCTTm" opacity="1" fill="#ffffff" fill-opacity="1"></use><g><use xlink:href="#b1oP1CCTTm" opacity="1" fill-opacity="0" stroke="#000000" stroke-width="1" stroke-opacity="0"></use></g></g><g><use xlink:href="#ahkXpbtWK" opacity="1" fill="#ffffff" fill-opacity="1"></use><g><use xlink:href="#ahkXpbtWK" opacity="1" fill-opacity="0" stroke="#000000" stroke-width="1" stroke-opacity="0"></use></g></g><g><use xlink:href="#dwKcFDtzO" opacity="1" fill="#ffffff" fill-opacity="1"></use><g><use xlink:href="#dwKcFDtzO" opacity="1" fill-opacity="0" stroke="#000000" stroke-width="1" stroke-opacity="0"></use></g></g></g></svg>