<?xml version="1.0" encoding="UTF-8"?>
<svg xmlns="http://www.w3.org/2000/svg" xmlns:xlink="http://www.w3.org/1999/xlink" width="1684pt" height="1178pt" viewBox="0 0 1684 1178" version="1.1">
<g id="surface1">
<path style=" stroke:none;fill-rule:nonzero;fill:rgb(97.254902%,97.254902%,100%);fill-opacity:1;" d="M 161.753906 624.121094 C 136.484375 455.679688 80.027344 440.996094 36.617188 355.976562 C -2.90625 278.640625 -34.777344 152.121094 76.761719 61.671875 C 250.015625 -78.9375 462.5 64.941406 462.5 64.941406 C 462.5 64.941406 799.207031 257.875 858.046875 267.683594 C 916.890625 277.496094 1060.726562 375.597656 1240.519531 257.875 C 1420.316406 140.152344 1573.957031 149.964844 1622.992188 238.253906 C 1672.027344 326.546875 1560.882812 581.609375 1534.730469 633.929688 C 1508.578125 686.25 1547.804688 849.753906 1590.300781 915.152344 C 1632.800781 980.554688 1766.828125 1183.296875 1479.15625 1176.757812 C 1191.484375 1170.214844 328.472656 1180.027344 328.472656 1180.027344 C 328.472656 1180.027344 18.667969 1174.238281 73.492188 872.640625 C 119.257812 620.847656 171.558594 689.519531 161.753906 624.121094 Z M 161.753906 624.121094 "/>
<path style=" stroke:none;fill-rule:nonzero;fill:rgb(72.941176%,77.254902%,95.686275%);fill-opacity:1;" d="M 338.277344 535.828125 C 338.277344 571.949219 309.007812 601.230469 272.898438 601.230469 C 236.789062 601.230469 207.519531 571.949219 207.519531 535.828125 C 207.519531 499.707031 236.789062 470.429688 272.898438 470.429688 C 309.007812 470.429688 338.277344 499.707031 338.277344 535.828125 Z M 338.277344 535.828125 "/>
<path style=" stroke:none;fill-rule:nonzero;fill:rgb(72.941176%,77.254902%,95.686275%);fill-opacity:1;" d="M 207.519531 615.945312 C 207.519531 640.324219 187.761719 660.089844 163.386719 660.089844 C 139.015625 660.089844 119.257812 640.324219 119.257812 615.945312 C 119.257812 591.5625 139.015625 571.800781 163.386719 571.800781 C 187.761719 571.800781 207.519531 591.5625 207.519531 615.945312 Z M 207.519531 615.945312 "/>
<path style=" stroke:none;fill-rule:nonzero;fill:rgb(72.941176%,77.254902%,95.686275%);fill-opacity:1;" d="M 194.445312 514.574219 C 194.445312 528.117188 183.464844 539.097656 169.925781 539.097656 C 156.386719 539.097656 145.410156 528.117188 145.410156 514.574219 C 145.410156 501.027344 156.386719 490.046875 169.925781 490.046875 C 183.464844 490.046875 194.445312 501.027344 194.445312 514.574219 Z M 194.445312 514.574219 "/>
<path style=" stroke:none;fill-rule:nonzero;fill:rgb(72.941176%,77.254902%,95.686275%);fill-opacity:1;" d="M 1685.101562 977.285156 C 1685.101562 1013.402344 1655.832031 1042.683594 1619.722656 1042.683594 C 1583.613281 1042.683594 1554.34375 1013.402344 1554.34375 977.285156 C 1554.34375 941.164062 1583.613281 911.882812 1619.722656 911.882812 C 1655.832031 911.882812 1685.101562 941.164062 1685.101562 977.285156 Z M 1685.101562 977.285156 "/>
<path style=" stroke:none;fill-rule:nonzero;fill:rgb(72.941176%,77.254902%,95.686275%);fill-opacity:1;" d="M 73.492188 203.917969 C 73.492188 217.464844 62.515625 228.445312 48.972656 228.445312 C 35.433594 228.445312 24.457031 217.464844 24.457031 203.917969 C 24.457031 190.375 35.433594 179.394531 48.972656 179.394531 C 62.515625 179.394531 73.492188 190.375 73.492188 203.917969 Z M 73.492188 203.917969 "/>
<path style=" stroke:none;fill-rule:nonzero;fill:rgb(88.235294%,90.196078%,98.431373%);fill-opacity:1;" d="M 573.644531 972.378906 C 573.644531 1036.492188 521.6875 1088.464844 457.597656 1088.464844 C 393.503906 1088.464844 341.546875 1036.492188 341.546875 972.378906 C 341.546875 908.265625 393.503906 856.292969 457.597656 856.292969 C 521.6875 856.292969 573.644531 908.265625 573.644531 972.378906 Z M 573.644531 972.378906 "/>
<path style=" stroke:none;fill-rule:nonzero;fill:rgb(88.235294%,90.196078%,98.431373%);fill-opacity:1;" d="M 1302.632812 1065.574219 C 1302.632812 1108.917969 1267.503906 1144.054688 1224.175781 1144.054688 C 1180.84375 1144.054688 1145.71875 1108.917969 1145.71875 1065.574219 C 1145.71875 1022.230469 1180.84375 987.09375 1224.175781 987.09375 C 1267.503906 987.09375 1302.632812 1022.230469 1302.632812 1065.574219 Z M 1302.632812 1065.574219 "/>
<path style=" stroke:none;fill-rule:nonzero;fill:rgb(88.235294%,90.196078%,98.431373%);fill-opacity:1;" d="M 1567.417969 660.089844 C 1567.417969 683.566406 1548.394531 702.601562 1524.921875 702.601562 C 1501.453125 702.601562 1482.425781 683.566406 1482.425781 660.089844 C 1482.425781 636.613281 1501.453125 617.578125 1524.921875 617.578125 C 1548.394531 617.578125 1567.417969 636.613281 1567.417969 660.089844 Z M 1567.417969 660.089844 "/>
<path style=" stroke:none;fill-rule:nonzero;fill:rgb(88.235294%,90.196078%,98.431373%);fill-opacity:1;" d="M 1292.824219 277.496094 C 1292.824219 324.453125 1254.769531 362.515625 1207.832031 362.515625 C 1160.890625 362.515625 1122.835938 324.453125 1122.835938 277.496094 C 1122.835938 230.539062 1160.890625 192.472656 1207.832031 192.472656 C 1254.769531 192.472656 1292.824219 230.539062 1292.824219 277.496094 Z M 1292.824219 277.496094 "/>
<path style=" stroke:none;fill-rule:nonzero;fill:rgb(88.235294%,90.196078%,98.431373%);fill-opacity:1;" d="M 469.039062 50.226562 C 469.039062 72.800781 450.742188 91.101562 428.175781 91.101562 C 405.609375 91.101562 387.3125 72.800781 387.3125 50.226562 C 387.3125 27.652344 405.609375 9.351562 428.175781 9.351562 C 450.742188 9.351562 469.039062 27.652344 469.039062 50.226562 Z M 469.039062 50.226562 "/>
<path style=" stroke:none;fill-rule:nonzero;fill:rgb(88.235294%,90.196078%,98.431373%);fill-opacity:1;" d="M 338.277344 864.46875 C 338.277344 887.042969 319.984375 905.34375 297.417969 905.34375 C 274.847656 905.34375 256.554688 887.042969 256.554688 864.46875 C 256.554688 841.890625 274.847656 823.59375 297.417969 823.59375 C 319.984375 823.59375 338.277344 841.890625 338.277344 864.46875 Z M 338.277344 864.46875 "/>
<path style=" stroke:none;fill-rule:nonzero;fill:rgb(72.941176%,77.254902%,95.686275%);fill-opacity:1;" d="M 1655.683594 390.3125 C 1655.683594 412.886719 1637.386719 431.1875 1614.820312 431.1875 C 1592.253906 431.1875 1573.957031 412.886719 1573.957031 390.3125 C 1573.957031 367.738281 1592.253906 349.4375 1614.820312 349.4375 C 1637.386719 349.4375 1655.683594 367.738281 1655.683594 390.3125 Z M 1655.683594 390.3125 "/>
<path style=" stroke:none;fill-rule:nonzero;fill:rgb(72.941176%,77.254902%,95.686275%);fill-opacity:1;" d="M 1593.570312 1083.558594 C 1593.570312 1107.941406 1573.8125 1127.707031 1549.441406 1127.707031 C 1525.066406 1127.707031 1505.308594 1107.941406 1505.308594 1083.558594 C 1505.308594 1059.179688 1525.066406 1039.414062 1549.441406 1039.414062 C 1573.8125 1039.414062 1593.570312 1059.179688 1593.570312 1083.558594 Z M 1593.570312 1083.558594 "/>
<path style=" stroke:none;fill-rule:nonzero;fill:rgb(72.941176%,77.254902%,95.686275%);fill-opacity:1;" d="M 1672.027344 1106.449219 C 1672.027344 1119.996094 1661.050781 1130.976562 1647.507812 1130.976562 C 1633.96875 1130.976562 1622.992188 1119.996094 1622.992188 1106.449219 C 1622.992188 1092.90625 1633.96875 1081.925781 1647.507812 1081.925781 C 1661.050781 1081.925781 1672.027344 1092.90625 1672.027344 1106.449219 Z M 1672.027344 1106.449219 "/>
</g>
</svg>
