<?xml version="1.0" encoding="UTF-8" standalone="no"?>
<!DOCTYPE svg PUBLIC "-//W3C//DTD SVG 1.1//EN" "http://www.w3.org/Graphics/SVG/1.1/DTD/svg11.dtd">
<svg version="1.1" xmlns="http://www.w3.org/2000/svg" xmlns:xlink="http://www.w3.org/1999/xlink" preserveAspectRatio="xMidYMid meet" viewBox="46.86956924452927 35.75241227225565 192.80223202705213 184.7428465612099" width="43.8" height="41.93"><defs><path d="M155.68 140.37C155.75 140.3 155.77 140.28 155.73 140.18C155.69 140.07 155.58 139.99 155.45 140C155.15 140 152.69 140 152.38 140C150.52 140 149.01 138.56 149.01 136.77C149.01 132.25 149.01 96.09 149.01 91.57C149.01 89.79 147.51 88.34 145.64 88.34C144.97 88.34 139.57 88.34 138.9 88.34C137.04 88.34 135.53 89.79 135.53 91.57C135.53 96.09 135.53 132.25 135.53 136.77C135.53 138.56 134.02 140 132.15 140C131.85 140 129.4 140 129.09 140C128.96 139.99 128.84 140.06 128.79 140.18C130.12 141.44 140.72 151.58 142.04 152.85C142.19 152.94 142.37 152.93 142.51 152.84C144.26 151.18 148.66 147.02 155.68 140.38C155.68 140.37 155.68 140.37 155.68 140.37Z" id="a4QwoFogZi"></path><path d="M155.68 140.37C155.75 140.3 155.77 140.28 155.73 140.18C155.69 140.07 155.58 139.99 155.45 140C155.15 140 152.69 140 152.38 140C150.52 140 149.01 138.56 149.01 136.77C149.01 132.25 149.01 96.09 149.01 91.57C149.01 89.79 147.51 88.34 145.64 88.34C144.97 88.34 139.57 88.34 138.9 88.34C137.04 88.34 135.53 89.79 135.53 91.57C135.53 96.09 135.53 132.25 135.53 136.77C135.53 138.56 134.02 140 132.15 140C131.85 140 129.4 140 129.09 140C128.96 139.99 128.84 140.06 128.79 140.18C130.12 141.44 140.72 151.58 142.04 152.85C142.19 152.94 142.37 152.93 142.51 152.84C144.26 151.18 148.66 147.02 155.68 140.38C155.68 140.37 155.68 140.37 155.68 140.37Z" id="b1ojiQmLVK"></path><path d="M100.75 68.75C97.32 73.73 94.91 79.28 93.65 85.11C93.37 86.42 92.27 87.43 90.88 87.65C90.03 87.77 83.18 88.84 82.32 88.97C82.11 89 81.95 89.15 81.91 89.35C81.48 92.95 81.48 96.6 81.91 100.2C81.95 100.43 82.14 100.6 82.37 100.62C83.23 100.75 90.04 101.8 90.89 101.93C92.27 102.15 93.37 103.16 93.66 104.47C94.91 110.31 97.32 115.87 100.75 120.84C101.53 121.96 101.49 123.42 100.68 124.5C100.18 125.18 96.16 130.55 95.66 131.22C95.49 131.41 95.46 131.69 95.6 131.9C96.72 133.19 98.01 134.56 99.38 135.87C100.58 137.02 101.93 138.19 103.62 139.56C103.83 139.62 104.06 139.58 104.22 139.44C104.97 138.84 108.65 135.83 115.3 130.41C115.3 126.32 115.3 124.05 115.3 123.6C102.81 112.89 98.53 95.91 104.52 80.92C110.51 65.92 125.54 56.03 142.31 56.04C159.07 56.04 174.09 65.95 180.06 80.95C186.04 95.95 181.74 112.92 169.24 123.63C169.24 124.08 169.24 126.34 169.24 130.41C176.01 135.92 179.78 138.99 180.53 139.6C180.7 139.62 180.88 139.58 181.02 139.48C182.62 138.19 183.97 137.02 185.17 135.87C186.52 134.56 187.82 133.21 188.99 131.84C189.08 131.67 189.06 131.45 188.94 131.29C188.44 130.62 184.37 125.19 183.87 124.51C183.05 123.43 183.02 121.97 183.79 120.85C187.22 115.88 189.63 110.32 190.89 104.48C191.18 103.17 192.27 102.17 193.66 101.96C194.51 101.82 201.36 100.76 202.22 100.63C202.43 100.6 202.59 100.45 202.64 100.25C203.06 96.64 203.06 93 202.64 89.39C202.59 89.17 202.4 89 202.17 88.98C201.32 88.85 194.5 87.8 193.65 87.66C192.27 87.45 191.17 86.44 190.89 85.13C189.63 79.29 187.22 73.73 183.79 68.75C183.02 67.64 183.05 66.18 183.86 65.09C184.36 64.42 188.38 59.05 188.88 58.38C189.05 58.2 189.07 57.94 188.96 57.73C187.8 56.35 186.55 55.03 185.22 53.79C183.79 52.43 182.38 51.2 180.95 50.07C180.74 49.98 180.49 50.02 180.31 50.16C179.61 50.64 173.99 54.49 173.29 54.97C172.15 55.74 170.63 55.77 169.46 55.03C164.27 51.75 158.48 49.44 152.38 48.24C151.02 47.96 149.96 46.91 149.74 45.59C149.6 44.76 148.47 38.1 148.32 37.26C148.31 37.11 148.18 36.98 148.02 36.96C144.2 36.68 140.37 36.68 136.56 36.96C136.38 36.97 136.24 37.09 136.22 37.26C136.08 38.09 134.94 44.76 134.8 45.6C134.58 46.92 133.52 47.97 132.15 48.24C126.05 49.44 120.25 51.75 115.06 55.03C113.89 55.76 112.38 55.74 111.25 54.97C110.55 54.49 104.94 50.63 104.24 50.15C104.04 49.98 103.75 49.97 103.53 50.1C102.18 51.18 100.75 52.41 99.38 53.72C98.02 54.99 96.75 56.33 95.56 57.75C95.47 57.95 95.5 58.19 95.66 58.36C96.66 59.71 99.67 63.75 100.68 65.09C101.49 66.18 101.52 67.64 100.75 68.75Z" id="b1qWFNxii"></path><path d="M100.75 68.75C97.32 73.73 94.91 79.28 93.65 85.11C93.37 86.42 92.27 87.43 90.88 87.65C90.03 87.77 83.18 88.84 82.32 88.97C82.11 89 81.95 89.15 81.91 89.35C81.48 92.95 81.48 96.6 81.91 100.2C81.95 100.43 82.14 100.6 82.37 100.62C83.23 100.75 90.04 101.8 90.89 101.93C92.27 102.15 93.37 103.16 93.66 104.47C94.91 110.31 97.32 115.87 100.75 120.84C101.53 121.96 101.49 123.42 100.68 124.5C100.18 125.18 96.16 130.55 95.66 131.22C95.49 131.41 95.46 131.69 95.6 131.9C96.72 133.19 98.01 134.56 99.38 135.87C100.58 137.02 101.93 138.19 103.62 139.56C103.83 139.62 104.06 139.58 104.22 139.44C104.97 138.84 108.65 135.83 115.3 130.41C115.3 126.32 115.3 124.05 115.3 123.6C102.81 112.89 98.53 95.91 104.52 80.92C110.51 65.92 125.54 56.03 142.31 56.04C159.07 56.04 174.09 65.95 180.06 80.95C186.04 95.95 181.74 112.92 169.24 123.63C169.24 124.08 169.24 126.34 169.24 130.41C176.01 135.92 179.78 138.99 180.53 139.6C180.7 139.62 180.88 139.58 181.02 139.48C182.62 138.19 183.97 137.02 185.17 135.87C186.52 134.56 187.82 133.21 188.99 131.84C189.08 131.67 189.06 131.45 188.94 131.29C188.44 130.62 184.37 125.19 183.87 124.51C183.05 123.43 183.02 121.97 183.79 120.85C187.22 115.88 189.63 110.32 190.89 104.48C191.18 103.17 192.27 102.17 193.66 101.96C194.51 101.82 201.36 100.76 202.22 100.63C202.43 100.6 202.59 100.45 202.64 100.25C203.06 96.64 203.06 93 202.64 89.39C202.59 89.17 202.4 89 202.17 88.98C201.32 88.85 194.5 87.8 193.65 87.66C192.27 87.45 191.17 86.44 190.89 85.13C189.63 79.29 187.22 73.73 183.79 68.75C183.02 67.64 183.05 66.18 183.86 65.09C184.36 64.42 188.38 59.05 188.88 58.38C189.05 58.2 189.07 57.94 188.96 57.73C187.8 56.35 186.55 55.03 185.22 53.79C183.79 52.43 182.38 51.2 180.95 50.07C180.74 49.98 180.49 50.02 180.31 50.16C179.61 50.64 173.99 54.49 173.29 54.97C172.15 55.74 170.63 55.77 169.46 55.03C164.27 51.75 158.48 49.44 152.38 48.24C151.02 47.96 149.96 46.91 149.74 45.59C149.6 44.76 148.47 38.1 148.32 37.26C148.31 37.11 148.18 36.98 148.02 36.96C144.2 36.68 140.37 36.68 136.56 36.96C136.38 36.97 136.24 37.09 136.22 37.26C136.08 38.09 134.94 44.76 134.8 45.6C134.58 46.92 133.52 47.97 132.15 48.24C126.05 49.44 120.25 51.75 115.06 55.03C113.89 55.76 112.38 55.74 111.25 54.97C110.55 54.49 104.94 50.63 104.24 50.15C104.04 49.98 103.75 49.97 103.53 50.1C102.18 51.18 100.75 52.41 99.38 53.72C98.02 54.99 96.75 56.33 95.56 57.75C95.47 57.95 95.5 58.19 95.66 58.36C96.66 59.71 99.67 63.75 100.68 65.09C101.49 66.18 101.52 67.64 100.75 68.75Z" id="b77MUKUZpD"></path><path d="M229.93 72.2C229.93 66.85 225.4 62.51 219.81 62.51C218.1 62.51 209.53 62.51 194.09 62.51C192.03 65.25 190.89 66.78 190.66 67.08C193.51 71.6 195.63 76.5 196.97 81.61C197.6 81.71 202.66 82.48 203.29 82.58C206.52 83.09 209.01 85.6 209.36 88.72C209.83 92.75 209.83 96.82 209.36 100.85C209.01 103.94 206.55 106.44 203.35 106.96C202.71 107.06 197.62 107.83 196.98 107.93C195.65 113.04 193.52 117.94 190.68 122.46C191.05 122.95 194.01 126.92 194.39 127.41C196.33 129.92 196.28 133.37 194.26 135.83C192.92 137.42 191.47 138.93 189.95 140.39C188.6 141.68 187.13 142.97 185.29 144.45C182.71 146.43 179.06 146.51 176.39 144.63C175.24 143.69 166.03 136.2 164.88 135.26C163.4 134.05 162.52 132.28 162.5 130.41C162.5 129.73 162.5 124.28 162.5 123.6C162.5 121.77 163.32 120.03 164.75 118.81C175.16 109.88 178.74 95.73 173.75 83.23C168.76 70.73 156.24 62.48 142.26 62.48C128.28 62.48 115.76 70.73 110.77 83.23C105.78 95.73 109.36 109.88 119.77 118.81C121.2 120.03 122.03 121.77 122.04 123.6C122.04 124.28 122.04 129.73 122.04 130.41C122.04 132.3 121.18 134.09 119.68 135.31C118.55 136.23 109.51 143.6 108.38 144.52C105.74 146.51 102.03 146.53 99.36 144.57C97.43 143.01 95.95 141.72 94.61 140.44C93.08 138.98 91.65 137.47 90.34 135.94C88.28 133.45 88.23 129.94 90.22 127.4C90.59 126.91 93.51 123 93.88 122.51C91.03 117.99 88.91 113.09 87.57 107.98C86.94 107.88 81.88 107.11 81.25 107.01C78.02 106.5 75.54 103.99 75.18 100.88C74.71 96.84 74.71 92.77 75.18 88.74C75.53 85.65 77.99 83.15 81.19 82.63C81.82 82.54 86.92 81.75 87.56 81.65C88.89 76.53 91.02 71.64 93.86 67.12C93.64 66.81 92.5 65.28 90.45 62.51C75.02 62.51 66.44 62.51 64.73 62.51C59.14 62.51 54.61 66.85 54.61 72.2C54.61 79.73 54.61 117.4 54.61 185.21C62.7 185.21 103.16 185.21 175.99 185.21L229.93 185.21C229.93 114.89 229.93 77.22 229.93 72.2ZM128.79 91.57C128.79 86.22 133.31 81.89 138.9 81.89C139.57 81.89 144.97 81.89 145.64 81.89C151.23 81.89 155.76 86.22 155.76 91.57C155.76 95.77 155.76 129.35 155.76 133.54C158.52 133.65 160.96 135.29 161.99 137.74C163.06 140.24 162.43 143.1 160.41 144.98C159.09 146.23 148.55 156.19 147.23 157.44C144.47 160 140.08 160 137.32 157.44C136 156.19 125.44 146.21 124.12 144.96C122.11 143.09 121.48 140.23 122.55 137.74C123.58 135.29 126.02 133.65 128.79 133.54C128.79 129.35 128.79 95.77 128.79 91.57ZM196.21 165.83C198.07 165.83 199.58 167.28 199.58 169.06C199.58 170.85 198.07 172.29 196.21 172.29C185.43 172.29 99.12 172.29 88.33 172.29C86.46 172.29 84.95 170.85 84.95 169.06C84.95 167.28 86.46 165.83 88.33 165.83C99.12 165.83 185.43 165.83 196.21 165.83Z" id="a4g7Rhiep8"></path><path d="M229.93 72.2C229.93 66.85 225.4 62.51 219.81 62.51C218.1 62.51 209.53 62.51 194.09 62.51C192.03 65.25 190.89 66.78 190.66 67.08C193.51 71.6 195.63 76.5 196.97 81.61C197.6 81.71 202.66 82.48 203.29 82.58C206.52 83.09 209.01 85.6 209.36 88.72C209.83 92.75 209.83 96.82 209.36 100.85C209.01 103.94 206.55 106.44 203.35 106.96C202.71 107.06 197.62 107.83 196.98 107.93C195.65 113.04 193.52 117.94 190.68 122.46C191.05 122.95 194.01 126.92 194.39 127.41C196.33 129.92 196.28 133.37 194.26 135.83C192.92 137.42 191.47 138.93 189.95 140.39C188.6 141.68 187.13 142.97 185.29 144.45C182.71 146.43 179.06 146.51 176.39 144.63C175.24 143.69 166.03 136.2 164.88 135.26C163.4 134.05 162.52 132.28 162.5 130.41C162.5 129.73 162.5 124.28 162.5 123.6C162.5 121.77 163.32 120.03 164.75 118.81C175.16 109.88 178.74 95.73 173.75 83.23C168.76 70.73 156.24 62.48 142.26 62.48C128.28 62.48 115.76 70.73 110.77 83.23C105.78 95.73 109.36 109.88 119.77 118.81C121.2 120.03 122.03 121.77 122.04 123.6C122.04 124.28 122.04 129.73 122.04 130.41C122.04 132.3 121.18 134.09 119.68 135.31C118.55 136.23 109.51 143.6 108.38 144.52C105.74 146.51 102.03 146.53 99.36 144.57C97.43 143.01 95.95 141.72 94.61 140.44C93.08 138.98 91.65 137.47 90.34 135.94C88.28 133.45 88.23 129.94 90.22 127.4C90.59 126.91 93.51 123 93.88 122.51C91.03 117.99 88.91 113.09 87.57 107.98C86.94 107.88 81.88 107.11 81.25 107.01C78.02 106.5 75.54 103.99 75.18 100.88C74.71 96.84 74.71 92.77 75.18 88.74C75.53 85.65 77.99 83.15 81.19 82.63C81.82 82.54 86.92 81.75 87.56 81.65C88.89 76.53 91.02 71.64 93.86 67.12C93.64 66.81 92.5 65.28 90.45 62.51C75.02 62.51 66.44 62.51 64.73 62.51C59.14 62.51 54.61 66.85 54.61 72.2C54.61 79.73 54.61 117.4 54.61 185.21C62.7 185.21 103.16 185.21 175.99 185.21L229.93 185.21C229.93 114.89 229.93 77.22 229.93 72.2ZM128.79 91.57C128.79 86.22 133.31 81.89 138.9 81.89C139.57 81.89 144.97 81.89 145.64 81.89C151.23 81.89 155.76 86.22 155.76 91.57C155.76 95.77 155.76 129.35 155.76 133.54C158.52 133.65 160.96 135.29 161.99 137.74C163.06 140.24 162.43 143.1 160.41 144.98C159.09 146.23 148.55 156.19 147.23 157.44C144.47 160 140.08 160 137.32 157.44C136 156.19 125.44 146.21 124.12 144.96C122.11 143.09 121.48 140.23 122.55 137.74C123.58 135.29 126.02 133.65 128.79 133.54C128.79 129.35 128.79 95.77 128.79 91.57ZM196.21 165.83C198.07 165.83 199.58 167.28 199.58 169.06C199.58 170.85 198.07 172.29 196.21 172.29C185.43 172.29 99.12 172.29 88.33 172.29C86.46 172.29 84.95 170.85 84.95 169.06C84.95 167.28 86.46 165.83 88.33 165.83C99.12 165.83 185.43 165.83 196.21 165.83Z" id="e1ZsEAhJH1"></path><path d="M172.61 194.89C172.61 194.68 172.61 193.6 172.61 191.66C166.54 191.66 118 191.66 111.93 191.66C111.93 193.6 111.93 194.68 111.93 194.89C111.93 198.46 114.95 201.35 118.67 201.35C128.11 201.35 161.15 201.35 165.87 201.35C169.59 201.35 172.61 198.46 172.61 194.89Z" id="eAXc0G9KI"></path><path d="M172.61 194.89C172.61 194.68 172.61 193.6 172.61 191.66C166.54 191.66 118 191.66 111.93 191.66C111.93 193.6 111.93 194.68 111.93 194.89C111.93 198.46 114.95 201.35 118.67 201.35C128.11 201.35 161.15 201.35 165.87 201.35C169.59 201.35 172.61 198.46 172.61 194.89Z" id="cTNZdXJe5"></path><path d="M179.36 194.89C179.36 202.03 173.32 207.81 165.87 207.81C161.15 207.81 123.39 207.81 118.67 207.81C111.22 207.81 105.18 202.03 105.18 194.89C105.18 194.68 105.18 193.6 105.18 191.66C72.82 191.66 54.84 191.66 51.24 191.66C49.38 191.66 47.87 193.11 47.87 194.89C47.87 195.54 47.87 200.7 47.87 201.35C47.87 210.27 55.41 217.5 64.73 217.5C80.23 217.5 204.3 217.5 219.81 217.5C229.12 217.5 236.67 210.27 236.67 201.35C236.67 200.7 236.67 195.54 236.67 194.89C236.67 193.11 235.16 191.66 233.3 191.66C226.11 191.66 208.13 191.66 179.36 191.66C179.36 193.6 179.36 194.68 179.36 194.89ZM57.98 198.12C59.84 198.12 61.35 199.57 61.35 201.35C61.35 203.13 59.84 204.58 57.98 204.58C56.12 204.58 54.61 203.13 54.61 201.35C54.61 199.57 56.12 198.12 57.98 198.12ZM71.47 198.12C73.33 198.12 74.84 199.57 74.84 201.35C74.84 203.13 73.33 204.58 71.47 204.58C69.61 204.58 68.1 203.13 68.1 201.35C68.1 199.57 69.61 198.12 71.47 198.12ZM81.58 201.35C81.58 199.57 83.09 198.12 84.95 198.12C85.97 198.12 94.06 198.12 95.07 198.12C96.93 198.12 98.44 199.57 98.44 201.35C98.44 203.13 96.93 204.58 95.07 204.58C93.04 204.58 85.97 204.58 84.95 204.58C83.09 204.58 81.58 203.13 81.58 201.35Z" id="afOW0cV7c"></path><path d="M179.36 194.89C179.36 202.03 173.32 207.81 165.87 207.81C161.15 207.81 123.39 207.81 118.67 207.81C111.22 207.81 105.18 202.03 105.18 194.89C105.18 194.68 105.18 193.6 105.18 191.66C72.82 191.66 54.84 191.66 51.24 191.66C49.38 191.66 47.87 193.11 47.87 194.89C47.87 195.54 47.87 200.7 47.87 201.35C47.87 210.27 55.41 217.5 64.73 217.5C80.23 217.5 204.3 217.5 219.81 217.5C229.12 217.5 236.67 210.27 236.67 201.35C236.67 200.7 236.67 195.54 236.67 194.89C236.67 193.11 235.16 191.66 233.3 191.66C226.11 191.66 208.13 191.66 179.36 191.66C179.36 193.6 179.36 194.68 179.36 194.89ZM57.98 198.12C59.84 198.12 61.35 199.57 61.35 201.35C61.35 203.13 59.84 204.58 57.98 204.58C56.12 204.58 54.61 203.13 54.61 201.35C54.61 199.57 56.12 198.12 57.98 198.12ZM71.47 198.12C73.33 198.12 74.84 199.57 74.84 201.35C74.84 203.13 73.33 204.58 71.47 204.58C69.61 204.58 68.1 203.13 68.1 201.35C68.1 199.57 69.61 198.12 71.47 198.12ZM81.58 201.35C81.58 199.57 83.09 198.12 84.95 198.12C85.97 198.12 94.06 198.12 95.07 198.12C96.93 198.12 98.44 199.57 98.44 201.35C98.44 203.13 96.93 204.58 95.07 204.58C93.04 204.58 85.97 204.58 84.95 204.58C83.09 204.58 81.58 203.13 81.58 201.35Z" id="aK4hGaDos"></path></defs><g><g><use xlink:href="#a4QwoFogZi" opacity="1" fill="#150089" fill-opacity="1"></use><g><use xlink:href="#a4QwoFogZi" opacity="1" fill-opacity="0" stroke="#000000" stroke-width="1" stroke-opacity="0"></use></g></g><g><use xlink:href="#b1ojiQmLVK" opacity="1" fill="#150089" fill-opacity="1"></use><g><use xlink:href="#b1ojiQmLVK" opacity="1" fill-opacity="0" stroke="#000000" stroke-width="1" stroke-opacity="0"></use></g></g><g><use xlink:href="#b1qWFNxii" opacity="1" fill="#150089" fill-opacity="1"></use><g><use xlink:href="#b1qWFNxii" opacity="1" fill-opacity="0" stroke="#000000" stroke-width="1" stroke-opacity="0"></use></g></g><g><use xlink:href="#b77MUKUZpD" opacity="1" fill="#150089" fill-opacity="1"></use><g><use xlink:href="#b77MUKUZpD" opacity="1" fill-opacity="0" stroke="#000000" stroke-width="1" stroke-opacity="0"></use></g></g><g><use xlink:href="#a4g7Rhiep8" opacity="1" fill="#150089" fill-opacity="1"></use><g><use xlink:href="#a4g7Rhiep8" opacity="1" fill-opacity="0" stroke="#000000" stroke-width="1" stroke-opacity="0"></use></g></g><g><use xlink:href="#e1ZsEAhJH1" opacity="1" fill="#150089" fill-opacity="1"></use><g><use xlink:href="#e1ZsEAhJH1" opacity="1" fill-opacity="0" stroke="#000000" stroke-width="1" stroke-opacity="0"></use></g></g><g><use xlink:href="#eAXc0G9KI" opacity="1" fill="#150089" fill-opacity="1"></use><g><use xlink:href="#eAXc0G9KI" opacity="1" fill-opacity="0" stroke="#000000" stroke-width="1" stroke-opacity="0"></use></g></g><g><use xlink:href="#cTNZdXJe5" opacity="1" fill="#150089" fill-opacity="1"></use><g><use xlink:href="#cTNZdXJe5" opacity="1" fill-opacity="0" stroke="#000000" stroke-width="1" stroke-opacity="0"></use></g></g><g><use xlink:href="#afOW0cV7c" opacity="1" fill="#150089" fill-opacity="1"></use><g><use xlink:href="#afOW0cV7c" opacity="1" fill-opacity="0" stroke="#000000" stroke-width="1" stroke-opacity="0"></use></g></g><g><use xlink:href="#aK4hGaDos" opacity="1" fill="#150089" fill-opacity="1"></use><g><use xlink:href="#aK4hGaDos" opacity="1" fill-opacity="0" stroke="#000000" stroke-width="1" stroke-opacity="0"></use></g></g></g></svg>