<?xml version="1.0" encoding="UTF-8" standalone="no"?>
<!DOCTYPE svg PUBLIC "-//W3C//DTD SVG 1.1//EN" "http://www.w3.org/Graphics/SVG/1.1/DTD/svg11.dtd">
<svg version="1.1" xmlns="http://www.w3.org/2000/svg" xmlns:xlink="http://www.w3.org/1999/xlink" preserveAspectRatio="xMidYMid meet" viewBox="23 22.999999999999993 468 468" width="50" height="50"><defs><path d="M376 280L360 280C360 347.58 360 385.13 360 392.64C362.62 392.26 365.28 392 368 392C370.72 392 373.38 392.26 376 392.64C376 377.62 376 340.07 376 280Z" id="b1fMJqsNvV"></path><path d="M472 364.69L440 332.69L440 272L424 272L424 339.31L456 371.31C456 384.61 456 391.99 456 393.47C446.71 396.78 440 405.58 440 416C440 429.23 450.77 440 464 440C477.23 440 488 429.23 488 416C488 405.58 481.29 396.78 472 393.47C472 389.63 472 380.04 472 364.69Z" id="f2WHiGESm"></path><path d="M296 332.69L264 364.69C264 381.96 264 391.55 264 393.47C254.71 396.78 248 405.58 248 416C248 429.23 258.77 440 272 440C285.23 440 296 429.23 296 416C296 405.58 289.29 396.78 280 393.47C280 391.99 280 384.61 280 371.31L312 339.31L312 272L296 272L296 332.69Z" id="b4SrSVOsA"></path><path d="M328 448C328 470.06 345.94 488 368 488C390.06 488 408 470.06 408 448C408 425.94 390.06 408 368 408C345.94 408 328 425.94 328 448ZM352 448C352 439.16 359.16 432 368 432C376.84 432 384 439.16 384 448C384 456.84 376.84 464 368 464C359.16 464 352 456.84 352 448Z" id="a1OmhWzQw4"></path><path d="M232 173.83L232 114.16C245.12 109.96 252.41 107.62 253.87 107.15C254.22 106.08 254.66 105.06 255.02 104C232.72 104 54.3 104 32 104C27.59 104 24 107.59 24 112C24 116.8 24 140.8 24 184C162.62 184 239.63 184 255.03 184C254.66 182.94 254.22 181.92 253.87 180.85C250.96 179.91 243.67 177.57 232 173.83ZM72 160C62.4 160 57.07 160 56 160C51.58 160 48 156.42 48 152C48 150.4 48 137.6 48 136C48 131.58 51.58 128 56 128C57.07 128 62.4 128 72 128L72 160ZM104 160L88 160L88 128L104 128L104 160ZM144 152C144 156.42 140.42 160 136 160C134.93 160 129.6 160 120 160L120 128C129.6 128 134.93 128 136 128C140.42 128 144 131.58 144 136C144 139.2 144 148.8 144 152Z" id="ae6HJhd8d"></path><path d="M282.93 248.14L253.86 219.07L263.67 200L27.12 200C27.12 348.8 27.12 431.47 27.12 448C27.12 452.41 30.71 456 35.12 456C48.45 456 115.12 456 235.12 456C235.12 432 235.12 418.67 235.12 416C235.12 402.98 241.46 391.51 251.12 384.21C251.12 382.47 251.12 373.75 251.12 358.06L283.12 326.06L283.12 256L282.93 248.14ZM107.12 216L203.12 216L203.12 232L107.12 232L107.12 216ZM107.12 248L203.12 248L203.12 264L107.12 264L107.12 248ZM203.12 280L203.12 296L187.12 296L187.12 280L203.12 280ZM107.12 280L171.12 280L171.12 296L107.12 296L107.12 280ZM43.12 248C47.92 248 50.59 248 51.12 248C55.53 248 59.12 244.41 59.12 240C59.12 226.77 69.89 216 83.12 216C83.65 216 86.32 216 91.12 216L91.12 232C86.32 232 83.65 232 83.12 232C78.71 232 75.12 235.59 75.12 240C75.12 246.17 72.71 251.74 68.88 256C72.71 260.26 75.12 265.83 75.12 272C75.12 276.41 78.71 280 83.12 280C83.65 280 86.32 280 91.12 280L91.12 296C86.32 296 83.65 296 83.12 296C69.89 296 59.12 285.23 59.12 272C59.12 267.59 55.53 264 51.12 264C50.59 264 47.92 264 43.12 264L43.12 248ZM43.12 312L203.12 312L203.12 328L43.12 328L43.12 312ZM75.12 376L91.12 376L91.12 392L75.12 392L75.12 376ZM171.12 424L75.12 424L75.12 408L171.12 408L171.12 424ZM171.12 392L107.12 392L107.12 376L171.12 376L171.12 392ZM171.12 360L75.12 360L75.12 344L171.12 344L171.12 360ZM235.12 392C230.32 392 227.65 392 227.12 392C222.71 392 219.12 395.59 219.12 400C219.12 413.23 208.35 424 195.12 424C194.59 424 191.92 424 187.12 424L187.12 408C191.92 408 194.59 408 195.12 408C199.53 408 203.12 404.41 203.12 400C203.12 393.83 205.53 388.26 209.36 384C205.52 379.74 203.12 374.17 203.12 368C203.12 363.59 199.53 360 195.12 360C194.59 360 191.92 360 187.12 360L187.12 344C191.92 344 194.59 344 195.12 344C208.35 344 219.12 354.77 219.12 368C219.12 372.41 222.71 376 227.12 376C227.65 376 230.32 376 235.12 376L235.12 392Z" id="ac3emRv8N"></path><path d="M352.2 198.89L368.26 86.89L384.1 89.16L368.04 201.16L352.2 198.89Z" id="b2p9sjwXvk"></path><path d="M337.6 107.2L310 144L337.6 180.8L350.4 171.2L330 144L350.4 116.8L337.6 107.2Z" id="a2hNhQZXri"></path><path d="M385.6 116.8L406 144L385.6 171.2L398.4 180.8L426 144L398.4 107.2L385.6 116.8Z" id="blEqhOkqT"></path><path d="M469.15 119.8C468.45 117.32 468.06 115.94 467.98 115.66C465.75 107.78 462.65 100.25 458.76 93.3C458.62 93.05 457.92 91.8 456.66 89.55L465.7 71.99L440.01 46.3L422.45 55.34C420.2 54.08 418.95 53.38 418.7 53.24C411.75 49.35 404.22 46.24 396.34 44.02C396.06 43.94 394.68 43.55 392.2 42.85L386.17 24L349.84 24L343.8 42.85C341.32 43.55 339.94 43.94 339.66 44.02C331.78 46.25 324.25 49.35 317.3 53.24C317.05 53.38 315.8 54.08 313.55 55.34L295.99 46.3L270.3 71.99L279.34 89.55C278.08 91.8 277.38 93.05 277.24 93.3C273.35 100.25 270.24 107.78 268.02 115.66C267.94 115.94 267.55 117.32 266.85 119.8L248 125.83L248 162.16L266.85 168.2C267.55 170.68 267.94 172.06 268.02 172.34C270.25 180.24 273.35 187.76 277.24 194.7C277.38 194.95 278.08 196.2 279.34 198.45L270.3 216.01L295.99 241.7L313.55 232.66C315.8 233.92 317.05 234.62 317.3 234.76C324.25 238.65 331.78 241.76 339.66 243.98C339.94 244.06 341.32 244.45 343.8 245.15L349.83 264L386.16 264L392.2 245.15C394.68 244.45 396.06 244.06 396.34 243.98C404.22 241.75 411.75 238.65 418.7 234.76C418.95 234.62 420.2 233.92 422.45 232.66L440.01 241.7L465.7 216.01L456.66 198.45C457.92 196.2 458.62 194.95 458.76 194.7C462.65 187.76 465.75 180.23 467.98 172.34C468.06 172.06 468.45 170.68 469.15 168.2L488 162.17L488 125.84L469.15 119.8ZM288 144C288 99.82 323.82 64 368 64C412.18 64 448 99.82 448 144C448 188.18 412.18 224 368 224C323.82 224 288 188.18 288 144Z" id="j3gZRGnOi0"></path></defs><g><g><use xlink:href="#b1fMJqsNvV" opacity="1" fill="#150089" fill-opacity="1"></use><g><use xlink:href="#b1fMJqsNvV" opacity="1" fill-opacity="0" stroke="#000000" stroke-width="1" stroke-opacity="0"></use></g></g><g><use xlink:href="#f2WHiGESm" opacity="1" fill="#150089" fill-opacity="1"></use><g><use xlink:href="#f2WHiGESm" opacity="1" fill-opacity="0" stroke="#000000" stroke-width="1" stroke-opacity="0"></use></g></g><g><use xlink:href="#b4SrSVOsA" opacity="1" fill="#150089" fill-opacity="1"></use><g><use xlink:href="#b4SrSVOsA" opacity="1" fill-opacity="0" stroke="#000000" stroke-width="1" stroke-opacity="0"></use></g></g><g><use xlink:href="#a1OmhWzQw4" opacity="1" fill="#150089" fill-opacity="1"></use><g><use xlink:href="#a1OmhWzQw4" opacity="1" fill-opacity="0" stroke="#000000" stroke-width="1" stroke-opacity="0"></use></g></g><g><use xlink:href="#ae6HJhd8d" opacity="1" fill="#150089" fill-opacity="1"></use><g><use xlink:href="#ae6HJhd8d" opacity="1" fill-opacity="0" stroke="#000000" stroke-width="1" stroke-opacity="0"></use></g></g><g><use xlink:href="#ac3emRv8N" opacity="1" fill="#150089" fill-opacity="1"></use><g><use xlink:href="#ac3emRv8N" opacity="1" fill-opacity="0" stroke="#000000" stroke-width="1" stroke-opacity="0"></use></g></g><g><use xlink:href="#b2p9sjwXvk" opacity="1" fill="#150089" fill-opacity="1"></use><g><use xlink:href="#b2p9sjwXvk" opacity="1" fill-opacity="0" stroke="#000000" stroke-width="1" stroke-opacity="0"></use></g></g><g><use xlink:href="#a2hNhQZXri" opacity="1" fill="#150089" fill-opacity="1"></use><g><use xlink:href="#a2hNhQZXri" opacity="1" fill-opacity="0" stroke="#000000" stroke-width="1" stroke-opacity="0"></use></g></g><g><use xlink:href="#blEqhOkqT" opacity="1" fill="#150089" fill-opacity="1"></use><g><use xlink:href="#blEqhOkqT" opacity="1" fill-opacity="0" stroke="#000000" stroke-width="1" stroke-opacity="0"></use></g></g><g><use xlink:href="#j3gZRGnOi0" opacity="1" fill="#150089" fill-opacity="1"></use><g><use xlink:href="#j3gZRGnOi0" opacity="1" fill-opacity="0" stroke="#000000" stroke-width="1" stroke-opacity="0"></use></g></g></g></svg>