<?xml version="1.0" encoding="UTF-8" standalone="no"?>
<!DOCTYPE svg PUBLIC "-//W3C//DTD SVG 1.1//EN" "http://www.w3.org/Graphics/SVG/1.1/DTD/svg11.dtd">
<svg version="1.1" xmlns="http://www.w3.org/2000/svg" xmlns:xlink="http://www.w3.org/1999/xlink" preserveAspectRatio="xMidYMid meet" viewBox="41.44775886380004 37.389139016556726 166.9820394736112 155.61086098344333" width="42.98" height="39.98"><defs><path d="M90.7 47.48C90.7 48.62 90.7 57.73 90.7 58.87C94.41 60.56 97.47 63.24 99.81 66.98C101.21 69.22 102.22 71.65 102.96 74.11C102.96 72.86 102.96 66.62 102.96 55.37C108.91 55.37 138.67 55.37 192.24 55.37L192.24 122.69L102.96 122.69C101.98 123.13 101.43 123.37 101.32 123.42C103.9 123.6 105.33 123.7 105.61 123.72C109.7 124 115.38 126.1 118.35 129.59C121.53 133.31 123.2 140.95 123.2 146.57C123.2 147.12 123.2 151.58 123.2 152.14C123.2 157.06 121.32 161.39 118.46 164.06C118.24 165.7 116.52 178.78 116.3 180.42C115.71 184.88 118 189.11 121.42 189.88C121.78 189.96 122.14 190 122.49 190C125.49 190 128.15 187.18 128.67 183.2C129.04 180.42 130.87 166.51 134.17 141.49C136.92 141.49 158.96 141.49 161.72 141.49C165.01 166.51 166.85 180.42 167.21 183.2C167.74 187.18 170.39 190 173.4 190C173.75 190 174.11 189.96 174.47 189.88C177.88 189.11 180.17 184.88 179.59 180.42C179.24 177.82 177.54 164.85 174.46 141.48C188.86 141.48 196.85 141.48 198.45 141.48C202.3 141.48 205.43 137.41 205.43 132.39C205.43 123.89 205.43 55.98 205.43 47.49C205.43 42.47 202.3 38.39 198.45 38.39C178.3 38.39 107.75 38.39 97.67 38.39C93.82 38.39 90.7 42.46 90.7 47.48Z" id="e6bRYKbHKJ"></path><path d="M90.7 47.48C90.7 48.62 90.7 57.73 90.7 58.87C94.41 60.56 97.47 63.24 99.81 66.98C101.21 69.22 102.22 71.65 102.96 74.11C102.96 72.86 102.96 66.62 102.96 55.37C108.91 55.37 138.67 55.37 192.24 55.37L192.24 122.69L102.96 122.69C101.98 123.13 101.43 123.37 101.32 123.42C103.9 123.6 105.33 123.7 105.61 123.72C109.7 124 115.38 126.1 118.35 129.59C121.53 133.31 123.2 140.95 123.2 146.57C123.2 147.12 123.2 151.58 123.2 152.14C123.2 157.06 121.32 161.39 118.46 164.06C118.24 165.7 116.52 178.78 116.3 180.42C115.71 184.88 118 189.11 121.42 189.88C121.78 189.96 122.14 190 122.49 190C125.49 190 128.15 187.18 128.67 183.2C129.04 180.42 130.87 166.51 134.17 141.49C136.92 141.49 158.96 141.49 161.72 141.49C165.01 166.51 166.85 180.42 167.21 183.2C167.74 187.18 170.39 190 173.4 190C173.75 190 174.11 189.96 174.47 189.88C177.88 189.11 180.17 184.88 179.59 180.42C179.24 177.82 177.54 164.85 174.46 141.48C188.86 141.48 196.85 141.48 198.45 141.48C202.3 141.48 205.43 137.41 205.43 132.39C205.43 123.89 205.43 55.98 205.43 47.49C205.43 42.47 202.3 38.39 198.45 38.39C178.3 38.39 107.75 38.39 97.67 38.39C93.82 38.39 90.7 42.46 90.7 47.48Z" id="d1UmI8k0gU"></path><path d="M118.32 148.95C118.32 143.94 116.78 138.21 114.81 135.9C112.87 133.62 108.37 131.63 104.57 131.38C103.65 131.31 99.04 131 90.74 130.43C86.19 140.46 83.66 146.03 83.16 147.14C82.4 148.83 81.43 149.76 80.43 149.76C79.43 149.76 78.46 148.81 77.71 147.08C77.22 145.97 74.8 140.4 70.43 130.38C61.89 130.98 57.15 131.31 56.19 131.38C52.38 131.64 47.89 133.62 45.95 135.9C43.98 138.21 42.45 143.94 42.45 148.95C42.45 149.51 42.45 153.97 42.45 154.52C42.45 159.72 45.69 163.94 49.67 163.94C53.77 163.94 74.24 163.94 111.09 163.94C115.91 161.13 118.32 157.99 118.32 154.52C118.32 153.97 118.32 149.51 118.32 148.95Z" id="d3OvRqBBH"></path><path d="M118.32 148.95C118.32 143.94 116.78 138.21 114.81 135.9C112.87 133.62 108.37 131.63 104.57 131.38C103.65 131.31 99.04 131 90.74 130.43C86.19 140.46 83.66 146.03 83.16 147.14C82.4 148.83 81.43 149.76 80.43 149.76C79.43 149.76 78.46 148.81 77.71 147.08C77.22 145.97 74.8 140.4 70.43 130.38C61.89 130.98 57.15 131.31 56.19 131.38C52.38 131.64 47.89 133.62 45.95 135.9C43.98 138.21 42.45 143.94 42.45 148.95C42.45 149.51 42.45 153.97 42.45 154.52C42.45 159.72 45.69 163.94 49.67 163.94C53.77 163.94 74.24 163.94 111.09 163.94C115.91 161.13 118.32 157.99 118.32 154.52C118.32 153.97 118.32 149.51 118.32 148.95Z" id="b5YkF9lWsu"></path><path d="M83.71 138.96C83.53 138.71 82.64 137.47 81.03 135.24L83.06 132.49L80.43 130.47L77.86 132.39L79.82 135.18L77.15 138.67C78.33 142.19 78.98 144.14 79.11 144.53C80.18 145.72 80.94 145.76 81.39 144.64C81.55 144.26 82.32 142.37 83.71 138.96Z" id="b2A2q8Bhhm"></path><path d="M83.71 138.96C83.53 138.71 82.64 137.47 81.03 135.24L83.06 132.49L80.43 130.47L77.86 132.39L79.82 135.18L77.15 138.67C78.33 142.19 78.98 144.14 79.11 144.53C80.18 145.72 80.94 145.76 81.39 144.64C81.55 144.26 82.32 142.37 83.71 138.96Z" id="f5ajKfXkld"></path><path d="M74.41 106.99C74.42 106.99 73.99 100.99 71.35 100.71C68.73 100.42 68.9 105.73 68.29 106.99C68.9 106.99 73.8 106.99 74.41 106.99Z" id="a1KAVwWTee"></path><path d="M74.41 106.99C74.42 106.99 73.99 100.99 71.35 100.71C68.73 100.42 68.9 105.73 68.29 106.99C68.9 106.99 73.8 106.99 74.41 106.99Z" id="b4jUofY4T"></path><path d="M89.79 106.99C89.79 106.99 89.35 100.99 86.72 100.71C84.1 100.42 84.27 105.73 83.66 106.99C84.27 106.99 89.18 106.99 89.79 106.99Z" id="a1C9FZNL0D"></path><path d="M89.79 106.99C89.79 106.99 89.35 100.99 86.72 100.71C84.1 100.42 84.27 105.73 83.66 106.99C84.27 106.99 89.18 106.99 89.79 106.99Z" id="e18mtUbGjm"></path><path d="M69.17 126.69C71.35 126.69 88.87 126.69 91.06 126.69C95.41 126.69 98.94 122.07 98.94 116.41C98.94 114.41 98.94 98.41 98.94 96.42C99.29 96.24 99.48 96.13 99.48 96.13C99.48 96.13 104.52 64.42 79.56 64.44C53.28 64.45 60.07 106.98 60.07 106.98C60.49 106.85 60.88 106.68 61.28 106.5C61.28 108.48 61.28 115.41 61.28 116.41C61.28 122.07 64.82 126.69 69.17 126.69ZM74.25 90.71C81.16 101.14 91.24 99.33 96.31 97.52C96.31 99.41 96.31 114.52 96.31 116.41C96.31 120.19 93.96 123.26 91.06 123.26C88.87 123.26 71.35 123.26 69.16 123.26C66.27 123.26 63.91 120.18 63.91 116.41C63.91 115.64 63.91 111.85 63.91 105.02C63.91 105.02 63.91 105.02 63.91 105.02C69.18 97.66 72.13 92.89 72.76 90.71C72.91 90.71 74.1 90.71 74.25 90.71Z" id="fqml2k2d6"></path><path d="M69.17 126.69C71.35 126.69 88.87 126.69 91.06 126.69C95.41 126.69 98.94 122.07 98.94 116.41C98.94 114.41 98.94 98.41 98.94 96.42C99.29 96.24 99.48 96.13 99.48 96.13C99.48 96.13 104.52 64.42 79.56 64.44C53.28 64.45 60.07 106.98 60.07 106.98C60.49 106.85 60.88 106.68 61.28 106.5C61.28 108.48 61.28 115.41 61.28 116.41C61.28 122.07 64.82 126.69 69.17 126.69ZM74.25 90.71C81.16 101.14 91.24 99.33 96.31 97.52C96.31 99.41 96.31 114.52 96.31 116.41C96.31 120.19 93.96 123.26 91.06 123.26C88.87 123.26 71.35 123.26 69.16 123.26C66.27 123.26 63.91 120.18 63.91 116.41C63.91 115.64 63.91 111.85 63.91 105.02C63.91 105.02 63.91 105.02 63.91 105.02C69.18 97.66 72.13 92.89 72.76 90.71C72.91 90.71 74.1 90.71 74.25 90.71Z" id="a3PcqHG6aU"></path><path d="M79.86 119.25C81.85 119.25 84.29 118.74 87.21 117.23C87.88 116.88 88.21 115.88 87.95 115C87.68 114.13 86.91 113.7 86.24 114.04C78.91 117.84 75.41 114.46 75.24 114.3C74.67 113.71 73.85 113.83 73.4 114.55C72.94 115.29 73.03 116.37 73.59 116.97C73.72 117.1 75.81 119.25 79.86 119.25Z" id="e2gfD4I4ew"></path><path d="M79.86 119.25C81.85 119.25 84.29 118.74 87.21 117.23C87.88 116.88 88.21 115.88 87.95 115C87.68 114.13 86.91 113.7 86.24 114.04C78.91 117.84 75.41 114.46 75.24 114.3C74.67 113.71 73.85 113.83 73.4 114.55C72.94 115.29 73.03 116.37 73.59 116.97C73.72 117.1 75.81 119.25 79.86 119.25Z" id="dVHZDhaWw"></path><path d="M135.98 102.89C136.46 103.67 137.17 104.15 137.93 104.2C138.71 104.26 139.45 103.89 139.99 103.18C141.4 101.34 148.43 92.17 161.08 75.67C167.49 83.28 171.05 87.51 171.76 88.35C172.86 89.66 174.57 89.56 175.57 88.12C176.57 86.69 176.5 84.46 175.4 83.15C174.14 81.66 164.07 69.7 162.81 68.21C161.75 66.95 160.11 67 159.09 68.32C157.71 70.13 150.78 79.17 138.3 95.42C131.89 84.96 128.32 79.15 127.61 77.99C127.11 77.17 126.35 76.69 125.55 76.67C124.72 76.6 123.98 77.11 123.46 77.9C122.11 79.95 111.33 96.35 109.98 98.4C109.01 99.88 109.14 102.09 110.27 103.36C110.78 103.93 111.4 104.21 112.02 104.21C112.78 104.21 113.54 103.8 114.07 102.98C115.58 100.68 119.37 94.92 125.43 85.7C131.76 96.01 135.28 101.74 135.98 102.89Z" id="f4PxYFCyOI"></path><path d="M135.98 102.89C136.46 103.67 137.17 104.15 137.93 104.2C138.71 104.26 139.45 103.89 139.99 103.18C141.4 101.34 148.43 92.17 161.08 75.67C167.49 83.28 171.05 87.51 171.76 88.35C172.86 89.66 174.57 89.56 175.57 88.12C176.57 86.69 176.5 84.46 175.4 83.15C174.14 81.66 164.07 69.7 162.81 68.21C161.75 66.95 160.11 67 159.09 68.32C157.71 70.13 150.78 79.17 138.3 95.42C131.89 84.96 128.32 79.15 127.61 77.99C127.11 77.17 126.35 76.69 125.55 76.67C124.72 76.6 123.98 77.11 123.46 77.9C122.11 79.95 111.33 96.35 109.98 98.4C109.01 99.88 109.14 102.09 110.27 103.36C110.78 103.93 111.4 104.21 112.02 104.21C112.78 104.21 113.54 103.8 114.07 102.98C115.58 100.68 119.37 94.92 125.43 85.7C131.76 96.01 135.28 101.74 135.98 102.89Z" id="d1eET5c8vf"></path></defs><g><g><use xlink:href="#e6bRYKbHKJ" opacity="1" fill="#7170f9" fill-opacity="1"></use><g><use xlink:href="#e6bRYKbHKJ" opacity="1" fill-opacity="0" stroke="#000000" stroke-width="1" stroke-opacity="0"></use></g></g><g><use xlink:href="#d1UmI8k0gU" opacity="1" fill="#7170f9" fill-opacity="1"></use><g><use xlink:href="#d1UmI8k0gU" opacity="1" fill-opacity="0" stroke="#000000" stroke-width="1" stroke-opacity="0"></use></g></g><g><use xlink:href="#d3OvRqBBH" opacity="1" fill="#7170f9" fill-opacity="1"></use><g><use xlink:href="#d3OvRqBBH" opacity="1" fill-opacity="0" stroke="#000000" stroke-width="1" stroke-opacity="0"></use></g></g><g><use xlink:href="#b5YkF9lWsu" opacity="1" fill="#7170f9" fill-opacity="1"></use><g><use xlink:href="#b5YkF9lWsu" opacity="1" fill-opacity="0" stroke="#000000" stroke-width="1" stroke-opacity="0"></use></g></g><g><use xlink:href="#b2A2q8Bhhm" opacity="1" fill="#7170f9" fill-opacity="1"></use><g><use xlink:href="#b2A2q8Bhhm" opacity="1" fill-opacity="0" stroke="#000000" stroke-width="1" stroke-opacity="0"></use></g></g><g><use xlink:href="#f5ajKfXkld" opacity="1" fill="#7170f9" fill-opacity="1"></use><g><use xlink:href="#f5ajKfXkld" opacity="1" fill-opacity="0" stroke="#000000" stroke-width="1" stroke-opacity="0"></use></g></g><g><use xlink:href="#a1KAVwWTee" opacity="1" fill="#7170f9" fill-opacity="1"></use><g><use xlink:href="#a1KAVwWTee" opacity="1" fill-opacity="0" stroke="#000000" stroke-width="1" stroke-opacity="0"></use></g></g><g><use xlink:href="#b4jUofY4T" opacity="1" fill="#7170f9" fill-opacity="1"></use><g><use xlink:href="#b4jUofY4T" opacity="1" fill-opacity="0" stroke="#000000" stroke-width="1" stroke-opacity="0"></use></g></g><g><use xlink:href="#a1C9FZNL0D" opacity="1" fill="#7170f9" fill-opacity="1"></use><g><use xlink:href="#a1C9FZNL0D" opacity="1" fill-opacity="0" stroke="#000000" stroke-width="1" stroke-opacity="0"></use></g></g><g><use xlink:href="#e18mtUbGjm" opacity="1" fill="#7170f9" fill-opacity="1"></use><g><use xlink:href="#e18mtUbGjm" opacity="1" fill-opacity="0" stroke="#000000" stroke-width="1" stroke-opacity="0"></use></g></g><g><use xlink:href="#fqml2k2d6" opacity="1" fill="#7170f9" fill-opacity="1"></use><g><use xlink:href="#fqml2k2d6" opacity="1" fill-opacity="0" stroke="#000000" stroke-width="1" stroke-opacity="0"></use></g></g><g><use xlink:href="#a3PcqHG6aU" opacity="1" fill="#7170f9" fill-opacity="1"></use><g><use xlink:href="#a3PcqHG6aU" opacity="1" fill-opacity="0" stroke="#000000" stroke-width="1" stroke-opacity="0"></use></g></g><g><use xlink:href="#e2gfD4I4ew" opacity="1" fill="#7170f9" fill-opacity="1"></use><g><use xlink:href="#e2gfD4I4ew" opacity="1" fill-opacity="0" stroke="#000000" stroke-width="1" stroke-opacity="0"></use></g></g><g><use xlink:href="#dVHZDhaWw" opacity="1" fill="#7170f9" fill-opacity="1"></use><g><use xlink:href="#dVHZDhaWw" opacity="1" fill-opacity="0" stroke="#000000" stroke-width="1" stroke-opacity="0"></use></g></g><g><use xlink:href="#f4PxYFCyOI" opacity="1" fill="#7170f9" fill-opacity="1"></use><g><use xlink:href="#f4PxYFCyOI" opacity="1" fill-opacity="0" stroke="#000000" stroke-width="1" stroke-opacity="0"></use></g></g><g><use xlink:href="#d1eET5c8vf" opacity="1" fill="#7170f9" fill-opacity="1"></use><g><use xlink:href="#d1eET5c8vf" opacity="1" fill-opacity="0" stroke="#000000" stroke-width="1" stroke-opacity="0"></use></g></g></g></svg>