<?xml version="1.0" encoding="UTF-8" standalone="no"?>
<!DOCTYPE svg PUBLIC "-//W3C//DTD SVG 1.1//EN" "http://www.w3.org/Graphics/SVG/1.1/DTD/svg11.dtd">
<svg version="1.1" xmlns="http://www.w3.org/2000/svg" xmlns:xlink="http://www.w3.org/1999/xlink" preserveAspectRatio="xMidYMid meet" viewBox="46.66891004400276 42.09404746434391 140.17677037955144 146.08801863247484" width="43.18" height="45.05"><defs><path d="M139.91 167.42L91.61 167.42C90.01 172.75 89.13 175.71 88.95 176.3C81.1 176.3 76.73 176.3 75.86 176.3C73.66 176.3 71.87 178.29 71.87 180.74C71.87 183.2 73.66 185.18 75.86 185.18C83.84 185.18 147.67 185.18 155.65 185.18C157.86 185.18 159.64 183.2 159.64 180.74C159.64 178.29 157.86 176.3 155.65 176.3C153.91 176.3 149.55 176.3 142.57 176.3C142.22 175.12 141.33 172.16 139.91 167.42Z" id="gSWZEenpH"></path><path d="M139.91 167.42L91.61 167.42C90.01 172.75 89.13 175.71 88.95 176.3C81.1 176.3 76.73 176.3 75.86 176.3C73.66 176.3 71.87 178.29 71.87 180.74C71.87 183.2 73.66 185.18 75.86 185.18C83.84 185.18 147.67 185.18 155.65 185.18C157.86 185.18 159.64 183.2 159.64 180.74C159.64 178.29 157.86 176.3 155.65 176.3C153.91 176.3 149.55 176.3 142.57 176.3C142.22 175.12 141.33 172.16 139.91 167.42Z" id="ah8La5Gjq"></path><path d="M155.65 78.62C157.86 78.62 159.64 76.62 159.64 74.18C159.64 71.72 157.86 69.73 155.65 69.73C153.45 69.73 151.66 71.72 151.66 74.18C151.66 76.62 153.45 78.62 155.65 78.62Z" id="aJzaJc7z5"></path><path d="M155.65 78.62C157.86 78.62 159.64 76.62 159.64 74.18C159.64 71.72 157.86 69.73 155.65 69.73C153.45 69.73 151.66 71.72 151.66 74.18C151.66 76.62 153.45 78.62 155.65 78.62Z" id="fsHuxuSdI"></path><path d="M47.67 56.41C47.67 61.45 47.67 86.61 47.67 131.9C50.09 131.9 69.45 131.9 71.87 131.9C71.87 123.91 71.87 119.47 71.87 118.58C71.87 116.12 73.66 114.14 75.86 114.14C76.48 114.14 81.41 114.14 82.03 114.14C82.44 112.85 82.91 111.58 83.44 110.33C83.01 109.85 79.52 105.96 79.08 105.48C77.53 103.75 77.53 100.94 79.08 99.2C80.21 97.94 89.24 87.9 90.37 86.64C91.93 84.91 94.45 84.91 96.01 86.64C96.44 87.13 99.93 91.01 100.37 91.5C101.49 90.91 102.63 90.38 103.79 89.92C103.79 89.23 103.79 83.74 103.79 83.06C103.79 80.6 105.57 78.62 107.78 78.62C109.38 78.62 122.14 78.62 123.74 78.62C125.94 78.62 127.73 80.6 127.73 83.06C127.73 83.74 127.73 89.23 127.73 89.92C128.89 90.38 130.03 90.91 131.14 91.5C131.58 91.01 135.07 87.13 135.51 86.64C137.07 84.91 139.59 84.91 141.15 86.64C142.28 87.9 151.3 97.94 152.43 99.2C153.99 100.94 153.99 103.75 152.43 105.48C152 105.96 148.51 109.85 148.07 110.33C148.61 111.58 149.08 112.85 149.49 114.14C150.11 114.14 155.04 114.14 155.65 114.14C157.86 114.14 159.64 116.12 159.64 118.58C159.64 119.47 159.64 123.91 159.64 131.9C162.06 131.9 181.43 131.9 183.85 131.9C183.85 86.61 183.85 61.45 183.85 56.41C183.85 49.07 178.21 43.09 171.61 43.09C149.22 43.09 70.83 43.09 59.64 43.09C53.04 43.09 47.67 49.07 47.67 56.41ZM155.65 60.86C162.25 60.86 167.62 66.83 167.62 74.18C167.62 81.52 162.25 87.5 155.65 87.5C149.06 87.5 143.69 81.52 143.69 74.18C143.69 66.83 149.06 60.86 155.65 60.86Z" id="e1rz2uCOXc"></path><path d="M47.67 56.41C47.67 61.45 47.67 86.61 47.67 131.9C50.09 131.9 69.45 131.9 71.87 131.9C71.87 123.91 71.87 119.47 71.87 118.58C71.87 116.12 73.66 114.14 75.86 114.14C76.48 114.14 81.41 114.14 82.03 114.14C82.44 112.85 82.91 111.58 83.44 110.33C83.01 109.85 79.52 105.96 79.08 105.48C77.53 103.75 77.53 100.94 79.08 99.2C80.21 97.94 89.24 87.9 90.37 86.64C91.93 84.91 94.45 84.91 96.01 86.64C96.44 87.13 99.93 91.01 100.37 91.5C101.49 90.91 102.63 90.38 103.79 89.92C103.79 89.23 103.79 83.74 103.79 83.06C103.79 80.6 105.57 78.62 107.78 78.62C109.38 78.62 122.14 78.62 123.74 78.62C125.94 78.62 127.73 80.6 127.73 83.06C127.73 83.74 127.73 89.23 127.73 89.92C128.89 90.38 130.03 90.91 131.14 91.5C131.58 91.01 135.07 87.13 135.51 86.64C137.07 84.91 139.59 84.91 141.15 86.64C142.28 87.9 151.3 97.94 152.43 99.2C153.99 100.94 153.99 103.75 152.43 105.48C152 105.96 148.51 109.85 148.07 110.33C148.61 111.58 149.08 112.85 149.49 114.14C150.11 114.14 155.04 114.14 155.65 114.14C157.86 114.14 159.64 116.12 159.64 118.58C159.64 119.47 159.64 123.91 159.64 131.9C162.06 131.9 181.43 131.9 183.85 131.9C183.85 86.61 183.85 61.45 183.85 56.41C183.85 49.07 178.21 43.09 171.61 43.09C149.22 43.09 70.83 43.09 59.64 43.09C53.04 43.09 47.67 49.07 47.67 56.41ZM155.65 60.86C162.25 60.86 167.62 66.83 167.62 74.18C167.62 81.52 162.25 87.5 155.65 87.5C149.06 87.5 143.69 81.52 143.69 74.18C143.69 66.83 149.06 60.86 155.65 60.86Z" id="b2ZdrdI7tr"></path><path d="M126.95 131.9C127.41 130.47 127.73 128.99 127.73 127.46C127.73 120.11 122.36 114.14 115.76 114.14C109.16 114.14 103.79 120.11 103.79 127.46C103.79 128.99 104.11 130.47 104.56 131.9C106.8 131.9 124.71 131.9 126.95 131.9Z" id="cJzVmybIc"></path><path d="M126.95 131.9C127.41 130.47 127.73 128.99 127.73 127.46C127.73 120.11 122.36 114.14 115.76 114.14C109.16 114.14 103.79 120.11 103.79 127.46C103.79 128.99 104.11 130.47 104.56 131.9C106.8 131.9 124.71 131.9 126.95 131.9Z" id="b1jLnIujZS"></path><path d="M79.85 123.02C79.85 123.91 79.85 131.01 79.85 131.9C89.74 131.9 95.23 131.9 96.33 131.9C96.07 130.44 95.81 128.97 95.81 127.46C95.81 115.22 104.76 105.26 115.76 105.26C126.76 105.26 135.71 115.22 135.71 127.46C135.71 128.97 135.45 130.44 135.18 131.9C136.28 131.9 141.77 131.9 151.66 131.9C151.66 131.01 151.66 123.91 151.66 123.02C148.59 123.02 146.88 123.02 146.55 123.02C144.72 123.02 143.13 121.65 142.68 119.69C142.04 116.94 141.05 114.27 139.73 111.78C138.8 110.03 139.06 107.81 140.34 106.38C140.58 106.11 141.79 104.77 143.97 102.34C143.41 101.71 138.89 96.69 138.33 96.06C136.15 98.48 134.94 99.83 134.7 100.1C133.41 101.54 131.41 101.82 129.85 100.78C127.6 99.31 125.22 98.2 122.74 97.5C120.98 96.99 119.75 95.22 119.75 93.19C119.75 92.81 119.75 90.92 119.75 87.5C118.95 87.5 112.57 87.5 111.77 87.5C111.77 90.92 111.77 92.81 111.77 93.19C111.77 95.22 110.54 96.99 108.78 97.5C106.3 98.2 103.91 99.31 101.67 100.78C100.11 101.82 98.11 101.54 96.82 100.1C96.58 99.83 95.37 98.48 93.19 96.06C92.63 96.69 88.11 101.71 87.55 102.34C89.72 104.77 90.93 106.11 91.17 106.38C92.46 107.81 92.71 110.03 91.79 111.78C90.46 114.27 89.47 116.94 88.84 119.69C88.38 121.65 86.79 123.02 84.97 123.02C84.63 123.02 82.92 123.02 79.85 123.02Z" id="c3kvAXgIP"></path><path d="M78.19 123.32C78.19 124.21 78.19 131.31 78.19 132.2C88.08 132.2 93.57 132.2 94.67 132.2C94.4 130.74 94.14 129.27 94.14 127.76C94.14 115.52 103.09 105.56 114.09 105.56C125.09 105.56 134.04 115.52 134.04 127.76C134.04 129.27 133.78 130.74 133.52 132.2C134.61 132.2 140.11 132.2 150 132.2C150 131.31 150 124.21 150 123.32C146.93 123.32 145.22 123.32 144.88 123.32C143.06 123.32 141.47 121.95 141.01 119.99C140.38 117.24 139.39 114.57 138.06 112.08C137.14 110.34 137.39 108.12 138.68 106.68C138.92 106.41 140.13 105.07 142.31 102.64C141.74 102.01 137.23 96.99 136.66 96.36C134.48 98.79 133.27 100.14 133.03 100.4C131.75 101.84 129.75 102.13 128.18 101.08C125.94 99.62 123.55 98.51 121.07 97.8C119.31 97.29 118.08 95.52 118.08 93.5C118.08 93.12 118.08 91.22 118.08 87.8C117.28 87.8 110.9 87.8 110.1 87.8C110.1 91.22 110.1 93.12 110.1 93.5C110.1 95.52 108.87 97.29 107.11 97.8C104.63 98.51 102.24 99.62 100 101.08C98.45 102.13 96.44 101.84 95.15 100.4C94.91 100.14 93.7 98.79 91.52 96.36C90.96 96.99 86.45 102.01 85.88 102.64C88.06 105.07 89.27 106.41 89.51 106.68C90.79 108.12 91.05 110.34 90.12 112.08C88.8 114.57 87.81 117.24 87.17 119.99C86.72 121.95 85.13 123.32 83.3 123.32C82.96 123.32 81.26 123.32 78.19 123.32Z" id="a2gIx0tvka"></path><path d="M59.64 158.54C70.83 158.54 160.41 158.54 171.61 158.54C178.21 158.54 183.85 152.56 183.85 145.22C183.85 144.92 183.85 143.45 183.85 140.78C170.23 140.78 61.29 140.78 47.67 140.78C47.67 143.15 47.67 144.63 47.67 145.22C47.67 152.56 53.04 158.54 59.64 158.54Z" id="b5BA8WKX3k"></path><path d="M59.64 158.54C70.83 158.54 160.41 158.54 171.61 158.54C178.21 158.54 183.85 152.56 183.85 145.22C183.85 144.92 183.85 143.45 183.85 140.78C170.23 140.78 61.29 140.78 47.67 140.78C47.67 143.15 47.67 144.63 47.67 145.22C47.67 152.56 53.04 158.54 59.64 158.54Z" id="c2wADvAqP"></path></defs><g><g><use xlink:href="#gSWZEenpH" opacity="1" fill="#0b0d48" fill-opacity="1"></use><g><use xlink:href="#gSWZEenpH" opacity="1" fill-opacity="0" stroke="#000000" stroke-width="1" stroke-opacity="0"></use></g></g><g><use xlink:href="#ah8La5Gjq" opacity="1" fill="#150089" fill-opacity="1"></use><g><use xlink:href="#ah8La5Gjq" opacity="1" fill-opacity="0" stroke="#000000" stroke-width="1" stroke-opacity="0"></use></g></g><g><use xlink:href="#aJzaJc7z5" opacity="1" fill="#0b0d48" fill-opacity="1"></use><g><use xlink:href="#aJzaJc7z5" opacity="1" fill-opacity="0" stroke="#000000" stroke-width="1" stroke-opacity="0"></use></g></g><g><use xlink:href="#fsHuxuSdI" opacity="1" fill="#150089" fill-opacity="1"></use><g><use xlink:href="#fsHuxuSdI" opacity="1" fill-opacity="0" stroke="#000000" stroke-width="1" stroke-opacity="0"></use></g></g><g><use xlink:href="#e1rz2uCOXc" opacity="1" fill="#0b0d48" fill-opacity="1"></use><g><use xlink:href="#e1rz2uCOXc" opacity="1" fill-opacity="0" stroke="#000000" stroke-width="1" stroke-opacity="0"></use></g></g><g><use xlink:href="#b2ZdrdI7tr" opacity="1" fill="#150089" fill-opacity="1"></use><g><use xlink:href="#b2ZdrdI7tr" opacity="1" fill-opacity="0" stroke="#000000" stroke-width="1" stroke-opacity="0"></use></g></g><g><use xlink:href="#cJzVmybIc" opacity="1" fill="#0b0d48" fill-opacity="1"></use><g><use xlink:href="#cJzVmybIc" opacity="1" fill-opacity="0" stroke="#000000" stroke-width="1" stroke-opacity="0"></use></g></g><g><use xlink:href="#b1jLnIujZS" opacity="1" fill="#150089" fill-opacity="1"></use><g><use xlink:href="#b1jLnIujZS" opacity="1" fill-opacity="0" stroke="#000000" stroke-width="1" stroke-opacity="0"></use></g></g><g><use xlink:href="#c3kvAXgIP" opacity="1" fill="#0b0d48" fill-opacity="1"></use><g><use xlink:href="#c3kvAXgIP" opacity="1" fill-opacity="0" stroke="#000000" stroke-width="1" stroke-opacity="0"></use></g></g><g><use xlink:href="#a2gIx0tvka" opacity="1" fill="#150089" fill-opacity="1"></use><g><use xlink:href="#a2gIx0tvka" opacity="1" fill-opacity="0" stroke="#000000" stroke-width="1" stroke-opacity="0"></use></g></g><g><use xlink:href="#b5BA8WKX3k" opacity="1" fill="#0b0d48" fill-opacity="1"></use><g><use xlink:href="#b5BA8WKX3k" opacity="1" fill-opacity="0" stroke="#000000" stroke-width="1" stroke-opacity="0"></use></g></g><g><use xlink:href="#c2wADvAqP" opacity="1" fill="#150089" fill-opacity="1"></use><g><use xlink:href="#c2wADvAqP" opacity="1" fill-opacity="0" stroke="#000000" stroke-width="1" stroke-opacity="0"></use></g></g></g></svg>