<?xml version="1.0" encoding="UTF-8" standalone="no"?>
<!DOCTYPE svg PUBLIC "-//W3C//DTD SVG 1.1//EN" "http://www.w3.org/Graphics/SVG/1.1/DTD/svg11.dtd">
<svg version="1.1" xmlns="http://www.w3.org/2000/svg" xmlns:xlink="http://www.w3.org/1999/xlink" preserveAspectRatio="xMidYMid meet" viewBox="39 24.068310802613638 166.61126036634624 185.9654384336518" width="43.61" height="48.8"><defs><path d="M165.01 187.36C153.03 182.36 145.94 170.1 146.47 147.2C152.78 147.59 158.96 146.03 164.95 140.71C164.95 140.71 164.95 140.71 164.95 140.71C173.73 145.63 179.9 147.9 183.49 147.53C184.43 169.22 177.42 182.03 165.01 187.36ZM117.67 57.68C104.9 57.85 91.39 59.12 80.26 61.74C80.26 61.73 80.25 61.7 80.25 61.69C70.55 9.44 163.45 16.91 150.62 60.07C150.62 60.07 150.62 60.07 150.62 60.07C150.6 60.16 150.59 60.2 150.59 60.21C142.29 58.44 130.31 57.52 117.67 57.68ZM202.61 164.03C202.61 175.91 198.4 186.66 191.6 194.44C184.8 202.22 175.39 207.03 165.01 207.03C154.62 207.03 145.23 202.22 138.42 194.44C135.18 190.73 132.52 186.34 130.64 181.48C124.6 181.48 94.39 181.48 40 181.48C42.79 169.28 44.33 162.5 44.64 161.14C54.12 113.52 76.91 132.46 96.66 116.62C96.96 116.32 97.25 116.02 97.54 115.7C97.57 115.2 97.76 111.25 97.78 110.75C96.79 109.77 95.84 108.69 94.97 107.5C91.98 103.47 90.74 99.23 89.09 93.63C88.9 92.92 88.66 92.22 88.46 91.57C86.43 91.57 84.67 89.62 83.42 86.85C82.47 84.67 81.81 82.07 81.57 79.57C81.33 77.01 81.52 74.62 82.32 73.11C82.22 72.53 81.37 67.92 81.27 67.34C92.07 64.8 105.23 63.57 117.7 63.4C129.85 63.24 141.26 64.08 149.12 65.7C148.54 68.16 148.11 70.46 148.19 71.53C149.29 71.64 150.1 72.35 150.61 73.44C151.28 74.8 151.47 76.81 151.28 78.98C151.13 81.04 150.61 83.38 149.94 85.44C148.71 89.14 146.66 92.13 144.33 92.41C144.04 93.39 143.81 94.36 143.57 95.34C142.38 99.96 141.43 103.61 138.97 107.13C137.87 108.77 136.58 110.23 135.26 111.48C135.28 111.92 135.48 115.44 135.5 115.88C136.86 118.01 138.36 119.69 140.05 120.92C143.23 122.83 147.15 123.46 151.37 123.96C155.62 122.06 160.21 121.03 165.01 121.03C165.01 121.03 165.01 121.03 165.01 121.03C178.2 124.24 187.07 128.43 191.6 133.62C198.4 141.4 202.61 152.16 202.61 164.03ZM142.67 138.49C136.95 145.03 133.42 154.07 133.42 164.05C133.42 174.02 136.95 183.06 142.67 189.6C148.39 196.14 156.29 200.18 165.01 200.18C173.73 200.18 181.64 196.14 187.35 189.6C193.07 183.06 196.6 174.02 196.6 164.05C196.61 154.07 193.07 145.03 187.35 138.49C187.35 138.49 187.35 138.49 187.35 138.49C178.27 131.44 170.83 127.92 165.01 127.92C156.29 127.92 148.39 131.96 142.67 138.49ZM126.92 44.92C126.92 45.45 126.92 49.69 126.92 50.22C126.92 50.77 126.54 51.2 126.06 51.2C124.06 51.2 107.99 51.2 105.99 51.2C105.51 51.2 105.13 50.77 105.13 50.22C105.13 49.69 105.13 45.45 105.13 44.92C105.13 44.38 105.51 43.94 105.99 43.94C105.99 43.94 105.99 43.94 105.99 43.94C118.03 43.94 124.72 43.94 126.06 43.94C126.54 43.94 126.92 44.38 126.92 44.92ZM101.02 112.72C100.63 138.48 132.84 140.02 132.27 113.2C132.27 113.2 132.27 113.2 132.27 113.2C126.51 117.43 121.32 119.48 116.69 119.35C109.94 119.23 106.41 116.62 101.02 112.72ZM142.5 89.82C144.06 90.15 145.64 87.53 146.73 84.38C147.36 82.48 147.83 80.42 147.97 78.57C148.11 76.83 147.97 75.32 147.54 74.38C147.12 73.48 145.94 74 145.07 73.12C140.57 86.77 101.31 92.95 85.25 74.15C84.68 75.18 84.59 77.03 84.77 79.1C85.01 81.28 85.58 83.67 86.44 85.56C87.43 87.79 88.72 89.32 90 88.94C90.53 88.77 91.1 89.1 91.28 89.7C91.67 90.89 91.9 91.82 92.18 92.74C100.52 120.71 132.15 122.91 140.32 94.5C140.32 94.5 140.32 94.5 140.32 94.5C140.73 92.94 141.06 91.69 141.31 90.74C141.45 90.14 141.97 89.71 142.5 89.82ZM89.79 151.8C89.79 152.33 89.79 156.57 89.79 157.1C89.79 157.64 89.4 158.08 88.93 158.08C86.92 158.08 70.86 158.08 68.85 158.08C68.38 158.08 67.99 157.64 67.99 157.1C67.99 156.57 67.99 152.33 67.99 151.8C67.99 151.26 68.38 150.82 68.85 150.82C68.85 150.82 68.85 150.82 68.85 150.82C80.9 150.82 87.59 150.82 88.93 150.82C89.4 150.82 89.79 151.26 89.79 151.8ZM165.02 176.93C158.41 174.17 154.49 167.39 154.78 154.75C158.26 154.95 161.68 154.1 164.99 151.17C164.99 151.17 164.99 151.17 164.99 151.17C169.84 153.89 173.25 155.14 175.23 154.93C175.75 166.91 171.88 173.98 165.02 176.93Z" id="a1XrcFRg"></path><path d="M165.01 187.36C153.03 182.36 145.94 170.1 146.47 147.2C152.78 147.59 158.96 146.03 164.95 140.71C164.95 140.71 164.95 140.71 164.95 140.71C173.73 145.63 179.9 147.9 183.49 147.53C184.43 169.22 177.42 182.03 165.01 187.36ZM117.67 57.68C104.9 57.85 91.39 59.12 80.26 61.74C80.26 61.73 80.25 61.7 80.25 61.69C70.55 9.44 163.45 16.91 150.62 60.07C150.62 60.07 150.62 60.07 150.62 60.07C150.6 60.16 150.59 60.2 150.59 60.21C142.29 58.44 130.31 57.52 117.67 57.68ZM202.61 164.03C202.61 175.91 198.4 186.66 191.6 194.44C184.8 202.22 175.39 207.03 165.01 207.03C154.62 207.03 145.23 202.22 138.42 194.44C135.18 190.73 132.52 186.34 130.64 181.48C124.6 181.48 94.39 181.48 40 181.48C42.79 169.28 44.33 162.5 44.64 161.14C54.12 113.52 76.91 132.46 96.66 116.62C96.96 116.32 97.25 116.02 97.54 115.7C97.57 115.2 97.76 111.25 97.78 110.75C96.79 109.77 95.84 108.69 94.97 107.5C91.98 103.47 90.74 99.23 89.09 93.63C88.9 92.92 88.66 92.22 88.46 91.57C86.43 91.57 84.67 89.62 83.42 86.85C82.47 84.67 81.81 82.07 81.57 79.57C81.33 77.01 81.52 74.62 82.32 73.11C82.22 72.53 81.37 67.92 81.27 67.34C92.07 64.8 105.23 63.57 117.7 63.4C129.85 63.24 141.26 64.08 149.12 65.7C148.54 68.16 148.11 70.46 148.19 71.53C149.29 71.64 150.1 72.35 150.61 73.44C151.28 74.8 151.47 76.81 151.28 78.98C151.13 81.04 150.61 83.38 149.94 85.44C148.71 89.14 146.66 92.13 144.33 92.41C144.04 93.39 143.81 94.36 143.57 95.34C142.38 99.96 141.43 103.61 138.97 107.13C137.87 108.77 136.58 110.23 135.26 111.48C135.28 111.92 135.48 115.44 135.5 115.88C136.86 118.01 138.36 119.69 140.05 120.92C143.23 122.83 147.15 123.46 151.37 123.96C155.62 122.06 160.21 121.03 165.01 121.03C165.01 121.03 165.01 121.03 165.01 121.03C178.2 124.24 187.07 128.43 191.6 133.62C198.4 141.4 202.61 152.16 202.61 164.03ZM142.67 138.49C136.95 145.03 133.42 154.07 133.42 164.05C133.42 174.02 136.95 183.06 142.67 189.6C148.39 196.14 156.29 200.18 165.01 200.18C173.73 200.18 181.64 196.14 187.35 189.6C193.07 183.06 196.6 174.02 196.6 164.05C196.61 154.07 193.07 145.03 187.35 138.49C187.35 138.49 187.35 138.49 187.35 138.49C178.27 131.44 170.83 127.92 165.01 127.92C156.29 127.92 148.39 131.96 142.67 138.49ZM126.92 44.92C126.92 45.45 126.92 49.69 126.92 50.22C126.92 50.77 126.54 51.2 126.06 51.2C124.06 51.2 107.99 51.2 105.99 51.2C105.51 51.2 105.13 50.77 105.13 50.22C105.13 49.69 105.13 45.45 105.13 44.92C105.13 44.38 105.51 43.94 105.99 43.94C105.99 43.94 105.99 43.94 105.99 43.94C118.03 43.94 124.72 43.94 126.06 43.94C126.54 43.94 126.92 44.38 126.92 44.92ZM101.02 112.72C100.63 138.48 132.84 140.02 132.27 113.2C132.27 113.2 132.27 113.2 132.27 113.2C126.51 117.43 121.32 119.48 116.69 119.35C109.94 119.23 106.41 116.62 101.02 112.72ZM142.5 89.82C144.06 90.15 145.64 87.53 146.73 84.38C147.36 82.48 147.83 80.42 147.97 78.57C148.11 76.83 147.97 75.32 147.54 74.38C147.12 73.48 145.94 74 145.07 73.12C140.57 86.77 101.31 92.95 85.25 74.15C84.68 75.18 84.59 77.03 84.77 79.1C85.01 81.28 85.58 83.67 86.44 85.56C87.43 87.79 88.72 89.32 90 88.94C90.53 88.77 91.1 89.1 91.28 89.7C91.67 90.89 91.9 91.82 92.18 92.74C100.52 120.71 132.15 122.91 140.32 94.5C140.32 94.5 140.32 94.5 140.32 94.5C140.73 92.94 141.06 91.69 141.31 90.74C141.45 90.14 141.97 89.71 142.5 89.82ZM89.79 151.8C89.79 152.33 89.79 156.57 89.79 157.1C89.79 157.64 89.4 158.08 88.93 158.08C86.92 158.08 70.86 158.08 68.85 158.08C68.38 158.08 67.99 157.64 67.99 157.1C67.99 156.57 67.99 152.33 67.99 151.8C67.99 151.26 68.38 150.82 68.85 150.82C68.85 150.82 68.85 150.82 68.85 150.82C80.9 150.82 87.59 150.82 88.93 150.82C89.4 150.82 89.79 151.26 89.79 151.8ZM165.02 176.93C158.41 174.17 154.49 167.39 154.78 154.75C158.26 154.95 161.68 154.1 164.99 151.17C164.99 151.17 164.99 151.17 164.99 151.17C169.84 153.89 173.25 155.14 175.23 154.93C175.75 166.91 171.88 173.98 165.02 176.93Z" id="cakm8EQhH"></path></defs><g><g><use xlink:href="#a1XrcFRg" opacity="1" fill="#0200c5" fill-opacity="1"></use><g><use xlink:href="#a1XrcFRg" opacity="1" fill-opacity="0" stroke="#000000" stroke-width="1" stroke-opacity="0"></use></g></g><g><use xlink:href="#cakm8EQhH" opacity="1" fill="#7170f9" fill-opacity="1"></use><g><use xlink:href="#cakm8EQhH" opacity="1" fill-opacity="0" stroke="#000000" stroke-width="1" stroke-opacity="0"></use></g></g></g></svg>