<?xml version="1.0" encoding="UTF-8" standalone="no"?>
<!DOCTYPE svg PUBLIC "-//W3C//DTD SVG 1.1//EN" "http://www.w3.org/Graphics/SVG/1.1/DTD/svg11.dtd">
<svg version="1.1" xmlns="http://www.w3.org/2000/svg" xmlns:xlink="http://www.w3.org/1999/xlink" preserveAspectRatio="xMidYMid meet" viewBox="-0.8788788533681284 -0.8849529032784194 45.52855794323927 44.541391494046636" width="43.53" height="42.5"><defs><path d="M28.25 35.59L13.52 35.59C13.03 37.11 12.76 37.95 12.71 38.12C10.31 38.12 8.99 38.12 8.72 38.12C8.05 38.12 7.5 38.69 7.5 39.39C7.5 40.09 8.05 40.66 8.72 40.66C11.15 40.66 30.62 40.66 33.05 40.66C33.72 40.66 34.27 40.09 34.27 39.39C34.27 38.69 33.72 38.12 33.05 38.12C32.52 38.12 31.19 38.12 29.06 38.12C28.95 37.78 28.68 36.94 28.25 35.59Z" id="fuNAgvLAM"></path><path d="M28.25 35.59L13.52 35.59C13.03 37.11 12.76 37.95 12.71 38.12C10.31 38.12 8.99 38.12 8.72 38.12C8.05 38.12 7.5 38.69 7.5 39.39C7.5 40.09 8.05 40.66 8.72 40.66C11.15 40.66 30.62 40.66 33.05 40.66C33.72 40.66 34.27 40.09 34.27 39.39C34.27 38.69 33.72 38.12 33.05 38.12C32.52 38.12 31.19 38.12 29.06 38.12C28.95 37.78 28.68 36.94 28.25 35.59Z" id="e2GShHSI9S"></path><path d="M12.37 12.78L12.37 15.32L7.5 15.32L7.5 12.78L12.37 12.78Z" id="a2jaTcAQs"></path><path d="M12.37 12.78L12.37 15.32L7.5 15.32L7.5 12.78L12.37 12.78Z" id="a4T1yHuPG"></path><path d="M12.37 7.72L12.37 10.25L7.5 10.25L7.5 7.72L12.37 7.72Z" id="b6w29jPS8k"></path><path d="M12.37 7.72L12.37 10.25L7.5 10.25L7.5 7.72L12.37 7.72Z" id="acqd0Yt5d"></path><path d="M12.37 17.85L12.37 20.39L7.5 20.39L7.5 17.85L12.37 17.85Z" id="dybxgAaFr"></path><path d="M12.37 17.85L12.37 20.39L7.5 20.39L7.5 17.85L12.37 17.85Z" id="b25u56ImLr"></path><path d="M33.05 12.78C33.72 12.78 34.27 12.22 34.27 11.52C34.27 10.82 33.72 10.25 33.05 10.25C32.38 10.25 31.84 10.82 31.84 11.52C31.84 12.22 32.38 12.78 33.05 12.78Z" id="bABWDYtHM"></path><path d="M33.05 12.78C33.72 12.78 34.27 12.22 34.27 11.52C34.27 10.82 33.72 10.25 33.05 10.25C32.38 10.25 31.84 10.82 31.84 11.52C31.84 12.22 32.38 12.78 33.05 12.78Z" id="b6k98Kk7v"></path><path d="M38 0.12C34.58 0.12 7.19 0.12 3.77 0.12C1.76 0.12 0.12 1.82 0.12 3.91C0.12 5.35 0.12 12.53 0.12 25.45C4.27 25.45 37.5 25.45 41.65 25.45C41.65 13.97 41.65 6.79 41.65 3.91C41.65 1.82 40.01 0.12 38 0.12ZM28.19 7.72C27.51 7.72 26.97 7.15 26.97 6.45C26.97 5.75 27.51 5.18 28.19 5.18C28.86 5.18 29.4 5.75 29.4 6.45C29.4 7.15 28.86 7.72 28.19 7.72ZM23.32 7.72C22.65 7.72 22.1 7.15 22.1 6.45C22.1 5.75 22.65 5.18 23.32 5.18C23.99 5.18 24.54 5.75 24.54 6.45C24.54 7.15 23.99 7.72 23.32 7.72ZM13.59 22.92C12.86 22.92 7.02 22.92 6.29 22.92C5.61 22.92 5.07 22.35 5.07 21.65C5.07 20.13 5.07 7.97 5.07 6.45C5.07 5.75 5.61 5.18 6.29 5.18C7.02 5.18 12.86 5.18 13.59 5.18C14.26 5.18 14.8 5.75 14.8 6.45C14.8 9.49 14.8 18.61 14.8 21.65C14.8 22.35 14.26 22.92 13.59 22.92ZM18.45 7.72C17.78 7.72 17.24 7.15 17.24 6.45C17.24 5.75 17.78 5.18 18.45 5.18C19.12 5.18 19.67 5.75 19.67 6.45C19.67 7.15 19.12 7.72 18.45 7.72ZM30.62 20.91C29.67 21.89 29.15 22.44 29.05 22.55C28.79 22.82 28.44 22.95 28.07 22.91C27.7 22.88 27.37 22.67 27.17 22.35C26.92 21.95 25.63 19.95 23.32 16.33C21.01 19.95 19.72 21.95 19.46 22.35C19.1 22.93 18.35 23.1 17.78 22.71C17.22 22.32 17.07 21.53 17.44 20.95C17.93 20.19 21.82 14.11 22.31 13.35C22.76 12.64 23.88 12.64 24.33 13.35C24.6 13.77 25.95 15.87 28.37 19.66C29.2 18.8 29.67 18.32 29.76 18.22C30.23 17.73 31 17.73 31.48 18.22C31.72 18.48 33.67 20.5 33.91 20.76C34.39 21.25 34.39 22.05 33.91 22.55C33.44 23.04 32.67 23.04 32.19 22.55C32.09 22.44 31.56 21.89 30.62 20.91ZM33.05 7.72C35.06 7.72 36.7 9.42 36.7 11.52C36.7 13.61 35.06 15.32 33.05 15.32C31.04 15.32 29.4 13.61 29.4 11.52C29.4 9.42 31.04 7.72 33.05 7.72Z" id="dihE7JnP"></path><path d="M38 0.12C34.58 0.12 7.19 0.12 3.77 0.12C1.76 0.12 0.12 1.82 0.12 3.91C0.12 5.35 0.12 12.53 0.12 25.45C4.27 25.45 37.5 25.45 41.65 25.45C41.65 13.97 41.65 6.79 41.65 3.91C41.65 1.82 40.01 0.12 38 0.12ZM28.19 7.72C27.51 7.72 26.97 7.15 26.97 6.45C26.97 5.75 27.51 5.18 28.19 5.18C28.86 5.18 29.4 5.75 29.4 6.45C29.4 7.15 28.86 7.72 28.19 7.72ZM23.32 7.72C22.65 7.72 22.1 7.15 22.1 6.45C22.1 5.75 22.65 5.18 23.32 5.18C23.99 5.18 24.54 5.75 24.54 6.45C24.54 7.15 23.99 7.72 23.32 7.72ZM13.59 22.92C12.86 22.92 7.02 22.92 6.29 22.92C5.61 22.92 5.07 22.35 5.07 21.65C5.07 20.13 5.07 7.97 5.07 6.45C5.07 5.75 5.61 5.18 6.29 5.18C7.02 5.18 12.86 5.18 13.59 5.18C14.26 5.18 14.8 5.75 14.8 6.45C14.8 9.49 14.8 18.61 14.8 21.65C14.8 22.35 14.26 22.92 13.59 22.92ZM18.45 7.72C17.78 7.72 17.24 7.15 17.24 6.45C17.24 5.75 17.78 5.18 18.45 5.18C19.12 5.18 19.67 5.75 19.67 6.45C19.67 7.15 19.12 7.72 18.45 7.72ZM30.62 20.91C29.67 21.89 29.15 22.44 29.05 22.55C28.79 22.82 28.44 22.95 28.07 22.91C27.7 22.88 27.37 22.67 27.17 22.35C26.92 21.95 25.63 19.95 23.32 16.33C21.01 19.95 19.72 21.95 19.46 22.35C19.1 22.93 18.35 23.1 17.78 22.71C17.22 22.32 17.07 21.53 17.44 20.95C17.93 20.19 21.82 14.11 22.31 13.35C22.76 12.64 23.88 12.64 24.33 13.35C24.6 13.77 25.95 15.87 28.37 19.66C29.2 18.8 29.67 18.32 29.76 18.22C30.23 17.73 31 17.73 31.48 18.22C31.72 18.48 33.67 20.5 33.91 20.76C34.39 21.25 34.39 22.05 33.91 22.55C33.44 23.04 32.67 23.04 32.19 22.55C32.09 22.44 31.56 21.89 30.62 20.91ZM33.05 7.72C35.06 7.72 36.7 9.42 36.7 11.52C36.7 13.61 35.06 15.32 33.05 15.32C31.04 15.32 29.4 13.61 29.4 11.52C29.4 9.42 31.04 7.72 33.05 7.72Z" id="acV5jEGCx"></path><path d="M41.65 29.25C41.65 29.17 41.65 28.75 41.65 27.99C37.5 27.99 4.27 27.99 0.12 27.99C0.12 28.75 0.12 29.17 0.12 29.25C0.12 31.35 1.76 33.05 3.77 33.05C10.62 33.05 34.58 33.05 38 33.05C40.01 33.05 41.65 31.35 41.65 29.25Z" id="acAE5ttbj"></path><path d="M41.65 29.25C41.65 29.17 41.65 28.75 41.65 27.99C37.5 27.99 4.27 27.99 0.12 27.99C0.12 28.75 0.12 29.17 0.12 29.25C0.12 31.35 1.76 33.05 3.77 33.05C10.62 33.05 34.58 33.05 38 33.05C40.01 33.05 41.65 31.35 41.65 29.25Z" id="a3Y9rPkv4q"></path></defs><g><g><use xlink:href="#fuNAgvLAM" opacity="1" fill="#7170f9" fill-opacity="1"></use><g><use xlink:href="#fuNAgvLAM" opacity="1" fill-opacity="0" stroke="#000000" stroke-width="1" stroke-opacity="0"></use></g></g><g><use xlink:href="#e2GShHSI9S" opacity="1" fill="#7170f9" fill-opacity="1"></use><g><use xlink:href="#e2GShHSI9S" opacity="1" fill-opacity="0" stroke="#000000" stroke-width="1" stroke-opacity="0"></use></g></g><g><use xlink:href="#a2jaTcAQs" opacity="1" fill="#7170f9" fill-opacity="1"></use><g><use xlink:href="#a2jaTcAQs" opacity="1" fill-opacity="0" stroke="#000000" stroke-width="1" stroke-opacity="0"></use></g></g><g><use xlink:href="#a4T1yHuPG" opacity="1" fill="#7170f9" fill-opacity="1"></use><g><use xlink:href="#a4T1yHuPG" opacity="1" fill-opacity="0" stroke="#000000" stroke-width="1" stroke-opacity="0"></use></g></g><g><use xlink:href="#b6w29jPS8k" opacity="1" fill="#7170f9" fill-opacity="1"></use><g><use xlink:href="#b6w29jPS8k" opacity="1" fill-opacity="0" stroke="#000000" stroke-width="1" stroke-opacity="0"></use></g></g><g><use xlink:href="#acqd0Yt5d" opacity="1" fill="#7170f9" fill-opacity="1"></use><g><use xlink:href="#acqd0Yt5d" opacity="1" fill-opacity="0" stroke="#000000" stroke-width="1" stroke-opacity="0"></use></g></g><g><use xlink:href="#dybxgAaFr" opacity="1" fill="#7170f9" fill-opacity="1"></use><g><use xlink:href="#dybxgAaFr" opacity="1" fill-opacity="0" stroke="#000000" stroke-width="1" stroke-opacity="0"></use></g></g><g><use xlink:href="#b25u56ImLr" opacity="1" fill="#7170f9" fill-opacity="1"></use><g><use xlink:href="#b25u56ImLr" opacity="1" fill-opacity="0" stroke="#000000" stroke-width="1" stroke-opacity="0"></use></g></g><g><use xlink:href="#bABWDYtHM" opacity="1" fill="#7170f9" fill-opacity="1"></use><g><use xlink:href="#bABWDYtHM" opacity="1" fill-opacity="0" stroke="#000000" stroke-width="1" stroke-opacity="0"></use></g></g><g><use xlink:href="#b6k98Kk7v" opacity="1" fill="#7170f9" fill-opacity="1"></use><g><use xlink:href="#b6k98Kk7v" opacity="1" fill-opacity="0" stroke="#000000" stroke-width="1" stroke-opacity="0"></use></g></g><g><use xlink:href="#dihE7JnP" opacity="1" fill="#7170f9" fill-opacity="1"></use><g><use xlink:href="#dihE7JnP" opacity="1" fill-opacity="0" stroke="#000000" stroke-width="1" stroke-opacity="0"></use></g></g><g><use xlink:href="#acV5jEGCx" opacity="1" fill="#7170f9" fill-opacity="1"></use><g><use xlink:href="#acV5jEGCx" opacity="1" fill-opacity="0" stroke="#000000" stroke-width="1" stroke-opacity="0"></use></g></g><g><use xlink:href="#acAE5ttbj" opacity="1" fill="#7170f9" fill-opacity="1"></use><g><use xlink:href="#acAE5ttbj" opacity="1" fill-opacity="0" stroke="#000000" stroke-width="1" stroke-opacity="0"></use></g></g><g><use xlink:href="#a3Y9rPkv4q" opacity="1" fill="#7170f9" fill-opacity="1"></use><g><use xlink:href="#a3Y9rPkv4q" opacity="1" fill-opacity="0" stroke="#000000" stroke-width="1" stroke-opacity="0"></use></g></g></g></svg>