<?xml version="1.0" encoding="UTF-8"?>
<svg xmlns="http://www.w3.org/2000/svg" xmlns:xlink="http://www.w3.org/1999/xlink" width="200pt" height="103pt" viewBox="0 0 200 103" version="1.1">
<defs>
<filter id="alpha" filterUnits="objectBoundingBox" x="0%" y="0%" width="100%" height="100%">
  <feColorMatrix type="matrix" in="SourceGraphic" values="0 0 0 0 1 0 0 0 0 1 0 0 0 0 1 0 0 0 1 0"/>
</filter>
<mask id="mask0">
  <g filter="url(#alpha)">
<rect x="0" y="0" width="200" height="103" style="fill:rgb(0%,0%,0%);fill-opacity:0.2;stroke:none;"/>
  </g>
</mask>
<clipPath id="clip1">
  <rect x="0" y="0" width="200" height="103"/>
</clipPath>
<g id="surface5" clip-path="url(#clip1)">
<path style=" stroke:none;fill-rule:nonzero;fill:rgb(0%,0%,0%);fill-opacity:1;" d="M 23.183594 26.242188 L 24.742188 39.066406 L 23.75 39.066406 Z M 23.183594 26.242188 "/>
</g>
<mask id="mask1">
  <g filter="url(#alpha)">
<rect x="0" y="0" width="200" height="103" style="fill:rgb(0%,0%,0%);fill-opacity:0.2;stroke:none;"/>
  </g>
</mask>
<clipPath id="clip2">
  <rect x="0" y="0" width="200" height="103"/>
</clipPath>
<g id="surface8" clip-path="url(#clip2)">
<path style=" stroke:none;fill-rule:nonzero;fill:rgb(0%,0%,0%);fill-opacity:1;" d="M 6.734375 21.3125 L 5.945312 26.242188 L 7.445312 21.3125 Z M 6.734375 21.3125 "/>
</g>
</defs>
<g id="surface1">
<path style=" stroke:none;fill-rule:nonzero;fill:rgb(24.705882%,23.921569%,33.72549%);fill-opacity:1;" d="M 71.203125 57.796875 L 87.304688 1.203125 L 188.261719 29.574219 L 172.15625 86.167969 Z M 71.203125 57.796875 "/>
<path style=" stroke:none;fill-rule:nonzero;fill:rgb(42.352941%,38.823529%,100%);fill-opacity:1;" d="M 89.886719 3.570312 C 89.886719 4.027344 89.511719 4.398438 89.050781 4.398438 C 88.589844 4.398438 88.214844 4.027344 88.214844 3.570312 C 88.214844 3.109375 88.589844 2.738281 89.050781 2.738281 C 89.511719 2.738281 89.886719 3.109375 89.886719 3.570312 Z M 89.886719 3.570312 "/>
<path style=" stroke:none;fill-rule:nonzero;fill:rgb(42.352941%,38.823529%,100%);fill-opacity:1;" d="M 92.460938 4.292969 C 92.460938 4.75 92.085938 5.125 91.625 5.125 C 91.164062 5.125 90.789062 4.75 90.789062 4.292969 C 90.789062 3.835938 91.164062 3.460938 91.625 3.460938 C 92.085938 3.460938 92.460938 3.835938 92.460938 4.292969 Z M 92.460938 4.292969 "/>
<path style=" stroke:none;fill-rule:nonzero;fill:rgb(42.352941%,38.823529%,100%);fill-opacity:1;" d="M 95.035156 5.015625 C 95.035156 5.476562 94.660156 5.847656 94.199219 5.847656 C 93.738281 5.847656 93.363281 5.476562 93.363281 5.015625 C 93.363281 4.558594 93.738281 4.1875 94.199219 4.1875 C 94.660156 4.1875 95.035156 4.558594 95.035156 5.015625 Z M 95.035156 5.015625 "/>
<path style=" stroke:none;fill-rule:nonzero;fill:rgb(42.352941%,38.823529%,100%);fill-opacity:1;" d="M 140.882812 37.113281 C 139.53125 36.859375 138.140625 36.890625 136.804688 37.207031 C 137.195312 35.878906 137.292969 34.484375 137.09375 33.113281 C 135.714844 33.609375 134.46875 34.40625 133.445312 35.449219 C 133.125 34.03125 132.484375 32.699219 131.570312 31.5625 C 130.679688 32.625 130.027344 33.867188 129.660156 35.199219 C 128.6875 34.234375 127.519531 33.484375 126.234375 32.996094 C 126.234375 32.996094 125.625 36.074219 127.089844 38.597656 C 128.394531 40.847656 130.902344 41.898438 131.4375 42.101562 L 131.449219 42.117188 L 131.457031 42.109375 C 131.511719 42.128906 131.542969 42.140625 131.542969 42.140625 C 131.542969 42.140625 131.554688 42.082031 131.570312 41.976562 C 131.578125 41.964844 131.589844 41.953125 131.597656 41.9375 C 131.601562 41.957031 131.601562 41.972656 131.605469 41.988281 C 131.5625 42.085938 131.542969 42.140625 131.542969 42.140625 C 131.542969 42.140625 131.574219 42.148438 131.628906 42.160156 L 131.632812 42.167969 L 131.652344 42.164062 C 132.214844 42.265625 134.90625 42.675781 137.199219 41.441406 C 139.78125 40.050781 140.882812 37.113281 140.882812 37.113281 Z M 140.882812 37.113281 "/>
<path style=" stroke:none;fill-rule:nonzero;fill:rgb(42.352941%,38.823529%,100%);fill-opacity:1;" d="M 138.054688 27.089844 C 138.054688 28.285156 137.082031 29.253906 135.878906 29.253906 C 134.679688 29.253906 133.707031 28.285156 133.707031 27.089844 C 133.707031 25.898438 134.679688 24.929688 135.878906 24.929688 C 137.082031 24.929688 138.054688 25.898438 138.054688 27.089844 Z M 138.054688 27.089844 "/>
<path style=" stroke:none;fill-rule:nonzero;fill:rgb(42.352941%,38.823529%,100%);fill-opacity:1;" d="M 97.847656 36.78125 L 163.175781 55.140625 L 162.773438 56.554688 L 97.445312 38.195312 Z M 97.847656 36.78125 "/>
<path style=" stroke:none;fill-rule:nonzero;fill:rgb(42.352941%,38.823529%,100%);fill-opacity:1;" d="M 101.957031 45.535156 L 113.222656 48.699219 L 110.035156 59.894531 L 98.773438 56.730469 Z M 101.957031 45.535156 "/>
<path style=" stroke:none;fill-rule:nonzero;fill:rgb(42.352941%,38.823529%,100%);fill-opacity:1;" d="M 122.875 51.414062 L 134.140625 54.578125 L 130.957031 65.773438 L 119.691406 62.609375 Z M 122.875 51.414062 "/>
<path style=" stroke:none;fill-rule:nonzero;fill:rgb(42.352941%,38.823529%,100%);fill-opacity:1;" d="M 143.796875 57.292969 L 155.058594 60.457031 L 151.875 71.652344 L 140.609375 68.488281 Z M 143.796875 57.292969 "/>
<path style=" stroke:none;fill-rule:nonzero;fill:rgb(42.352941%,38.823529%,100%);fill-opacity:1;" d="M 99.585938 59.375 L 107.953125 61.726562 L 107.679688 62.6875 L 99.3125 60.335938 Z M 99.585938 59.375 "/>
<path style=" stroke:none;fill-rule:nonzero;fill:rgb(42.352941%,38.823529%,100%);fill-opacity:1;" d="M 120.503906 65.253906 L 128.871094 67.605469 L 128.597656 68.5625 L 120.230469 66.214844 Z M 120.503906 65.253906 "/>
<path style=" stroke:none;fill-rule:nonzero;fill:rgb(42.352941%,38.823529%,100%);fill-opacity:1;" d="M 141.421875 71.132812 L 149.789062 73.484375 L 149.515625 74.441406 L 141.148438 72.089844 Z M 141.421875 71.132812 "/>
<path style=" stroke:none;fill-rule:nonzero;fill:rgb(81.568627%,80.392157%,88.235294%);fill-opacity:1;" d="M 113.023438 77.640625 C 113.023438 76.507812 87.96875 75.585938 57.0625 75.585938 C 26.15625 75.585938 1.101562 76.507812 1.101562 77.640625 C 1.101562 78.777344 26.15625 79.699219 57.0625 79.699219 C 87.96875 79.699219 113.023438 78.777344 113.023438 77.640625 Z M 113.023438 77.640625 "/>
<path style=" stroke:none;fill-rule:nonzero;fill:rgb(81.568627%,80.392157%,88.235294%);fill-opacity:1;" d="M 200.023438 100.945312 C 200.023438 99.808594 180.527344 98.886719 156.476562 98.886719 C 132.429688 98.886719 112.929688 99.808594 112.929688 100.945312 C 112.929688 102.078125 132.429688 103 156.476562 103 C 180.527344 103 200.023438 102.078125 200.023438 100.945312 Z M 200.023438 100.945312 "/>
<path style=" stroke:none;fill-rule:nonzero;fill:rgb(24.705882%,23.921569%,33.72549%);fill-opacity:1;" d="M 135.121094 84.984375 L 147.683594 84.984375 L 147.683594 90.207031 L 140.375 90.207031 L 140.375 95.425781 L 147.683594 95.425781 L 147.683594 100.648438 L 135.121094 100.648438 Z M 150.195312 84.984375 L 162.761719 84.984375 L 162.761719 89.523438 L 155.449219 89.523438 L 155.449219 90.433594 L 162.761719 90.433594 L 162.761719 100.875 L 150.195312 100.875 L 150.195312 96.109375 L 157.507812 96.109375 L 157.507812 95.199219 L 150.195312 95.199219 Z M 165.273438 84.984375 L 177.835938 84.984375 L 177.835938 89.523438 L 170.527344 89.523438 L 170.527344 90.433594 L 177.835938 90.433594 L 177.835938 100.875 L 165.273438 100.875 L 165.273438 96.109375 L 172.582031 96.109375 L 172.582031 95.199219 L 165.273438 95.199219 Z M 165.273438 84.984375 "/>
<path style=" stroke:none;fill-rule:nonzero;fill:rgb(24.705882%,23.921569%,33.72549%);fill-opacity:1;" d="M 25.316406 61.09375 L 30.5 61.09375 L 30.5 66.183594 L 35.242188 66.183594 L 35.242188 61.09375 L 40.425781 61.09375 L 40.425781 76.503906 L 35.242188 76.503906 L 35.242188 71.34375 L 30.5 71.34375 L 30.5 76.503906 L 25.320312 76.503906 L 25.320312 61.09375 Z M 47.238281 66.207031 L 42.679688 66.207031 L 42.679688 61.09375 L 56.988281 61.09375 L 56.988281 66.207031 L 52.425781 66.207031 L 52.425781 76.503906 L 47.242188 76.503906 L 47.242188 66.207031 Z M 59.257812 61.09375 L 64.664062 61.09375 L 67.988281 66.507812 L 71.308594 61.09375 L 76.714844 61.09375 L 76.714844 76.503906 L 71.554688 76.503906 L 71.554688 68.867188 L 67.988281 74.34375 L 67.898438 74.34375 L 64.332031 68.867188 L 64.332031 76.503906 L 59.257812 76.503906 Z M 79.292969 61.09375 L 84.480469 61.09375 L 84.480469 71.410156 L 91.765625 71.410156 L 91.765625 76.503906 L 79.292969 76.503906 Z M 79.292969 61.09375 "/>
<path style=" stroke:none;fill-rule:nonzero;fill:rgb(100%,72.156863%,72.156863%);fill-opacity:1;" d="M 16.164062 71.6875 L 15.738281 76.476562 L 19.140625 76.195312 L 19.140625 72.109375 Z M 16.164062 71.6875 "/>
<path style=" stroke:none;fill-rule:nonzero;fill:rgb(100%,72.156863%,72.156863%);fill-opacity:1;" d="M 13.046875 71.6875 L 13.46875 76.476562 L 10.066406 76.195312 L 10.066406 72.109375 Z M 13.046875 71.6875 "/>
<path style=" stroke:none;fill-rule:nonzero;fill:rgb(18.431373%,18.039216%,25.490196%);fill-opacity:1;" d="M 21.976562 34.910156 C 21.976562 34.910156 23.113281 41.671875 23.113281 42.660156 C 23.113281 43.644531 22.6875 49.988281 21.976562 51.253906 C 21.269531 52.523438 21.128906 53.085938 21.410156 53.652344 C 21.695312 54.214844 21.550781 54.074219 21.410156 54.496094 C 21.269531 54.917969 20.984375 54.777344 21.410156 55.339844 C 21.765625 55.851562 21.765625 56.523438 21.410156 57.03125 C 21.128906 57.457031 21.976562 68.867188 20.84375 69.714844 C 19.710938 70.558594 19.425781 73.378906 19.425781 73.378906 L 15.738281 72.957031 L 15.738281 69.855469 C 15.738281 69.855469 14.886719 67.601562 15.457031 66.191406 C 16.023438 64.78125 16.304688 57.3125 16.304688 57.3125 C 16.304688 57.3125 16.164062 56.609375 16.304688 56.1875 C 16.449219 55.765625 16.304688 55.480469 16.023438 55.339844 C 15.738281 55.199219 15.597656 54.636719 15.597656 54.636719 L 15.171875 44.351562 L 13.46875 54.496094 C 13.46875 54.496094 15.171875 68.304688 13.46875 70.136719 L 13.46875 73.378906 L 9.785156 73.378906 L 10.351562 69.855469 C 10.351562 69.855469 9.214844 66.613281 9.785156 65.910156 C 10.351562 65.207031 8.082031 53.933594 8.367188 53.507812 C 8.648438 53.085938 8.507812 52.945312 8.367188 52.664062 C 8.222656 52.382812 7.796875 52.101562 7.941406 51.820312 C 8.082031 51.535156 7.941406 50.972656 7.941406 50.972656 C 7.941406 50.972656 5.246094 37.726562 6.523438 36.460938 C 7.796875 35.191406 21.976562 34.910156 21.976562 34.910156 Z M 21.976562 34.910156 "/>
<path style=" stroke:none;fill-rule:nonzero;fill:rgb(18.431373%,18.039216%,25.490196%);fill-opacity:1;" d="M 16.589844 74.644531 C 16.589844 74.644531 16.875 73.292969 19.140625 73.757812 C 19.140625 73.757812 19.710938 74.929688 19.710938 75.492188 C 19.710938 76.054688 20.277344 79.859375 20.277344 79.859375 C 20.277344 79.859375 22.546875 83.664062 19.710938 83.664062 C 16.875 83.664062 15.878906 82.679688 15.738281 81.691406 C 15.597656 80.707031 15.878906 80.421875 15.3125 80 C 14.746094 79.578125 14.464844 79.578125 14.605469 79.015625 C 14.746094 78.449219 15.03125 75.632812 15.03125 75.632812 C 15.03125 75.632812 15.171875 73.519531 15.953125 74.082031 L 16.730469 74.644531 "/>
<path style=" stroke:none;fill-rule:nonzero;fill:rgb(18.431373%,18.039216%,25.490196%);fill-opacity:1;" d="M 12.621094 74.644531 C 12.621094 74.644531 12.335938 73.292969 10.066406 73.757812 C 10.066406 73.757812 9.5 74.929688 9.5 75.492188 C 9.5 76.054688 8.933594 79.859375 8.933594 79.859375 C 8.933594 79.859375 6.664062 83.664062 9.5 83.664062 C 12.335938 83.664062 13.328125 82.679688 13.46875 81.691406 C 13.613281 80.707031 13.328125 80.421875 13.894531 80 C 14.464844 79.578125 14.746094 79.578125 14.605469 79.015625 C 14.464844 78.449219 14.179688 75.632812 14.179688 75.632812 C 14.179688 75.632812 14.039062 73.519531 13.257812 74.082031 L 12.476562 74.644531 "/>
<path style=" stroke:none;fill-rule:nonzero;fill:rgb(100%,72.156863%,72.156863%);fill-opacity:1;" d="M 20.558594 5.175781 C 20.558594 7.277344 18.847656 8.980469 16.730469 8.980469 C 14.617188 8.980469 12.902344 7.277344 12.902344 5.175781 C 12.902344 3.078125 14.617188 1.371094 16.730469 1.371094 C 18.847656 1.371094 20.558594 3.078125 20.558594 5.175781 Z M 20.558594 5.175781 "/>
<path style=" stroke:none;fill-rule:nonzero;fill:rgb(100%,72.156863%,72.156863%);fill-opacity:1;" d="M 13.613281 5.742188 C 13.613281 5.742188 12.050781 11.800781 11.769531 11.941406 C 11.484375 12.082031 18.292969 12.644531 18.292969 12.644531 C 18.292969 12.644531 16.589844 7.433594 18.292969 6.585938 Z M 13.613281 5.742188 "/>
<path style=" stroke:none;fill-rule:nonzero;fill:rgb(81.568627%,80.392157%,88.235294%);fill-opacity:1;" d="M 12.617188 9.433594 L 7.941406 12.644531 L 8.792969 37.867188 C 8.792969 37.867188 15.03125 37.164062 16.449219 37.304688 C 17.867188 37.445312 22.402344 36.035156 22.402344 36.035156 L 20.414062 12.335938 C 20.335938 11.378906 19.566406 10.625 18.601562 10.554688 L 17.75 10.496094 C 17.75 10.496094 16.898438 12.589844 14.339844 11.507812 C 13.464844 11.128906 12.824219 10.359375 12.617188 9.433594 Z M 12.617188 9.433594 "/>
<path style=" stroke:none;fill-rule:nonzero;fill:rgb(34.117647%,35.294118%,53.72549%);fill-opacity:1;" d="M 12.730469 9.203125 L 6.949219 11.941406 L 5.8125 28.144531 C 5.8125 28.144531 3.542969 37.867188 5.386719 40.6875 C 7.230469 43.503906 10.351562 43.785156 10.351562 43.785156 C 10.351562 43.785156 14.464844 27.582031 13.328125 22.085938 C 12.195312 16.589844 12.730469 9.203125 12.730469 9.203125 Z M 12.730469 9.203125 "/>
<path style=" stroke:none;fill-rule:nonzero;fill:rgb(100%,72.156863%,72.156863%);fill-opacity:1;" d="M 1.84375 33.640625 L 1.84375 35.753906 C 1.84375 35.753906 0.992188 40.40625 3.6875 40.265625 C 6.378906 40.125 5.105469 35.191406 5.105469 35.191406 L 4.253906 33.640625 Z M 1.84375 33.640625 "/>
<path style=" stroke:none;fill-rule:nonzero;fill:rgb(100%,72.156863%,72.156863%);fill-opacity:1;" d="M 26.800781 37.867188 L 26.515625 40.265625 C 26.515625 40.265625 27.933594 45.054688 25.238281 45.195312 C 22.546875 45.335938 24.5 40.292969 24.5 40.292969 L 25.382812 37.585938 Z M 26.800781 37.867188 "/>
<path style=" stroke:none;fill-rule:nonzero;fill:rgb(34.117647%,35.294118%,53.72549%);fill-opacity:1;" d="M 17.664062 10.003906 C 20.25 10.636719 22.640625 11.871094 24.648438 13.609375 L 24.671875 13.632812 L 22.6875 24.058594 L 22.402344 27.863281 C 22.402344 27.863281 27.648438 46.464844 21.550781 43.785156 C 21.550781 43.785156 16.304688 27.582031 17.015625 20.113281 C 17.722656 12.644531 17.664062 10.003906 17.664062 10.003906 Z M 17.664062 10.003906 "/>
<path style=" stroke:none;fill-rule:nonzero;fill:rgb(34.117647%,35.294118%,53.72549%);fill-opacity:1;" d="M 22.828125 13.492188 C 22.96875 13.351562 24.671875 13.6875 24.671875 13.6875 C 24.671875 13.6875 27.792969 24.621094 27.792969 26.453125 C 27.792969 28.285156 28.21875 38.714844 28.21875 38.714844 L 24.472656 39.089844 L 21.445312 24.601562 Z M 22.828125 13.492188 "/>
<path style=" stroke:none;fill-rule:nonzero;fill:rgb(34.117647%,35.294118%,53.72549%);fill-opacity:1;" d="M 7.941406 11.941406 L 6.949219 11.941406 C 6.949219 11.941406 4.113281 13.070312 3.96875 14.335938 C 3.828125 15.605469 0 28.425781 0 28.425781 L 0.992188 34.910156 L 4.679688 34.347656 L 5.386719 27.160156 L 9.074219 19.269531 Z M 7.941406 11.941406 "/>
<path style=" stroke:none;fill-rule:nonzero;fill:rgb(18.431373%,18.039216%,25.490196%);fill-opacity:1;" d="M 15.988281 6.238281 L 16.132812 5.222656 C 16.167969 4.984375 16.308594 4.671875 16.539062 4.738281 C 16.738281 4.792969 17.167969 4.960938 17.238281 4.910156 C 17.507812 4.71875 17.917969 5.050781 18.199219 4.882812 C 18.320312 4.8125 18.398438 4.660156 18.535156 4.652344 C 18.628906 4.65625 18.714844 4.695312 18.78125 4.761719 C 18.964844 4.921875 19.179688 5.039062 19.414062 5.105469 C 19.65625 5.167969 19.910156 5.101562 20.085938 4.925781 C 20.113281 4.878906 20.15625 4.839844 20.203125 4.8125 C 20.257812 4.796875 20.320312 4.796875 20.371094 4.820312 L 21.097656 5.015625 C 21.3125 4.238281 21.175781 3.40625 20.726562 2.738281 C 20.429688 2.339844 20.074219 1.996094 19.671875 1.710938 C 19.222656 1.371094 18.757812 1.054688 18.28125 0.753906 C 17.773438 0.398438 17.199219 0.148438 16.59375 0.0234375 C 15.984375 -0.0664062 15.300781 0.0976562 14.914062 0.578125 C 14.734375 0.449219 14.597656 0.265625 14.527344 0.0546875 C 14.4375 0.136719 14.390625 0.246094 14.394531 0.363281 C 14.402344 0.480469 14.457031 0.589844 14.550781 0.664062 L 13.9375 0.273438 C 13.765625 0.453125 14.101562 0.777344 13.957031 0.980469 C 13.914062 1.03125 13.855469 1.066406 13.792969 1.085938 C 13.457031 1.214844 13.152344 1.40625 12.894531 1.648438 C 12.5625 2.023438 12.320312 2.464844 12.1875 2.945312 C 11.820312 3.984375 11.554688 5.179688 12.074219 6.152344 C 12.132812 6.261719 12.910156 8.085938 13.011719 8.15625 C 13.363281 8.398438 13.132812 7.816406 13.386719 8.15625 C 13.582031 8.425781 13.542969 7.398438 13.835938 7.625 C 14.070312 7.792969 14.378906 7.804688 14.628906 7.660156 C 14.75 7.578125 14.710938 7.113281 14.644531 6.6875 C 14.621094 6.523438 14.679688 6.359375 14.800781 6.246094 C 14.925781 6.132812 15.097656 6.085938 15.257812 6.125 C 15.621094 6.210938 15.980469 6.28125 15.988281 6.238281 Z M 15.988281 6.238281 "/>
<use xlink:href="#surface5" mask="url(#mask0)"/>
<use xlink:href="#surface8" mask="url(#mask1)"/>
</g>
</svg>
