<?xml version="1.0" encoding="UTF-8" standalone="no"?>
<!DOCTYPE svg PUBLIC "-//W3C//DTD SVG 1.1//EN" "http://www.w3.org/Graphics/SVG/1.1/DTD/svg11.dtd">
<svg version="1.1" xmlns="http://www.w3.org/2000/svg" xmlns:xlink="http://www.w3.org/1999/xlink" preserveAspectRatio="xMidYMid meet" viewBox="22.148526149290685 13.020010642833721 218.0730932399441 204.7998568663254" width="42.07" height="39.46"><defs><path d="M237.22 194.91C237.22 193.73 237.22 184.32 237.22 183.14C237.22 172.54 232.88 160.42 227.34 155.55C221.86 150.74 209.16 146.55 198.42 145.99C195.82 145.85 182.82 145.19 159.41 143.98C146.58 165.18 139.45 176.96 138.03 179.31C135.88 182.87 133.15 184.83 130.34 184.83C127.5 184.83 124.77 182.82 122.66 179.18C121.29 176.83 114.45 165.06 102.14 143.88C78.03 145.15 64.64 145.84 61.96 145.98C51.22 146.54 38.52 150.74 33.05 155.55C27.51 160.42 23.17 172.54 23.17 183.14C23.17 184.32 23.17 193.73 23.17 194.91C23.16 205.89 32.31 214.82 43.55 214.82C78.21 214.82 199.51 214.82 216.83 214.82C228.08 214.82 237.22 205.89 237.22 194.91Z" id="iq4X4ZEtM"></path><path d="M237.21 194.91C237.21 193.73 237.21 184.32 237.21 183.14C237.21 172.54 232.86 160.42 227.32 155.55C221.84 150.74 209.15 146.55 198.4 145.99C195.8 145.85 182.8 145.19 159.4 143.98C146.56 165.18 139.44 176.96 138.01 179.31C135.86 182.87 133.13 184.83 130.33 184.83C127.49 184.83 124.76 182.82 122.64 179.18C121.27 176.83 114.43 165.06 102.12 143.88C78.01 145.15 64.62 145.84 61.94 145.98C51.2 146.54 38.5 150.74 33.03 155.55C27.49 160.42 23.15 172.54 23.15 183.14C23.15 184.32 23.15 193.73 23.15 194.91C23.14 205.89 32.29 214.82 43.53 214.82C78.19 214.82 199.49 214.82 216.82 214.82C228.06 214.82 237.21 205.89 237.21 194.91Z" id="cXszZ6HA"></path><path d="M139.43 162.21C138.93 161.68 136.42 159.06 131.89 154.34L137.61 148.54L130.19 144.25L122.93 148.33L128.47 154.23L120.93 161.6C124.25 169.02 126.09 173.15 126.46 173.97C129.47 176.49 131.62 176.57 132.9 174.21C133.34 173.42 135.51 169.41 139.43 162.21Z" id="dIp3vMrN1"></path><path d="M139.43 162.21C138.93 161.68 136.42 159.06 131.89 154.34L137.61 148.54L130.19 144.25L122.93 148.33L128.47 154.23L120.93 161.6C124.25 169.02 126.09 173.15 126.46 173.97C129.47 176.49 131.62 176.57 132.9 174.21C133.34 173.42 135.51 169.41 139.43 162.21Z" id="a1SxLYmsI"></path><path d="M69.11 73.67C69.11 106.56 96.5 133.32 130.17 133.32C163.86 133.32 191.25 106.56 191.25 73.67C191.25 40.78 163.85 14.02 130.17 14.02C96.5 14.02 69.11 40.78 69.11 73.67ZM145.84 55.34C152.12 52.54 158.57 48.86 165.06 44.11C170.46 50.17 174.21 57.63 175.68 65.86C168.74 73.72 160.83 79.11 152.62 82.74C148.84 72.48 146.81 63.25 145.84 55.34ZM145.07 43.63C145.04 38.56 145.42 34.39 145.88 31.25C149.73 32.61 153.35 34.43 156.64 36.69C152.74 39.41 148.87 41.71 145.07 43.63ZM90.4 50.75C92.86 46.69 95.94 43.06 99.53 39.94C101.35 42.96 103.54 47.22 105.64 52.62C99.49 52.47 94.28 51.64 90.4 50.75ZM85.86 60.84C91.03 62.14 98.6 63.5 107.79 63.5C108.23 63.5 108.69 63.49 109.15 63.48C111.05 70.67 112.47 79.24 112.94 89.14C101 88.46 90.93 86 85.29 84.33C84.43 80.91 83.94 77.35 83.94 73.67C83.94 69.21 84.63 64.91 85.86 60.84ZM113.04 99.71C112.92 104.57 112.54 109.71 111.88 115.14C102.92 111.35 95.46 104.86 90.49 96.74C96.63 98.06 104.39 99.3 113.04 99.71ZM134.97 28.74C134.19 33.4 133.57 40.03 133.97 48.28C128.12 50.26 122.54 51.44 117.34 52.06C114.49 43.98 111.28 37.87 108.7 33.71C115.13 30.4 122.43 28.5 130.18 28.5C131.8 28.5 133.39 28.58 134.97 28.74ZM124.14 89.18C123.72 79.08 122.34 70.23 120.46 62.62C125.1 61.97 129.99 60.93 135.05 59.38C136.22 67.39 138.42 76.48 142.1 86.44C136.05 88.06 129.99 88.89 124.14 89.18ZM124.22 99.73C131.33 99.41 138.76 98.41 146.17 96.36C148.45 101.44 151.12 106.71 154.26 112.15C147.23 116.36 139 118.84 130.18 118.84C127.64 118.84 125.17 118.59 122.74 118.19C123.6 111.68 124.07 105.54 124.22 99.73ZM163.11 105.33C160.67 100.99 158.54 96.77 156.69 92.69C163.28 89.88 169.73 86.11 175.74 81.09C174.15 90.45 169.65 98.85 163.11 105.33Z" id="c1kqU327lm"></path><path d="M69.11 73.67C69.11 106.56 96.5 133.32 130.17 133.32C163.86 133.32 191.25 106.56 191.25 73.67C191.25 40.78 163.85 14.02 130.17 14.02C96.5 14.02 69.11 40.78 69.11 73.67ZM145.84 55.34C152.12 52.54 158.57 48.86 165.06 44.11C170.46 50.17 174.21 57.63 175.68 65.86C168.74 73.72 160.83 79.11 152.62 82.74C148.84 72.48 146.81 63.25 145.84 55.34ZM145.07 43.63C145.04 38.56 145.42 34.39 145.88 31.25C149.73 32.61 153.35 34.43 156.64 36.69C152.74 39.41 148.87 41.71 145.07 43.63ZM90.4 50.75C92.86 46.69 95.94 43.06 99.53 39.94C101.35 42.96 103.54 47.22 105.64 52.62C99.49 52.47 94.28 51.64 90.4 50.75ZM85.86 60.84C91.03 62.14 98.6 63.5 107.79 63.5C108.23 63.5 108.69 63.49 109.15 63.48C111.05 70.67 112.47 79.24 112.94 89.14C101 88.46 90.93 86 85.29 84.33C84.43 80.91 83.94 77.35 83.94 73.67C83.94 69.21 84.63 64.91 85.86 60.84ZM113.04 99.71C112.92 104.57 112.54 109.71 111.88 115.14C102.92 111.35 95.46 104.86 90.49 96.74C96.63 98.06 104.39 99.3 113.04 99.71ZM134.97 28.74C134.19 33.4 133.57 40.03 133.97 48.28C128.12 50.26 122.54 51.44 117.34 52.06C114.49 43.98 111.28 37.87 108.7 33.71C115.13 30.4 122.43 28.5 130.18 28.5C131.8 28.5 133.39 28.58 134.97 28.74ZM124.14 89.18C123.72 79.08 122.34 70.23 120.46 62.62C125.1 61.97 129.99 60.93 135.05 59.38C136.22 67.39 138.42 76.48 142.1 86.44C136.05 88.06 129.99 88.89 124.14 89.18ZM124.22 99.73C131.33 99.41 138.76 98.41 146.17 96.36C148.45 101.44 151.12 106.71 154.26 112.15C147.23 116.36 139 118.84 130.18 118.84C127.64 118.84 125.17 118.59 122.74 118.19C123.6 111.68 124.07 105.54 124.22 99.73ZM163.11 105.33C160.67 100.99 158.54 96.77 156.69 92.69C163.28 89.88 169.73 86.11 175.74 81.09C174.15 90.45 169.65 98.85 163.11 105.33Z" id="bjHysawBe"></path></defs><g><g><use xlink:href="#iq4X4ZEtM" opacity="1" fill="#0027a5" fill-opacity="1"></use><g><use xlink:href="#iq4X4ZEtM" opacity="1" fill-opacity="0" stroke="#000000" stroke-width="1" stroke-opacity="0"></use></g></g><g><use xlink:href="#cXszZ6HA" opacity="1" fill="#150089" fill-opacity="1"></use><g><use xlink:href="#cXszZ6HA" opacity="1" fill-opacity="0" stroke="#000000" stroke-width="1" stroke-opacity="0"></use></g></g><g><use xlink:href="#dIp3vMrN1" opacity="1" fill="#0027a5" fill-opacity="1"></use><g><use xlink:href="#dIp3vMrN1" opacity="1" fill-opacity="0" stroke="#000000" stroke-width="1" stroke-opacity="0"></use></g></g><g><use xlink:href="#a1SxLYmsI" opacity="1" fill="#150089" fill-opacity="1"></use><g><use xlink:href="#a1SxLYmsI" opacity="1" fill-opacity="0" stroke="#000000" stroke-width="1" stroke-opacity="0"></use></g></g><g><use xlink:href="#c1kqU327lm" opacity="1" fill="#0027a5" fill-opacity="1"></use><g><use xlink:href="#c1kqU327lm" opacity="1" fill-opacity="0" stroke="#000000" stroke-width="1" stroke-opacity="0"></use></g></g><g><use xlink:href="#bjHysawBe" opacity="1" fill="#150089" fill-opacity="1"></use><g><use xlink:href="#bjHysawBe" opacity="1" fill-opacity="0" stroke="#000000" stroke-width="1" stroke-opacity="0"></use></g></g></g></svg>