<?xml version="1.0" encoding="UTF-8"?>
<svg xmlns="http://www.w3.org/2000/svg" xmlns:xlink="http://www.w3.org/1999/xlink" width="200pt" height="200pt" viewBox="0 0 200 200" version="1.1">
<defs>
<filter id="alpha" filterUnits="objectBoundingBox" x="0%" y="0%" width="100%" height="100%">
  <feColorMatrix type="matrix" in="SourceGraphic" values="0 0 0 0 1 0 0 0 0 1 0 0 0 0 1 0 0 0 1 0"/>
</filter>
<mask id="mask0">
  <g filter="url(#alpha)">
<rect x="0" y="0" width="200" height="200" style="fill:rgb(0%,0%,0%);fill-opacity:0.101961;stroke:none;"/>
  </g>
</mask>
<clipPath id="clip1">
  <rect x="0" y="0" width="200" height="200"/>
</clipPath>
<g id="surface5" clip-path="url(#clip1)">
<path style=" stroke:none;fill-rule:nonzero;fill:rgb(42.352941%,38.823529%,100%);fill-opacity:1;" d="M 103.449219 35.976562 C 90.816406 39.242188 78.203125 37.84375 66.066406 35.804688 C 53.933594 33.765625 41.828125 31.105469 29.191406 31.90625 C 21.0625 32.421875 12.007812 34.890625 6.332031 42.058594 C 0.867188 48.953125 0.0195312 58.253906 0.0078125 66.652344 C -0.0078125 72.96875 0.351562 79.507812 3.273438 84.539062 C 5.304688 88.03125 8.433594 90.53125 10.789062 93.753906 C 18.984375 104.945312 16.492188 122.570312 11.113281 137.554688 C 8.589844 144.582031 5.503906 151.496094 3.785156 158.691406 C 2.066406 165.886719 1.839844 173.597656 4.914062 179.464844 C 7.960938 185.28125 13.859375 188.5625 20.003906 190.261719 C 32.492188 193.710938 46.398438 191.570312 59.859375 188.664062 C 89.644531 182.210938 119.121094 172.152344 148.535156 162.117188 C 159.417969 158.402344 170.351562 154.667969 180.835938 149.3125 C 186.660156 146.332031 192.585938 142.625 196.347656 136.847656 C 201.128906 129.53125 201.246094 119.523438 196.640625 113.542969 C 188.914062 103.515625 171.425781 105.738281 165.449219 94.277344 C 162.160156 87.964844 163.589844 79.394531 166.207031 71.820312 C 171.820312 55.582031 182.667969 39.539062 181.265625 23.347656 C 180.292969 12.238281 172.894531 3.042969 162.976562 0.648438 C 152.578125 -1.863281 139.226562 2.898438 133.242188 14.078125 C 127.085938 25.597656 114.601562 33.082031 103.449219 35.976562 Z M 103.449219 35.976562 "/>
</g>
<mask id="mask1">
  <g filter="url(#alpha)">
<rect x="0" y="0" width="200" height="200" style="fill:rgb(0%,0%,0%);fill-opacity:0.101961;stroke:none;"/>
  </g>
</mask>
<clipPath id="clip2">
  <rect x="0" y="0" width="200" height="200"/>
</clipPath>
<g id="surface8" clip-path="url(#clip2)">
<path style=" stroke:none;fill-rule:nonzero;fill:rgb(0%,0%,0%);fill-opacity:1;" d="M 63.71875 97.355469 L 113.882812 97.355469 L 113.882812 115.140625 L 63.71875 115.140625 Z M 63.71875 97.355469 "/>
</g>
<mask id="mask2">
  <g filter="url(#alpha)">
<rect x="0" y="0" width="200" height="200" style="fill:rgb(0%,0%,0%);fill-opacity:0.101961;stroke:none;"/>
  </g>
</mask>
<clipPath id="clip3">
  <rect x="0" y="0" width="200" height="200"/>
</clipPath>
<g id="surface11" clip-path="url(#clip3)">
<path style=" stroke:none;fill-rule:nonzero;fill:rgb(0%,0%,0%);fill-opacity:1;" d="M 116.558594 100.195312 L 136.328125 100.195312 L 136.328125 159.066406 L 116.558594 159.066406 Z M 116.558594 100.195312 "/>
</g>
<mask id="mask3">
  <g filter="url(#alpha)">
<rect x="0" y="0" width="200" height="200" style="fill:rgb(0%,0%,0%);fill-opacity:0.101961;stroke:none;"/>
  </g>
</mask>
<clipPath id="clip4">
  <rect x="0" y="0" width="200" height="200"/>
</clipPath>
<g id="surface14" clip-path="url(#clip4)">
<path style=" stroke:none;fill-rule:nonzero;fill:rgb(0%,0%,0%);fill-opacity:1;" d="M 116.558594 145.191406 L 136.328125 145.191406 L 136.328125 172.941406 L 116.558594 172.941406 Z M 116.558594 145.191406 "/>
</g>
<linearGradient id="linear0" gradientUnits="userSpaceOnUse" x1="421.41" y1="548.67" x2="423.73" y2="548.67" gradientTransform="matrix(0.176991,0,0,0.271003,-6.187611,-21.932249)">
<stop offset="0" style="stop-color:rgb(50.196078%,50.196078%,50.196078%);stop-opacity:0.25098;"/>
<stop offset="0.54" style="stop-color:rgb(50.196078%,50.196078%,50.196078%);stop-opacity:0.121569;"/>
<stop offset="1" style="stop-color:rgb(50.196078%,50.196078%,50.196078%);stop-opacity:0.101961;"/>
</linearGradient>
<mask id="mask4">
  <g filter="url(#alpha)">
<rect x="0" y="0" width="200" height="200" style="fill:rgb(0%,0%,0%);fill-opacity:0.101961;stroke:none;"/>
  </g>
</mask>
<clipPath id="clip5">
  <rect x="0" y="0" width="200" height="200"/>
</clipPath>
<g id="surface17" clip-path="url(#clip5)">
<path style=" stroke:none;fill-rule:nonzero;fill:rgb(0%,0%,0%);fill-opacity:1;" d="M 68.410156 180.453125 C 68.40625 180.859375 68.375 181.261719 68.308594 181.65625 C 68.265625 182.308594 67.886719 182.789062 67.460938 182.738281 C 66.089844 182.976562 64.746094 182.152344 63.472656 181.339844 L 60.996094 179.765625 C 60.703125 179.578125 60.414062 179.394531 60.132812 179.164062 C 59.609375 178.730469 59.140625 178.144531 58.753906 177.4375 C 58.675781 177.3125 58.617188 177.15625 58.589844 176.984375 C 58.546875 176.507812 58.910156 176.222656 59.140625 175.898438 C 59.210938 175.800781 59.269531 175.691406 59.320312 175.570312 C 60 175.792969 60.847656 176.453125 61.371094 176.707031 C 61.894531 176.925781 62.398438 177.246094 62.867188 177.664062 C 63.515625 178.304688 63.984375 179.289062 64.539062 180.101562 C 65.089844 180.914062 65.804688 181.65625 66.574219 181.554688 C 66.980469 181.460938 67.371094 181.253906 67.730469 180.941406 Z M 68.410156 180.453125 "/>
</g>
<mask id="mask5">
  <g filter="url(#alpha)">
<rect x="0" y="0" width="200" height="200" style="fill:rgb(0%,0%,0%);fill-opacity:0.0509804;stroke:none;"/>
  </g>
</mask>
<clipPath id="clip6">
  <rect x="0" y="0" width="200" height="200"/>
</clipPath>
<g id="surface20" clip-path="url(#clip6)">
<path style=" stroke:none;fill-rule:nonzero;fill:rgb(0%,0%,0%);fill-opacity:1;" d="M 65.507812 141.941406 C 65.601562 142.445312 65.480469 142.984375 65.207031 143.296875 C 64.976562 143.515625 64.675781 143.484375 64.445312 143.722656 C 64.160156 144.03125 64.121094 144.636719 64.070312 145.164062 C 63.894531 146.96875 63.308594 148.609375 62.808594 150.269531 C 62.304688 151.933594 61.882812 153.746094 62.066406 155.550781 C 62.191406 156.773438 62.585938 158.082031 62.21875 159.183594 C 62.128906 159.457031 61.992188 159.695312 61.890625 159.960938 C 61.386719 161.25 61.671875 162.882812 61.652344 164.386719 C 61.660156 164.550781 61.636719 164.71875 61.585938 164.863281 C 61.507812 165.003906 61.410156 165.117188 61.304688 165.195312 C 60.941406 165.605469 60.71875 166.246094 60.699219 166.9375 C 60.6875 167.621094 60.738281 168.300781 60.859375 168.960938 C 60.878906 169.226562 60.957031 169.472656 61.078125 169.664062 C 61.21875 169.804688 61.386719 169.878906 61.554688 169.871094 C 62.664062 170.007812 63.757812 170.414062 64.785156 171.074219 C 65.457031 171.5 66.109375 172.039062 66.820312 172.242188 C 66.960938 172.308594 67.113281 172.285156 67.238281 172.175781 C 67.328125 172.050781 67.390625 171.886719 67.414062 171.707031 C 67.691406 170.324219 67.96875 168.898438 67.875 167.464844 C 67.832031 166.84375 67.726562 166.242188 67.699219 165.625 C 67.574219 163.183594 68.652344 160.984375 68.992188 158.578125 C 69.148438 157.492188 69.148438 156.371094 69.257812 155.277344 C 69.554688 152.277344 70.632812 149.585938 71.050781 146.617188 C 71.109375 146.066406 71.199219 145.519531 71.320312 144.992188 C 71.628906 143.84375 72.34375 142.910156 72.359375 141.667969 C 72.371094 141.394531 72.324219 141.121094 72.226562 140.890625 C 72.058594 140.609375 71.839844 140.421875 71.59375 140.347656 C 70.632812 139.945312 69.65625 139.640625 68.664062 139.445312 C 68.210938 139.308594 67.75 139.257812 67.289062 139.296875 C 66.691406 139.40625 66.113281 139.71875 65.605469 140.207031 C 64.921875 140.855469 65.359375 141.007812 65.507812 141.941406 Z M 65.507812 141.941406 "/>
</g>
<mask id="mask6">
  <g filter="url(#alpha)">
<rect x="0" y="0" width="200" height="200" style="fill:rgb(0%,0%,0%);fill-opacity:0.101961;stroke:none;"/>
  </g>
</mask>
<clipPath id="clip7">
  <rect x="0" y="0" width="200" height="200"/>
</clipPath>
<g id="surface23" clip-path="url(#clip7)">
<path style=" stroke:none;fill-rule:nonzero;fill:rgb(0%,0%,0%);fill-opacity:1;" d="M 60.847656 151.136719 L 59.546875 151.714844 L 59.476562 149.949219 L 60.761719 149.257812 Z M 60.847656 151.136719 "/>
</g>
<mask id="mask7">
  <g filter="url(#alpha)">
<rect x="0" y="0" width="200" height="200" style="fill:rgb(0%,0%,0%);fill-opacity:0.101961;stroke:none;"/>
  </g>
</mask>
<clipPath id="clip8">
  <rect x="0" y="0" width="200" height="200"/>
</clipPath>
<g id="surface26" clip-path="url(#clip8)">
<path style=" stroke:none;fill-rule:nonzero;fill:rgb(0%,0%,0%);fill-opacity:1;" d="M 69.574219 144.757812 C 65.992188 146.410156 62.269531 148.21875 62.269531 148.21875 C 62.269531 148.21875 58.878906 150.03125 57.441406 148.21875 C 57.257812 148 57.058594 147.828125 56.839844 147.710938 C 57.027344 147.914062 57.230469 148.085938 57.441406 148.21875 L 48.253906 143.683594 L 48.683594 141.859375 L 65.363281 140.984375 L 69.523438 144.554688 Z M 69.574219 144.757812 "/>
</g>
<mask id="mask8">
  <g filter="url(#alpha)">
<rect x="0" y="0" width="200" height="200" style="fill:rgb(0%,0%,0%);fill-opacity:0.101961;stroke:none;"/>
  </g>
</mask>
<clipPath id="clip9">
  <rect x="0" y="0" width="200" height="200"/>
</clipPath>
<g id="surface29" clip-path="url(#clip9)">
<path style=" stroke:none;fill-rule:nonzero;fill:rgb(0%,0%,0%);fill-opacity:1;" d="M 90 176.5 C 89.550781 177.476562 88.84375 178.109375 88.066406 178.242188 C 87.300781 178.390625 86.5 178.09375 85.753906 178.417969 C 85.519531 178.476562 85.320312 178.710938 85.226562 179.042969 C 85.207031 179.265625 85.195312 179.484375 85.191406 179.707031 C 85.105469 180.429688 84.484375 180.59375 84 180.589844 L 82.007812 180.570312 C 81.59375 180.570312 81.132812 180.535156 80.835938 180.09375 C 80.542969 179.597656 80.539062 178.847656 80.820312 178.339844 C 81.96875 178.265625 83.101562 178.339844 84.246094 177.976562 C 84.714844 177.832031 85.171875 177.640625 85.640625 177.542969 C 86.660156 177.320312 87.746094 177.507812 88.683594 176.847656 C 89.464844 176.304688 90.023438 175.203125 90.355469 173.972656 C 90.449219 174.851562 90.324219 175.753906 90 176.5 Z M 90 176.5 "/>
</g>
<mask id="mask9">
  <g filter="url(#alpha)">
<rect x="0" y="0" width="200" height="200" style="fill:rgb(0%,0%,0%);fill-opacity:0.101961;stroke:none;"/>
  </g>
</mask>
<clipPath id="clip10">
  <rect x="0" y="0" width="200" height="200"/>
</clipPath>
<g id="surface32" clip-path="url(#clip10)">
<path style=" stroke:none;fill-rule:nonzero;fill:rgb(0%,0%,0%);fill-opacity:1;" d="M 75.699219 141.074219 C 75.949219 140.769531 76.167969 140.40625 76.339844 139.992188 C 76.515625 139.578125 76.585938 139.078125 76.535156 138.589844 C 76.675781 139.84375 76.421875 141.121094 75.847656 142.039062 C 75.402344 142.734375 74.570312 143.417969 73.921875 143.179688 C 74.011719 142.382812 75.285156 141.613281 75.699219 141.074219 Z M 75.699219 141.074219 "/>
</g>
<mask id="mask10">
  <g filter="url(#alpha)">
<rect x="0" y="0" width="200" height="200" style="fill:rgb(0%,0%,0%);fill-opacity:0.101961;stroke:none;"/>
  </g>
</mask>
<clipPath id="clip11">
  <rect x="0" y="0" width="200" height="200"/>
</clipPath>
<g id="surface35" clip-path="url(#clip11)">
<path style=" stroke:none;fill-rule:nonzero;fill:rgb(0%,0%,0%);fill-opacity:1;" d="M 64.640625 127.570312 C 64.53125 128.160156 64.238281 128.625 63.855469 128.808594 C 63.476562 128.988281 63.082031 129.058594 62.6875 129.019531 L 62.335938 129.019531 C 57.691406 128.863281 52.996094 127.285156 48.460938 128.789062 C 47.914062 128.960938 47.378906 129.203125 46.855469 129.511719 C 46.195312 129.914062 45.574219 130.460938 45.015625 131.136719 L 45.015625 131.101562 C 45.261719 129.175781 45.925781 128.703125 47.023438 127.824219 C 48.289062 126.804688 49.613281 125.960938 50.980469 125.304688 C 53.636719 124.03125 56.492188 123.574219 59.234375 124.507812 C 60.511719 124.945312 61.746094 125.671875 63.027344 126.097656 C 63.53125 126.265625 64.039062 126.386719 64.550781 126.484375 C 64.652344 126.824219 64.683594 127.203125 64.640625 127.570312 Z M 64.640625 127.570312 "/>
</g>
<mask id="mask11">
  <g filter="url(#alpha)">
<rect x="0" y="0" width="200" height="200" style="fill:rgb(0%,0%,0%);fill-opacity:0.101961;stroke:none;"/>
  </g>
</mask>
<clipPath id="clip12">
  <rect x="0" y="0" width="200" height="200"/>
</clipPath>
<g id="surface38" clip-path="url(#clip12)">
<path style=" stroke:none;fill-rule:nonzero;fill:rgb(0%,0%,0%);fill-opacity:1;" d="M 49.691406 110.90625 C 49.160156 113.480469 47.710938 115.804688 45.945312 115.914062 C 45.816406 115.9375 45.6875 115.902344 45.570312 115.8125 C 45.351562 115.601562 45.34375 115.105469 45.433594 114.730469 C 45.527344 114.351562 45.683594 114.011719 45.707031 113.617188 C 45.714844 113.539062 45.710938 113.457031 45.699219 113.375 C 46.632812 111.355469 47.542969 109.3125 47.902344 106.917969 C 47.972656 106.507812 47.996094 106.078125 47.964844 105.652344 C 47.917969 105.164062 47.757812 104.722656 47.667969 104.253906 C 47.511719 103.417969 47.585938 102.535156 47.628906 101.667969 C 47.8125 97.863281 47.398438 94.042969 46.417969 90.535156 C 46.179688 89.6875 45.90625 88.832031 45.824219 87.929688 C 45.949219 87.570312 46.15625 87.296875 46.40625 87.167969 C 46.988281 86.871094 47.367188 87.332031 47.453125 88.175781 C 47.59375 89.609375 47.511719 91.074219 47.699219 92.511719 C 47.871094 93.859375 48.132812 95.171875 48.476562 96.4375 C 48.789062 97.582031 49.167969 98.6875 49.410156 99.871094 C 49.59375 100.847656 49.722656 101.84375 49.796875 102.855469 C 50.039062 105.542969 50.226562 108.328125 49.691406 110.90625 Z M 49.691406 110.90625 "/>
</g>
<mask id="mask12">
  <g filter="url(#alpha)">
<rect x="0" y="0" width="200" height="200" style="fill:rgb(0%,0%,0%);fill-opacity:0.101961;stroke:none;"/>
  </g>
</mask>
<clipPath id="clip13">
  <rect x="0" y="0" width="200" height="200"/>
</clipPath>
<g id="surface41" clip-path="url(#clip13)">
<path style=" stroke:none;fill-rule:nonzero;fill:rgb(0%,0%,0%);fill-opacity:1;" d="M 64.640625 127.179688 C 64.53125 127.773438 64.238281 128.242188 63.855469 128.425781 C 63.476562 128.601562 63.082031 128.671875 62.6875 128.632812 L 62.335938 128.632812 C 60.824219 127.09375 59.003906 126.421875 57.203125 126.734375 C 56.625 126.839844 56.046875 127.046875 55.472656 126.964844 C 54.304688 126.800781 53.359375 125.519531 52.320312 124.695312 C 49.902344 122.867188 47 123.46875 44.988281 126.21875 L 44.886719 126.355469 C 44.871094 126.246094 44.863281 126.136719 44.859375 126.027344 C 44.828125 125.046875 45.054688 124.484375 45.578125 123.957031 C 47.132812 122.386719 49.027344 121.304688 50.800781 120.496094 C 51.746094 120.039062 52.71875 119.75 53.703125 119.632812 C 55.097656 119.507812 56.492188 119.90625 57.847656 120.40625 C 59.519531 121.039062 61.167969 121.871094 62.648438 123.207031 C 63.371094 123.867188 64.078125 124.679688 64.46875 125.835938 C 64.625 126.242188 64.6875 126.714844 64.640625 127.179688 Z M 64.640625 127.179688 "/>
</g>
<mask id="mask13">
  <g filter="url(#alpha)">
<rect x="0" y="0" width="200" height="200" style="fill:rgb(0%,0%,0%);fill-opacity:0.101961;stroke:none;"/>
  </g>
</mask>
<clipPath id="clip14">
  <rect x="0" y="0" width="200" height="200"/>
</clipPath>
<g id="surface44" clip-path="url(#clip14)">
<path style=" stroke:none;fill-rule:nonzero;fill:rgb(0%,0%,0%);fill-opacity:1;" d="M 65.992188 113.792969 C 66.21875 118.3125 67.660156 122.601562 68.046875 127.035156 C 67.277344 126.035156 66.203125 125.03125 66.058594 123.867188 C 65.898438 122.609375 65.390625 120.960938 65.304688 119.691406 C 65.21875 118.421875 65.800781 116.867188 65.191406 115.996094 C 64.894531 115.570312 65.683594 115.6875 65.394531 115.253906 C 64.742188 114.277344 64.582031 112.78125 64.539062 111.390625 C 64.472656 108.929688 64.675781 106.441406 64.378906 104.023438 C 64.203125 102.527344 63.832031 101.105469 63.535156 99.65625 C 63.191406 97.96875 62.945312 96.238281 62.699219 94.507812 C 62.453125 92.96875 62.277344 91.40625 62.167969 89.828125 C 62.089844 88.472656 62.125 87.039062 62.519531 85.800781 C 62.914062 84.566406 63.714844 83.5625 64.609375 83.582031 C 67.605469 83.640625 67.085938 89.859375 67.746094 92.730469 C 68.007812 93.875 68.363281 94.980469 68.507812 96.171875 C 68.558594 96.640625 68.589844 97.113281 68.59375 97.589844 C 68.195312 99.164062 67.46875 100.492188 67 102.027344 C 66.410156 103.96875 66.265625 106.148438 66.132812 108.285156 C 66.015625 110.121094 65.902344 111.960938 65.992188 113.792969 Z M 65.992188 113.792969 "/>
</g>
<mask id="mask14">
  <g filter="url(#alpha)">
<rect x="0" y="0" width="200" height="200" style="fill:rgb(0%,0%,0%);fill-opacity:0.101961;stroke:none;"/>
  </g>
</mask>
<clipPath id="clip15">
  <rect x="0" y="0" width="200" height="200"/>
</clipPath>
<g id="surface47" clip-path="url(#clip15)">
<path style=" stroke:none;fill-rule:nonzero;fill:rgb(0%,0%,0%);fill-opacity:1;" d="M 59.40625 93.722656 C 59.683594 94.222656 60.042969 94.773438 60.46875 94.675781 C 60.402344 94.835938 60.261719 94.886719 60.152344 94.789062 C 60.050781 94.6875 59.972656 94.542969 59.917969 94.375 L 59.3125 92.808594 C 59.234375 92.605469 58.683594 91.421875 58.550781 92.105469 C 58.496094 92.394531 59.269531 93.476562 59.40625 93.722656 Z M 59.40625 93.722656 "/>
</g>
<mask id="mask15">
  <g filter="url(#alpha)">
<rect x="0" y="0" width="200" height="200" style="fill:rgb(0%,0%,0%);fill-opacity:0.101961;stroke:none;"/>
  </g>
</mask>
<clipPath id="clip16">
  <rect x="0" y="0" width="200" height="200"/>
</clipPath>
<g id="surface50" clip-path="url(#clip16)">
<path style=" stroke:none;fill-rule:nonzero;fill:rgb(0%,0%,0%);fill-opacity:1;" d="M 59.078125 97.621094 C 59.0625 97.109375 58.921875 96.625 58.683594 96.265625 C 58.472656 95.96875 58.222656 95.742188 57.953125 95.589844 C 57.289062 95.171875 56.503906 94.835938 55.785156 94.890625 C 56.046875 95.476562 56.886719 95.828125 57.308594 96.15625 C 57.90625 96.628906 58.496094 97.117188 59.078125 97.621094 Z M 59.078125 97.621094 "/>
</g>
<mask id="mask16">
  <g filter="url(#alpha)">
<rect x="0" y="0" width="200" height="200" style="fill:rgb(0%,0%,0%);fill-opacity:0.101961;stroke:none;"/>
  </g>
</mask>
<clipPath id="clip17">
  <rect x="0" y="0" width="200" height="200"/>
</clipPath>
<g id="surface53" clip-path="url(#clip17)">
<path style=" stroke:none;fill-rule:nonzero;fill:rgb(0%,0%,0%);fill-opacity:1;" d="M 60.964844 108.722656 C 60.84375 110.109375 60.101562 111.160156 59.351562 111.972656 C 58.601562 112.785156 57.757812 113.484375 57.265625 114.660156 C 56.925781 115.472656 56.773438 116.417969 56.488281 117.265625 C 56.167969 118.199219 55.691406 118.988281 55.3125 119.863281 C 54.929688 120.742188 54.632812 121.792969 54.75 122.832031 C 54.753906 122.929688 54.785156 123.019531 54.832031 123.082031 C 54.90625 123.128906 54.992188 123.113281 55.054688 123.042969 C 55.828125 122.425781 56.132812 121.011719 56.457031 119.792969 C 56.796875 118.558594 57.179688 117.351562 57.605469 116.179688 C 57.792969 115.640625 58.003906 115.046875 58.359375 114.746094 C 58.605469 114.59375 58.855469 114.460938 59.109375 114.347656 C 59.46875 114.097656 59.785156 113.71875 60.03125 113.242188 C 60.996094 111.476562 61.5 109.226562 61.445312 106.925781 C 61.433594 106.4375 61.417969 104.101562 60.941406 104.824219 C 60.464844 105.542969 61.046875 107.777344 60.964844 108.722656 Z M 60.964844 108.722656 "/>
</g>
<mask id="mask17">
  <g filter="url(#alpha)">
<rect x="0" y="0" width="200" height="200" style="fill:rgb(0%,0%,0%);fill-opacity:0.101961;stroke:none;"/>
  </g>
</mask>
<clipPath id="clip18">
  <rect x="0" y="0" width="200" height="200"/>
</clipPath>
<g id="surface56" clip-path="url(#clip18)">
<path style=" stroke:none;fill-rule:nonzero;fill:rgb(0%,0%,0%);fill-opacity:1;" d="M 48.347656 86.953125 C 47.570312 84.804688 45.527344 83.742188 45.054688 81.632812 C 44.816406 82.125 44.683594 82.714844 44.671875 83.328125 C 44.632812 86.136719 47.175781 87.171875 48.0625 89.628906 C 48.355469 90.5 48.476562 91.480469 48.417969 92.453125 C 48.699219 90.566406 48.945312 88.597656 48.347656 86.953125 Z M 48.347656 86.953125 "/>
<path style=" stroke:none;fill-rule:nonzero;fill:rgb(0%,0%,0%);fill-opacity:1;" d="M 64.125 65.535156 C 64.441406 64.109375 64.90625 62.675781 64.925781 61.199219 C 64.929688 61.039062 64.925781 60.878906 64.917969 60.71875 C 64.5625 62.347656 64.019531 63.933594 64.125 65.535156 Z M 64.125 65.535156 "/>
<path style=" stroke:none;fill-rule:nonzero;fill:rgb(0%,0%,0%);fill-opacity:1;" d="M 48.652344 73.113281 C 49.261719 70.167969 48.734375 66.515625 48.734375 63.246094 C 48.734375 62.851562 48.742188 62.453125 48.761719 62.058594 C 48.554688 63.320312 48.449219 64.617188 48.449219 65.921875 C 48.453125 68.253906 48.71875 70.785156 48.652344 73.113281 Z M 48.652344 73.113281 "/>
<path style=" stroke:none;fill-rule:nonzero;fill:rgb(0%,0%,0%);fill-opacity:1;" d="M 66.058594 85.820312 C 65.046875 87.445312 63.746094 88.605469 62.675781 90.15625 C 60.761719 92.914062 59.78125 96.6875 59.535156 100.691406 C 59.992188 97.710938 60.914062 94.964844 62.390625 92.832031 C 63.453125 91.289062 64.761719 90.136719 65.773438 88.496094 C 66.980469 86.488281 67.679688 83.886719 67.75 81.164062 C 67.441406 82.902344 66.863281 84.503906 66.058594 85.820312 Z M 66.058594 85.820312 "/>
<path style=" stroke:none;fill-rule:nonzero;fill:rgb(0%,0%,0%);fill-opacity:1;" d="M 56.046875 113.144531 C 55.304688 113.144531 54.398438 112.953125 54.128906 111.890625 C 53.882812 110.914062 54.304688 109.59375 53.816406 108.867188 C 53.585938 108.527344 53.242188 108.480469 52.933594 108.402344 C 50.941406 107.914062 49.304688 105.472656 48.558594 102.605469 C 48.007812 100.488281 47.890625 98.175781 48.027344 95.894531 C 48.015625 95.984375 48 96.074219 47.988281 96.164062 C 47.566406 99.183594 47.523438 102.417969 48.269531 105.289062 C 49.015625 108.15625 50.652344 110.59375 52.640625 111.085938 C 52.957031 111.164062 53.304688 111.210938 53.527344 111.546875 C 54.019531 112.273438 53.589844 113.597656 53.839844 114.570312 C 54.109375 115.632812 55.015625 115.839844 55.757812 115.828125 C 57.34375 115.796875 58.921875 115.527344 60.46875 115.011719 C 60.25 114.222656 60.058594 113.414062 59.898438 112.59375 C 58.625 112.9375 57.339844 113.125 56.046875 113.144531 Z M 56.046875 113.144531 "/>
</g>
<mask id="mask18">
  <g filter="url(#alpha)">
<rect x="0" y="0" width="200" height="200" style="fill:rgb(0%,0%,0%);fill-opacity:0.101961;stroke:none;"/>
  </g>
</mask>
<clipPath id="clip19">
  <rect x="0" y="0" width="200" height="200"/>
</clipPath>
<g id="surface59" clip-path="url(#clip19)">
<path style=" stroke:none;fill-rule:nonzero;fill:rgb(0%,0%,0%);fill-opacity:1;" d="M 61.84375 101.328125 C 62.28125 101.832031 62.753906 99.910156 62.484375 99.429688 C 62.414062 99.554688 61.777344 101.257812 61.84375 101.328125 Z M 61.84375 101.328125 "/>
</g>
<mask id="mask19">
  <g filter="url(#alpha)">
<rect x="0" y="0" width="200" height="200" style="fill:rgb(0%,0%,0%);fill-opacity:0.101961;stroke:none;"/>
  </g>
</mask>
<clipPath id="clip20">
  <rect x="0" y="0" width="200" height="200"/>
</clipPath>
<g id="surface62" clip-path="url(#clip20)">
<path style=" stroke:none;fill-rule:nonzero;fill:rgb(0%,0%,0%);fill-opacity:1;" d="M 63.707031 136.109375 C 64.222656 135.835938 64.769531 135.566406 65.105469 134.914062 C 65.382812 134.394531 65.613281 132.316406 65.023438 133.3125 C 64.527344 134.164062 64.289062 135.289062 63.707031 136.109375 Z M 63.707031 136.109375 "/>
</g>
<mask id="mask20">
  <g filter="url(#alpha)">
<rect x="0" y="0" width="200" height="200" style="fill:rgb(0%,0%,0%);fill-opacity:0.101961;stroke:none;"/>
  </g>
</mask>
<clipPath id="clip21">
  <rect x="0" y="0" width="200" height="200"/>
</clipPath>
<g id="surface65" clip-path="url(#clip21)">
<path style=" stroke:none;fill-rule:nonzero;fill:rgb(0%,0%,0%);fill-opacity:1;" d="M 68.953125 133.933594 C 68.890625 134.570312 68.773438 135.234375 68.480469 135.695312 C 68.425781 135.78125 68.300781 135.835938 68.285156 135.722656 C 68.617188 135.453125 68.921875 135.121094 69.199219 134.734375 C 69.796875 133.828125 69.878906 131.589844 68.96875 130.996094 C 68.960938 131.976562 69.050781 132.933594 68.953125 133.933594 Z M 68.953125 133.933594 "/>
</g>
<mask id="mask21">
  <g filter="url(#alpha)">
<rect x="0" y="0" width="200" height="200" style="fill:rgb(0%,0%,0%);fill-opacity:0.101961;stroke:none;"/>
  </g>
</mask>
<clipPath id="clip22">
  <rect x="0" y="0" width="200" height="200"/>
</clipPath>
<g id="surface68" clip-path="url(#clip22)">
<path style=" stroke:none;fill-rule:nonzero;fill:rgb(0%,0%,0%);fill-opacity:1;" d="M 124.125 151.675781 L 125.425781 152.257812 L 125.492188 150.492188 L 124.207031 149.800781 Z M 124.125 151.675781 "/>
</g>
<mask id="mask22">
  <g filter="url(#alpha)">
<rect x="0" y="0" width="200" height="200" style="fill:rgb(0%,0%,0%);fill-opacity:0.101961;stroke:none;"/>
  </g>
</mask>
<clipPath id="clip23">
  <rect x="0" y="0" width="200" height="200"/>
</clipPath>
<g id="surface71" clip-path="url(#clip23)">
<path style=" stroke:none;fill-rule:nonzero;fill:rgb(0%,0%,0%);fill-opacity:1;" d="M 110.320312 171.328125 C 110.285156 171.753906 110.210938 172.171875 110.109375 172.570312 C 110 173.089844 109.769531 173.53125 109.460938 173.804688 C 109.253906 173.9375 109.03125 174.003906 108.808594 174.003906 C 107.976562 174.078125 107.09375 174.058594 106.378906 173.410156 C 106.070312 173.109375 105.792969 172.75 105.542969 172.34375 C 103.933594 169.894531 102.46875 167.226562 101.167969 164.375 C 100.949219 163.898438 100.726562 163.332031 100.824219 162.75 C 101.371094 162.515625 101.914062 162.242188 102.445312 161.921875 L 102.472656 161.953125 C 103.015625 162.542969 103.410156 163.394531 103.792969 164.230469 L 105.03125 166.898438 C 105.253906 167.425781 105.511719 167.90625 105.808594 168.335938 C 106.175781 168.785156 106.578125 169.15625 107.011719 169.441406 C 107.59375 169.871094 108.175781 170.304688 108.78125 170.652344 C 109.171875 170.890625 109.832031 170.988281 110.320312 171.328125 Z M 110.320312 171.328125 "/>
</g>
<mask id="mask23">
  <g filter="url(#alpha)">
<rect x="0" y="0" width="200" height="200" style="fill:rgb(0%,0%,0%);fill-opacity:0.101961;stroke:none;"/>
  </g>
</mask>
<clipPath id="clip24">
  <rect x="0" y="0" width="200" height="200"/>
</clipPath>
<g id="surface74" clip-path="url(#clip24)">
<path style=" stroke:none;fill-rule:nonzero;fill:rgb(0%,0%,0%);fill-opacity:1;" d="M 115.394531 145.300781 C 118.980469 146.953125 122.699219 148.757812 122.699219 148.757812 C 122.699219 148.757812 126.09375 150.570312 127.527344 148.757812 C 127.710938 148.542969 127.914062 148.371094 128.128906 148.253906 C 127.941406 148.457031 127.742188 148.625 127.527344 148.757812 L 136.714844 144.226562 L 136.289062 142.402344 L 119.609375 141.527344 L 115.453125 145.09375 Z M 115.394531 145.300781 "/>
</g>
<mask id="mask24">
  <g filter="url(#alpha)">
<rect x="0" y="0" width="200" height="200" style="fill:rgb(0%,0%,0%);fill-opacity:0.101961;stroke:none;"/>
  </g>
</mask>
<clipPath id="clip25">
  <rect x="0" y="0" width="200" height="200"/>
</clipPath>
<g id="surface77" clip-path="url(#clip25)">
<path style=" stroke:none;fill-rule:nonzero;fill:rgb(0%,0%,0%);fill-opacity:1;" d="M 107.160156 174.582031 C 106.75 175.773438 105.742188 176.109375 104.859375 176.128906 C 103.628906 176.152344 102.410156 175.820312 101.261719 175.144531 C 100.605469 174.761719 99.980469 174.265625 99.300781 173.984375 C 98.296875 173.5625 97.179688 173.597656 96.292969 172.746094 C 95.824219 172.269531 95.4375 171.625 95.164062 170.871094 C 95.113281 170.738281 95.0625 170.597656 95.015625 170.457031 C 95.191406 170.480469 95.355469 170.507812 95.445312 170.519531 C 96.53125 170.679688 97.566406 171.289062 98.605469 171.746094 C 100.046875 172.382812 101.53125 172.738281 103.03125 172.800781 C 104.09375 172.847656 105.199219 172.730469 106.128906 171.933594 C 106.40625 171.667969 106.691406 171.425781 106.988281 171.210938 C 107.082031 171.539062 107.160156 171.875 107.222656 172.21875 C 107.367188 173 107.402344 173.871094 107.160156 174.582031 Z M 107.160156 174.582031 "/>
</g>
<mask id="mask25">
  <g filter="url(#alpha)">
<rect x="0" y="0" width="200" height="200" style="fill:rgb(0%,0%,0%);fill-opacity:0.101961;stroke:none;"/>
  </g>
</mask>
<clipPath id="clip26">
  <rect x="0" y="0" width="200" height="200"/>
</clipPath>
<g id="surface80" clip-path="url(#clip26)">
<path style=" stroke:none;fill-rule:nonzero;fill:rgb(0%,0%,0%);fill-opacity:1;" d="M 109.269531 141.617188 C 109.019531 141.3125 108.800781 140.945312 108.628906 140.535156 C 108.453125 140.117188 108.382812 139.621094 108.433594 139.132812 C 108.292969 140.382812 108.550781 141.664062 109.121094 142.578125 C 109.566406 143.277344 110.398438 143.960938 111.050781 143.722656 C 110.957031 142.925781 109.683594 142.15625 109.269531 141.617188 Z M 109.269531 141.617188 "/>
</g>
<mask id="mask26">
  <g filter="url(#alpha)">
<rect x="0" y="0" width="200" height="200" style="fill:rgb(0%,0%,0%);fill-opacity:0.101961;stroke:none;"/>
  </g>
</mask>
<clipPath id="clip27">
  <rect x="0" y="0" width="200" height="200"/>
</clipPath>
<g id="surface83" clip-path="url(#clip27)">
<path style=" stroke:none;fill-rule:nonzero;fill:rgb(42.352941%,38.823529%,100%);fill-opacity:1;" d="M 192.460938 181.589844 C 192.460938 179.25 184.742188 177.347656 175.214844 177.347656 C 165.691406 177.347656 157.96875 179.25 157.96875 181.589844 C 157.96875 183.933594 165.691406 185.832031 175.214844 185.832031 C 184.742188 185.832031 192.460938 183.933594 192.460938 181.589844 Z M 192.460938 181.589844 "/>
</g>
<mask id="mask27">
  <g filter="url(#alpha)">
<rect x="0" y="0" width="200" height="200" style="fill:rgb(0%,0%,0%);fill-opacity:0.101961;stroke:none;"/>
  </g>
</mask>
<clipPath id="clip28">
  <rect x="0" y="0" width="200" height="200"/>
</clipPath>
<g id="surface86" clip-path="url(#clip28)">
<path style=" stroke:none;fill-rule:nonzero;fill:rgb(0%,0%,0%);fill-opacity:1;" d="M 98.5 82.5625 C 97.417969 83.324219 96.617188 84.789062 96.324219 86.554688 L 89.058594 86.554688 C 88.765625 84.789062 87.964844 83.324219 86.886719 82.5625 Z M 98.5 82.5625 "/>
</g>
<mask id="mask28">
  <g filter="url(#alpha)">
<rect x="0" y="0" width="200" height="200" style="fill:rgb(0%,0%,0%);fill-opacity:0.101961;stroke:none;"/>
  </g>
</mask>
<clipPath id="clip29">
  <rect x="0" y="0" width="200" height="200"/>
</clipPath>
<g id="surface89" clip-path="url(#clip29)">
<path style=" stroke:none;fill-rule:nonzero;fill:rgb(0%,0%,0%);fill-opacity:1;" d="M 98.582031 93.570312 L 98.582031 94.1875 L 86.613281 94.1875 L 86.613281 93.6875 C 86.941406 93.496094 87.253906 93.242188 87.539062 92.933594 L 97.847656 92.933594 C 98.074219 93.183594 98.320312 93.398438 98.582031 93.570312 Z M 98.582031 93.570312 "/>
</g>
</defs>
<g id="surface1">
<use xlink:href="#surface5" mask="url(#mask0)"/>
<path style=" stroke:none;fill-rule:nonzero;fill:rgb(33.72549%,33.72549%,38.039216%);fill-opacity:1;" d="M 63.71875 97.355469 L 113.882812 97.355469 L 113.882812 115.140625 L 63.71875 115.140625 Z M 63.71875 97.355469 "/>
<use xlink:href="#surface8" mask="url(#mask1)"/>
<path style=" stroke:none;fill-rule:nonzero;fill:rgb(73.72549%,74.509804%,78.823529%);fill-opacity:1;" d="M 69.71875 115.726562 L 70.070312 163.207031 L 65.246094 181.859375 L 64.871094 115.726562 Z M 69.71875 115.726562 "/>
<path style=" stroke:none;fill-rule:nonzero;fill:rgb(33.72549%,33.72549%,38.039216%);fill-opacity:1;" d="M 64.246094 100.769531 L 113.085938 101.21875 L 113.085938 114.464844 L 64.246094 114.464844 Z M 64.246094 100.769531 "/>
<path style=" stroke:none;fill-rule:nonzero;fill:rgb(73.72549%,74.509804%,78.823529%);fill-opacity:1;" d="M 108.90625 115.726562 L 113.085938 116.628906 L 113.085938 181.136719 L 108.90625 161.40625 Z M 108.90625 115.726562 "/>
<path style=" stroke:none;fill-rule:nonzero;fill:rgb(93.72549%,93.72549%,94.117647%);fill-opacity:1;" d="M 114.675781 98.066406 L 138.210938 98.066406 L 138.210938 174.652344 L 114.675781 174.652344 Z M 114.675781 98.066406 "/>
<path style=" stroke:none;fill-rule:nonzero;fill:rgb(33.72549%,33.72549%,38.039216%);fill-opacity:1;" d="M 116.558594 100.195312 L 136.328125 100.195312 L 136.328125 159.066406 L 116.558594 159.066406 Z M 116.558594 100.195312 "/>
<use xlink:href="#surface11" mask="url(#mask2)"/>
<path style=" stroke:none;fill-rule:nonzero;fill:rgb(33.72549%,33.72549%,38.039216%);fill-opacity:1;" d="M 116.558594 101.402344 L 136.328125 101.402344 L 136.328125 114.464844 L 116.558594 114.464844 Z M 116.558594 101.402344 "/>
<path style=" stroke:none;fill-rule:nonzero;fill:rgb(33.72549%,33.72549%,38.039216%);fill-opacity:1;" d="M 116.558594 115.726562 L 136.328125 115.726562 L 136.328125 143.476562 L 116.558594 143.476562 Z M 116.558594 115.726562 "/>
<path style=" stroke:none;fill-rule:nonzero;fill:rgb(33.72549%,33.72549%,38.039216%);fill-opacity:1;" d="M 116.558594 145.191406 L 136.328125 145.191406 L 136.328125 172.941406 L 116.558594 172.941406 Z M 116.558594 145.191406 "/>
<use xlink:href="#surface14" mask="url(#mask3)"/>
<path style=" stroke:none;fill-rule:nonzero;fill:rgb(33.72549%,33.72549%,38.039216%);fill-opacity:1;" d="M 118.65625 177.144531 C 118.65625 175.769531 118.085938 174.652344 117.382812 174.652344 C 116.679688 174.652344 116.109375 175.769531 116.109375 177.144531 C 116.109375 178.523438 116.679688 179.640625 117.382812 179.640625 C 118.085938 179.640625 118.65625 178.523438 118.65625 177.144531 Z M 118.65625 177.144531 "/>
<path style=" stroke:none;fill-rule:nonzero;fill:rgb(33.72549%,33.72549%,38.039216%);fill-opacity:1;" d="M 136.328125 177.265625 C 136.328125 175.886719 135.757812 174.773438 135.054688 174.773438 C 134.351562 174.773438 133.78125 175.886719 133.78125 177.265625 C 133.78125 178.640625 134.351562 179.757812 135.054688 179.757812 C 135.757812 179.757812 136.328125 178.640625 136.328125 177.265625 Z M 136.328125 177.265625 "/>
<path style=" stroke:none;fill-rule:nonzero;fill:rgb(93.72549%,93.72549%,94.117647%);fill-opacity:1;" d="M 63.539062 181.859375 L 65.246094 181.859375 L 64.777344 98.730469 L 62.1875 98.730469 Z M 63.539062 181.859375 "/>
<path style=" stroke:none;fill-rule:nonzero;fill:rgb(93.72549%,93.72549%,94.117647%);fill-opacity:1;" d="M 113.085938 98.066406 L 113.085938 181.136719 L 114.675781 181.136719 L 114.675781 98.730469 Z M 113.085938 98.066406 "/>
<path style=" stroke:none;fill-rule:nonzero;fill:rgb(93.72549%,93.72549%,94.117647%);fill-opacity:1;" d="M 64.859375 113.652344 L 64.859375 116.628906 L 113.085938 116.628906 L 113.085938 114.464844 Z M 64.859375 113.652344 "/>
<path style=" stroke:none;fill-rule:nonzero;fill:rgb(100%,100%,100%);fill-opacity:1;" d="M 68.128906 92.480469 L 129.269531 92.480469 L 138.152344 96.988281 L 138.152344 99.597656 L 61.890625 98.699219 L 61.890625 96.039062 Z M 68.128906 92.480469 "/>
<path style=" stroke:none;fill-rule:nonzero;fill:rgb(73.72549%,74.509804%,78.823529%);fill-opacity:1;" d="M 61.890625 96.039062 L 138.152344 96.988281 L 138.152344 99.597656 L 61.890625 98.699219 Z M 61.890625 96.039062 "/>
<path style=" stroke:none;fill-rule:nonzero;fill:url(#linear0);" d="M 68.800781 127.023438 L 68.445312 126.941406 C 68.445312 126.914062 68.445312 126.894531 68.445312 126.871094 C 68.433594 126.746094 68.421875 126.621094 68.410156 126.492188 C 68.554688 126.667969 68.695312 126.84375 68.820312 127.023438 Z M 68.800781 127.023438 "/>
<path style=" stroke:none;fill-rule:nonzero;fill:rgb(63.529412%,39.607843%,39.607843%);fill-opacity:1;" d="M 61.109375 168.867188 C 61.339844 168.785156 61.570312 168.71875 61.804688 168.667969 C 63.410156 168.320312 65.046875 168.6875 66.515625 169.730469 C 66.367188 171.40625 66.222656 173.136719 66.535156 174.757812 C 66.753906 175.894531 67.195312 176.925781 67.289062 178.109375 C 67.773438 178.238281 68.167969 178.769531 68.308594 179.488281 C 68.375 179.796875 68.410156 180.125 68.410156 180.453125 C 68.40625 180.859375 68.375 181.261719 68.308594 181.65625 C 68.265625 182.308594 67.886719 182.789062 67.460938 182.738281 C 66.089844 182.976562 64.746094 182.152344 63.472656 181.339844 L 60.996094 179.765625 C 60.703125 179.578125 60.414062 179.394531 60.132812 179.164062 C 59.609375 178.730469 59.140625 178.144531 58.753906 177.4375 C 58.675781 177.3125 58.617188 177.15625 58.589844 176.984375 C 58.546875 176.507812 58.910156 176.222656 59.140625 175.898438 C 59.210938 175.800781 59.269531 175.691406 59.320312 175.570312 C 59.59375 174.933594 59.621094 174.058594 59.785156 173.3125 C 60.171875 171.535156 61.378906 170.394531 61.800781 168.660156 C 61.824219 168.566406 61.847656 168.472656 61.863281 168.375 "/>
<use xlink:href="#surface17" mask="url(#mask4)"/>
<path style=" stroke:none;fill-rule:nonzero;fill:rgb(27.058824%,29.411765%,41.176471%);fill-opacity:1;" d="M 65.507812 141.941406 C 65.601562 142.445312 65.480469 142.984375 65.207031 143.296875 C 64.976562 143.515625 64.675781 143.484375 64.445312 143.722656 C 64.160156 144.03125 64.121094 144.636719 64.070312 145.164062 C 63.894531 146.96875 63.308594 148.609375 62.808594 150.269531 C 62.304688 151.933594 61.882812 153.746094 62.066406 155.550781 C 62.191406 156.773438 62.585938 158.082031 62.21875 159.183594 C 62.128906 159.457031 61.992188 159.695312 61.890625 159.960938 C 61.386719 161.25 61.671875 162.882812 61.652344 164.386719 C 61.660156 164.550781 61.636719 164.71875 61.585938 164.863281 C 61.507812 165.003906 61.410156 165.117188 61.304688 165.195312 C 60.941406 165.605469 60.71875 166.246094 60.699219 166.9375 C 60.6875 167.621094 60.738281 168.300781 60.859375 168.960938 C 60.878906 169.226562 60.957031 169.472656 61.078125 169.664062 C 61.21875 169.804688 61.386719 169.878906 61.554688 169.871094 C 62.664062 170.007812 63.757812 170.414062 64.785156 171.074219 C 65.457031 171.5 66.109375 172.039062 66.820312 172.242188 C 66.960938 172.308594 67.113281 172.285156 67.238281 172.175781 C 67.328125 172.050781 67.390625 171.886719 67.414062 171.707031 C 67.691406 170.324219 67.96875 168.898438 67.875 167.464844 C 67.832031 166.84375 67.726562 166.242188 67.699219 165.625 C 67.574219 163.183594 68.652344 160.984375 68.992188 158.578125 C 69.148438 157.492188 69.148438 156.371094 69.257812 155.277344 C 69.554688 152.277344 70.632812 149.585938 71.050781 146.617188 C 71.109375 146.066406 71.199219 145.519531 71.320312 144.992188 C 71.628906 143.84375 72.34375 142.910156 72.359375 141.667969 C 72.371094 141.394531 72.324219 141.121094 72.226562 140.890625 C 72.058594 140.609375 71.839844 140.421875 71.59375 140.347656 C 70.632812 139.945312 69.65625 139.640625 68.664062 139.445312 C 68.210938 139.308594 67.75 139.257812 67.289062 139.296875 C 66.691406 139.40625 66.113281 139.71875 65.605469 140.207031 C 64.921875 140.855469 65.359375 141.007812 65.507812 141.941406 Z M 65.507812 141.941406 "/>
<use xlink:href="#surface20" mask="url(#mask5)"/>
<path style=" stroke:none;fill-rule:nonzero;fill:rgb(33.72549%,33.72549%,38.039216%);fill-opacity:1;" d="M 62.042969 182.78125 L 60.535156 182.78125 L 59.546875 151.714844 L 59.476562 149.949219 L 60.761719 149.257812 L 60.847656 151.136719 Z M 62.042969 182.78125 "/>
<use xlink:href="#surface23" mask="url(#mask6)"/>
<path style=" stroke:none;fill-rule:nonzero;fill:rgb(33.72549%,33.72549%,38.039216%);fill-opacity:1;" d="M 80.988281 189.355469 L 78.496094 189.816406 L 67.023438 149.949219 L 63.929688 149.601562 L 58.496094 152.03125 L 57.441406 199.496094 L 54.949219 199.496094 L 55.929688 150.296875 L 49.96875 150.527344 L 39.328125 191.085938 L 37.0625 191.085938 L 48.253906 143.6875 L 48.6875 141.859375 L 65.363281 140.984375 L 69.523438 144.554688 L 69.574219 144.757812 Z M 80.988281 189.355469 "/>
<use xlink:href="#surface26" mask="url(#mask7)"/>
<path style=" stroke:none;fill-rule:nonzero;fill:rgb(100%,100%,100%);fill-opacity:1;" d="M 52.609375 136.890625 L 59.402344 134.578125 C 59.402344 134.578125 75.628906 139.203125 76.835938 141.050781 C 76.835938 141.050781 63.855469 145.09375 62.421875 146.472656 C 60.988281 147.847656 52.457031 149.371094 52.609375 136.890625 Z M 52.609375 136.890625 "/>
<path style=" stroke:none;fill-rule:nonzero;fill:rgb(42.352941%,38.823529%,100%);fill-opacity:1;" d="M 49.691406 110.90625 C 49.160156 113.480469 47.710938 115.804688 45.945312 115.914062 C 45.816406 115.9375 45.6875 115.902344 45.570312 115.8125 C 45.351562 115.601562 45.34375 115.105469 45.433594 114.730469 C 45.527344 114.351562 45.683594 114.011719 45.707031 113.617188 C 45.714844 113.539062 45.710938 113.457031 45.699219 113.375 C 45.652344 113.054688 45.480469 112.765625 45.277344 112.835938 C 45.5625 112.484375 45.628906 111.863281 45.429688 111.394531 C 45.347656 111.257812 45.277344 111.109375 45.210938 110.953125 C 45.066406 110.492188 45.292969 109.972656 45.390625 109.480469 C 45.585938 108.394531 45.085938 107.3125 45.046875 106.179688 C 45.011719 105.171875 45.34375 104.21875 45.429688 103.21875 C 45.5625 101.589844 45.035156 100.03125 44.972656 98.410156 C 44.929688 97.277344 45.113281 96.15625 45.316406 95.0625 C 45.492188 94.085938 45.691406 93.101562 45.703125 92.082031 C 45.703125 91.339844 45.621094 90.609375 45.597656 89.871094 C 45.5625 89.199219 45.640625 88.523438 45.832031 87.910156 C 45.953125 87.550781 46.160156 87.277344 46.414062 87.148438 C 46.992188 86.851562 47.375 87.3125 47.457031 88.15625 C 47.601562 89.589844 47.519531 91.054688 47.703125 92.492188 C 47.875 93.839844 48.136719 95.15625 48.480469 96.421875 C 48.792969 97.5625 49.175781 98.667969 49.414062 99.855469 C 49.597656 100.828125 49.726562 101.828125 49.804688 102.835938 C 50.039062 105.542969 50.226562 108.328125 49.691406 110.90625 Z M 49.691406 110.90625 "/>
<path style=" stroke:none;fill-rule:nonzero;fill:rgb(63.529412%,39.607843%,39.607843%);fill-opacity:1;" d="M 90 176.5 C 89.550781 177.476562 88.84375 178.109375 88.066406 178.242188 C 87.300781 178.390625 86.5 178.09375 85.753906 178.417969 C 85.519531 178.476562 85.320312 178.710938 85.226562 179.042969 C 85.207031 179.265625 85.195312 179.484375 85.191406 179.707031 C 85.105469 180.429688 84.484375 180.59375 84 180.589844 L 82.007812 180.570312 C 81.59375 180.570312 81.132812 180.535156 80.835938 180.09375 C 80.542969 179.597656 80.539062 178.847656 80.820312 178.339844 C 80.882812 178.226562 80.957031 178.132812 81.042969 178.066406 C 80.789062 177.9375 80.605469 177.601562 80.566406 177.199219 C 80.527344 176.800781 80.539062 176.394531 80.601562 176.003906 C 80.601562 174.871094 80.777344 172.972656 81.300781 172.085938 C 81.9375 170.984375 83.046875 169.558594 84.011719 169.261719 C 84.671875 169.070312 85.351562 169.367188 85.847656 170.0625 C 86.304688 170.710938 86.636719 171.730469 87.265625 171.84375 C 87.605469 171.910156 87.933594 171.664062 88.273438 171.574219 C 89.058594 171.417969 89.824219 172.039062 90.1875 173.121094 C 90.273438 173.390625 90.332031 173.675781 90.363281 173.96875 C 90.457031 174.851562 90.328125 175.757812 90 176.5 Z M 90 176.5 "/>
<use xlink:href="#surface29" mask="url(#mask8)"/>
<path style=" stroke:none;fill-rule:nonzero;fill:rgb(27.058824%,29.411765%,41.176471%);fill-opacity:1;" d="M 84.742188 172.214844 C 84.035156 173.054688 83.207031 173.710938 82.3125 173.78125 C 81.421875 173.851562 80.472656 173.238281 80.039062 172.050781 C 79.398438 170.308594 79.964844 167.886719 79.183594 166.289062 C 78.9375 165.785156 78.585938 165.429688 78.328125 164.945312 C 78.070312 164.460938 77.921875 163.730469 78.152344 163.21875 C 77.871094 163.378906 77.578125 162.96875 77.496094 162.527344 C 77.414062 162.089844 77.46875 161.617188 77.417969 161.171875 C 77.289062 159.996094 76.53125 159.238281 76.167969 158.191406 C 75.808594 157.144531 75.855469 155.789062 75.816406 154.550781 C 75.726562 151.53125 74.992188 148.644531 73.726562 146.324219 C 73.488281 145.886719 73.179688 145.4375 72.804688 145.460938 C 72.867188 144.46875 72.4375 143.519531 71.878906 143.023438 C 71.320312 142.523438 70.652344 142.355469 70.003906 142.257812 C 63.46875 141.269531 56.660156 144.992188 50.417969 141.863281 C 48.679688 140.992188 47.007812 139.535156 45.945312 137.253906 C 45.109375 135.5 44.773438 133.304688 45.007812 131.164062 L 45.007812 131.125 C 45.253906 129.199219 45.917969 128.726562 47.019531 127.847656 C 48.285156 126.820312 49.613281 125.96875 50.980469 125.304688 C 53.636719 124.03125 56.492188 123.574219 59.234375 124.507812 C 60.511719 124.945312 61.746094 125.671875 63.027344 126.097656 C 63.53125 126.265625 64.039062 126.386719 64.550781 126.484375 C 65.347656 126.636719 66.144531 126.738281 66.945312 126.878906 C 69.503906 127.328125 72.023438 128.195312 74.460938 129.464844 C 75.367188 129.9375 76.277344 130.476562 77.054688 131.332031 C 78.304688 132.71875 79.136719 134.8125 79.363281 137.144531 C 79.4375 137.941406 79.441406 138.773438 79.554688 139.542969 C 79.660156 140.195312 79.804688 140.828125 79.980469 141.441406 C 81.492188 147.167969 82.726562 153.054688 83.675781 159.058594 C 83.730469 159.503906 83.828125 159.933594 83.972656 160.332031 C 84.199219 160.890625 84.585938 161.269531 84.816406 161.828125 C 85.347656 163.152344 84.835938 164.996094 85.304688 166.375 C 85.46875 166.851562 85.738281 167.226562 85.902344 167.703125 C 86.433594 169.269531 85.648438 171.136719 84.742188 172.214844 Z M 84.742188 172.214844 "/>
<use xlink:href="#surface32" mask="url(#mask9)"/>
<use xlink:href="#surface35" mask="url(#mask10)"/>
<path style=" stroke:none;fill-rule:nonzero;fill:rgb(63.529412%,39.607843%,39.607843%);fill-opacity:1;" d="M 64.640625 127.179688 C 64.53125 127.773438 64.238281 128.242188 63.855469 128.425781 C 63.476562 128.601562 63.082031 128.671875 62.6875 128.632812 L 62.335938 128.632812 C 57.691406 128.472656 52.996094 126.898438 48.460938 128.402344 C 47.914062 128.574219 47.378906 128.816406 46.855469 129.121094 C 46.164062 129.546875 45.515625 130.132812 44.9375 130.855469 C 44.800781 130.285156 44.664062 129.714844 44.53125 129.140625 C 44.367188 128.457031 44.886719 128.304688 44.984375 127.695312 C 45.050781 127.277344 44.9375 126.808594 44.882812 126.367188 C 44.867188 126.257812 44.859375 126.148438 44.851562 126.039062 C 44.820312 125.058594 45.050781 124.496094 45.574219 123.96875 C 47.128906 122.394531 49.023438 121.316406 50.796875 120.507812 C 51.738281 120.050781 52.714844 119.761719 53.699219 119.644531 C 55.09375 119.519531 56.488281 119.914062 57.84375 120.417969 C 59.511719 121.046875 61.164062 121.882812 62.644531 123.21875 C 63.371094 123.867188 64.078125 124.679688 64.46875 125.835938 C 64.625 126.242188 64.6875 126.714844 64.640625 127.179688 Z M 64.640625 127.179688 "/>
<use xlink:href="#surface38" mask="url(#mask11)"/>
<use xlink:href="#surface41" mask="url(#mask12)"/>
<path style=" stroke:none;fill-rule:nonzero;fill:rgb(42.352941%,38.823529%,100%);fill-opacity:1;" d="M 68.609375 97.496094 L 68.585938 97.59375 C 68.1875 99.167969 67.460938 100.5 66.992188 102.03125 C 66.402344 103.976562 66.257812 106.15625 66.128906 108.289062 C 66.015625 110.121094 65.902344 111.960938 65.992188 113.792969 C 66.21875 118.3125 67.660156 122.601562 68.046875 127.035156 C 68.144531 128.058594 68.167969 129.09375 68.121094 130.128906 C 68.089844 130.78125 68.011719 131.480469 67.726562 131.964844 C 67.445312 132.445312 66.894531 132.636719 66.589844 132.171875 C 66.726562 131.773438 66.863281 131.378906 67 130.980469 C 66.191406 130.019531 64.976562 130.710938 64.03125 130.109375 C 63.613281 129.835938 63.28125 129.347656 62.933594 128.914062 C 61.324219 126.910156 59.257812 125.988281 57.199219 126.347656 C 56.621094 126.457031 56.046875 126.664062 55.46875 126.582031 C 54.300781 126.417969 53.359375 125.136719 52.320312 124.3125 C 49.898438 122.488281 47 123.089844 44.984375 125.835938 C 44.738281 126.1875 44.40625 126.597656 44.101562 126.375 C 43.984375 126.265625 43.886719 126.109375 43.828125 125.917969 C 42.667969 122.886719 43.519531 118.976562 44.757812 116.023438 C 46 113.066406 47.640625 110.34375 48.148438 106.921875 C 48.222656 106.507812 48.246094 106.082031 48.214844 105.65625 C 48.167969 105.167969 48.003906 104.726562 47.917969 104.253906 C 47.761719 103.421875 47.832031 102.535156 47.878906 101.671875 C 48.0625 97.863281 47.648438 94.046875 46.671875 90.535156 C 46.386719 89.523438 46.050781 88.5 46.050781 87.402344 C 46.050781 85.671875 46.859375 84.238281 47.527344 82.847656 C 48.300781 81.25 48.945312 79.480469 49.921875 78.164062 C 50.84375 76.914062 52.183594 76.152344 53.324219 76.785156 C 55.269531 76.0625 57.269531 75.765625 59.265625 75.898438 C 59.957031 75.949219 60.667969 76.058594 61.273438 76.570312 C 61.921875 77.113281 62.386719 78.078125 63.023438 78.65625 C 63.492188 79.082031 64.027344 79.28125 64.53125 79.578125 C 65.929688 80.414062 67.085938 81.996094 67.78125 84.03125 C 68.492188 86.128906 68.667969 88.542969 68.824219 90.898438 C 68.972656 93.109375 69.113281 95.410156 68.609375 97.496094 Z M 68.609375 97.496094 "/>
<use xlink:href="#surface44" mask="url(#mask13)"/>
<path style=" stroke:none;fill-rule:nonzero;fill:rgb(42.352941%,38.823529%,100%);fill-opacity:1;" d="M 67.941406 92.660156 C 68.203125 93.804688 68.558594 94.910156 68.703125 96.101562 C 68.941406 98.101562 68.570312 100.222656 68.972656 102.15625 C 69.078125 102.570312 69.164062 102.992188 69.234375 103.421875 C 69.304688 104.039062 69.226562 104.667969 69.226562 105.292969 C 69.226562 106.300781 69.433594 107.277344 69.617188 108.242188 C 70.238281 111.53125 70.648438 114.90625 70.847656 118.3125 C 70.875 119.230469 70.96875 120.140625 71.128906 121.023438 C 71.203125 121.324219 71.265625 121.628906 71.320312 121.941406 C 71.367188 122.355469 71.378906 122.777344 71.351562 123.195312 C 71.304688 124.523438 71.207031 125.855469 71.304688 127.179688 C 71.402344 128.5 71.71875 129.84375 72.367188 130.730469 C 71.785156 130.921875 71.171875 131.113281 70.605469 130.828125 C 69.808594 130.429688 69.332031 129.203125 68.925781 128.085938 C 68.414062 126.660156 66.460938 125.375 66.261719 123.773438 C 66.101562 122.519531 65.59375 120.871094 65.507812 119.597656 C 65.421875 118.324219 66.003906 116.777344 65.394531 115.90625 C 65.097656 115.480469 65.886719 115.597656 65.597656 115.164062 C 64.945312 114.191406 64.785156 112.691406 64.742188 111.296875 C 64.675781 108.839844 64.875 106.351562 64.582031 103.933594 C 64.40625 102.4375 64.035156 101.015625 63.738281 99.5625 C 63.394531 97.878906 63.148438 96.148438 62.902344 94.414062 C 62.65625 92.875 62.480469 91.3125 62.371094 89.738281 C 62.292969 88.382812 62.328125 86.941406 62.722656 85.707031 C 63.121094 84.472656 63.917969 83.472656 64.8125 83.488281 C 67.792969 83.570312 67.28125 89.789062 67.941406 92.660156 Z M 67.941406 92.660156 "/>
<use xlink:href="#surface47" mask="url(#mask14)"/>
<use xlink:href="#surface50" mask="url(#mask15)"/>
<use xlink:href="#surface53" mask="url(#mask16)"/>
<path style=" stroke:none;fill-rule:nonzero;fill:rgb(63.529412%,39.607843%,39.607843%);fill-opacity:1;" d="M 62.132812 55.503906 C 63.652344 56.519531 64.960938 58.757812 64.914062 61.289062 C 64.875 63.953125 63.417969 66.457031 63.921875 69.007812 C 64.210938 70.488281 65.085938 71.480469 65.777344 72.605469 C 68.414062 76.875 68.40625 84.332031 65.761719 88.59375 C 64.75 90.21875 63.449219 91.375 62.378906 92.929688 C 58.605469 98.375 58.441406 107.800781 60.464844 115.113281 C 58.914062 115.625 57.335938 115.898438 55.753906 115.925781 C 55.011719 115.925781 54.101562 115.734375 53.832031 114.675781 C 53.585938 113.695312 54.011719 112.375 53.523438 111.652344 C 53.292969 111.3125 52.945312 111.265625 52.636719 111.1875 C 50.644531 110.695312 49.007812 108.257812 48.261719 105.386719 C 47.515625 102.519531 47.554688 99.289062 47.980469 96.269531 C 48.285156 94.085938 48.761719 91.6875 48.054688 89.734375 C 47.171875 87.277344 44.625 86.242188 44.664062 83.4375 C 44.699219 81.136719 46.46875 80.015625 47.472656 78.304688 C 49.328125 75.15625 48.445312 70.269531 48.441406 66.027344 C 48.441406 62.292969 49.296875 58.4375 51.113281 55.953125 C 53.8125 52.21875 59.015625 53.429688 62.132812 55.503906 Z M 62.132812 55.503906 "/>
<use xlink:href="#surface56" mask="url(#mask17)"/>
<use xlink:href="#surface59" mask="url(#mask18)"/>
<use xlink:href="#surface62" mask="url(#mask19)"/>
<use xlink:href="#surface65" mask="url(#mask20)"/>
<path style=" stroke:none;fill-rule:nonzero;fill:rgb(27.058824%,29.411765%,41.176471%);fill-opacity:1;" d="M 75.246094 129.902344 C 75.246094 129.902344 70.226562 126.878906 68.410156 127.191406 C 66.59375 127.503906 70.464844 131.886719 70.464844 131.886719 L 72.78125 134.277344 C 72.78125 134.277344 74.195312 133.464844 74.289062 133.402344 C 74.382812 133.339844 75.246094 129.902344 75.246094 129.902344 Z M 75.246094 129.902344 "/>
<path style=" stroke:none;fill-rule:nonzero;fill:rgb(33.72549%,33.72549%,38.039216%);fill-opacity:1;" d="M 40.6875 97.484375 C 40.6875 97.484375 44.460938 94.136719 49.441406 98.296875 C 54.421875 102.460938 55.25 126.957031 55.25 126.957031 C 55.25 126.957031 53.214844 151.914062 61.070312 146.359375 C 61.070312 146.359375 75.40625 139.542969 76.839844 141.046875 C 76.839844 141.046875 78.199219 141.046875 75.484375 141.96875 C 72.765625 142.894531 62.269531 147.988281 62.269531 147.988281 C 62.269531 147.988281 58.878906 149.800781 57.441406 147.988281 C 56.003906 146.171875 51.929688 148.21875 51.402344 135.738281 C 51.050781 127.871094 50.421875 120.039062 49.515625 112.277344 L 48.113281 105.925781 Z M 40.6875 97.484375 "/>
<path style=" stroke:none;fill-rule:nonzero;fill:rgb(100%,100%,100%);fill-opacity:1;" d="M 40.234375 136.082031 C 40.234375 136.082031 41.894531 110.773438 39.171875 101.644531 C 36.804688 93.6875 45.960938 97.410156 48.351562 98.492188 C 48.71875 98.664062 49.042969 99.015625 49.265625 99.496094 C 50.683594 102.542969 55.761719 114.765625 54.265625 131.113281 C 54.265625 131.113281 53.660156 145.675781 57.433594 147.984375 L 45.808594 142.25 C 44.867188 141.78125 43.90625 141.394531 42.941406 141.058594 C 41.710938 140.632812 39.703125 139.414062 40.234375 136.082031 Z M 40.234375 136.082031 "/>
<path style=" stroke:none;fill-rule:nonzero;fill:rgb(33.72549%,33.72549%,38.039216%);fill-opacity:1;" d="M 122.925781 183.324219 L 124.433594 183.324219 L 125.425781 152.257812 L 125.492188 150.492188 L 124.207031 149.800781 L 124.125 151.675781 Z M 122.925781 183.324219 "/>
<use xlink:href="#surface68" mask="url(#mask21)"/>
<path style=" stroke:none;fill-rule:nonzero;fill:rgb(63.529412%,39.607843%,39.607843%);fill-opacity:1;" d="M 110.320312 171.328125 C 110.285156 171.753906 110.210938 172.171875 110.109375 172.570312 C 110 173.089844 109.769531 173.53125 109.460938 173.804688 C 109.253906 173.9375 109.03125 174.003906 108.808594 174.003906 C 107.976562 174.078125 107.09375 174.058594 106.378906 173.410156 C 106.070312 173.109375 105.792969 172.75 105.542969 172.34375 C 103.933594 169.894531 102.46875 167.226562 101.167969 164.375 C 100.949219 163.898438 100.726562 163.332031 100.824219 162.75 C 102.507812 162.035156 104.105469 160.914062 105.5625 159.429688 C 105.761719 159.195312 105.988281 159.011719 106.226562 158.890625 C 106.636719 158.753906 107.058594 158.730469 107.476562 158.820312 C 107.878906 158.917969 107.894531 158.9375 108.050781 159.632812 C 108.304688 160.804688 108.261719 162.070312 108.546875 163.242188 C 108.730469 163.890625 108.953125 164.511719 109.210938 165.097656 C 109.949219 166.992188 110.519531 169.226562 110.320312 171.328125 Z M 110.320312 171.328125 "/>
<use xlink:href="#surface71" mask="url(#mask22)"/>
<path style=" stroke:none;fill-rule:nonzero;fill:rgb(27.058824%,29.411765%,41.176471%);fill-opacity:1;" d="M 111.464844 142.386719 C 111.339844 142.835938 111.195312 143.269531 111.019531 143.679688 C 109.375 147.910156 108.105469 152.457031 107.246094 157.199219 C 107.003906 157.117188 106.867188 157.625 106.867188 158.011719 C 106.867188 158.402344 106.867188 158.890625 106.632812 159.03125 C 106.566406 159.070312 106.488281 159.070312 106.417969 159.117188 C 106.269531 159.21875 106.226562 159.507812 106.207031 159.757812 L 106 162.105469 C 105.925781 162.917969 105.863281 163.800781 106.121094 164.519531 C 106.300781 164.945312 106.535156 165.3125 106.808594 165.601562 L 110.261719 169.773438 C 110.402344 169.945312 110.578125 170.128906 110.75 170.03125 C 111.136719 169.816406 110.792969 168.753906 111.101562 168.324219 C 111.308594 168.027344 111.632812 168.25 111.917969 168.214844 C 112.289062 168.171875 112.570312 167.648438 112.664062 167.097656 C 112.730469 166.539062 112.738281 165.964844 112.683594 165.402344 C 112.660156 165.144531 112.679688 164.882812 112.742188 164.640625 C 112.847656 164.382812 112.992188 164.167969 113.164062 164.019531 C 114.382812 162.65625 115.078125 160.460938 115.023438 158.15625 C 114.996094 157.808594 115.003906 157.457031 115.050781 157.117188 C 115.121094 156.804688 115.230469 156.511719 115.371094 156.261719 C 116.625 153.660156 117.671875 150.839844 118.710938 148.023438 C 119.308594 146.398438 119.917969 144.746094 120.125 142.914062 C 120.164062 142.777344 120.15625 142.621094 120.105469 142.492188 C 120.054688 142.367188 119.96875 142.28125 119.871094 142.265625 C 119.351562 142.019531 118.824219 141.824219 118.289062 141.6875 C 116.660156 141.179688 115.09375 140.402344 113.507812 139.65625 C 111.925781 138.90625 111.941406 140.429688 111.464844 142.386719 Z M 111.464844 142.386719 "/>
<path style=" stroke:none;fill-rule:nonzero;fill:rgb(33.72549%,33.72549%,38.039216%);fill-opacity:1;" d="M 103.980469 189.898438 L 106.472656 190.359375 L 117.945312 150.492188 L 121.039062 150.144531 L 126.472656 152.570312 L 127.527344 200.039062 L 130.019531 200.039062 L 129.039062 150.835938 L 135 151.070312 L 145.640625 191.628906 L 147.90625 191.628906 L 136.714844 144.226562 L 136.285156 142.402344 L 119.605469 141.527344 L 115.449219 145.09375 L 115.394531 145.300781 Z M 103.980469 189.898438 "/>
<use xlink:href="#surface74" mask="url(#mask23)"/>
<path style=" stroke:none;fill-rule:nonzero;fill:rgb(100%,100%,100%);fill-opacity:1;" d="M 132.359375 137.433594 L 125.566406 135.121094 C 125.566406 135.121094 109.339844 139.746094 108.132812 141.59375 C 108.132812 141.59375 121.113281 145.636719 122.546875 147.011719 C 123.980469 148.390625 132.511719 149.914062 132.359375 137.433594 Z M 132.359375 137.433594 "/>
<path style=" stroke:none;fill-rule:nonzero;fill:rgb(63.529412%,39.607843%,39.607843%);fill-opacity:1;" d="M 107.160156 174.582031 C 106.75 175.773438 105.742188 176.109375 104.859375 176.128906 C 103.628906 176.152344 102.410156 175.820312 101.261719 175.144531 C 100.605469 174.761719 99.980469 174.265625 99.300781 173.984375 C 98.296875 173.5625 97.179688 173.597656 96.292969 172.746094 C 95.824219 172.269531 95.4375 171.625 95.164062 170.871094 C 95.113281 170.738281 95.0625 170.597656 95.015625 170.457031 C 94.59375 169.199219 94.394531 167.730469 94.632812 166.371094 C 94.867188 165.011719 95.722656 163.511719 96.714844 163.535156 C 97.890625 163.5625 99.292969 164.414062 100.429688 164.855469 C 101.847656 165.398438 103.261719 166.023438 104.511719 167.171875 C 105.5625 168.136719 106.488281 169.519531 106.980469 171.210938 C 107.074219 171.539062 107.152344 171.875 107.214844 172.21875 C 107.367188 173 107.402344 173.871094 107.160156 174.582031 Z M 107.160156 174.582031 "/>
<use xlink:href="#surface77" mask="url(#mask24)"/>
<path style=" stroke:none;fill-rule:nonzero;fill:rgb(27.058824%,29.411765%,41.176471%);fill-opacity:1;" d="M 114.765625 123.054688 C 112.464844 122.476562 110.121094 122.335938 107.789062 122.195312 L 104.933594 122.023438 C 104.730469 121.984375 104.527344 122.023438 104.335938 122.132812 C 104.167969 122.296875 104.011719 122.476562 103.867188 122.675781 C 103.578125 122.972656 103.210938 123.003906 102.867188 123.035156 C 100.417969 123.242188 97.984375 123.726562 95.582031 124.480469 C 94.34375 124.871094 93.054688 125.375 92.125 126.6875 C 91.140625 128.070312 90.710938 130.179688 90.675781 132.226562 C 90.640625 134.269531 90.992188 136.277344 91.363281 138.238281 C 91.832031 140.601562 92.09375 143.050781 92.136719 145.519531 C 92.121094 146.203125 92.136719 146.886719 92.1875 147.570312 C 92.269531 148.21875 92.394531 148.855469 92.5625 149.464844 L 93.863281 154.792969 C 93.980469 155.257812 94.09375 155.722656 94.21875 156.175781 C 94.34375 156.632812 94.464844 156.988281 94.570312 157.417969 C 94.730469 158.003906 94.855469 158.609375 94.980469 159.214844 L 95.847656 163.386719 L 95.960938 163.925781 C 96.277344 165.429688 96.597656 166.957031 97.1875 168.246094 C 97.777344 169.535156 98.695312 170.578125 99.722656 170.65625 C 100.054688 170.636719 100.386719 170.648438 100.71875 170.695312 C 101 170.800781 101.273438 170.953125 101.53125 171.148438 C 102.304688 171.640625 103.132812 171.886719 103.96875 171.878906 C 104.738281 171.878906 105.59375 171.550781 106.011719 170.558594 C 106.242188 170.015625 106.300781 169.347656 106.367188 168.710938 C 106.476562 167.425781 106.585938 166.085938 106.300781 164.863281 C 106.125 164.136719 105.828125 163.507812 105.621094 162.792969 C 105.335938 161.8125 105.242188 160.730469 105.054688 159.699219 C 104.652344 157.476562 103.835938 155.484375 102.699219 153.964844 C 102.296875 151.523438 102.003906 149.046875 101.816406 146.542969 C 101.789062 145.992188 101.71875 145.445312 101.601562 144.917969 C 101.394531 144.105469 100.976562 143.445312 100.800781 142.617188 C 100.636719 141.847656 100.683594 140.960938 100.386719 140.296875 C 102.875 141.34375 105.339844 141.109375 107.925781 141.046875 C 108.753906 141.050781 109.582031 140.976562 110.40625 140.828125 C 110.789062 140.722656 111.175781 140.660156 111.566406 140.640625 C 112.367188 140.640625 113.117188 141.179688 113.851562 141.660156 C 115.925781 143.011719 118.113281 144.078125 120.371094 144.226562 C 122.699219 144.375 125 143.535156 127.273438 142.707031 C 128.273438 142.339844 129.3125 141.945312 130.105469 140.941406 C 130.898438 139.933594 131.34375 138.121094 130.855469 136.742188 C 130.484375 135.703125 129.714844 135.195312 128.996094 134.761719 C 127.003906 133.558594 125.003906 132.386719 123.089844 130.929688 C 120.160156 128.746094 117.972656 123.867188 114.765625 123.054688 Z M 114.765625 123.054688 "/>
<path style=" stroke:none;fill-rule:nonzero;fill:rgb(63.137255%,38.039216%,41.568627%);fill-opacity:1;" d="M 110.660156 110.792969 C 110.382812 111.714844 109.917969 112.46875 109.570312 113.335938 C 108.996094 114.761719 108.804688 116.480469 109.039062 118.121094 C 109.292969 119.761719 110.027344 121.132812 111.03125 121.828125 C 111.472656 122.097656 111.9375 122.269531 112.414062 122.339844 C 113.035156 122.457031 113.699219 122.480469 114.25 122.019531 C 114.660156 121.640625 115 121.097656 115.226562 120.453125 C 115.703125 119.234375 115.976562 117.859375 116.222656 116.492188 C 116.679688 113.964844 117.074219 111.375 117.015625 108.753906 C 116.996094 107.851562 116.878906 106.835938 116.390625 106.3125 C 116.140625 106.089844 115.859375 105.949219 115.570312 105.902344 L 113.234375 105.261719 C 112.785156 105.136719 111.996094 104.632812 111.605469 105.128906 C 111.214844 105.628906 111.183594 107.101562 111.117188 107.792969 C 111.011719 108.816406 110.945312 109.855469 110.660156 110.792969 Z M 110.660156 110.792969 "/>
<path style=" stroke:none;fill-rule:nonzero;fill:rgb(63.137255%,38.039216%,41.568627%);fill-opacity:1;" d="M 139.039062 100.3125 L 138.429688 108.148438 C 138.300781 109.546875 138.230469 110.953125 138.210938 112.367188 C 138.210938 113.152344 138.226562 114.023438 137.886719 114.613281 C 137.71875 114.878906 137.511719 115.074219 137.277344 115.171875 C 136.535156 115.527344 135.726562 115.210938 135.019531 114.726562 C 134.605469 114.457031 134.183594 114.0625 133.996094 113.429688 C 133.886719 112.992188 133.839844 112.523438 133.863281 112.058594 C 133.863281 107.382812 134.152344 102.507812 135.746094 98.523438 C 135.882812 98.132812 136.074219 97.792969 136.304688 97.53125 C 136.75 97.097656 137.328125 97.21875 137.828125 97.457031 C 138.136719 97.597656 138.96875 97.757812 139.164062 98.179688 C 139.359375 98.597656 139.082031 99.773438 139.039062 100.3125 Z M 139.039062 100.3125 "/>
<path style=" stroke:none;fill-rule:nonzero;fill:rgb(63.137255%,38.039216%,41.568627%);fill-opacity:1;" d="M 129.210938 62.214844 C 129.210938 67.601562 126.359375 71.96875 122.839844 71.96875 C 119.320312 71.96875 116.46875 67.601562 116.46875 62.214844 C 116.46875 56.824219 119.320312 52.457031 122.839844 52.457031 C 126.359375 52.457031 129.210938 56.824219 129.210938 62.214844 Z M 129.210938 62.214844 "/>
<path style=" stroke:none;fill-rule:nonzero;fill:rgb(63.137255%,38.039216%,41.568627%);fill-opacity:1;" d="M 121.132812 76.753906 C 121.113281 77.511719 120.976562 78.253906 120.738281 78.921875 C 123.992188 78.164062 127.238281 77.316406 130.472656 76.386719 C 129.402344 75.539062 128.589844 74.078125 128.214844 72.320312 C 128.039062 71.375 127.945312 70.402344 127.929688 69.421875 C 127.878906 67.867188 127.898438 66.308594 127.988281 64.757812 C 126.855469 64.941406 125.78125 65.589844 124.703125 66.148438 C 123.617188 66.710938 122.511719 67.183594 121.394531 67.566406 C 120.855469 67.75 120.3125 67.90625 119.765625 68.054688 C 119.128906 68.226562 118.824219 68.226562 119.265625 69.082031 C 120.453125 71.367188 121.300781 73.695312 121.132812 76.753906 Z M 121.132812 76.753906 "/>
<path style=" stroke:none;fill-rule:nonzero;fill:rgb(42.352941%,38.823529%,100%);fill-opacity:1;" d="M 123.09375 75.449219 C 122.25 75.640625 121.371094 75.859375 120.699219 76.65625 C 120.445312 76.992188 120.199219 77.347656 119.972656 77.726562 C 118.640625 79.707031 116.757812 80.503906 115.140625 81.902344 C 114.875 82.101562 114.640625 82.382812 114.453125 82.730469 C 114.277344 83.105469 114.1875 83.585938 114 83.960938 C 113.785156 84.394531 113.441406 84.664062 113.273438 85.144531 C 113.105469 85.625 113.144531 86.132812 113.125 86.640625 C 113.085938 87.761719 112.808594 88.824219 112.59375 89.894531 C 111.613281 95.019531 112.152344 100.734375 110.664062 105.574219 C 110.800781 106.136719 111.085938 106.589844 111.445312 106.828125 C 111.820312 107.03125 112.210938 107.160156 112.605469 107.207031 L 115.902344 107.835938 C 116.371094 107.925781 116.871094 108.007812 117.300781 107.707031 C 116.90625 109.367188 116.628906 111.085938 116.472656 112.835938 C 116.390625 113.90625 116.265625 114.96875 116.097656 116.011719 C 115.644531 118.398438 114.507812 120.386719 113.15625 121.742188 C 112.984375 121.878906 112.84375 122.082031 112.738281 122.332031 C 112.5625 122.871094 112.824219 123.480469 113.011719 124.011719 C 113.550781 125.550781 113.476562 127.398438 113.46875 129.144531 C 113.460938 130.890625 113.578125 132.804688 114.375 134.058594 C 114.84375 134.796875 115.488281 135.199219 116.113281 135.578125 L 121.265625 138.730469 C 122.117188 139.285156 122.996094 139.738281 123.890625 140.085938 C 125.246094 140.5625 126.660156 140.542969 128.050781 140.449219 C 128.972656 140.390625 129.890625 140.300781 130.808594 140.179688 C 131.175781 140.175781 131.53125 140.03125 131.851562 139.757812 C 132.125 139.425781 132.335938 138.988281 132.460938 138.492188 C 133.179688 136.101562 133.417969 133.316406 134.53125 131.316406 C 135.292969 129.941406 136.476562 128.84375 136.566406 127.046875 C 136.605469 126.15625 136.34375 125.285156 136.339844 124.386719 C 136.339844 123.285156 136.71875 122.234375 136.695312 121.136719 C 136.648438 119.34375 135.546875 117.976562 135.371094 116.207031 C 134.925781 111.710938 136.414062 107.226562 137.328125 102.902344 C 137.492188 102.128906 137.707031 101.277344 138.191406 100.945312 C 138.675781 100.613281 139.359375 100.789062 139.53125 100.058594 C 139.96875 98.21875 140.074219 96.066406 140.019531 94.109375 C 139.984375 92.980469 139.722656 91.875 139.753906 90.742188 C 139.773438 89.945312 139.941406 89.171875 139.984375 88.375 C 140.054688 87.175781 139.847656 85.984375 139.632812 84.824219 C 139.570312 84.410156 139.476562 84.007812 139.355469 83.625 C 139.226562 83.28125 139.070312 82.957031 138.894531 82.660156 L 138.035156 81.089844 C 137.628906 80.355469 137.203125 79.59375 136.617188 79.222656 C 136.429688 78.503906 135.824219 78.007812 135.390625 77.613281 C 134.953125 77.234375 134.5 76.894531 134.039062 76.597656 L 129.164062 73.300781 C 128.980469 73.160156 128.785156 73.0625 128.585938 73.011719 C 128.289062 73 127.992188 73.089844 127.722656 73.285156 C 126.238281 74.1875 124.683594 75.085938 123.09375 75.449219 Z M 123.09375 75.449219 "/>
<path style=" stroke:none;fill-rule:nonzero;fill:rgb(27.45098%,26.27451%,32.54902%);fill-opacity:1;" d="M 117.929688 63.910156 C 117.742188 62.898438 117.261719 62.027344 117.1875 60.980469 C 117.125 60.050781 117.390625 59.152344 117.542969 58.246094 C 117.695312 57.339844 117.691406 56.234375 117.222656 55.632812 C 117.144531 55.53125 117.042969 55.4375 117.015625 55.289062 C 116.960938 55.015625 117.136719 54.769531 117.191406 54.496094 C 117.292969 53.953125 116.855469 53.355469 117.015625 52.835938 C 117.105469 52.550781 117.332031 52.449219 117.53125 52.359375 C 118.289062 52.015625 119.054688 51.253906 119.222656 50.066406 C 119.8125 50.445312 120.445312 49.734375 120.902344 49.042969 C 121.355469 48.351562 121.914062 47.5625 122.542969 47.773438 L 122.402344 48.207031 C 123.367188 47.671875 124.425781 47.652344 125.398438 48.15625 L 125.101562 48.15625 C 125.953125 48.179688 126.785156 48.609375 127.472656 49.386719 C 127.394531 49.386719 127.386719 49.558594 127.417969 49.65625 C 127.664062 50.542969 128.300781 51.011719 128.917969 51.230469 C 129.285156 51.367188 129.6875 51.464844 129.960938 51.871094 C 130.230469 52.277344 130.234375 53.125 129.878906 53.320312 C 130.605469 53.753906 131.296875 54.328125 131.933594 55.027344 C 132.109375 55.226562 132.308594 55.492188 132.285156 55.839844 C 132.261719 56.015625 132.226562 56.183594 132.175781 56.347656 C 132.140625 56.636719 132.15625 56.933594 132.214844 57.214844 L 132.410156 58.457031 C 132.625 59.835938 132.796875 61.496094 132.140625 62.496094 C 132.644531 63.941406 132.472656 65.71875 131.714844 66.875 C 131.820312 67.363281 131.78125 67.902344 131.613281 68.347656 C 131.445312 68.792969 131.160156 69.105469 130.828125 69.207031 C 131.046875 69.730469 130.847656 70.472656 130.503906 70.796875 C 130.160156 71.121094 129.726562 71.125 129.328125 71.066406 C 128.925781 71.011719 128.523438 70.871094 128.121094 70.964844 C 127.539062 71.101562 126.96875 71.710938 126.410156 71.4375 C 126.199219 71.300781 126 71.136719 125.808594 70.945312 C 125.414062 70.625 124.960938 70.550781 124.523438 70.402344 C 123.78125 70.160156 123.078125 69.699219 122.449219 69.046875 C 122.03125 68.664062 121.699219 68.097656 121.492188 67.421875 C 121.105469 65.914062 121.757812 63.941406 121.070312 62.710938 C 120.667969 61.996094 119.867188 61.988281 119.414062 62.597656 C 119.191406 62.90625 119.160156 63.550781 118.925781 63.78125 C 118.601562 63.90625 118.265625 63.949219 117.929688 63.910156 Z M 117.929688 63.910156 "/>
<use xlink:href="#surface80" mask="url(#mask25)"/>
<path style=" stroke:none;fill-rule:nonzero;fill:rgb(33.72549%,33.72549%,38.039216%);fill-opacity:1;" d="M 144.28125 98.027344 C 144.28125 98.027344 140.507812 94.675781 135.527344 98.839844 C 130.546875 103.003906 129.71875 127.5 129.71875 127.5 C 129.71875 127.5 131.753906 152.457031 123.902344 146.902344 C 123.902344 146.902344 109.566406 140.085938 108.128906 141.589844 C 108.128906 141.589844 106.769531 141.589844 109.488281 142.511719 C 112.203125 143.4375 122.699219 148.527344 122.699219 148.527344 C 122.699219 148.527344 126.09375 150.34375 127.527344 148.527344 C 128.964844 146.710938 133.039062 148.761719 133.566406 136.277344 C 133.917969 128.414062 134.546875 120.582031 135.453125 112.820312 L 136.855469 106.464844 Z M 144.28125 98.027344 "/>
<path style=" stroke:none;fill-rule:nonzero;fill:rgb(100%,100%,100%);fill-opacity:1;" d="M 144.734375 136.625 C 144.734375 136.625 143.074219 111.316406 145.796875 102.1875 C 148.167969 94.230469 139.007812 97.953125 136.621094 99.035156 C 136.25 99.203125 135.925781 99.558594 135.703125 100.039062 C 134.285156 103.085938 129.207031 115.304688 130.703125 131.65625 C 130.703125 131.65625 131.308594 146.21875 127.535156 148.527344 L 139.160156 142.792969 C 140.105469 142.324219 141.0625 141.9375 142.027344 141.601562 C 143.261719 141.171875 145.265625 139.957031 144.734375 136.625 Z M 144.734375 136.625 "/>
<use xlink:href="#surface83" mask="url(#mask26)"/>
<path style=" stroke:none;fill-rule:nonzero;fill:rgb(32.54902%,32.941176%,38.039216%);fill-opacity:1;" d="M 174.660156 100.339844 L 175.769531 100.339844 L 175.769531 138.597656 L 174.660156 138.597656 Z M 174.660156 100.339844 "/>
<path style=" stroke:none;fill-rule:nonzero;fill:rgb(33.72549%,33.72549%,38.039216%);fill-opacity:1;" d="M 182.746094 138.480469 L 182.675781 140.207031 L 182.578125 142.644531 L 182.535156 143.660156 L 182.4375 146.097656 L 182.394531 147.109375 L 182.296875 149.550781 L 181.179688 177.210938 C 181.074219 179.675781 179.738281 181.589844 178.125 181.589844 L 172.304688 181.589844 C 170.691406 181.589844 169.355469 179.664062 169.253906 177.195312 L 168.132812 149.53125 L 168.035156 147.09375 L 167.996094 146.078125 L 167.894531 143.640625 L 167.851562 142.625 L 167.753906 140.1875 L 167.683594 138.464844 C 167.660156 137.796875 167.816406 137.140625 168.113281 136.65625 C 168.414062 136.167969 168.832031 135.890625 169.265625 135.886719 L 181.164062 135.886719 C 181.601562 135.890625 182.023438 136.171875 182.320312 136.660156 C 182.621094 137.152344 182.773438 137.8125 182.746094 138.480469 Z M 182.746094 138.480469 "/>
<path style=" stroke:none;fill-rule:nonzero;fill:rgb(61.568627%,61.176471%,70.980392%);fill-opacity:1;" d="M 182.675781 140.207031 L 182.578125 142.636719 L 167.855469 142.636719 L 167.753906 140.207031 Z M 182.675781 140.207031 "/>
<path style=" stroke:none;fill-rule:nonzero;fill:rgb(61.568627%,61.176471%,70.980392%);fill-opacity:1;" d="M 182.535156 143.652344 L 182.4375 146.085938 L 167.996094 146.085938 L 167.894531 143.652344 Z M 182.535156 143.652344 "/>
<path style=" stroke:none;fill-rule:nonzero;fill:rgb(61.568627%,61.176471%,70.980392%);fill-opacity:1;" d="M 182.394531 147.101562 L 182.296875 149.53125 L 168.132812 149.53125 L 168.035156 147.101562 Z M 182.394531 147.101562 "/>
<path style=" stroke:none;fill-rule:nonzero;fill:rgb(42.352941%,38.823529%,100%);fill-opacity:1;" d="M 166.058594 114.679688 C 172.523438 121.839844 175.214844 133.039062 175.214844 133.039062 C 175.214844 133.039062 167.429688 132.628906 160.960938 125.46875 C 154.496094 118.308594 151.808594 107.113281 151.808594 107.113281 C 151.808594 107.113281 159.597656 107.523438 166.058594 114.679688 Z M 166.058594 114.679688 "/>
<path style="fill:none;stroke-width:2;stroke-linecap:butt;stroke-linejoin:miter;stroke:rgb(32.54902%,32.941176%,38.039216%);stroke-opacity:1;stroke-miterlimit:10;" d="M 892.678555 476.178008 C 892.678555 476.178008 938.342031 501.532344 953.018789 522.519219 C 967.673477 543.506094 1024.923867 571.844141 1024.923867 571.844141 " transform="matrix(0.176991,0,0,0.271003,-6.187611,-21.932249)"/>
<path style=" stroke:none;fill-rule:nonzero;fill:rgb(42.352941%,38.823529%,100%);fill-opacity:1;" d="M 170.230469 100.257812 C 173.75 104.152344 175.214844 110.25 175.214844 110.25 C 175.214844 110.25 170.96875 110.023438 167.457031 106.128906 C 163.949219 102.234375 162.484375 96.136719 162.484375 96.136719 C 162.484375 96.136719 166.714844 96.359375 170.230469 100.257812 Z M 170.230469 100.257812 "/>
<path style="fill:none;stroke-width:2;stroke-linecap:butt;stroke-linejoin:miter;stroke:rgb(32.54902%,32.941176%,38.039216%);stroke-opacity:1;stroke-miterlimit:10;" d="M 952.996719 435.674492 C 952.996719 435.674492 977.869961 449.483164 985.837344 460.899102 C 993.804727 472.315039 1024.990078 487.7525 1024.990078 487.7525 " transform="matrix(0.176991,0,0,0.271003,-6.187611,-21.932249)"/>
<path style=" stroke:none;fill-rule:nonzero;fill:rgb(42.352941%,38.823529%,100%);fill-opacity:1;" d="M 180.328125 109.9375 C 176.285156 116.738281 175.433594 125.625 175.433594 125.625 C 175.433594 125.625 181.128906 123.480469 185.167969 116.679688 C 189.203125 109.878906 190.0625 100.996094 190.0625 100.996094 C 190.0625 100.996094 184.367188 103.136719 180.328125 109.9375 Z M 180.328125 109.9375 "/>
<path style="fill:none;stroke-width:2;stroke-linecap:butt;stroke-linejoin:miter;stroke:rgb(32.54902%,32.941176%,38.039216%);stroke-opacity:1;stroke-miterlimit:10;" d="M 1108.835195 453.605586 C 1108.835195 453.605586 1079.084414 479.334688 1071.536367 497.04957 C 1063.96625 514.764453 1026.159805 544.48625 1026.159805 544.48625 " transform="matrix(0.176991,0,0,0.271003,-6.187611,-21.932249)"/>
<path style=" stroke:none;fill-rule:nonzero;fill:rgb(87.45098%,90.196078%,96.078431%);fill-opacity:1;" d="M 98.582031 93.570312 L 98.582031 94.1875 L 86.613281 94.1875 L 86.613281 93.6875 C 86.941406 93.496094 87.253906 93.242188 87.539062 92.933594 C 88.570312 91.800781 89.179688 89.980469 89.179688 88.039062 C 89.179688 87.539062 89.140625 87.039062 89.058594 86.554688 C 88.765625 84.789062 87.964844 83.324219 86.886719 82.5625 L 98.5 82.5625 C 97.417969 83.324219 96.617188 84.789062 96.324219 86.554688 C 96.246094 87.039062 96.203125 87.539062 96.207031 88.039062 C 96.203125 89.980469 96.816406 91.800781 97.847656 92.933594 C 98.074219 93.183594 98.320312 93.398438 98.582031 93.570312 Z M 98.582031 93.570312 "/>
<use xlink:href="#surface86" mask="url(#mask27)"/>
<path style=" stroke:none;fill-rule:nonzero;fill:rgb(87.45098%,90.196078%,96.078431%);fill-opacity:1;" d="M 72.914062 79.40625 L 72.914062 82.886719 C 72.914062 84.804688 73.832031 86.363281 74.960938 86.363281 L 110.167969 86.363281 C 111.300781 86.363281 112.21875 84.804688 112.21875 82.886719 L 112.21875 79.40625 Z M 72.914062 79.40625 "/>
<use xlink:href="#surface89" mask="url(#mask28)"/>
<path style=" stroke:none;fill-rule:nonzero;fill:rgb(87.45098%,90.196078%,96.078431%);fill-opacity:1;" d="M 83.261719 93.125 L 101.933594 93.125 C 102.265625 93.125 102.535156 93.535156 102.535156 94.042969 C 102.535156 94.546875 102.265625 94.960938 101.933594 94.960938 L 83.261719 94.960938 C 82.929688 94.960938 82.660156 94.546875 82.660156 94.042969 C 82.660156 93.535156 82.929688 93.125 83.261719 93.125 Z M 83.261719 93.125 "/>
<path style=" stroke:none;fill-rule:nonzero;fill:rgb(27.843137%,25.490196%,34.117647%);fill-opacity:1;" d="M 112.21875 41.296875 C 112.21875 39.5625 111.300781 38.15625 110.167969 38.15625 L 74.960938 38.15625 C 74.417969 38.15625 73.898438 38.488281 73.511719 39.074219 C 73.128906 39.664062 72.914062 40.460938 72.914062 41.296875 L 72.914062 80.085938 L 112.21875 80.085938 Z M 112.21875 41.296875 "/>
<path style=" stroke:none;fill-rule:nonzero;fill:rgb(29.803922%,29.803922%,47.058824%);fill-opacity:1;" d="M 111.148438 42.695312 L 111.148438 76.03125 C 111.148438 76.441406 111.042969 76.832031 110.851562 77.125 C 110.664062 77.414062 110.40625 77.578125 110.136719 77.578125 L 74.996094 77.578125 C 74.726562 77.578125 74.46875 77.414062 74.28125 77.125 C 74.089844 76.832031 73.984375 76.441406 73.984375 76.03125 L 73.984375 42.695312 C 73.984375 42.425781 74.03125 42.160156 74.121094 41.925781 C 74.300781 41.445312 74.632812 41.152344 74.996094 41.152344 L 110.136719 41.152344 C 110.695312 41.152344 111.148438 41.84375 111.148438 42.695312 Z M 111.148438 42.695312 "/>
<path style=" stroke:none;fill-rule:nonzero;fill:rgb(100%,100%,100%);fill-opacity:1;" d="M 93.039062 39.652344 C 93.039062 40.054688 92.828125 40.375 92.566406 40.375 C 92.304688 40.375 92.09375 40.054688 92.09375 39.652344 C 92.09375 39.253906 92.304688 38.929688 92.566406 38.929688 C 92.828125 38.929688 93.039062 39.253906 93.039062 39.652344 Z M 93.039062 39.652344 "/>
<path style=" stroke:none;fill-rule:nonzero;fill:rgb(100%,100%,100%);fill-opacity:1;" d="M 93.734375 83.03125 C 93.734375 84.015625 93.210938 84.816406 92.566406 84.816406 C 91.921875 84.816406 91.398438 84.015625 91.398438 83.03125 C 91.398438 82.042969 91.921875 81.242188 92.566406 81.242188 C 93.210938 81.242188 93.734375 82.042969 93.734375 83.03125 Z M 93.734375 83.03125 "/>
<path style=" stroke:none;fill-rule:nonzero;fill:rgb(78.431373%,79.215686%,84.313725%);fill-opacity:1;" d="M 111.148438 42.695312 L 73.988281 42.695312 C 73.988281 41.84375 74.441406 41.152344 75 41.152344 L 110.136719 41.152344 C 110.695312 41.152344 111.148438 41.84375 111.148438 42.695312 Z M 111.148438 42.695312 "/>
<path style=" stroke:none;fill-rule:nonzero;fill:rgb(92.941176%,92.941176%,95.686275%);fill-opacity:1;" d="M 75.246094 41.925781 C 75.246094 42.136719 75.132812 42.3125 74.996094 42.3125 C 74.855469 42.3125 74.742188 42.136719 74.742188 41.925781 C 74.742188 41.710938 74.855469 41.535156 74.996094 41.535156 C 75.132812 41.535156 75.246094 41.710938 75.246094 41.925781 Z M 75.246094 41.925781 "/>
<path style=" stroke:none;fill-rule:nonzero;fill:rgb(92.941176%,92.941176%,95.686275%);fill-opacity:1;" d="M 76.003906 41.925781 C 76.003906 42.136719 75.890625 42.3125 75.753906 42.3125 C 75.613281 42.3125 75.5 42.136719 75.5 41.925781 C 75.5 41.710938 75.613281 41.535156 75.753906 41.535156 C 75.890625 41.535156 76.003906 41.710938 76.003906 41.925781 Z M 76.003906 41.925781 "/>
<path style=" stroke:none;fill-rule:nonzero;fill:rgb(92.941176%,92.941176%,95.686275%);fill-opacity:1;" d="M 76.761719 41.925781 C 76.761719 42.136719 76.648438 42.3125 76.507812 42.3125 C 76.371094 42.3125 76.257812 42.136719 76.257812 41.925781 C 76.257812 41.710938 76.371094 41.535156 76.507812 41.535156 C 76.648438 41.535156 76.761719 41.710938 76.761719 41.925781 Z M 76.761719 41.925781 "/>
</g>
</svg>
