<svg xmlns="http://www.w3.org/2000/svg" width="442.642" height="321.147" viewBox="0 0 442.642 321.147"><defs><style>.a,.d,.e,.g,.q{fill:none;}.a,.d,.e,.f,.g,.q{stroke:#abceef;stroke-miterlimit:10;}.a,.d,.e,.f,.g{stroke-width:2px;}.a{stroke-dasharray:5 5;}.b{fill:#fff;}.c{fill:#c0dfff;}.e{stroke-dasharray:5.121 5.121;}.f,.h{fill:#abceef;}.g{stroke-dasharray:5;}.i{fill:#cfd8e2;}.j{fill:#00183b;}.k{fill:#004f73;}.l{fill:#067196;}.m{fill:#e6f4ff;}.n{fill:#ffa968;}.o{fill:#1494c6;}.p{fill:#0bacff;}.q{stroke-linecap:round;stroke-width:4px;}</style></defs><g transform="translate(-67.538 -32.678)"><g transform="translate(129.156 34.543)"><g transform="translate(39.397 26.254)"><ellipse class="a" cx="113.61" cy="110.26" rx="113.61" ry="110.26"/></g><g transform="translate(130.164 0)"><circle class="b" cx="28.101" cy="28.101" r="28.101"/><g transform="translate(2.012 2.234)"><path class="c" d="M380.557,69.247a18.428,18.428,0,1,1,.169-5.2h2.855a21.3,21.3,0,1,0-.134,5.2Z" transform="translate(-336.506 -40.107)"/><path class="c" d="M351.836,76.336a14.534,14.534,0,1,1,2.8,2.994l-1.592,1.592a16.8,16.8,0,1,0-2.825-2.974Z" transform="translate(-338.117 -41.856)"/><path class="c" d="M375.788,71.436a10.692,10.692,0,1,1-.216-4.666h2.194a12.836,12.836,0,1,0,.172,4.667h-2.149Z" transform="translate(-339.632 -43.398)"/><path class="c" d="M375.251,71.412a8.427,8.427,0,1,1-8.427-8.427A8.427,8.427,0,0,1,375.251,71.412Z" transform="translate(-341.267 -45.106)"/><path class="c" d="M360.647,38.331A26.024,26.024,0,0,0,334.775,61.88h2.846a23.168,23.168,0,1,1,.276,6.734h-2.88a25.989,25.989,0,1,0,25.63-30.283Z" transform="translate(-334.775 -38.331)"/></g></g><g transform="translate(4.069 140.376)"><line class="d" x2="1.813"/><line class="e" x2="42.709" transform="translate(5.527)"/><line class="d" x2="1.813" transform="translate(50.092)"/></g><path class="f" d="M156.691,228.091A2.091,2.091,0,1,1,154.6,226,2.091,2.091,0,0,1,156.691,228.091Z" transform="translate(-152.508 -87.672)"/><circle class="f" cx="2.091" cy="2.091" r="2.091" transform="translate(29.448 21.658)"/><path class="f" d="M575.3,82.176a2.091,2.091,0,1,1-2.091-2.091A2.091,2.091,0,0,1,575.3,82.176Z" transform="translate(-267.551 -47.572)"/><g transform="translate(251.604 136.532)"><line class="d" x1="1.813" transform="translate(50.093)"/><line class="e" x1="42.709" transform="translate(3.669)"/><line class="d" x1="1.813"/></g><circle class="f" cx="2.091" cy="2.091" r="2.091" transform="translate(303.397 134.483)"/><path class="g" d="M198,68.333h65.025v45.2" transform="translate(-165.01 -44.342)"/><path class="g" d="M539.408,82.969H456.7v35.292" transform="translate(-236.108 -48.364)"/></g><g transform="translate(82.002 275.071)"><path class="c" d="M504.78,419.594H95a7.513,7.513,0,0,1-7.513-7.513h0A7.513,7.513,0,0,1,95,404.568H504.78a7.513,7.513,0,0,1,7.513,7.513h0A7.513,7.513,0,0,1,504.78,419.594Z" transform="translate(-87.483 -377.274)"/><path class="c" d="M414.7,379.957H259.9a5.468,5.468,0,0,1-5.469-5.469V372.4a5.468,5.468,0,0,1,5.469-5.469H414.7a5.468,5.468,0,0,1,5.469,5.469v2.089A5.468,5.468,0,0,1,414.7,379.957Z" transform="translate(-133.363 -366.931)"/><path class="h" d="M421.326,399.171H230.356a5.88,5.88,0,0,1-5.88-5.88V390.6a5.88,5.88,0,0,1,5.88-5.88H421.326a5.88,5.88,0,0,1,5.88,5.88v2.689A5.881,5.881,0,0,1,421.326,399.171Z" transform="translate(-125.132 -371.821)"/></g><g transform="translate(92.344 32.678)"><path class="c" d="M155.315,48.274a61.425,61.425,0,0,1-21.7,46.583l-5.4,4.5-.331-.276-5-4.175c-13.548-11.318-21.145-28.858-21.145-46.512v-.067l26.141-15.645Z" transform="translate(-101.745 -32.678)"/><path class="h" d="M165.221,48.274a61.425,61.425,0,0,1-21.7,46.583l-5.4,4.5-.331-.276v-6.12l.384.321,4.46-3.711A50.717,50.717,0,0,0,160.554,51.1L137.906,38.223l-.113.067V32.678Z" transform="translate(-111.652 -32.678)"/><path class="i" d="M160.553,53.2a50.718,50.718,0,0,1-17.917,38.466l-4.46,3.711-.384-.321V40.392l.113-.067Z" transform="translate(-111.651 -34.78)"/><path class="b" d="M129.654,40.418V95.085l-4.015-3.353C114.452,82.387,108.18,67.9,108.18,53.324v-.055Z" transform="translate(-103.513 -34.805)"/><path class="b" d="M142.7,67.87a9.113,9.113,0,0,0-9.11-8.962c-.09,0-.182,0-.272.005a9.109,9.109,0,0,0-8.836,8.952h-.3a2.313,2.313,0,0,0-2.312,2.312V76.45a8.366,8.366,0,0,0,8.367,8.365h6.3a8.365,8.365,0,0,0,8.367-8.365V70.177A2.31,2.31,0,0,0,142.7,67.87Zm-13.987-.005a4.889,4.889,0,0,1,4.6-4.872c.092-.005.187-.008.282-.008a4.889,4.889,0,0,1,4.89,4.88Z" transform="translate(-107.276 -39.887)"/><path class="i" d="M128.715,67.866h4.6v16.95h-3.081a8.366,8.366,0,0,1-8.367-8.365V70.177a2.313,2.313,0,0,1,2.312-2.312h.3a9.109,9.109,0,0,1,8.836-8.952v4.08A4.889,4.889,0,0,0,128.715,67.866Z" transform="translate(-107.276 -39.888)"/></g><g transform="translate(191.647 105.015)"><path class="j" d="M325.258,362.557H356.2a11.712,11.712,0,0,0,11.712-11.712H332.36a7.1,7.1,0,0,0-7.1,7.1Z" transform="translate(-262.474 -192.454)"/><rect class="k" width="36.358" height="43.001" transform="translate(70.125 115.718)"/><path class="l" d="M399.5,306.745H252.671a13.809,13.809,0,0,1-13.809-13.81v-9.614H413.313v9.614A13.809,13.809,0,0,1,399.5,306.745Z" transform="translate(-238.731 -173.897)"/><path class="k" d="M413.132,243.252H238.681V140.119a7.691,7.691,0,0,1,7.691-7.691h166.76V243.252Z" transform="translate(-238.681 -132.428)"/><rect class="l" width="36.358" height="43.001" transform="translate(75.719 115.718)"/><path class="j" d="M410.892,306.745H264.06a13.809,13.809,0,0,1-13.809-13.81v-9.614H424.7v9.614A13.809,13.809,0,0,1,410.892,306.745Z" transform="translate(-241.861 -173.897)"/><path class="l" d="M424.7,243.252H250.251V139.42a6.992,6.992,0,0,1,6.992-6.992H417.71a6.992,6.992,0,0,1,6.992,6.992Z" transform="translate(-241.861 -132.428)"/><rect class="m" width="157.352" height="95.965" transform="translate(17.184 7.343)"/><path class="k" d="M385.355,362.557h-30.94A11.712,11.712,0,0,1,342.7,350.845h35.55a7.1,7.1,0,0,1,7.1,7.1v4.611Z" transform="translate(-267.269 -192.454)"/><ellipse class="c" cx="30.368" cy="29.164" rx="30.368" ry="29.164" transform="translate(63.703 28.177)"/><g transform="translate(70.782 21.874)"><path class="l" d="M362.714,162.592h0a16.323,16.323,0,0,0-16.323,16.322V196.4h32.645V178.914A16.322,16.322,0,0,0,362.714,162.592Zm8.734,25.866H353.8v-9.452a8.822,8.822,0,0,1,8.822-8.822h0a8.822,8.822,0,0,1,8.822,8.822v9.452Z" transform="translate(-339.065 -162.592)"/><path class="j" d="M367.34,162.592h0a16.323,16.323,0,0,0-16.323,16.322V196.4h32.645V178.914A16.322,16.322,0,0,0,367.34,162.592Zm8.734,25.866H358.431v-9.452a8.822,8.822,0,0,1,8.822-8.822h0a8.822,8.822,0,0,1,8.822,8.822v9.452Z" transform="translate(-340.336 -162.592)"/><path class="l" d="M358.534,239.777h0a22.246,22.246,0,0,1-22.246-22.246V193.695h44.493v23.836A22.246,22.246,0,0,1,358.534,239.777Z" transform="translate(-336.288 -171.14)"/><path class="j" d="M364.754,239.777h-.577a22.531,22.531,0,0,1-22.531-22.531V193.695h45.641v23.551A22.532,22.532,0,0,1,364.754,239.777Z" transform="translate(-337.76 -171.14)"/><path class="l" d="M375.039,217.056l2.537,8.353h-8.3l2.516-8.332a4.951,4.951,0,0,1-2.516-4.163,4.371,4.371,0,0,1,3.554-4.29,4.141,4.141,0,0,1,.816-.08,4.37,4.37,0,0,1,1.393,8.511Z" transform="translate(-345.354 -175.221)"/><path class="m" d="M373.407,217.087l2.537,8.353h-6.669l2.516-8.332a4.951,4.951,0,0,1-2.516-4.163,3.6,3.6,0,1,1,4.131,4.141Z" transform="translate(-345.354 -175.251)"/></g><path class="d" d="M415.315,196.552H428.46l5.28-5.279h8.512" transform="translate(-287.224 -148.6)"/><line class="d" x2="19.467" transform="translate(128.091 55.423)"/><path class="h" d="M452.436,190.443a1.994,1.994,0,1,1-1.994-1.993A1.994,1.994,0,0,1,452.436,190.443Z" transform="translate(-296.33 -147.824)"/><path class="d" d="M416.3,219.157h13.146l5.279,5.28h8.512" transform="translate(-287.496 -156.263)"/><circle class="h" cx="1.994" cy="1.994" r="1.994" transform="translate(152.837 66.234)"/><path class="h" d="M443.322,208.075a1.994,1.994,0,1,1-1.994-1.993A1.994,1.994,0,0,1,443.322,208.075Z" transform="translate(-293.825 -152.669)"/><path class="d" d="M312.654,198.7H299.508l-5.279-5.28h-8.513" transform="translate(-251.607 -149.189)"/><line class="d" x1="19.467" transform="translate(41.58 56.978)"/><path class="h" d="M284.23,192.587a1.994,1.994,0,1,0,1.993-1.993A1.994,1.994,0,0,0,284.23,192.587Z" transform="translate(-251.199 -148.413)"/><path class="d" d="M311.663,221.3H298.518l-5.28,5.279h-8.512" transform="translate(-251.335 -156.852)"/><path class="h" d="M283.24,227.9a1.994,1.994,0,1,1,1.993,1.993A1.994,1.994,0,0,1,283.24,227.9Z" transform="translate(-250.927 -158.118)"/><path class="h" d="M293.344,210.219a1.993,1.993,0,1,0,1.993-1.993A1.994,1.994,0,0,0,293.344,210.219Z" transform="translate(-253.704 -153.259)"/></g><g transform="translate(444.948 39.938)"><circle class="h" cx="12.776" cy="12.776" r="12.776" transform="translate(16.293 0)"/><path class="b" d="M629.948,49.871a2.6,2.6,0,1,1-2.6-2.6A2.6,2.6,0,0,1,629.948,49.871Z" transform="translate(-598.084 -43.95)"/><path class="h" d="M622.36,76.021V82.37a1.032,1.032,0,0,0,.528.9l.277.155a1.032,1.032,0,0,1,.1,1.738l-.475.342a1.033,1.033,0,0,0-.429.838v1.018a1.032,1.032,0,0,0,.726.986h0a1.032,1.032,0,0,1,.342,1.788l-.419.339a1.033,1.033,0,0,0-.384.8V92.6a1.033,1.033,0,0,1-.38.8l-1.635,1.333a1.03,1.03,0,0,0-.38.8V97.2a1.032,1.032,0,0,0,1.032,1.032h6.26a1.032,1.032,0,0,0,.73-.3l2.146-2.146a1.032,1.032,0,0,0,.3-.73V76.023a1.032,1.032,0,0,0-1.032-1.032h-6.276A1.029,1.029,0,0,0,622.36,76.021Z" transform="translate(-596.84 -51.566)"/><path class="d" d="M640.266,79.874h10.415l4.184-4.183h6.744" transform="translate(-602.346 -51.759)"/><line class="d" x2="15.424" transform="translate(37.92 34.035)"/><path class="h" d="M669.678,75.033a1.579,1.579,0,1,1-1.579-1.579A1.579,1.579,0,0,1,669.678,75.033Z" transform="translate(-609.561 -51.144)"/><path class="d" d="M641.051,97.784h10.415l4.183,4.183h6.744" transform="translate(-602.562 -57.83)"/><circle class="h" cx="1.579" cy="1.579" r="1.579" transform="translate(57.526 42.6)"/><path class="h" d="M662.457,89a1.579,1.579,0,1,1-1.579-1.579A1.579,1.579,0,0,1,662.457,89Z" transform="translate(-607.577 -54.983)"/><path class="d" d="M611.281,80.09H600.866l-4.183-4.183h-6.745" transform="translate(-588.515 -51.818)"/><line class="d" x1="15.424" transform="translate(7.342 34.191)"/><path class="h" d="M588.761,75.249a1.579,1.579,0,1,0,1.579-1.579A1.579,1.579,0,0,0,588.761,75.249Z" transform="translate(-588.192 -51.203)"/><path class="d" d="M610.5,98H600.081l-4.183,4.183h-6.744" transform="translate(-588.3 -57.89)"/><circle class="h" cx="1.579" cy="1.579" r="1.579" transform="translate(0 42.757)"/><path class="h" d="M595.982,89.219a1.579,1.579,0,1,0,1.579-1.579A1.579,1.579,0,0,0,595.982,89.219Z" transform="translate(-590.176 -55.043)"/></g><g transform="translate(67.538 139.097)"><path class="h" d="M113.255,210.77H72.881c-.186,0-.371-.008-.553-.024a4.976,4.976,0,0,1-3.149-8.382L89.2,181.083a5.355,5.355,0,0,1,7.744,0l20.017,21.28a4.976,4.976,0,0,1-3.149,8.382C113.625,210.761,113.441,210.77,113.255,210.77Z" transform="translate(-67.613 -179.427)"/><path class="b" d="M113.194,224.894H79.425V206.082a4.411,4.411,0,0,1,4.411-4.411h24.947a4.411,4.411,0,0,1,4.411,4.411Z" transform="translate(-70.805 -185.54)"/><path class="c" d="M112.5,243.947H73.42a5.882,5.882,0,0,1-5.882-5.882v-22.04c0-3.249,2.633,3.651,5.882,3.651H112.5c3.248,0,5.882-6.9,5.882-3.651v22.04A5.881,5.881,0,0,1,112.5,243.947Z" transform="translate(-67.538 -189.246)"/><path class="h" d="M88.934,244l30.22-22.615S101.712,241.874,88.934,244Z" transform="translate(-73.418 -190.959)"/><path class="h" d="M105.977,243.526,74.81,221.5S93,241.727,105.977,243.526Z" transform="translate(-69.537 -190.989)"/><g transform="translate(16.598 19.171)"><path class="i" d="M105.488,210.106a4.242,4.242,0,1,1-4.242-4.242A4.242,4.242,0,0,1,105.488,210.106Z" transform="translate(-92.234 -205.864)"/><rect class="i" width="1.381" height="1.943" transform="translate(6.638 7.566)"/><rect class="i" width="1.381" height="1.943" transform="translate(8.279 7.89)"/><rect class="i" width="1.381" height="1.943" transform="translate(9.919 7.523)"/><path class="b" d="M98.968,211.166l2.085.855a.906.906,0,0,1-.834.855C99.427,212.938,98.717,212.313,98.968,211.166Z" transform="translate(-92.759 -207.321)"/><path class="b" d="M105.9,211.2l-2.085.855a.907.907,0,0,0,.834.855C105.442,212.968,106.151,212.343,105.9,211.2Z" transform="translate(-94.106 -207.329)"/><path class="b" d="M102.593,213.7l-.454,1.02h.956Z" transform="translate(-93.645 -208.018)"/><path class="i" d="M96.826,208.846l-1.943-.373-1.1-1.732-.453.259,1.02,2.137,2.331.421Z" transform="translate(-91.224 -206.105)"/><path class="i" d="M96.8,214.9l-1.943.372L93.752,217l-.453-.259,1.02-2.137,2.331-.421Z" transform="translate(-91.216 -208.151)"/><path class="i" d="M95.8,211.622l-3.108-.043-2.267,1.36.216.41,2.352-1.036,2.979.281Z" transform="translate(-90.426 -207.435)"/><path class="i" d="M107.185,208.816l1.943-.372,1.1-1.732.453.259-1.02,2.137-2.331.421Z" transform="translate(-95.032 -206.097)"/><path class="i" d="M107.215,214.866l1.943.373,1.1,1.732.453-.259-1.02-2.137-2.331-.421Z" transform="translate(-95.04 -208.142)"/><path class="i" d="M107.433,211.593l3.108-.044,2.267,1.36-.216.41-2.352-1.036-2.979.281Z" transform="translate(-95.052 -207.426)"/></g></g><g transform="translate(95.961 216.135)"><g transform="translate(0 3.356)"><ellipse class="c" cx="19.915" cy="2.845" rx="19.915" ry="2.845" transform="translate(0 125.469)"/><path class="n" d="M153.484,330.744l2.352-2.087s.535-2.134.806-2.8.847-1.47,1.133-2.078.9.491.328,1.706c0,0,1.722-1.263,1.851-1.417s.352-.976,1.033-1.234.189,1.631-.252,2.11c0,0,.6,1.045.387,1.514a3.355,3.355,0,0,0-.371,1.5c.057.39-.079.721-1.139,1.265a27.583,27.583,0,0,0-3.775,3.378A15.987,15.987,0,0,1,153.484,330.744Z" transform="translate(-119.581 -299.227)"/><path class="o" d="M124.539,322.158s-1.333.721.569,5.187,9.393,11.361,14.137,12.6,9.609-8.592,9.609-8.592l-3.117-1.9-6.331,5.1s-10.744-11.354-12.241-12.372A2.125,2.125,0,0,0,124.539,322.158Z" transform="translate(-111.502 -298.925)"/><path class="j" d="M159.054,320.453l-2.566,18.632,12.161.223,2.566-18.743Z" transform="translate(-120.407 -298.577)"/><path class="n" d="M135.147,297.053s2.269.512,2.342,4.025,1.025,4.025,1.025,4.025-.585,3.513-1.463,4.391-3,.8-3,.8l-.512,2.416h-6.075l.658-7.245S133.024,297.272,135.147,297.053Z" transform="translate(-112.43 -292.147)"/><path class="j" d="M134.337,293.364a4.509,4.509,0,0,1,1.244,4.464,3.782,3.782,0,0,1-3.513,2.635s.22,1.83-.8,2.269c0,0-.585-1.537-1.537-1.391s-1.683,2.561-.878,3.806a1.717,1.717,0,0,0,1.83.951s.22,1.756-2.049,1.976-5.709.439-7.758-3.659a8.235,8.235,0,0,1,0-7.538,3.349,3.349,0,0,1-3.147-.366c-1.463-1.1-.439-5.489,2.342-6.148s3.367,3.221,3.367,3.221S128.7,289.412,134.337,293.364Z" transform="translate(-109.571 -290.287)"/><path class="p" d="M137.111,337.462c-.308,4.954-.85,8.957-.85,8.957l-1.379-.013-13.937-.1s-3.247-20.209-2.932-23.985c.335-3.936,6.025-5.02,6.025-5.02s7.946.094,10.63,1.928C137.52,321.169,137.56,330.306,137.111,337.462Z" transform="translate(-109.827 -297.711)"/><path class="p" d="M139.294,320.269s-1.506.168-1.423,5.02,4.434,14.058,8.367,16.986,12.133-4.351,12.133-4.351l-2.176-2.929-7.782,2.343s-5.69-14.559-6.694-16.066A2.125,2.125,0,0,0,139.294,320.269Z" transform="translate(-115.289 -298.505)"/><path class="n" d="M163.45,338.722l2.845-1.339s1.115-1.9,1.562-2.455,1.227-1.171,1.674-1.674.725.725-.168,1.73c0,0,2.008-.725,2.176-.837s.613-.837,1.339-.893-.279,1.618-.837,1.952c0,0,.279,1.171-.056,1.562a3.355,3.355,0,0,0-.781,1.339c-.056.39-.279.669-1.45.893a27.618,27.618,0,0,0-4.574,2.176A16.032,16.032,0,0,1,163.45,338.722Z" transform="translate(-122.32 -302.064)"/><path class="o" d="M142.5,341.268c-.308,4.954-.85,8.957-.85,8.957l-1.379-.013.569-7.685c-2.905-4.13-3.24-11.379-3.24-11.379l4.465,8.923Z" transform="translate(-115.216 -301.516)"/><path class="j" d="M136.264,356.838s5.355,11.491-.307,40.917h-15.4s-3.012-18.241-2.845-27.111,3.152-13.472,3.152-13.472Z" transform="translate(-109.75 -308.577)"/><path class="j" d="M132.63,404.069s-.867,13.185,2.492,42.669l4.3.091.366-40.746Z" transform="translate(-113.822 -321.557)"/><path class="j" d="M123.4,401.729s-3.3,14.469-3.794,41.582l3.626,1.395,6.414-40.294Z" transform="translate(-110.27 -320.914)"/><path class="p" d="M135.648,462.277s-.778,3.663-.458,4.075,4.853.412,6.089.137,3.159.229,4.716-.55-5.952-3.434-5.952-3.434Z" transform="translate(-114.532 -337.554)"/><path class="p" d="M118.6,457.869s-2.209,3.023-2.085,3.53,4.26,2.362,5.5,2.617,2.789,1.5,4.527,1.429-4.025-5.569-4.025-5.569Z" transform="translate(-109.42 -336.342)"/></g><g transform="translate(34.741)"><ellipse class="c" cx="19.915" cy="2.845" rx="19.915" ry="2.845" transform="translate(17.23 127.616)"/><path class="n" d="M192.6,291.028s-2.384.687-2.243,4.431-.84,4.349-.84,4.349.842,3.7,1.831,4.584,3.244.671,3.244.671l.7,2.54,6.467-.378-1.152-7.672S194.877,291.13,192.6,291.028Z" transform="translate(-164.225 -287.135)"/><g transform="translate(22.959)"><path class="j" d="M196.973,285.685c-3.228-.318-10.084,2.5-10.619,3.3s2.945,2.587,6.336,3.213a3.261,3.261,0,0,0,.624,3.123s.089,1.874.714,2.409c0,0,.178-1.874,1.16-1.874s1.339,2.141,1.16,3.659a1.6,1.6,0,0,1-1.7,1.428s3.3,2.052,5.622,1.339c0,0,4.189-5.726,3.926-8.745-.3-3.421-2.439-4.253-2.439-4.253S201.2,286.1,196.973,285.685Z" transform="translate(-186.299 -285.66)"/></g><path class="p" d="M208.168,333.723c-1,9.144-1.674,16.789-1.674,16.789l-15.068.294-2,.04s-.361-3.26-.843-7.712c-1-9.271-2.511-23.717-2.283-24.7.335-1.446,5.469-3.12,5.469-3.12l.221-1.674s.114-.448,4.016-1.566,5.8-.335,5.8-.335l.221,1.568s4.913,3.012,5.917,3.568S209.172,324.572,208.168,333.723Z" transform="translate(-163.334 -292.754)"/><path class="o" d="M193.646,343.509c-2.075,4.954-1.405,11.588-1.345,12.176l-2,.04s-.361-3.26-.843-7.712l.007-.321,4.853-18.462S195.822,338.321,193.646,343.509Z" transform="translate(-164.208 -297.634)"/><path class="p" d="M181.149,320.09c-2.273,1.542-3.458,23.6-3.458,23.6l-11.38,3.793,1.339,4.574s10.376-.334,13.834-3.124,6.471-22.314,6.471-22.314S184.44,317.859,181.149,320.09Z" transform="translate(-157.847 -295.022)"/><path class="j" d="M189.823,364.459l-.474,11.379,3.04,54.333,7.587-.112-.558-54.918.753-.753,2.008,23.429,5.16,32.243,7.363-1-3.654-32.577-3.682-31.713Z" transform="translate(-164.178 -307.315)"/><path class="j" d="M192.212,453.2l.168,2.928s-6.359,4.1-6.61,4.77,5.271.753,6.694.669,4.77.418,6.61-.083l-1.088-8.451Z" transform="translate(-163.192 -331.658)"/><path class="j" d="M212.932,452.575l.474,2.895s-5.894,4.744-6.074,5.436,5.321.2,6.727-.036,4.787-.084,6.565-.776l-1.967-8.29Z" transform="translate(-169.119 -331.319)"/><path class="n" d="M163.382,358.843l-1.674.5a11.373,11.373,0,0,0-2.566-.446c-1.06,0-1.785.056-1.618.334s1.73.613,2.231.781-2.343.949-2.845.949-2.176-.112-2.231.223,1.562.837,2.287.837a2.27,2.27,0,0,1-1.227.223c-.558-.112-.39-.781-.893-.446s0,1.339.5,1.506.613,1,1,1.06a8.064,8.064,0,0,1,1.45.391,2.311,2.311,0,0,0,1.506.112,7.227,7.227,0,0,0,1.395-.669,12.75,12.75,0,0,0,2.12-1.73l1.506-.446Z" transform="translate(-154.639 -305.772)"/></g></g><g transform="translate(386.839 224.948)"><path class="c" d="M662.5,470.264c0,1.606-9.112,2.907-20.352,2.907s-20.352-1.3-20.352-2.907,9.112-2.907,20.352-2.907S662.5,468.659,662.5,470.264Z" transform="translate(-539.162 -344.407)"/><g transform="translate(31.485 27.166)"><path class="k" d="M605.248,356.6H574.462l-4.2-18.712a2.141,2.141,0,0,1,2.089-2.61h24.6a4.386,4.386,0,0,1,4.279,3.425Z" transform="translate(-556.468 -335.274)"/><path class="m" d="M603.943,355.767H577.516l-3.608-15.538a1.794,1.794,0,0,1,1.793-2.168h21.118a3.74,3.74,0,0,1,3.674,2.844Z" transform="translate(-557.473 -336.04)"/><rect class="l" width="36.03" height="2.965" transform="translate(18.051 21.322)"/><path class="h" d="M618.132,372.776H558.9a1.967,1.967,0,0,1-1.967-1.967h0a1.966,1.966,0,0,1,1.967-1.967h59.233a1.966,1.966,0,0,1,1.967,1.967h0A1.967,1.967,0,0,1,618.132,372.776Z" transform="translate(-552.821 -344.499)"/><path class="q" d="M551.262,438.024l12.664-57.648c1.407-7.078,9.252-7.139,10.725-.082l8.081,57.293" transform="translate(-551.262 -346.201)"/><path class="q" d="M617.834,435.525l8.854-57.037c1.407-7.078,9.252-7.139,10.725-.082l11.89,56.682" transform="translate(-569.557 -345.682)"/></g><g transform="translate(61.998)"><path class="n" d="M618.637,320.335s-.57-1.2-1.14-1.454-1.653-.484-2.11-1.169a5.826,5.826,0,0,1-.713-2.395c0-.4.8.171.912.513a6.054,6.054,0,0,0,.342.769,19.113,19.113,0,0,0-.028-3.82c-.257-.6-.542-.8-.456-1.2s.6-.028.884.228.941,1.425,1.083,1.482a2.069,2.069,0,0,1,1,.2c.484.285.941.4,1.283.656a2.072,2.072,0,0,1,.513,1.226c.086.4,0,1.6.028,1.91a7.32,7.32,0,0,0,.6,1.368Z" transform="translate(-599.203 -301.549)"/><path class="j" d="M635.6,336.84s-10.6-5.216-12.571-7.44-4.532-4.618-2.993-7.1,3.592-1.8,4.361-1.2,4.1,4.618,5.3,5.131,5.815-.513,7.44,1.967S637.484,336.67,635.6,336.84Z" transform="translate(-600.547 -304.059)"/><path class="n" d="M603.823,358.6a20.363,20.363,0,0,1-3.352-2.235c-.908-.908-1.467-1.886-3.073-2.235s-3.143.419-3.143.838,1.537.21,1.537.21l.594.087s-2.148.21-2.41.577a2.692,2.692,0,0,0-.367.733,2.106,2.106,0,0,0-.21.786c0,.367-.21.524.157.838s.838-.524.838-.524a10.052,10.052,0,0,0,2.933,2.148,2.548,2.548,0,0,0,1.729.105,4.579,4.579,0,0,0,2.672,1.519C603.613,361.867,603.823,358.6,603.823,358.6Z" transform="translate(-593.339 -313.266)"/><path class="p" d="M631.384,328.032a20.184,20.184,0,0,0-3.763,3.648c-.912,1.482,2.166,22.348,2.166,22.348l.684,8.665,19.839-.8s.912-27.592-3.078-32.724S631.384,328.032,631.384,328.032Z" transform="translate(-602.714 -305.711)"/><path class="n" d="M633.067,302.458s-2.318.524-2.393,4.114-1.047,4.114-1.047,4.114.6,3.59,1.5,4.487,3.067.823,3.067.823l.524,2.469h6.208l-.673-7.4S635.236,302.682,633.067,302.458Z" transform="translate(-603.312 -299.089)"/><path class="j" d="M633.32,324.245s8.551-4.19,11.374-3.763a2.209,2.209,0,0,1,2.052,2.907s3.677.086,3.335,3.506-10.348-1.026-13.426-.684-4.532,1.2-5.045.342S632.293,324.844,633.32,324.245Z" transform="translate(-603.823 -304.034)"/><path class="j" d="M632.534,303.115a5.906,5.906,0,0,0,.342,2.281,2.661,2.661,0,0,0,1.54,1.938s-.513,1.838-.043,2.138.641-1.753,1.368-1.924,1.283,1.026,1.069,2.437-.941,1.625-1.326,1.753,1.454,2.395,4.96,1.625,5.687-7.354,3.335-10.219c0,0,.641-2.223-3.207-3.635s-7.782-2.138-9.535-1.411-.043,2.266-.043,2.266-1.264.089-1.411.812C629.4,302.089,630.482,303.144,632.534,303.115Z" transform="translate(-603.294 -297.813)"/><path class="j" d="M621.24,333.623s2.736,1.255,4.333,7.981-1.825,14.594-4.333,16.761-13.34.684-15.849-1.368a2.52,2.52,0,0,1,.912-4.561c1.255-.228,8.551.456,8.551.456s.114-1.14.8-1.368,1.825-1.711,2.736-6.271S618.618,337.727,621.24,333.623Z" transform="translate(-596.333 -307.654)"/><path class="j" d="M631.616,375.925l.228,2.166,19.726-.114-.114-2.851S645.982,373.759,631.616,375.925Z" transform="translate(-603.858 -318.943)"/><path class="j" d="M631.931,378.977l1.14,10.261,3.74,49.469,9.007-.439-2.457-49.741.769-.77,2.052,23.944,5.347,26.568,8.458-.769-4.74-27.167-3.762-32.41Z" transform="translate(-603.945 -319.828)"/><path class="j" d="M638.316,460.578l.171,2.993s-6.5,4.19-6.756,4.874,5.387.769,6.841.684,4.875.428,6.756-.086l-1.112-8.637Z" transform="translate(-603.888 -342.497)"/><path class="j" d="M658.425,458.425l.484,2.959s-6.024,4.849-6.208,5.556,5.438.2,6.875-.037,4.892-.086,6.709-.793l-2.011-8.473Z" transform="translate(-609.652 -341.736)"/></g><g transform="translate(0 1.005)"><ellipse class="c" cx="19.607" cy="2.801" rx="19.607" ry="2.801" transform="translate(0 122.272)"/><path class="n" d="M535.819,304.122s2.234.5,2.306,3.963,1.009,3.963,1.009,3.963-.576,3.458-1.441,4.324-2.954.793-2.954.793l-.5,2.378h-5.981l.648-7.134S533.73,304.338,535.819,304.122Z" transform="translate(-513.454 -300.551)"/><path class="n" d="M533.342,409.486s-.854,12.981,2.453,42.01l4.237.09.36-40.117Z" transform="translate(-514.825 -329.508)"/><path class="n" d="M524.251,407.181s-3.252,14.245-3.735,40.94l3.57,1.373,6.315-39.671Z" transform="translate(-511.327 -328.874)"/><path class="p" d="M537.754,343.907c-.3,4.877-.837,8.818-.837,8.818l-1.358-.013-13.722-.1s-3.2-19.9-2.887-23.614c.329-3.875,5.931-4.943,5.931-4.943s7.823.092,10.466,1.9C538.156,327.866,538.2,336.862,537.754,343.907Z" transform="translate(-510.891 -306.03)"/><path class="j" d="M536.92,362.984s5.273,11.314-.3,40.285H521.459s-2.966-17.959-2.8-26.692,3.1-13.264,3.1-13.264Z" transform="translate(-510.815 -316.728)"/><path class="j" d="M536.313,466.794s-.767,3.606-.451,4.012,4.778.405,6,.136,3.11.226,4.643-.541-5.859-3.381-5.859-3.381Z" transform="translate(-515.524 -345.257)"/><path class="j" d="M519.527,462.454s-2.175,2.977-2.053,3.476,4.194,2.326,5.415,2.577,2.745,1.479,4.458,1.406-3.963-5.482-3.963-5.482Z" transform="translate(-510.49 -344.064)"/><path class="n" d="M564.364,368.023a10.482,10.482,0,0,0,2.883.659c1.153,0,4.2-1.236,5.273-1.236s1.978.495,2.224.083-2.06-1.565-2.471-1.648a7.573,7.573,0,0,1-1.73-1.071c-.33-.247-4.366.165-4.366.165Z" transform="translate(-523.378 -317.208)"/><path class="p" d="M539.425,327.429s-1.812,2.471-1.648,8.733,1.812,15.818,3.954,18.948,15.488,3.625,15.488,3.625l2.471-4.449-13.675-4.119s-2.419-19.858-3.954-21.584S539.425,327.429,539.425,327.429Z" transform="translate(-516.068 -306.932)"/><path class="j" d="M532.689,305.527s.329,1.071-.988,2.636a2.211,2.211,0,0,1-.247,1.812c-.576.824.083-1.566-1.648-1.483s-1.154,2.966-.659,3.46a2.259,2.259,0,0,0,1.4.495,22.11,22.11,0,0,1-.165,9.309c-1.236,4.366-8.156,3.625-10.463.412s.083-8.98,1.318-12.6,1.318-8.815,6.261-9.886,8.073-.412,9.474,2.636.083,4.531-.412,4.861-2.06-1.236-2.06-1.236Z" transform="translate(-510.898 -299.198)"/></g></g><g transform="translate(441.704 141.519)"><path class="h" d="M616.284,186.687V230.4a3.926,3.926,0,0,1-3.92,3.92H587.422a3.922,3.922,0,0,1-3.92-3.92V186.687a3.922,3.922,0,0,1,3.92-3.92h24.943A3.927,3.927,0,0,1,616.284,186.687Z" transform="translate(-583.502 -182.767)"/><rect class="i" width="32.782" height="35.633" transform="translate(0 7.783)"/><g transform="translate(4.787 12.699)"><rect class="b" width="4.194" height="4.084"/><rect class="b" width="4.194" height="4.084" transform="translate(10.1)"/><rect class="b" width="4.194" height="4.084" transform="translate(19.289)"/><rect class="b" width="4.194" height="4.084" transform="translate(0 9.493)"/><rect class="b" width="4.194" height="4.084" transform="translate(10.1 9.493)"/><rect class="b" width="4.194" height="4.084" transform="translate(19.289 9.493)"/><rect class="b" width="4.194" height="4.084" transform="translate(0 18.829)"/><rect class="b" width="4.194" height="4.084" transform="translate(10.1 18.829)"/><rect class="b" width="4.194" height="4.084" transform="translate(19.289 18.829)"/></g><path class="b" d="M609.314,188.693h-9.8a.579.579,0,0,1-.579-.579h0a.579.579,0,0,1,.579-.579h9.8a.578.578,0,0,1,.579.579h0A.579.579,0,0,1,609.314,188.693Z" transform="translate(-587.744 -184.077)"/><path class="b" d="M607.622,247.286a2.316,2.316,0,1,1-2.316-2.316A2.316,2.316,0,0,1,607.622,247.286Z" transform="translate(-588.858 -199.862)"/><g transform="translate(34.587 17.984)"><circle class="h" cx="7.337" cy="7.337" r="7.337" transform="translate(12.126)"/><path class="b" d="M662.9,215.471a1.49,1.49,0,1,0,1.49,1.49A1.49,1.49,0,0,0,662.9,215.471Z" transform="translate(-639.499 -209.738)"/><path class="h" d="M643.953,218.68h-3.646a.593.593,0,0,1-.517-.3l-.089-.16a.592.592,0,0,0-1-.057l-.2.273a.593.593,0,0,1-.481.247h-.585a.594.594,0,0,1-.566-.417h0a.592.592,0,0,0-1.027-.2l-.194.241a.593.593,0,0,1-.461.22h-.76a.592.592,0,0,0-.459.218l-.765.939a.594.594,0,0,1-.459.218h-.96a.593.593,0,0,1-.592-.592v-3.6a.593.593,0,0,1,.173-.419l1.233-1.232a.593.593,0,0,1,.419-.173h10.933a.593.593,0,0,1,.592.592v3.6A.6.6,0,0,1,643.953,218.68Z" transform="translate(-631.196 -209.304)"/></g></g></g></svg>