<?xml version="1.0" encoding="UTF-8"?>
<svg xmlns="http://www.w3.org/2000/svg" xmlns:xlink="http://www.w3.org/1999/xlink" width="200pt" height="150pt" viewBox="0 0 200 150" version="1.1">
<defs>
<filter id="alpha" filterUnits="objectBoundingBox" x="0%" y="0%" width="100%" height="100%">
  <feColorMatrix type="matrix" in="SourceGraphic" values="0 0 0 0 1 0 0 0 0 1 0 0 0 0 1 0 0 0 1 0"/>
</filter>
<mask id="mask0">
  <g filter="url(#alpha)">
<rect x="0" y="0" width="200" height="150" style="fill:rgb(0%,0%,0%);fill-opacity:0.101961;stroke:none;"/>
  </g>
</mask>
<clipPath id="clip1">
  <rect x="0" y="0" width="200" height="150"/>
</clipPath>
<g id="surface5" clip-path="url(#clip1)">
<path style=" stroke:none;fill-rule:nonzero;fill:rgb(0%,0%,0%);fill-opacity:1;" d="M 190.640625 85.246094 L 190.410156 92.507812 L 186.207031 99.773438 L 189.71875 91.675781 Z M 190.640625 85.246094 "/>
</g>
</defs>
<g id="surface1">
<path style=" stroke:none;fill-rule:nonzero;fill:rgb(18.431373%,18.039216%,25.490196%);fill-opacity:1;" d="M 115.289062 7.304688 C 117.007812 10.933594 113.371094 11.964844 109.203125 13.910156 C 105.039062 15.855469 101.921875 17.980469 100.207031 14.351562 C 98.488281 10.722656 97.097656 3.515625 102.988281 0.765625 C 109.085938 -2.082031 113.574219 3.675781 115.289062 7.304688 Z M 115.289062 7.304688 "/>
<path style=" stroke:none;fill-rule:nonzero;fill:rgb(100%,72.156863%,72.156863%);fill-opacity:1;" d="M 112.398438 8.871094 C 112.398438 11.949219 109.886719 14.445312 106.792969 14.445312 C 103.695312 14.445312 101.183594 11.949219 101.183594 8.871094 C 101.183594 5.792969 103.695312 3.296875 106.792969 3.296875 C 109.886719 3.296875 112.398438 5.792969 112.398438 8.871094 Z M 112.398438 8.871094 "/>
<path style=" stroke:none;fill-rule:nonzero;fill:rgb(18.431373%,18.039216%,25.490196%);fill-opacity:1;" d="M 134.570312 33.589844 C 134.378906 33.335938 134.183594 33.089844 133.988281 32.847656 C 133.734375 32.535156 133.480469 32.230469 133.222656 31.9375 C 130.316406 28.605469 127.226562 26.503906 123.820312 26.28125 L 123.816406 26.28125 L 123.765625 26.277344 L 116.984375 32.847656 L 114.675781 35.082031 L 114.726562 35.203125 L 115.972656 38.285156 L 137.773438 38.285156 C 136.789062 36.664062 135.722656 35.097656 134.570312 33.589844 Z M 134.570312 33.589844 "/>
<path style=" stroke:none;fill-rule:nonzero;fill:rgb(18.431373%,18.039216%,25.490196%);fill-opacity:1;" d="M 100.695312 11.113281 L 102.699219 10.175781 L 102.421875 7.296875 L 103.761719 9.679688 L 104.722656 9.230469 L 104.558594 7.554688 L 105.34375 8.941406 L 112.472656 5.613281 C 111.078125 2.664062 107.542969 1.398438 104.574219 2.78125 L 103.542969 3.265625 C 100.574219 4.652344 99.300781 8.164062 100.695312 11.113281 Z M 100.695312 11.113281 "/>
<path style=" stroke:none;fill-rule:nonzero;fill:rgb(94.901961%,94.901961%,94.901961%);fill-opacity:1;" d="M 147.152344 112.285156 L 30.066406 112.285156 C 27.984375 112.28125 26.300781 110.605469 26.296875 108.539062 L 26.296875 38.609375 C 26.300781 37.097656 27.535156 35.871094 29.058594 35.867188 L 148.113281 35.867188 C 149.660156 35.871094 150.917969 37.117188 150.917969 38.660156 L 150.917969 108.539062 C 150.917969 110.605469 149.230469 112.28125 147.152344 112.285156 Z M 147.152344 112.285156 "/>
<path style=" stroke:none;fill-rule:nonzero;fill:rgb(100%,100%,100%);fill-opacity:1;" d="M 33.71875 108.539062 L 143.5 108.539062 C 145.515625 108.539062 147.152344 106.914062 147.152344 104.910156 L 147.152344 45.554688 C 147.152344 43.550781 145.515625 41.925781 143.5 41.925781 L 33.71875 41.925781 C 31.699219 41.925781 30.066406 43.550781 30.066406 45.554688 L 30.066406 104.910156 C 30.066406 106.914062 31.699219 108.539062 33.71875 108.539062 Z M 33.71875 108.539062 "/>
<path style=" stroke:none;fill-rule:nonzero;fill:rgb(42.352941%,38.823529%,100%);fill-opacity:1;" d="M 150.867188 38.398438 L 26.246094 38.398438 L 26.246094 36.492188 C 26.25 34.417969 27.941406 32.738281 30.027344 32.734375 L 147.085938 32.734375 C 149.171875 32.738281 150.863281 34.417969 150.867188 36.492188 Z M 150.867188 38.398438 "/>
<path style=" stroke:none;fill-rule:nonzero;fill:rgb(100%,100%,100%);fill-opacity:1;" d="M 34.09375 35.570312 C 34.09375 36.109375 33.65625 36.542969 33.117188 36.542969 C 32.578125 36.542969 32.140625 36.109375 32.140625 35.570312 C 32.140625 35.035156 32.578125 34.597656 33.117188 34.597656 C 33.65625 34.597656 34.09375 35.035156 34.09375 35.570312 Z M 34.09375 35.570312 "/>
<path style=" stroke:none;fill-rule:nonzero;fill:rgb(100%,100%,100%);fill-opacity:1;" d="M 37.808594 35.570312 C 37.808594 36.109375 37.367188 36.542969 36.828125 36.542969 C 36.289062 36.542969 35.851562 36.109375 35.851562 35.570312 C 35.851562 35.035156 36.289062 34.597656 36.828125 34.597656 C 37.367188 34.597656 37.808594 35.035156 37.808594 35.570312 Z M 37.808594 35.570312 "/>
<path style=" stroke:none;fill-rule:nonzero;fill:rgb(100%,100%,100%);fill-opacity:1;" d="M 41.519531 35.570312 C 41.519531 36.109375 41.082031 36.542969 40.539062 36.542969 C 40 36.542969 39.5625 36.109375 39.5625 35.570312 C 39.5625 35.035156 40 34.597656 40.539062 34.597656 C 41.082031 34.597656 41.519531 35.035156 41.519531 35.570312 Z M 41.519531 35.570312 "/>
<path style=" stroke:none;fill-rule:nonzero;fill:rgb(80%,80%,80%);fill-opacity:1;" d="M 92.035156 95.667969 L 82.21875 95.667969 C 81.019531 95.667969 80.050781 94.703125 80.046875 93.511719 L 80.046875 83.753906 C 80.050781 82.566406 81.019531 81.601562 82.21875 81.597656 L 92.035156 81.597656 C 93.230469 81.601562 94.203125 82.566406 94.203125 83.753906 L 94.203125 93.511719 C 94.203125 94.703125 93.230469 95.667969 92.035156 95.667969 Z M 82.21875 82.054688 C 81.273438 82.054688 80.503906 82.816406 80.503906 83.753906 L 80.503906 93.511719 C 80.503906 94.453125 81.273438 95.214844 82.21875 95.214844 L 92.035156 95.214844 C 92.980469 95.214844 93.746094 94.453125 93.746094 93.511719 L 93.746094 83.753906 C 93.746094 82.816406 92.980469 82.054688 92.035156 82.054688 Z M 82.21875 82.054688 "/>
<path style=" stroke:none;fill-rule:nonzero;fill:rgb(80%,80%,80%);fill-opacity:1;" d="M 90.09375 92.945312 L 84.15625 92.945312 C 83.78125 92.945312 83.472656 92.640625 83.472656 92.265625 L 83.472656 85.003906 C 83.472656 84.628906 83.78125 84.324219 84.15625 84.320312 L 88.457031 84.320312 C 88.613281 84.320312 88.765625 84.375 88.886719 84.472656 L 90.523438 85.777344 C 90.683594 85.90625 90.777344 86.101562 90.777344 86.308594 L 90.777344 92.265625 C 90.777344 92.640625 90.472656 92.945312 90.09375 92.945312 Z M 84.15625 84.777344 C 84.03125 84.777344 83.929688 84.878906 83.929688 85.003906 L 83.929688 92.265625 C 83.929688 92.390625 84.03125 92.492188 84.15625 92.492188 L 90.09375 92.492188 C 90.21875 92.492188 90.320312 92.390625 90.320312 92.265625 L 90.320312 86.308594 C 90.320312 86.238281 90.289062 86.175781 90.238281 86.132812 L 88.601562 84.824219 C 88.5625 84.792969 88.511719 84.777344 88.457031 84.777344 Z M 84.15625 84.777344 "/>
<path style=" stroke:none;fill-rule:nonzero;fill:rgb(80%,80%,80%);fill-opacity:1;" d="M 88.953125 87.5 L 85.300781 87.5 C 85.171875 87.5 85.070312 87.398438 85.070312 87.273438 C 85.070312 87.148438 85.171875 87.046875 85.300781 87.046875 L 88.953125 87.046875 C 89.078125 87.046875 89.179688 87.148438 89.179688 87.273438 C 89.179688 87.398438 89.078125 87.5 88.953125 87.5 Z M 88.953125 87.5 "/>
<path style=" stroke:none;fill-rule:nonzero;fill:rgb(80%,80%,80%);fill-opacity:1;" d="M 88.953125 88.859375 L 85.300781 88.859375 C 85.171875 88.859375 85.070312 88.757812 85.070312 88.632812 C 85.070312 88.507812 85.171875 88.40625 85.300781 88.40625 L 88.953125 88.40625 C 89.078125 88.40625 89.179688 88.507812 89.179688 88.632812 C 89.179688 88.757812 89.078125 88.859375 88.953125 88.859375 Z M 88.953125 88.859375 "/>
<path style=" stroke:none;fill-rule:nonzero;fill:rgb(80%,80%,80%);fill-opacity:1;" d="M 88.953125 90.222656 L 85.300781 90.222656 C 85.171875 90.222656 85.070312 90.121094 85.070312 89.996094 C 85.070312 89.871094 85.171875 89.769531 85.300781 89.769531 L 88.953125 89.769531 C 89.078125 89.769531 89.179688 89.871094 89.179688 89.996094 C 89.179688 90.121094 89.078125 90.222656 88.953125 90.222656 Z M 88.953125 90.222656 "/>
<path style=" stroke:none;fill-rule:nonzero;fill:rgb(80%,80%,80%);fill-opacity:1;" d="M 115.320312 95.667969 L 105.503906 95.667969 C 104.308594 95.667969 103.335938 94.703125 103.335938 93.511719 L 103.335938 83.753906 C 103.335938 82.566406 104.308594 81.601562 105.503906 81.597656 L 115.320312 81.597656 C 116.519531 81.601562 117.488281 82.566406 117.492188 83.753906 L 117.492188 93.511719 C 117.488281 94.703125 116.519531 95.667969 115.320312 95.667969 Z M 105.503906 82.054688 C 104.558594 82.054688 103.792969 82.816406 103.792969 83.753906 L 103.792969 93.511719 C 103.792969 94.453125 104.558594 95.214844 105.503906 95.214844 L 115.320312 95.214844 C 116.265625 95.214844 117.035156 94.453125 117.035156 93.511719 L 117.035156 83.753906 C 117.035156 82.816406 116.265625 82.054688 115.320312 82.054688 Z M 105.503906 82.054688 "/>
<path style=" stroke:none;fill-rule:nonzero;fill:rgb(80%,80%,80%);fill-opacity:1;" d="M 113.609375 91.128906 L 107.21875 91.128906 C 106.839844 91.128906 106.53125 90.824219 106.53125 90.449219 L 106.53125 86.816406 C 106.53125 86.441406 106.839844 86.136719 107.21875 86.136719 L 113.609375 86.136719 C 113.988281 86.136719 114.292969 86.441406 114.292969 86.816406 L 114.292969 90.449219 C 114.292969 90.824219 113.988281 91.128906 113.609375 91.128906 Z M 107.21875 86.589844 C 107.089844 86.589844 106.988281 86.691406 106.988281 86.816406 L 106.988281 90.449219 C 106.988281 90.574219 107.089844 90.675781 107.21875 90.675781 L 113.609375 90.675781 C 113.734375 90.675781 113.835938 90.574219 113.839844 90.449219 L 113.839844 86.816406 C 113.835938 86.691406 113.734375 86.589844 113.609375 86.589844 Z M 107.21875 86.589844 "/>
<path style=" stroke:none;fill-rule:nonzero;fill:rgb(80%,80%,80%);fill-opacity:1;" d="M 110.414062 89.230469 C 110.285156 89.234375 110.160156 89.195312 110.050781 89.128906 L 106.640625 87.011719 C 106.53125 86.945312 106.5 86.804688 106.566406 86.699219 C 106.632812 86.59375 106.773438 86.558594 106.882812 86.625 L 110.292969 88.746094 C 110.367188 88.789062 110.460938 88.789062 110.535156 88.746094 L 113.945312 86.625 C 114.050781 86.558594 114.191406 86.59375 114.257812 86.699219 C 114.328125 86.804688 114.292969 86.945312 114.1875 87.011719 L 110.777344 89.128906 C 110.667969 89.195312 110.542969 89.234375 110.414062 89.230469 Z M 110.414062 89.230469 "/>
<path style=" stroke:none;fill-rule:nonzero;fill:rgb(80%,80%,80%);fill-opacity:1;" d="M 68.746094 95.667969 L 58.929688 95.667969 C 57.730469 95.667969 56.761719 94.703125 56.761719 93.511719 L 56.761719 83.753906 C 56.761719 82.566406 57.730469 81.601562 58.929688 81.597656 L 68.746094 81.597656 C 69.945312 81.601562 70.914062 82.566406 70.914062 83.753906 L 70.914062 93.511719 C 70.914062 94.703125 69.945312 95.667969 68.746094 95.667969 Z M 58.929688 82.054688 C 57.984375 82.054688 57.21875 82.816406 57.21875 83.753906 L 57.21875 93.511719 C 57.21875 94.453125 57.984375 95.214844 58.929688 95.214844 L 68.746094 95.214844 C 69.691406 95.214844 70.457031 94.453125 70.457031 93.511719 L 70.457031 83.753906 C 70.457031 82.816406 69.691406 82.054688 68.746094 82.054688 Z M 58.929688 82.054688 "/>
<path style=" stroke:none;fill-rule:nonzero;fill:rgb(80%,80%,80%);fill-opacity:1;" d="M 67.035156 91.128906 L 60.640625 91.128906 C 60.261719 91.128906 59.957031 90.824219 59.957031 90.449219 L 59.957031 86.816406 C 59.957031 86.441406 60.261719 86.136719 60.640625 86.136719 L 67.035156 86.136719 C 67.414062 86.136719 67.71875 86.441406 67.71875 86.816406 L 67.71875 90.449219 C 67.71875 90.824219 67.414062 91.128906 67.035156 91.128906 Z M 60.640625 86.589844 C 60.515625 86.589844 60.414062 86.691406 60.414062 86.816406 L 60.414062 90.449219 C 60.414062 90.574219 60.515625 90.675781 60.640625 90.675781 L 67.035156 90.675781 C 67.160156 90.675781 67.261719 90.574219 67.261719 90.449219 L 67.261719 86.816406 C 67.261719 86.691406 67.160156 86.589844 67.035156 86.589844 Z M 60.640625 86.589844 "/>
<path style=" stroke:none;fill-rule:nonzero;fill:rgb(80%,80%,80%);fill-opacity:1;" d="M 66.019531 91.128906 L 61.425781 91.128906 C 61.261719 91.128906 61.113281 91.042969 61.03125 90.902344 C 60.949219 90.761719 60.949219 90.589844 61.03125 90.449219 L 62.414062 88.066406 C 62.496094 87.925781 62.648438 87.839844 62.808594 87.839844 C 62.972656 87.839844 63.125 87.925781 63.207031 88.066406 L 64.101562 89.605469 L 64.617188 88.714844 C 64.699219 88.574219 64.851562 88.488281 65.011719 88.488281 C 65.175781 88.488281 65.328125 88.574219 65.410156 88.714844 L 66.417969 90.449219 C 66.5 90.589844 66.5 90.761719 66.417969 90.902344 C 66.335938 91.042969 66.183594 91.128906 66.019531 91.128906 Z M 66.019531 90.675781 L 65.011719 88.941406 L 64.296875 90.171875 C 64.257812 90.242188 64.179688 90.285156 64.101562 90.285156 C 64.019531 90.285156 63.941406 90.242188 63.902344 90.171875 L 62.8125 88.292969 L 61.425781 90.675781 Z M 66.019531 90.675781 "/>
<path style=" stroke:none;fill-rule:nonzero;fill:rgb(80%,80%,80%);fill-opacity:1;" d="M 66.804688 87.5 C 66.804688 87.75 66.601562 87.953125 66.347656 87.953125 C 66.097656 87.953125 65.894531 87.75 65.894531 87.5 C 65.894531 87.25 66.097656 87.046875 66.347656 87.046875 C 66.601562 87.046875 66.804688 87.25 66.804688 87.5 Z M 66.804688 87.5 "/>
<path style=" stroke:none;fill-rule:nonzero;fill:rgb(100%,72.156863%,72.156863%);fill-opacity:1;" d="M 175.53125 147.082031 L 172.730469 147.082031 L 171.398438 136.351562 L 175.53125 136.351562 Z M 175.53125 147.082031 "/>
<path style=" stroke:none;fill-rule:nonzero;fill:rgb(18.431373%,18.039216%,25.490196%);fill-opacity:1;" d="M 176.246094 149.78125 L 167.21875 149.78125 L 167.21875 149.667969 C 167.21875 147.738281 168.792969 146.175781 170.730469 146.175781 L 176.246094 146.175781 Z M 176.246094 149.78125 "/>
<path style=" stroke:none;fill-rule:nonzero;fill:rgb(100%,72.156863%,72.156863%);fill-opacity:1;" d="M 186.945312 147.082031 L 184.148438 147.082031 L 182.816406 136.351562 L 186.945312 136.351562 Z M 186.945312 147.082031 "/>
<path style=" stroke:none;fill-rule:nonzero;fill:rgb(18.431373%,18.039216%,25.490196%);fill-opacity:1;" d="M 187.660156 149.78125 L 178.636719 149.78125 L 178.636719 149.667969 C 178.636719 147.738281 180.207031 146.175781 182.148438 146.175781 L 187.660156 146.175781 Z M 187.660156 149.78125 "/>
<path style=" stroke:none;fill-rule:nonzero;fill:rgb(18.431373%,18.039216%,25.490196%);fill-opacity:1;" d="M 186.105469 142.433594 L 183.515625 141.648438 C 183.121094 141.527344 182.835938 141.1875 182.792969 140.777344 L 180.375 118.011719 C 180.371094 117.953125 180.324219 117.910156 180.265625 117.910156 C 180.207031 117.90625 180.15625 117.945312 180.148438 118.003906 L 176.101562 140.058594 C 176.050781 140.332031 175.894531 140.570312 175.664062 140.722656 C 175.4375 140.878906 175.152344 140.933594 174.882812 140.878906 L 171.570312 140.199219 C 171.066406 140.09375 170.71875 139.636719 170.753906 139.128906 L 173.214844 102.976562 L 189.914062 101.1875 L 187.433594 141.515625 C 187.398438 142.054688 186.949219 142.476562 186.40625 142.476562 C 186.304688 142.476562 186.203125 142.460938 186.105469 142.433594 Z M 186.105469 142.433594 "/>
<path style=" stroke:none;fill-rule:nonzero;fill:rgb(100%,72.156863%,72.156863%);fill-opacity:1;" d="M 191.699219 65.917969 C 191.699219 69 189.1875 71.492188 186.089844 71.492188 C 182.996094 71.492188 180.484375 69 180.484375 65.917969 C 180.484375 62.839844 182.996094 60.347656 186.089844 60.347656 C 189.1875 60.347656 191.699219 62.839844 191.699219 65.917969 Z M 191.699219 65.917969 "/>
<path style=" stroke:none;fill-rule:nonzero;fill:rgb(42.352941%,38.823529%,100%);fill-opacity:1;" d="M 173.1875 103.1875 L 176.808594 80.53125 C 177.199219 78.09375 178.625 75.941406 180.722656 74.621094 C 182.820312 73.300781 185.386719 72.9375 187.769531 73.632812 C 192.039062 74.859375 194.667969 79.109375 193.84375 83.449219 L 190.054688 103.683594 Z M 173.1875 103.1875 "/>
<path style=" stroke:none;fill-rule:nonzero;fill:rgb(100%,72.156863%,72.156863%);fill-opacity:1;" d="M 187.640625 107.242188 C 188.207031 106.871094 188.578125 106.269531 188.65625 105.597656 C 188.734375 104.925781 188.507812 104.257812 188.039062 103.765625 L 191.78125 96.5625 L 187.566406 97.007812 L 184.65625 103.78125 C 183.863281 104.636719 183.839844 105.945312 184.601562 106.828125 C 185.363281 107.710938 186.667969 107.890625 187.640625 107.242188 Z M 187.640625 107.242188 "/>
<path style=" stroke:none;fill-rule:nonzero;fill:rgb(42.352941%,38.823529%,100%);fill-opacity:1;" d="M 188.441406 102.496094 C 188.234375 102.46875 188.039062 102.375 187.886719 102.234375 L 186.453125 100.917969 C 186.136719 100.625 186.039062 100.167969 186.207031 99.773438 L 189.066406 93.027344 L 188.660156 79.703125 C 188.90625 77.902344 190.578125 76.640625 192.390625 76.886719 C 194.203125 77.132812 195.46875 78.792969 195.21875 80.59375 L 195.914062 88.96875 C 196.125 91.511719 195.402344 94.042969 193.875 96.09375 L 189.410156 102.09375 C 189.238281 102.324219 188.972656 102.472656 188.679688 102.5 C 188.601562 102.507812 188.519531 102.507812 188.441406 102.496094 Z M 188.441406 102.496094 "/>
<path style=" stroke:none;fill-rule:nonzero;fill:rgb(100%,72.156863%,72.156863%);fill-opacity:1;" d="M 153.800781 62.882812 C 153.921875 63.546875 154.335938 64.121094 154.929688 64.453125 C 155.519531 64.785156 156.230469 64.839844 156.863281 64.605469 L 162.082031 70.839844 L 163.308594 66.804688 L 158.167969 61.503906 C 157.683594 60.445312 156.480469 59.914062 155.367188 60.265625 C 154.253906 60.617188 153.578125 61.742188 153.800781 62.882812 Z M 153.800781 62.882812 "/>
<path style=" stroke:none;fill-rule:nonzero;fill:rgb(42.352941%,38.823529%,100%);fill-opacity:1;" d="M 157.886719 65.46875 C 157.992188 65.289062 158.152344 65.148438 158.34375 65.0625 L 160.121094 64.265625 C 160.515625 64.089844 160.976562 64.175781 161.28125 64.484375 L 166.410156 69.734375 L 178.914062 74.558594 C 179.933594 75.15625 180.550781 76.25 180.539062 77.425781 C 180.523438 78.601562 179.878906 79.683594 178.847656 80.257812 C 177.8125 80.832031 176.550781 80.816406 175.535156 80.214844 L 167.503906 77.582031 C 165.066406 76.785156 163.003906 75.132812 161.699219 72.9375 L 157.882812 66.511719 C 157.734375 66.261719 157.699219 65.960938 157.785156 65.683594 C 157.8125 65.609375 157.84375 65.535156 157.886719 65.46875 Z M 157.886719 65.46875 "/>
<use xlink:href="#surface5" mask="url(#mask0)"/>
<path style=" stroke:none;fill-rule:nonzero;fill:rgb(18.431373%,18.039216%,25.490196%);fill-opacity:1;" d="M 185.449219 66.96875 C 184.71875 67.0625 184.035156 66.605469 183.84375 65.898438 C 183.664062 65.101562 183.050781 64.464844 182.257812 64.25 C 181.226562 64.015625 179.972656 64.496094 179.21875 63.722656 C 178.890625 63.363281 178.757812 62.871094 178.859375 62.398438 C 178.996094 61.644531 179.539062 61.074219 180.128906 60.621094 C 181.367188 59.667969 182.871094 59.109375 184.433594 59.019531 C 185.246094 58.996094 186.054688 59.039062 186.859375 59.140625 C 187.703125 59.191406 188.535156 59.34375 189.339844 59.589844 C 191.207031 60.292969 192.585938 61.890625 192.992188 63.832031 C 193.367188 65.769531 192.859375 67.773438 191.609375 69.304688 C 190.871094 70.222656 189.917969 70.941406 188.835938 71.40625 C 188.574219 71.527344 188.28125 71.542969 188.011719 71.449219 C 187.335938 71.183594 187.445312 70.351562 187.753906 69.796875 C 188.082031 69.203125 188.589844 68.628906 188.324219 67.90625 C 188.191406 67.570312 187.9375 67.296875 187.613281 67.140625 C 186.941406 66.800781 186.1875 66.882812 185.46875 66.964844 Z M 185.449219 66.96875 "/>
<path style=" stroke:none;fill-rule:nonzero;fill:rgb(100%,100%,100%);fill-opacity:1;" d="M 151.925781 70.113281 L 82.519531 70.113281 C 80.441406 70.113281 78.753906 68.4375 78.75 66.371094 L 78.75 51.621094 C 78.753906 49.554688 80.441406 47.878906 82.519531 47.875 L 151.925781 47.875 C 154.003906 47.878906 155.691406 49.554688 155.691406 51.621094 L 155.691406 66.371094 C 155.691406 68.4375 154.003906 70.113281 151.925781 70.113281 Z M 151.925781 70.113281 "/>
<path style=" stroke:none;fill-rule:nonzero;fill:rgb(24.705882%,23.921569%,33.72549%);fill-opacity:1;" d="M 151.925781 70.226562 L 82.519531 70.226562 C 80.375 70.226562 78.640625 68.5 78.636719 66.371094 L 78.636719 51.621094 C 78.640625 49.492188 80.375 47.765625 82.519531 47.761719 L 151.925781 47.761719 C 154.066406 47.765625 155.804688 49.492188 155.804688 51.621094 L 155.804688 66.371094 C 155.804688 68.5 154.066406 70.226562 151.925781 70.226562 Z M 82.519531 48.214844 C 80.628906 48.21875 79.097656 49.742188 79.09375 51.621094 L 79.09375 66.371094 C 79.097656 68.25 80.628906 69.773438 82.519531 69.773438 L 151.925781 69.773438 C 153.816406 69.773438 155.347656 68.25 155.351562 66.371094 L 155.351562 51.621094 C 155.347656 49.742188 153.816406 48.21875 151.925781 48.214844 Z M 82.519531 48.214844 "/>
<path style=" stroke:none;fill-rule:nonzero;fill:rgb(94.901961%,94.901961%,94.901961%);fill-opacity:1;" d="M 143.476562 66.484375 L 90.964844 66.484375 C 88.886719 66.480469 87.203125 64.804688 87.199219 62.738281 L 87.199219 55.023438 C 87.203125 52.957031 88.886719 51.28125 90.964844 51.28125 L 143.476562 51.28125 C 145.558594 51.28125 147.242188 52.957031 147.246094 55.023438 L 147.246094 62.738281 C 147.242188 64.804688 145.558594 66.480469 143.476562 66.484375 Z M 143.476562 66.484375 "/>
<path style=" stroke:none;fill-rule:nonzero;fill:rgb(100%,39.607843%,51.764706%);fill-opacity:1;" d="M 106.773438 57.847656 C 106.773438 60.320312 104.753906 62.324219 102.265625 62.324219 C 99.777344 62.324219 97.761719 60.320312 97.761719 57.847656 C 97.761719 55.375 99.777344 53.371094 102.265625 53.371094 C 104.753906 53.371094 106.773438 55.375 106.773438 57.847656 Z M 106.773438 57.847656 "/>
<path style=" stroke:none;fill-rule:nonzero;fill:rgb(24.705882%,23.921569%,33.72549%);fill-opacity:1;" d="M 140.214844 66.03125 L 133.855469 60.730469 L 127.605469 55.523438 C 127.265625 55.238281 126.769531 55.238281 126.429688 55.523438 L 120.199219 60.757812 L 118.679688 62.035156 L 116.386719 60.125 L 109.414062 54.3125 C 109.074219 54.027344 108.578125 54.027344 108.238281 54.3125 L 101.289062 60.152344 L 94.230469 66.082031 C 94.15625 66.144531 94.128906 66.246094 94.160156 66.335938 C 94.195312 66.421875 94.28125 66.484375 94.375 66.484375 L 108.847656 66.457031 L 113.429688 66.445312 L 113.382812 66.484375 L 127.039062 66.457031 L 140.070312 66.433594 C 140.164062 66.433594 140.25 66.371094 140.28125 66.285156 C 140.316406 66.195312 140.289062 66.09375 140.214844 66.03125 Z M 140.214844 66.03125 "/>
<path style=" stroke:none;fill-rule:nonzero;fill:rgb(80%,80%,80%);fill-opacity:1;" d="M 199.832031 150.105469 L 156 150.105469 C 155.871094 150.105469 155.769531 150.003906 155.769531 149.878906 C 155.769531 149.753906 155.871094 149.652344 156 149.652344 L 199.832031 149.652344 C 199.960938 149.652344 200.0625 149.753906 200.0625 149.878906 C 200.0625 150.003906 199.960938 150.105469 199.832031 150.105469 Z M 199.832031 150.105469 "/>
<path style=" stroke:none;fill-rule:nonzero;fill:rgb(100%,72.156863%,72.156863%);fill-opacity:1;" d="M 137.914062 29.933594 C 137.542969 29.339844 136.945312 28.921875 136.257812 28.777344 C 136.132812 28.75 136.003906 28.734375 135.878906 28.730469 L 118.484375 13.269531 C 118.140625 12.921875 117.6875 12.707031 117.199219 12.660156 C 117.101562 12.648438 117.003906 12.648438 116.90625 12.652344 C 116.085938 12.6875 115.367188 13.203125 115.074219 13.964844 C 114.777344 14.726562 114.964844 15.589844 115.546875 16.164062 L 122.207031 21.933594 L 133.144531 31.410156 C 133.152344 31.589844 133.179688 31.765625 133.222656 31.9375 C 133.492188 32.964844 134.371094 33.722656 135.429688 33.835938 C 135.902344 33.894531 136.382812 33.8125 136.8125 33.609375 C 137.152344 33.453125 137.453125 33.222656 137.699219 32.9375 C 137.722656 32.90625 137.746094 32.878906 137.769531 32.847656 C 138.421875 32 138.480469 30.839844 137.914062 29.933594 Z M 137.914062 29.933594 "/>
<path style=" stroke:none;fill-rule:nonzero;fill:rgb(100%,72.156863%,72.156863%);fill-opacity:1;" d="M 108.160156 44.832031 L 107.996094 38.285156 L 107.859375 32.847656 L 107.765625 29.046875 L 107.582031 21.632812 C 107.507812 20.820312 106.957031 20.128906 106.179688 19.871094 C 105.402344 19.613281 104.542969 19.835938 103.996094 20.441406 C 103.929688 20.507812 103.875 20.582031 103.824219 20.65625 C 103.542969 21.058594 103.414062 21.546875 103.46875 22.03125 L 103.875 32.847656 L 104.078125 38.285156 L 104.335938 45.214844 C 104.261719 45.316406 104.195312 45.425781 104.132812 45.535156 C 103.804688 46.15625 103.746094 46.878906 103.972656 47.542969 C 104.207031 48.238281 104.730469 48.800781 105.40625 49.085938 C 106.085938 49.375 106.855469 49.359375 107.523438 49.046875 C 108.300781 48.679688 108.84375 47.953125 108.972656 47.109375 C 109.101562 46.261719 108.796875 45.410156 108.160156 44.832031 Z M 108.160156 44.832031 "/>
<path style=" stroke:none;fill-rule:nonzero;fill:rgb(80%,80%,80%);fill-opacity:1;" d="M 123.820312 26.28125 L 122.207031 21.933594 L 119.59375 14.894531 C 119.214844 13.859375 118.378906 13.050781 117.324219 12.699219 C 117.28125 12.6875 117.238281 12.671875 117.199219 12.660156 C 116.179688 12.351562 115.074219 12.503906 114.175781 13.074219 L 105.378906 18.621094 C 103.703125 19.671875 103.171875 21.855469 104.175781 23.554688 C 105.273438 25.445312 106.472656 27.277344 107.765625 29.046875 C 108.792969 30.433594 110.699219 30.578125 111.03125 32.847656 L 117.515625 32.847656 L 124.082031 26.988281 Z M 123.820312 26.28125 "/>
<path style=" stroke:none;fill-rule:nonzero;fill:rgb(62.745098%,38.039216%,41.568627%);fill-opacity:1;" d="M 28.386719 74.132812 C 28.386719 77.039062 26.019531 79.390625 23.097656 79.390625 C 20.175781 79.390625 17.804688 77.039062 17.804688 74.132812 C 17.804688 71.230469 20.175781 68.875 23.097656 68.875 C 26.019531 68.875 28.386719 71.230469 28.386719 74.132812 Z M 28.386719 74.132812 "/>
<path style=" stroke:none;fill-rule:nonzero;fill:rgb(62.745098%,38.039216%,41.568627%);fill-opacity:1;" d="M 36.085938 70.515625 C 36.136719 70.554688 36.1875 70.597656 36.238281 70.644531 C 36.726562 71.105469 37 71.753906 36.980469 72.421875 C 36.960938 73.09375 36.65625 73.726562 36.140625 74.160156 C 36.082031 74.207031 36.019531 74.253906 35.957031 74.296875 L 36.3125 86.3125 C 36.335938 87.121094 35.820312 87.847656 35.046875 88.097656 L 35.027344 88.101562 L 25.210938 89.140625 C 24.484375 89.21875 23.773438 88.902344 23.347656 88.3125 C 22.921875 87.722656 22.84375 86.953125 23.148438 86.292969 C 23.453125 85.632812 24.089844 85.1875 24.816406 85.121094 L 31.8125 84.507812 L 33.023438 74.105469 C 32.945312 74.035156 32.871094 73.960938 32.800781 73.878906 C 32.015625 72.957031 32.0625 71.589844 32.910156 70.71875 C 33.757812 69.851562 35.128906 69.761719 36.085938 70.515625 Z M 36.085938 70.515625 "/>
<path style=" stroke:none;fill-rule:nonzero;fill:rgb(62.745098%,38.039216%,41.568627%);fill-opacity:1;" d="M 31.808594 147.316406 L 34.449219 147.316406 L 35.707031 137.191406 L 31.808594 137.191406 Z M 31.808594 147.316406 "/>
<path style=" stroke:none;fill-rule:nonzero;fill:rgb(18.431373%,18.039216%,25.490196%);fill-opacity:1;" d="M 31.136719 146.460938 L 36.335938 146.460938 C 38.167969 146.460938 39.652344 147.933594 39.652344 149.753906 L 39.652344 149.859375 L 31.136719 149.859375 Z M 31.136719 146.460938 "/>
<path style=" stroke:none;fill-rule:nonzero;fill:rgb(62.745098%,38.039216%,41.568627%);fill-opacity:1;" d="M 5.5625 143.6875 L 7.832031 145.03125 L 14.121094 136.96875 L 10.773438 134.988281 Z M 5.5625 143.6875 "/>
<path style=" stroke:none;fill-rule:nonzero;fill:rgb(18.431373%,18.039216%,25.490196%);fill-opacity:1;" d="M 5.425781 142.609375 L 9.894531 145.253906 C 11.464844 146.183594 11.980469 148.207031 11.046875 149.769531 L 10.992188 149.859375 L 3.675781 145.53125 Z M 5.425781 142.609375 "/>
<path style=" stroke:none;fill-rule:nonzero;fill:rgb(18.431373%,18.039216%,25.490196%);fill-opacity:1;" d="M 35.074219 143.742188 L 32.117188 143.742188 C 31.621094 143.742188 31.203125 143.371094 31.152344 142.878906 L 28.171875 115.027344 C 28.15625 114.882812 28.046875 114.765625 27.902344 114.742188 C 27.757812 114.71875 27.617188 114.796875 27.554688 114.929688 L 22.179688 126.765625 L 12.65625 142.195312 C 12.402344 142.605469 11.882812 142.765625 11.441406 142.574219 L 7.636719 140.910156 C 7.382812 140.800781 7.1875 140.585938 7.105469 140.320312 C 7.019531 140.058594 7.050781 139.773438 7.195312 139.535156 L 15.949219 124.96875 L 18.632812 112.695312 C 17.789062 107.371094 21.40625 99.457031 21.445312 99.378906 L 21.460938 99.339844 L 31.429688 95.46875 L 31.480469 95.527344 C 35.414062 108.351562 37.808594 122.152344 36.039062 142.859375 C 35.996094 143.355469 35.578125 143.738281 35.074219 143.742188 Z M 35.074219 143.742188 "/>
<path style=" stroke:none;fill-rule:nonzero;fill:rgb(24.705882%,23.921569%,33.72549%);fill-opacity:1;" d="M 21.058594 100.636719 L 21.011719 100.539062 C 20.992188 100.492188 18.773438 95.847656 17.066406 90.878906 C 16.402344 88.9375 16.585938 86.808594 17.578125 85.007812 C 18.578125 83.1875 20.304688 81.871094 22.328125 81.375 C 25.921875 80.519531 29.605469 82.410156 30.988281 85.816406 C 32.34375 89.1875 31.910156 92.78125 31.503906 95.609375 L 31.496094 95.667969 L 31.445312 95.691406 Z M 21.058594 100.636719 "/>
<path style=" stroke:none;fill-rule:nonzero;fill:rgb(18.431373%,18.039216%,25.490196%);fill-opacity:1;" d="M 29.511719 71.164062 L 21.109375 71.164062 L 21.109375 67.523438 C 22.953125 66.796875 24.757812 66.175781 25.847656 67.523438 C 27.871094 67.523438 29.511719 69.152344 29.511719 71.164062 Z M 29.511719 71.164062 "/>
<path style=" stroke:none;fill-rule:nonzero;fill:rgb(18.431373%,18.039216%,25.490196%);fill-opacity:1;" d="M 20.644531 66.882812 C 15.625 66.882812 14.21875 73.136719 14.21875 76.667969 C 14.21875 78.636719 15.113281 79.339844 16.519531 79.578125 L 17.019531 76.945312 L 18.183594 79.691406 C 18.578125 79.695312 18.992188 79.6875 19.421875 79.679688 L 19.820312 78.871094 L 20.699219 79.664062 C 24.222656 79.667969 27.074219 80.179688 27.074219 76.667969 C 27.074219 73.136719 25.839844 66.882812 20.644531 66.882812 Z M 20.644531 66.882812 "/>
<path style=" stroke:none;fill-rule:nonzero;fill:rgb(80%,80%,80%);fill-opacity:1;" d="M 44.0625 150.105469 L 0.226562 150.105469 C 0.101562 150.105469 0 150.003906 0 149.878906 C 0 149.753906 0.101562 149.652344 0.226562 149.652344 L 44.0625 149.652344 C 44.191406 149.652344 44.292969 149.753906 44.292969 149.878906 C 44.292969 150.003906 44.191406 150.105469 44.0625 150.105469 Z M 44.0625 150.105469 "/>
<path style=" stroke:none;fill-rule:nonzero;fill:rgb(100%,100%,100%);fill-opacity:1;" d="M 44.886719 75.449219 L 35.070312 75.449219 C 33.875 75.445312 32.902344 74.480469 32.902344 73.292969 L 32.902344 63.535156 C 32.902344 62.34375 33.875 61.378906 35.070312 61.378906 L 44.886719 61.378906 C 46.085938 61.378906 47.054688 62.34375 47.058594 63.535156 L 47.058594 73.292969 C 47.054688 74.480469 46.085938 75.445312 44.886719 75.449219 Z M 44.886719 75.449219 "/>
<path style=" stroke:none;fill-rule:nonzero;fill:rgb(24.705882%,23.921569%,33.72549%);fill-opacity:1;" d="M 44.886719 75.449219 L 35.070312 75.449219 C 33.875 75.445312 32.902344 74.480469 32.902344 73.292969 L 32.902344 63.535156 C 32.902344 62.34375 33.875 61.378906 35.070312 61.378906 L 44.886719 61.378906 C 46.085938 61.378906 47.054688 62.34375 47.058594 63.535156 L 47.058594 73.292969 C 47.054688 74.480469 46.085938 75.445312 44.886719 75.449219 Z M 35.070312 61.832031 C 34.125 61.832031 33.359375 62.59375 33.359375 63.535156 L 33.359375 73.292969 C 33.359375 74.230469 34.125 74.992188 35.070312 74.992188 L 44.886719 74.992188 C 45.832031 74.992188 46.597656 74.230469 46.601562 73.292969 L 46.601562 63.535156 C 46.597656 62.59375 45.832031 61.832031 44.886719 61.832031 Z M 35.070312 61.832031 "/>
<path style=" stroke:none;fill-rule:nonzero;fill:rgb(42.352941%,38.823529%,100%);fill-opacity:1;" d="M 43.175781 71.476562 L 36.78125 71.476562 C 36.40625 71.476562 36.097656 71.171875 36.097656 70.796875 L 36.097656 66.03125 C 36.097656 65.65625 36.40625 65.351562 36.78125 65.347656 L 38.582031 65.347656 C 38.820312 65.347656 39.042969 65.472656 39.167969 65.671875 L 39.667969 66.484375 L 43.175781 66.484375 C 43.554688 66.484375 43.859375 66.789062 43.859375 67.164062 L 43.859375 70.796875 C 43.859375 71.171875 43.554688 71.476562 43.175781 71.476562 Z M 43.175781 71.476562 "/>
<path style=" stroke:none;fill-rule:nonzero;fill:rgb(62.745098%,38.039216%,41.568627%);fill-opacity:1;" d="M 42.96875 73.882812 C 43 73.941406 43.03125 74 43.054688 74.0625 C 43.328125 74.675781 43.328125 75.378906 43.046875 75.988281 C 42.769531 76.601562 42.242188 77.066406 41.597656 77.265625 C 41.523438 77.289062 41.449219 77.304688 41.371094 77.320312 L 37.011719 88.53125 C 36.714844 89.285156 35.957031 89.753906 35.148438 89.691406 L 35.125 89.6875 L 25.671875 86.859375 C 24.972656 86.648438 24.441406 86.082031 24.277344 85.375 C 24.117188 84.667969 24.347656 83.925781 24.886719 83.4375 C 25.421875 82.945312 26.183594 82.78125 26.878906 83 L 33.566406 85.136719 L 38.746094 76.011719 C 38.699219 75.917969 38.660156 75.820312 38.628906 75.71875 C 38.265625 74.566406 38.839844 73.324219 39.960938 72.851562 C 41.082031 72.375 42.382812 72.824219 42.96875 73.882812 Z M 42.96875 73.882812 "/>
</g>
</svg>
