<?xml version="1.0" encoding="UTF-8" standalone="no"?>
<!DOCTYPE svg PUBLIC "-//W3C//DTD SVG 1.1//EN" "http://www.w3.org/Graphics/SVG/1.1/DTD/svg11.dtd">
<svg version="1.1" xmlns="http://www.w3.org/2000/svg" xmlns:xlink="http://www.w3.org/1999/xlink" preserveAspectRatio="xMidYMid meet" viewBox="9.29230184020986 34.80684168532654 287.366190301396 183.90161579393694" width="283.37" height="179.9"><defs><path d="M149.12 146.03L37.18 146.03C25.29 90.88 18.69 60.24 17.37 54.11C14.93 44.07 19.81 35.88 28.31 35.88C28.31 35.88 28.31 35.88 28.31 35.88C37.06 35.88 46.4 44.14 49.01 54.53C50.14 59.19 73.22 58.91 71.62 62.23C75.51 62.53 94.96 64.04 129.97 66.75L149.12 146.03Z" id="iJrsxUK3g"></path><path d="M186.36 162.63C170.05 101.46 160.98 67.47 159.17 60.68C158.7 58.91 157.27 57.64 155.72 57.64C143.34 57.64 44.32 57.64 31.94 57.64C29.56 57.64 27.84 60.32 28.43 63.08C29.91 69.72 37.28 102.9 50.56 162.63L186.36 162.63Z" id="h8VsbnVja"></path><path d="M175.41 156.2C176.84 156.2 177.85 154.58 177.43 152.95C175.11 144.24 156.5 74.55 154.18 65.84C153.88 64.78 153.11 64.07 152.15 64.07C140.92 64.07 51.03 64.07 39.79 64.07C38.43 64.07 37.42 65.62 37.77 67.25C39.71 75.96 55.17 145.66 57.1 154.37C57.34 155.43 58.17 156.2 59.13 156.2C82.38 156.2 163.78 156.2 175.41 156.2Z" id="b5JEx7hpH"></path><path d="M101 160.66C101 160.66 101 160.66 101 160.66C101 162.78 101 163.95 101 164.19C101 164.19 101 164.19 101 164.19C184.15 164.19 230.35 164.19 239.59 164.19C239.59 164.19 239.59 164.19 239.59 164.19C239.59 162.07 239.59 160.89 239.59 160.66C239.59 160.66 239.59 160.66 239.59 160.66C156.44 160.66 110.24 160.66 101 160.66Z" id="a4MFrxKaFc"></path><path d="M179.51 157.83C181.36 158.11 179.93 156.49 181.42 157.05C182.91 157.62 182.91 157.62 182.91 157.62C182.91 157.62 183.26 158.89 183.02 160.59C183.02 160.73 182.96 160.8 182.96 160.94C182.73 162.14 179.4 162.78 176.54 161.86C174.76 161.29 173.15 161.93 172.5 160.8C172.32 160.59 172.44 159.31 172.5 159.24C172.97 158.32 177.85 157.55 179.51 157.83Z" id="b3k9OJnDzb"></path><path d="M182.85 157.62C182.85 157.62 181.06 158.54 179.51 157.9C179.5 157.54 179.4 155.72 179.22 152.46L183.02 152.11C182.92 155.41 182.86 157.25 182.85 157.62Z" id="cNVUvbEeS"></path><path d="M194.15 158.18C195.87 158.61 194.56 156.91 195.93 157.48C197.24 158.11 197.24 158.11 197.24 158.11C197.24 158.11 197.54 160.02 197.24 161.72C197.24 161.86 197.18 161.93 197.18 162.07C196.88 163.2 194.15 163.13 191.53 162.07C189.92 161.36 187.72 162.07 187.19 160.94C187.01 160.8 186.77 159.67 186.89 159.6C187.37 158.75 192.6 157.76 194.15 158.18Z" id="anI7Oz2Wc"></path><path d="M197.18 158.32C197.18 158.32 195.4 159.17 193.85 158.32C193.85 157.99 193.83 156.35 193.79 153.38L197.6 153.31C197.35 156.32 197.21 157.99 197.18 158.32Z" id="f3cX2O4OKi"></path><path d="M200.63 96.15C200.63 96.15 201.11 130.63 197.84 156.06C197.38 156.1 193.71 156.38 193.26 156.42C193.26 156.42 191.77 148.79 190.52 109.78C190.42 109.78 189.61 109.72 189.51 109.71C189.51 109.71 186.47 138.61 184.15 154.51C183.6 154.49 179.18 154.38 178.62 154.37C178.62 154.23 177.37 143.35 179.4 94.17C183.64 94.56 191.41 98.48 200.63 96.15Z" id="a3stoQsBBb"></path><path d="M203.07 78.41C204.32 81.03 197.6 88.09 197.6 88.09C197.46 87.93 196.79 87.13 195.57 85.69L198.67 79.75L191.23 71.28L195.4 67.46C199.68 73.02 202.24 76.67 203.07 78.41Z" id="a43HHaRXJ"></path><path d="M187.66 58.98C191.35 59.55 196.23 65.84 197.36 67.67C197.36 67.67 194.56 69.79 192.36 70.78C190.22 71.77 174.4 63.79 174.4 63.79C177.05 62.83 183.98 58.42 187.66 58.98Z" id="g3hZsNcwkU"></path><path d="M164.88 75.37C163.1 74.81 154.06 71.28 154.06 71.28C154.06 71.28 153.82 68.87 153.34 68.31C152.87 67.74 151.02 67.18 150.55 67.04C150.07 66.9 150.61 67.88 151.14 68.1C151.32 68.17 152.33 68.8 152.39 69.09C152.39 69.44 150.67 68.24 149.6 67.67C148.53 67.11 146.74 66.61 146.68 66.75C146.5 67.25 148.29 67.96 148.58 68.1C148.88 68.24 149.66 68.8 149.66 68.8C149.66 68.8 148.76 69.16 149.06 69.72C149.06 69.72 148.47 70.5 148.82 70.85C148.82 70.85 148.58 71.63 149.18 72.12C149.77 72.62 151.08 73.89 152.81 73.47C152.81 73.47 164.53 82.58 166.31 82.16C169.46 81.38 173.03 75.44 173.03 75.44C172.85 75.08 171.91 73.24 170.24 69.93C167.9 73.94 166.11 75.75 164.88 75.37Z" id="a1BMy5UbP"></path><path d="M166.13 72.76C166.13 72.76 169.76 76.93 170.65 80.6C170.65 80.6 171.78 78.13 173.86 75.44C175.71 75.87 179.04 99.82 178.92 103.42C178.92 103.42 192.07 102.22 201.23 97.07C201.23 97.07 193.61 67.96 191.41 64.85C189.21 61.74 189.57 57.71 183.98 59.48C180.41 60.68 176.3 62.44 173.92 64C171.19 65.84 169.22 68.03 166.13 72.76Z" id="aOpCBfqB"></path><path d="M170.41 53.12C170.53 54.11 169.76 54.67 169.82 55.03C169.82 55.31 170.53 55.8 170.53 55.8C170.53 55.8 170.89 59.34 171.78 59.97C172.73 60.61 174.4 59.34 174.4 59.34C174.54 59.8 175.68 63.53 175.83 64C175.83 64 179.28 64.63 181.48 61.1C181.34 60.65 180.25 57.03 180.11 56.58C180.11 56.58 180.53 50.15 177.61 47.68C174.76 45.13 170.18 49.73 170.18 49.73C170.22 50.4 170.24 52.06 170.41 53.12Z" id="d65k48p6j"></path><path d="M174.34 51.14C174.34 51.14 170.12 52.13 168.51 50.08C168.51 50.08 169.28 50.29 169.52 50.22C169.52 50.22 166.61 49.73 166.79 43.65C166.79 43.65 168.51 46.05 169.64 45.56C170.71 45.06 172.02 42.24 176.3 42.8C180.65 43.3 184.93 48.38 182.67 56.16C182.31 57.43 180.05 58.84 179.34 59.12C179.34 59.12 180.17 57.71 180.23 57.22C180.23 57.22 178.92 58.2 177.49 58.63C177.49 58.63 178.5 57.14 178.74 56.16C178.74 56.16 177.08 57.71 175.65 56.23C175.65 56.23 177.55 55.38 177.67 54.53C177.79 53.68 176.96 52.13 176.18 53.19C175.41 54.25 175.11 54.81 174.76 54.88C174.67 54.14 175.05 52.55 174.34 51.14Z" id="b4l9YvrQ"></path><path d="M122.53 35.81C131.1 35.81 140.02 43.93 142.7 54.04C142.7 54.04 142.7 54.04 142.7 54.04L165.3 147.73L71.44 147.73L51.87 66.68L49.07 55.17L48.78 54.04C48.78 54.04 48.78 54.04 48.78 54.04C46.22 43.93 37.3 35.81 28.67 35.81C47.44 35.81 113.15 35.81 122.53 35.81Z" id="ckteqHGBo"></path><path d="M142.7 54.11L165.3 147.8L71.44 147.8L51.87 66.75L49.07 55.24L48.78 54.11C48.78 54.11 48.78 54.11 48.78 54.11C46.1 44 37.18 35.88 28.61 35.88C38 35.88 113.14 35.88 122.53 35.88C131.1 35.81 140.08 43.93 142.7 54.11C142.7 54.11 142.7 54.11 142.7 54.11ZM49.73 54.04C49.73 54.11 49.73 54.18 49.79 54.18C49.8 54.24 49.88 54.57 50.03 55.17L52.82 66.68L72.15 146.67L164.23 146.67C150.85 91.13 143.41 60.28 141.92 54.11C141.92 54.11 141.92 54.04 141.92 54.04C140.67 49.37 138.06 45.06 134.49 41.81C130.92 38.56 126.76 36.8 122.89 36.8C114.25 36.8 45.11 36.8 36.46 36.8C38.13 37.79 39.79 38.99 41.4 40.4C45.39 44 48.36 48.88 49.73 54.04Z" id="bXFXTwa6a"></path><path d="M65.25 66.97C64.6 66.97 63.94 66.47 63.77 65.77C63.77 65.77 63.77 65.77 63.77 65.77C63.59 65.13 64 64.56 64.66 64.56C69.19 64.56 105.45 64.56 109.98 64.56C110.64 64.56 111.29 65.06 111.47 65.77C111.47 65.77 111.47 65.77 111.47 65.77C111.65 66.4 111.23 66.97 110.58 66.97C101.51 66.97 69.78 66.97 65.25 66.97Z" id="jnFZi5Ejp"></path><path d="M66.44 71.77C65.79 71.77 65.13 71.28 64.96 70.57C64.96 70.57 64.96 70.57 64.96 70.57C64.78 69.93 65.19 69.37 65.85 69.37C69.19 69.37 95.93 69.37 99.28 69.37C99.93 69.37 100.58 69.86 100.76 70.57C100.76 70.57 100.76 70.57 100.76 70.57C100.94 71.28 100.52 71.77 99.87 71.77C93.18 71.77 69.78 71.77 66.44 71.77Z" id="a2YupzWxPX"></path><path d="M104.63 71.77C103.97 71.77 103.32 71.28 103.14 70.57C103.14 70.57 103.14 70.57 103.14 70.57C102.96 69.93 103.38 69.37 104.03 69.37C104.75 69.37 110.46 69.37 111.17 69.37C111.83 69.37 112.48 69.86 112.66 70.57C112.66 70.57 112.66 70.57 112.66 70.57C112.78 71.28 112.42 71.77 111.77 71.77C110.34 71.77 105.34 71.77 104.63 71.77Z" id="aBoltdjJi"></path><path d="M69.89 86.33C69.24 86.33 68.58 85.76 68.4 85.12C68.4 85.12 68.4 85.12 68.4 85.12C68.23 84.49 68.64 83.92 69.3 83.92C72.64 83.92 99.38 83.92 102.73 83.92C103.38 83.92 104.03 84.42 104.21 85.12C104.21 85.12 104.21 85.12 104.21 85.12C104.45 85.83 104.03 86.33 103.38 86.33C96.68 86.33 73.24 86.33 69.89 86.33Z" id="e6QtYtcHI2"></path><path d="M108.14 86.33C107.48 86.33 106.83 85.76 106.65 85.12C106.65 85.12 106.65 85.12 106.65 85.12C106.47 84.49 106.89 83.92 107.54 83.92C108.26 83.92 113.97 83.92 114.68 83.92C115.34 83.92 115.99 84.42 116.17 85.12C116.17 85.12 116.17 85.12 116.17 85.12C116.35 85.83 115.93 86.33 115.28 86.33C113.85 86.33 108.85 86.33 108.14 86.33Z" id="ahtLNJW6m"></path><path d="M67.57 76.65C66.92 76.65 66.26 76.08 66.09 75.44C66.09 75.44 66.09 75.44 66.09 75.44C65.91 74.81 66.32 74.24 66.98 74.24C71.51 74.24 107.77 74.24 112.3 74.24C112.96 74.24 113.61 74.74 113.79 75.44C113.79 75.44 113.79 75.44 113.79 75.44C113.97 76.08 113.55 76.65 112.9 76.65C103.83 76.65 72.1 76.65 67.57 76.65Z" id="b1PQbl5tcS"></path><path d="M97.61 81.45C96.96 81.45 96.3 80.89 96.12 80.25C96.12 80.25 96.12 80.25 96.12 80.25C95.94 79.61 96.36 79.05 97.02 79.05C98.66 79.05 111.84 79.05 113.49 79.05C114.15 79.05 114.8 79.61 114.98 80.25C114.98 80.25 114.98 80.25 114.98 80.25C115.16 80.96 114.74 81.45 114.09 81.45C110.79 81.45 99.26 81.45 97.61 81.45Z" id="k9jH3mCt9"></path><path d="M68.82 81.45C68.17 81.45 67.51 80.89 67.33 80.25C67.33 80.25 67.33 80.25 67.33 80.25C67.16 79.61 67.57 79.05 68.23 79.05C70.61 79.05 89.69 79.05 92.08 79.05C92.73 79.05 93.39 79.61 93.57 80.25C93.57 80.25 93.57 80.25 93.57 80.25C93.74 80.96 93.33 81.45 92.67 81.45C87.9 81.45 71.21 81.45 68.82 81.45Z" id="hTHZjruzB"></path><path d="M97.13 95.51C96.48 95.51 95.83 95.02 95.65 94.31C95.65 94.31 95.65 94.31 95.65 94.31C95.47 93.67 95.89 93.11 96.54 93.11C101.07 93.11 137.33 93.11 141.86 93.11C142.52 93.11 143.17 93.6 143.35 94.31C143.35 94.31 143.35 94.31 143.35 94.31C143.53 94.95 143.11 95.51 142.46 95.51C133.39 95.51 101.67 95.51 97.13 95.51Z" id="dRhKx3VtE"></path><path d="M98.32 100.32C97.67 100.32 97.02 99.82 96.84 99.11C96.84 99.11 96.84 99.11 96.84 99.11C96.66 98.48 97.07 97.91 97.73 97.91C101.07 97.91 127.81 97.91 131.16 97.91C131.81 97.91 132.47 98.41 132.64 99.11C132.64 99.11 132.64 99.11 132.64 99.11C132.76 99.82 132.41 100.32 131.75 100.32C125.07 100.32 101.67 100.32 98.32 100.32Z" id="a5ax4TiuXB"></path><path d="M136.51 100.32C135.86 100.32 135.2 99.82 135.02 99.11C135.02 99.11 135.02 99.11 135.02 99.11C134.84 98.48 135.26 97.91 135.92 97.91C136.63 97.91 142.34 97.91 143.05 97.91C143.71 97.91 144.36 98.41 144.54 99.11C144.54 99.11 144.54 99.11 144.54 99.11C144.66 99.82 144.3 100.32 143.65 100.32C142.22 100.32 137.22 100.32 136.51 100.32Z" id="d56M6lC60x"></path><path d="M101.83 114.87C101.18 114.87 100.52 114.31 100.35 113.67C100.35 113.67 100.35 113.67 100.35 113.67C100.17 113.03 100.58 112.47 101.24 112.47C104.58 112.47 131.32 112.47 134.67 112.47C135.32 112.47 135.98 112.96 136.15 113.67C136.15 113.67 136.15 113.67 136.15 113.67C136.33 114.38 135.92 114.87 135.26 114.87C128.58 114.87 105.18 114.87 101.83 114.87Z" id="a5BocIKH4s"></path><path d="M140.02 114.87C139.37 114.87 138.71 114.31 138.53 113.67C138.53 113.67 138.53 113.67 138.53 113.67C138.35 113.03 138.77 112.47 139.42 112.47C140.14 112.47 145.85 112.47 146.56 112.47C147.22 112.47 147.87 112.96 148.05 113.67C148.05 113.67 148.05 113.67 148.05 113.67C148.23 114.38 147.81 114.87 147.16 114.87C145.73 114.87 140.73 114.87 140.02 114.87Z" id="b37GhhHJR"></path><path d="M99.45 105.19C98.8 105.19 98.15 104.7 97.97 103.99C97.97 103.99 97.97 103.99 97.97 103.99C97.79 103.35 98.2 102.79 98.86 102.79C103.4 102.79 139.7 102.79 144.24 102.79C144.9 102.79 145.55 103.28 145.73 103.99C145.73 103.99 145.73 103.99 145.73 103.99C145.85 104.7 145.43 105.19 144.78 105.19C135.71 105.19 103.99 105.19 99.45 105.19Z" id="e1W9vXgtIR"></path><path d="M129.49 110.07C128.84 110.07 128.18 109.5 128 108.87C128 108.87 128 108.87 128 108.87C127.83 108.23 128.24 107.66 128.9 107.66C130.54 107.66 143.73 107.66 145.37 107.66C146.03 107.66 146.68 108.23 146.86 108.87C146.86 108.87 146.86 108.87 146.86 108.87C147.04 109.5 146.62 110.07 145.97 110.07C142.67 110.07 131.14 110.07 129.49 110.07Z" id="b13Vj0EnVO"></path><path d="M100.7 110.07C100.05 110.07 99.39 109.5 99.22 108.87C99.22 108.87 99.22 108.87 99.22 108.87C99.04 108.23 99.45 107.66 100.11 107.66C102.49 107.66 121.57 107.66 123.96 107.66C124.61 107.66 125.27 108.23 125.45 108.87C125.45 108.87 125.45 108.87 125.45 108.87C125.63 109.5 125.21 110.07 124.55 110.07C119.78 110.07 103.09 110.07 100.7 110.07Z" id="b7zJH1nIgA"></path><path d="M65.01 95.51C64.36 95.51 63.71 95.02 63.53 94.31C63.53 94.31 63.53 94.31 63.53 94.31C63.35 93.67 63.77 93.11 64.42 93.11C67.04 93.11 88.03 93.11 90.65 93.11C91.31 93.11 91.96 93.6 92.14 94.31C92.14 94.31 92.14 94.31 92.14 94.31C92.26 94.95 91.9 95.51 91.25 95.51C86 95.51 67.64 95.51 65.01 95.51Z" id="axCslqudX"></path><path d="M66.14 100.32C65.49 100.32 64.84 99.82 64.66 99.11C64.66 99.11 64.66 99.11 64.66 99.11C64.48 98.48 64.9 97.91 65.55 97.91C66.98 97.91 78.45 97.91 79.88 97.91C80.54 97.91 81.19 98.41 81.37 99.11C81.37 99.11 81.37 99.11 81.37 99.11C81.55 99.82 81.13 100.32 80.48 100.32C77.61 100.32 67.58 100.32 66.14 100.32Z" id="ejY5WD9zo"></path><path d="M85.24 100.32C84.58 100.32 83.93 99.82 83.75 99.11C83.75 99.11 83.75 99.11 83.75 99.11C83.57 98.48 83.99 97.91 84.64 97.91C85.36 97.91 91.07 97.91 91.78 97.91C92.44 97.91 93.09 98.41 93.27 99.11C93.27 99.11 93.27 99.11 93.27 99.11C93.45 99.82 93.03 100.32 92.38 100.32C90.95 100.32 85.95 100.32 85.24 100.32Z" id="d52rmk7Pu"></path><path d="M69.65 114.87C69 114.87 68.35 114.31 68.17 113.67C68.17 113.67 68.17 113.67 68.17 113.67C67.99 113.03 68.4 112.47 69.06 112.47C70.49 112.47 81.96 112.47 83.39 112.47C84.05 112.47 84.7 112.96 84.88 113.67C84.88 113.67 84.88 113.67 84.88 113.67C85.06 114.38 84.64 114.87 83.99 114.87C81.12 114.87 71.09 114.87 69.65 114.87Z" id="ar5xAtvP4"></path><path d="M88.75 114.87C88.09 114.87 87.44 114.31 87.26 113.67C87.26 113.67 87.26 113.67 87.26 113.67C87.08 113.03 87.5 112.47 88.15 112.47C88.87 112.47 94.58 112.47 95.29 112.47C95.94 112.47 96.6 112.96 96.78 113.67C96.78 113.67 96.78 113.67 96.78 113.67C96.96 114.38 96.54 114.87 95.89 114.87C94.46 114.87 89.46 114.87 88.75 114.87Z" id="cwvB27FW"></path><path d="M67.33 105.19C66.68 105.19 66.03 104.7 65.85 103.99C65.85 103.99 65.85 103.99 65.85 103.99C65.67 103.35 66.09 102.79 66.74 102.79C69.36 102.79 90.35 102.79 92.97 102.79C93.62 102.79 94.28 103.28 94.46 103.99C94.46 103.99 94.46 103.99 94.46 103.99C94.64 104.7 94.22 105.19 93.57 105.19C88.32 105.19 69.96 105.19 67.33 105.19Z" id="e3iAJEyWuh"></path><path d="M78.22 110.07C77.57 110.07 76.91 109.5 76.73 108.87C76.73 108.87 76.73 108.87 76.73 108.87C76.55 108.23 76.97 107.66 77.62 107.66C79.27 107.66 92.45 107.66 94.1 107.66C94.75 107.66 95.41 108.23 95.59 108.87C95.59 108.87 95.59 108.87 95.59 108.87C95.77 109.5 95.41 110.07 94.75 110.07C91.45 110.07 79.87 110.07 78.22 110.07Z" id="csVR5bN0F"></path><path d="M68.58 110.07C67.93 110.07 67.27 109.5 67.1 108.87C67.1 108.87 67.1 108.87 67.1 108.87C66.92 108.23 67.33 107.66 67.99 107.66C68.46 107.66 72.27 107.66 72.75 107.66C73.4 107.66 74.06 108.23 74.23 108.87C74.23 108.87 74.23 108.87 74.23 108.87C74.35 109.5 74 110.07 73.34 110.07C72.39 110.07 69.06 110.07 68.58 110.07Z" id="d1q1aU0IMB"></path><path d="M97.73 122.5C98.38 122.5 98.8 122.01 98.62 121.3C98.62 121.3 98.62 121.3 98.62 121.3C98.44 120.66 97.79 120.1 97.13 120.1C94.51 120.1 73.53 120.1 70.9 120.1C70.25 120.1 69.83 120.59 70.01 121.3C70.01 121.3 70.01 121.3 70.01 121.3C70.19 122.01 70.84 122.5 71.5 122.5C76.74 122.5 95.11 122.5 97.73 122.5Z" id="a2b5l8xyR7"></path><path d="M98.92 127.38C99.57 127.38 99.99 126.81 99.81 126.18C99.81 126.18 99.81 126.18 99.81 126.18C99.63 125.54 98.98 124.97 98.32 124.97C96.89 124.97 85.42 124.97 83.99 124.97C83.33 124.97 82.92 125.47 83.1 126.18C83.1 126.18 83.1 126.18 83.1 126.18C83.28 126.88 83.93 127.38 84.58 127.38C87.45 127.38 97.49 127.38 98.92 127.38Z" id="b2mBj10B2D"></path><path d="M79.83 127.38C80.48 127.38 80.9 126.81 80.72 126.18C80.72 126.18 80.72 126.18 80.72 126.18C80.54 125.54 79.88 124.97 79.23 124.97C78.52 124.97 72.81 124.97 72.09 124.97C71.44 124.97 71.02 125.47 71.2 126.18C71.2 126.18 71.2 126.18 71.2 126.18C71.38 126.88 72.03 127.38 72.69 127.38C74.12 127.38 79.11 127.38 79.83 127.38Z" id="aKwMXgrLb"></path><path d="M102.43 141.93C103.08 141.93 103.5 141.44 103.32 140.73C103.32 140.73 103.32 140.73 103.32 140.73C103.14 140.1 102.49 139.53 101.83 139.53C100.4 139.53 88.93 139.53 87.5 139.53C86.84 139.53 86.43 140.02 86.61 140.73C86.61 140.73 86.61 140.73 86.61 140.73C86.78 141.44 87.44 141.93 88.09 141.93C90.96 141.93 100.99 141.93 102.43 141.93Z" id="c3HIxWnH9w"></path><path d="M83.33 141.93C83.99 141.93 84.41 141.44 84.23 140.73C84.23 140.73 84.23 140.73 84.23 140.73C84.05 140.1 83.39 139.53 82.74 139.53C82.03 139.53 76.32 139.53 75.6 139.53C74.95 139.53 74.53 140.02 74.71 140.73C74.71 140.73 74.71 140.73 74.71 140.73C74.89 141.44 75.54 141.93 76.2 141.93C77.62 141.93 82.62 141.93 83.33 141.93Z" id="d177yoC2mi"></path><path d="M100.05 132.25C100.7 132.25 101.12 131.76 100.94 131.05C100.94 131.05 100.94 131.05 100.94 131.05C100.76 130.42 100.11 129.85 99.45 129.85C96.83 129.85 75.85 129.85 73.22 129.85C72.57 129.85 72.15 130.42 72.33 131.05C72.33 131.05 72.33 131.05 72.33 131.05C72.51 131.69 73.16 132.25 73.82 132.25C79.06 132.25 97.43 132.25 100.05 132.25Z" id="b1774drYpV"></path><path d="M88.99 87.53C89.64 87.53 90.06 87.03 89.88 86.33C89.88 86.33 89.88 86.33 89.88 86.33C89.7 85.69 89.04 85.12 88.39 85.12C86.74 85.12 73.56 85.12 71.91 85.12C71.26 85.12 70.84 85.62 71.02 86.33C71.02 86.33 71.02 86.33 71.02 86.33C71.2 87.03 71.85 87.53 72.51 87.53C75.8 87.53 87.34 87.53 88.99 87.53Z" id="aG1uxZocd"></path><path d="M101.18 137.06C101.83 137.06 102.25 136.56 102.07 135.86C102.07 135.86 102.07 135.86 102.07 135.86C101.89 135.22 101.24 134.65 100.58 134.65C100.11 134.65 96.3 134.65 95.83 134.65C95.17 134.65 94.75 135.15 94.93 135.86C94.93 135.86 94.93 135.86 94.93 135.86C95.11 136.56 95.77 137.06 96.42 137.06C97.37 137.06 100.7 137.06 101.18 137.06Z" id="arPVSRsJP"></path><path d="M149 122.57C149.66 122.57 150.07 122.08 149.89 121.37C149.89 121.37 149.89 121.37 149.89 121.37C149.72 120.74 149.06 120.17 148.41 120.17C143.87 120.17 107.61 120.17 103.08 120.17C102.43 120.17 102.01 120.66 102.19 121.37C102.19 121.37 102.19 121.37 102.19 121.37C102.31 122.01 102.96 122.57 103.62 122.57C112.69 122.57 144.46 122.57 149 122.57Z" id="b6parPN15w"></path><path d="M150.13 127.38C150.79 127.38 151.2 126.88 151.02 126.18C151.02 126.18 151.02 126.18 151.02 126.18C150.85 125.54 150.19 124.97 149.54 124.97C146.19 124.97 119.45 124.97 116.11 124.97C115.45 124.97 115.04 125.47 115.22 126.18C115.22 126.18 115.22 126.18 115.22 126.18C115.39 126.88 116.05 127.38 116.7 127.38C123.39 127.38 146.79 127.38 150.13 127.38Z" id="cfKYFXgAf"></path><path d="M111.94 127.38C112.6 127.38 113.02 126.88 112.84 126.18C112.84 126.18 112.84 126.18 112.84 126.18C112.66 125.54 112 124.97 111.35 124.97C110.64 124.97 104.93 124.97 104.21 124.97C103.56 124.97 103.14 125.47 103.32 126.18C103.32 126.18 103.32 126.18 103.32 126.18C103.5 126.88 104.15 127.38 104.81 127.38C106.23 127.38 111.23 127.38 111.94 127.38Z" id="aDeBAJ2Bh"></path><path d="M153.64 141.93C154.3 141.93 154.71 141.44 154.53 140.73C154.53 140.73 154.53 140.73 154.53 140.73C154.35 140.1 153.7 139.53 153.05 139.53C149.7 139.53 122.96 139.53 119.62 139.53C118.96 139.53 118.55 140.02 118.73 140.73C118.73 140.73 118.73 140.73 118.73 140.73C118.9 141.44 119.56 141.93 120.21 141.93C126.9 141.93 150.3 141.93 153.64 141.93Z" id="d1wsnnqTte"></path><path d="M115.45 141.93C116.11 141.93 116.52 141.44 116.35 140.73C116.35 140.73 116.35 140.73 116.35 140.73C116.17 140.1 115.51 139.53 114.86 139.53C114.15 139.53 108.44 139.53 107.72 139.53C107.07 139.53 106.65 140.02 106.83 140.73C106.83 140.73 106.83 140.73 106.83 140.73C107.01 141.44 107.66 141.93 108.32 141.93C109.74 141.93 114.74 141.93 115.45 141.93Z" id="a1sYcX869C"></path><path d="M151.32 132.25C151.98 132.25 152.39 131.69 152.21 131.05C152.21 131.05 152.21 131.05 152.21 131.05C152.03 130.42 151.38 129.85 150.73 129.85C146.19 129.85 109.93 129.85 105.4 129.85C104.75 129.85 104.33 130.34 104.51 131.05C104.51 131.05 104.51 131.05 104.51 131.05C104.69 131.69 105.34 132.25 106 132.25C115.06 132.25 146.79 132.25 151.32 132.25Z" id="a4qwdaQhUY"></path><path d="M123.6 137.06C124.26 137.06 124.67 136.56 124.5 135.86C124.5 135.86 124.5 135.86 124.5 135.86C124.32 135.22 123.66 134.65 123.01 134.65C121.36 134.65 108.18 134.65 106.53 134.65C105.88 134.65 105.46 135.15 105.64 135.86C105.64 135.86 105.64 135.86 105.64 135.86C105.82 136.56 106.47 137.06 107.13 137.06C110.42 137.06 121.96 137.06 123.6 137.06Z" id="i1DIqLZ6Xz"></path><path d="M152.39 137.06C153.05 137.06 153.46 136.56 153.28 135.86C153.28 135.86 153.28 135.86 153.28 135.86C153.11 135.22 152.45 134.65 151.8 134.65C149.41 134.65 130.33 134.65 127.95 134.65C127.29 134.65 126.87 135.15 127.05 135.86C127.05 135.86 127.05 135.86 127.05 135.86C127.23 136.56 127.89 137.06 128.54 137.06C133.31 137.06 150.01 137.06 152.39 137.06Z" id="c4jr2a4AQ"></path><path d="M127.77 65.13L134.13 65.13L133.06 60.82L115.99 60.82L117.06 65.13L123.42 65.13L128.54 86.33L132.88 86.33L127.77 65.13Z" id="a4J78oWZ2a"></path><path d="M107.27 54.71C107.92 54.71 108.64 55.34 108.81 56.12C108.88 56.42 109.46 58.85 109.53 59.16C109.71 59.94 109.35 60.57 108.64 60.57C104.11 60.57 67.9 60.57 63.37 60.57C62.72 60.57 62 59.94 61.82 59.16C61.75 58.85 61.18 56.42 61.11 56.12C60.93 55.34 61.35 54.71 62 54.71C71.06 54.71 102.74 54.71 107.27 54.71Z" id="a4S6Cn5FIS"></path><path d="M50.14 160.66C50.14 160.66 50.14 160.66 50.14 160.66C50.14 162.78 50.14 163.95 50.14 164.19C50.14 164.19 50.14 164.19 50.14 164.19C80.73 164.19 97.72 164.19 101.12 164.19C101.12 164.19 101.12 164.19 101.12 164.19C101.12 162.07 101.12 160.89 101.12 160.66C101.12 160.66 101.12 160.66 101.12 160.66C70.53 160.66 53.54 160.66 50.14 160.66Z" id="d1cTuHTFrm"></path><path d="M116.05 164.19L131.22 164.19L139.54 164.19C169.13 164.19 185.57 164.19 188.85 164.19C188.85 164.19 186.3 171.54 168.75 172.53C166.25 172.53 153.74 172.53 131.22 172.53L116.05 172.53C88.68 172.53 73.47 172.53 70.43 172.53C52.88 171.54 50.32 164.19 50.32 164.19C53.61 164.19 70.05 164.19 99.63 164.19L116.05 164.19Z" id="fVQBcMpkL"></path><path d="M150.31 164.19L166.73 164.19L181.89 164.19L190.22 164.19C219.81 164.19 236.24 164.19 239.53 164.19C239.53 164.19 236.97 171.54 219.43 172.53C216.92 172.53 204.41 172.53 181.89 172.53L166.73 172.53C139.35 172.53 124.15 172.53 121.1 172.53C104.81 171.61 101.48 165.25 101.06 164.33C101.06 164.19 101.12 164.19 101.12 164.19C107.68 164.19 124.07 164.19 150.31 164.19Z" id="aM5AXxz6"></path><path d="M189.98 168.15C191.17 168.15 192.18 167.02 192.18 165.53C192.18 165.44 192.18 164.99 192.18 164.19L165.06 164.19C165.06 164.99 165.06 165.44 165.06 165.53C165.06 166.94 166.07 168.15 167.26 168.15C171.81 168.15 187.71 168.15 189.98 168.15Z" id="b5TFr1R9fk"></path><path d="M101 160.66C101 160.66 101 160.66 101 160.66C101 162.78 101 163.95 101 164.19C101 164.19 101 164.19 101 164.19C184.15 164.19 230.35 164.19 239.59 164.19C239.59 164.19 239.59 164.19 239.59 164.19C239.59 162.07 239.59 160.89 239.59 160.66C239.59 160.66 239.59 160.66 239.59 160.66C156.44 160.66 110.24 160.66 101 160.66Z" id="a2ClCyiUNj"></path><path d="M199.86 211.18C202.77 211.18 205.15 208.35 205.15 204.96C205.15 203.23 205.15 189.38 205.15 187.65C205.15 184.18 202.83 181.36 199.92 181.36C198.17 181.35 184.18 181.29 182.43 181.29C179.51 181.29 177.14 184.11 177.14 187.51C177.14 189.24 177.14 203.09 177.14 204.82C177.14 208.28 179.46 211.1 182.37 211.1C185.87 211.12 198.11 211.17 199.86 211.18Z" id="bhHIvC1YR"></path><path d="M191.17 185.32C195.02 185.32 198.13 189.02 198.13 193.58C198.13 198.15 195.02 201.85 191.17 201.85C187.33 201.85 184.21 198.15 184.21 193.58C184.21 189.02 187.33 185.32 191.17 185.32Z" id="d2lJAy3bOn"></path><path d="M192.3 189.63C192.78 189.34 193.31 189.7 193.31 190.33C193.31 190.98 193.31 196.18 193.31 196.83C193.31 197.47 192.72 197.82 192.3 197.54C191.83 197.21 188.02 194.61 187.54 194.29C187.07 193.94 187.07 193.16 187.54 192.88C188.5 192.23 191.83 189.95 192.3 189.63Z" id="d1uurxYuAi"></path><path d="M180.29 207.36C182.46 207.37 199.83 207.42 202 207.43C202.53 207.43 203.01 206.87 203.01 206.23C203.01 205.59 202.53 205.03 202 205.03C199.83 205.02 182.46 204.96 180.29 204.96C179.75 204.96 179.28 205.45 179.28 206.16C179.28 206.79 179.75 207.36 180.29 207.36Z" id="c5VJLi6yb"></path><path d="M192.07 207.36C198.03 207.36 201.34 207.36 202 207.36C202.53 207.36 203.01 206.79 203.01 206.16C203.01 205.52 202.53 204.96 202 204.96C201.34 204.96 198.03 204.96 192.07 204.96L192.07 207.36Z" id="g688Ea3RUM"></path><path d="M49.37 133.45C49.97 132.96 49.73 132.68 49.73 132.68C50.38 132.18 50.2 131.69 50.2 131.69C50.86 130.91 49.85 130.91 49.85 130.91C50.32 129.64 48.42 130.27 47.88 130.49C47.59 130.63 46.28 130.98 46.28 130.98C46.28 130.98 46.28 130.56 46.52 130.2C46.75 129.92 47.29 129.57 47.35 128.86C47.41 128.44 45.5 129.78 44.91 130.56C44.43 131.19 43.84 132.89 43.84 132.89C43.45 132.91 41.48 133 37.95 133.17L37.42 136.85L44.32 135.22C47.45 134.28 49.13 133.69 49.37 133.45Z" id="d4WgRwF3r"></path><path d="M34.98 130.91C35.81 132.11 38.55 132.54 38.55 132.54C38.65 133.04 39.51 137.05 39.62 137.55C39.62 137.55 34.08 137.76 32.6 136.63C30.28 134.87 25.94 128.3 25.22 122.93C24.75 119.25 27.48 116 29.74 117.06C31.23 117.84 32.12 120.45 32.24 121.3C32.66 124.41 34.2 129.78 34.98 130.91Z" id="c36aFlqWEu"></path><path d="M38.84 138.26C38.84 138.26 39.91 138.47 40.45 138.05C40.45 138.05 39.68 132.46 38.84 131.26C38.84 131.26 38.25 131.05 37.42 131.62C37.7 132.94 39.08 135.79 38.84 138.26Z" id="i8eRGq9TQ"></path><path d="M34.8 210.33C34.8 210.74 34.85 214.02 34.86 214.43C34.86 214.43 36.29 214.71 37.24 214.5C37.26 214.43 37.38 214.07 37.59 213.44C38.06 214.11 38.32 214.49 38.37 214.57C38.37 214.57 42.89 215.34 45.21 215.13C45.21 215.13 45.45 213.93 44.37 213.37C43.24 212.8 40.75 212.02 40.03 211.46C39.32 210.89 38.07 209.69 38.07 209.69C37.42 209.82 36.82 210.4 34.8 210.33Z" id="a122X9KfwP"></path><path d="M34.26 206.16L37.71 205.31C37.93 207.94 38.05 209.4 38.07 209.69C38.13 210.47 34.92 210.96 34.8 210.33C34.73 209.77 34.55 208.38 34.26 206.16Z" id="k2LDfIuF4j"></path><path d="M12.43 204.11C12.22 204.43 10.51 207.03 10.29 207.36C10.29 207.36 11.24 208.63 12.08 209.13C12.13 209.09 12.41 208.9 12.91 208.56C12.91 209.41 12.91 209.88 12.91 209.97C12.91 209.97 16 213.93 17.97 215.49C17.97 215.49 18.8 214.78 18.2 213.51C17.61 212.24 16.06 209.76 15.82 208.77C15.65 207.78 15.29 206.02 15.29 206.02C14.72 205.64 13.92 205.59 12.43 204.11Z" id="c3IcmERAq9"></path><path d="M14.16 200.36L17.31 202.27C16.1 204.52 15.42 205.77 15.29 206.02C14.93 206.65 12.2 204.6 12.37 204.04C12.61 203.55 13.21 202.32 14.16 200.36Z" id="bdjKGQbDf"></path><path d="M38.9 178.11C39.74 184.11 39.02 207.5 39.02 207.5C38.64 207.6 36.71 208.07 33.25 208.91C31.25 194.03 30.14 185.77 29.92 184.11C29.68 182.28 29.15 180.58 28.31 179.03C24.92 172.88 16.18 155.5 19.93 147.09C24.51 136.77 36.46 151.75 36.46 151.75C36.95 157.02 38.07 172.03 38.9 178.11Z" id="i1hEJsnE6C"></path><path d="M26 182.63C24.98 187.51 17.31 205.66 17.31 205.66C16.82 205.23 12.87 201.79 12.37 201.35C12.37 201.35 16.72 186.3 17.43 184.11C18.14 181.92 15.59 162.78 15.41 153.59C15.23 144.33 31.53 148.01 31.53 148.01C30.42 154.93 26.95 177.97 26 182.63Z" id="cAkCfnQEf"></path><path d="M31.35 116.07C35.04 120.95 36.64 146.45 36.46 152.81C36.46 152.81 22.19 153.17 15.41 152.11C15.47 152.11 18.26 121.87 22.07 116.64C24.15 113.81 28.67 112.54 31.35 116.07Z" id="bNuBKr898"></path><path d="M32.72 102.93C32.95 103.57 33.43 103.99 33.97 104.34C34.03 104.41 34.08 104.41 34.08 104.48C34.14 104.63 33.97 104.98 33.73 105.26C33.43 105.69 33.31 106.25 33.43 106.75C33.67 107.81 33.91 109.43 33.49 109.78C32.84 110.28 30.75 111.13 30.75 111.13C30.69 111.54 30.22 114.88 30.16 115.29C30.16 115.29 29.39 116.64 26.11 115.79C24.98 115.51 24.57 114.94 24.57 114.94C24.61 114.53 24.94 111.25 24.98 110.84C24.98 110.84 21.83 106.82 23.44 102.93C25.1 99.04 30.87 98.05 32.42 102.15C32.48 102.29 32.6 102.58 32.72 102.93Z" id="afbN2GFLo"></path><path d="M74.89 74.24C84.81 74.24 92.85 83.8 92.85 95.58C92.85 107.37 84.81 116.92 74.89 116.92C64.97 116.92 56.93 107.37 56.93 95.58C56.93 83.8 64.97 74.24 74.89 74.24Z" id="d5ZiAv0yD"></path><path d="M60.79 110.27C60.79 110.27 60.79 110.27 60.79 110.27C57.07 115.19 55 117.92 54.58 118.47C54.58 118.47 54.58 118.47 54.58 118.47C56.57 120.59 57.68 121.77 57.9 122.01C57.9 122.01 57.9 122.01 57.9 122.01C61.62 117.09 63.69 114.36 64.11 113.82C64.11 113.82 64.11 113.82 64.11 113.82C62.12 111.69 61.01 110.51 60.79 110.27Z" id="g1YSYUxJFd"></path><path d="M26.83 159.45C28.67 161.43 31.82 160.8 33.73 158.11C35.46 155.64 44.1 143.27 59.66 121.02L55.26 116.28C38.45 137.18 29.11 148.8 27.24 151.12C25.16 153.66 24.98 157.48 26.83 159.45C26.83 159.45 26.83 159.45 26.83 159.45Z" id="dlTtErctH"></path><path d="M91.31 113.18C83.16 123.99 69.12 124.83 60.08 115.15C50.98 105.47 50.26 88.8 58.41 78.06C59.72 76.29 61.21 74.81 62.81 73.61C71.02 67.25 82.03 67.96 89.64 76.08C95.94 82.72 98.26 92.76 96.36 101.8C95.53 105.9 93.86 109.78 91.31 113.18ZM85.59 81.45C79.29 74.67 69.65 75.02 63.65 82.02C63.41 82.3 63.17 82.58 62.93 82.86C57.04 90.71 57.52 102.72 64.12 109.78C70.72 116.78 80.84 116.21 86.78 108.37C88.09 106.67 89.1 104.77 89.76 102.72C92.2 95.51 90.77 86.96 85.59 81.45Z" id="ckm9ARirN"></path><path d="M30.4 115.08C30.43 115.11 30.66 115.34 30.69 115.37C30.69 115.37 27.96 117.49 24.09 114.94C24.09 114.87 24.27 114.66 24.51 114.66C25.69 114.74 28.26 116.64 30.4 115.08Z" id="b2eKkX0K4Q"></path><path d="M30.04 101.94C32.12 101.73 35.27 99.11 34.32 97.84C33.37 96.64 31.11 96.22 30.46 96.5C29.8 96.71 30.81 94.73 29.74 94.59C28.67 94.45 22.31 96.29 21.71 100.39C21 105.12 22.72 109.22 24.98 110.77C24.98 110.58 24.93 108.99 24.92 108.79C24.92 108.79 23.02 107.73 23.26 106.46C23.44 105.69 24.27 105.97 24.69 106.46C24.69 106.46 24.87 105.12 24.98 104.7C25.34 103.57 27.96 102.15 30.04 101.94Z" id="c5PeclnNr"></path><path d="M44.43 138.54C45.09 138.19 44.91 137.9 44.91 137.9C45.62 137.62 45.56 137.13 45.56 137.13C46.34 136.56 45.39 136.28 45.39 136.28C46.1 135.22 44.14 135.22 43.6 135.36C43.3 135.43 42 135.36 42 135.36C42 135.36 42.06 134.94 42.41 134.65C42.71 134.44 43.3 134.23 43.48 133.59C43.6 133.17 41.52 133.95 40.75 134.51C40.15 134.94 39.2 136.49 39.2 136.49C38.82 136.39 36.89 135.9 33.43 135.01L32.18 138.47L39.2 138.82C42.45 138.78 44.2 138.68 44.43 138.54Z" id="a2cDYoD2JN"></path><path d="M31.05 131.97C31.65 133.38 34.14 134.58 34.14 134.58C34.14 135.1 34.14 139.23 34.14 139.74C34.14 139.74 28.73 138.33 27.54 136.85C25.64 134.51 22.78 126.81 23.14 121.44C23.44 117.77 26.77 115.37 28.73 116.99C30.1 118.26 30.4 121.02 30.34 121.87C30.1 124.97 30.46 130.7 31.05 131.97Z" id="a1LyISGXVJ"></path><path d="M33.31 140.24C33.31 140.24 34.32 140.8 34.92 140.52C34.92 140.52 35.33 134.87 34.74 133.45C34.74 133.45 34.2 133.1 33.25 133.38C33.26 134.75 34.03 137.9 33.31 140.24Z" id="d3sWlXC2BN"></path><path d="M224.36 171.54C225.08 171.54 225.73 171.04 226.03 170.34C226.28 169.72 228.33 164.8 228.59 164.19C228.88 163.48 229.48 162.99 230.19 162.99C231.31 162.99 240.26 162.99 241.37 162.99C241.91 162.99 242.39 163.27 242.68 163.69C242.76 163.79 243.16 164.26 243.87 165.11L243.22 165.74L243.22 173.59C243.22 173.59 243.22 173.59 243.22 173.59C243.22 173.66 243.22 173.66 243.22 173.73C243.22 176.38 243.22 197.64 243.22 200.29C243.22 201.5 242.45 202.41 241.43 202.41C237.66 202.41 207.49 202.41 203.72 202.41C202.71 202.41 201.94 201.5 201.94 200.29C201.94 197.64 201.94 176.38 201.94 173.73C201.94 172.46 202.77 171.54 203.72 171.54C207.85 171.54 222.3 171.54 224.36 171.54Z" id="i49g5wTIhU"></path><path d="M225.61 173.02C226.33 173.02 226.98 172.53 227.28 171.82C227.53 171.21 229.58 166.29 229.84 165.67C230.13 164.97 230.79 164.47 231.44 164.47C232.56 164.47 241.51 164.47 242.62 164.47C243.64 164.47 244.41 165.39 244.41 166.59C244.41 167.15 244.41 169.95 244.41 175C244.41 175 244.41 175 244.41 175C244.41 175.07 244.41 175.07 244.41 175.14C244.41 177.8 244.41 199.05 244.41 201.71C244.41 202.91 243.64 203.83 242.62 203.83C238.86 203.83 208.79 203.83 205.03 203.83C204.02 203.83 203.25 202.91 203.25 201.71C203.25 199.05 203.25 177.8 203.25 175.14C203.19 173.94 203.96 173.02 204.97 173.02C209.1 173.02 223.55 173.02 225.61 173.02Z" id="aeoKqWoQR"></path><path d="M240.72 199.38C241.43 199.38 242.03 198.67 242.03 197.82C242.03 195.69 242.03 178.68 242.03 176.55C242.03 175.71 241.43 175 240.72 175C237.32 175 210.1 175 206.7 175C205.98 175 205.39 175.71 205.39 176.55C205.39 178.68 205.39 195.69 205.39 197.82C205.39 198.67 205.98 199.38 206.7 199.38C213.5 199.38 237.32 199.38 240.72 199.38Z" id="a27ex1vO6H"></path><path d="M203.72 174.08C204.84 174.08 213.79 174.08 214.91 174.08C215.38 174.08 215.8 174.29 216.16 174.72C216.16 174.72 216.16 174.72 216.16 174.72L217.23 176.13L216.87 176.27C218.15 179.41 218.87 181.15 219.01 181.5C219.31 182.28 219.96 182.7 220.68 182.7C222.74 182.7 239.25 182.7 241.32 182.7C241.85 182.7 242.33 182.98 242.62 183.41C242.7 183.51 243.1 184 243.81 184.89L243.04 184.96C243.04 200.86 243.04 209.69 243.04 211.46C243.04 212.66 242.27 213.58 241.26 213.58C238.76 213.58 226.27 213.58 203.78 213.58L203.37 214.14C202.72 213.34 202.37 212.89 202.3 212.8C202 212.45 201.88 211.95 201.88 211.39C201.88 208.73 201.88 187.48 201.88 184.82C201.88 184.75 201.88 184.75 201.88 184.68C201.88 184.68 201.88 184.68 201.88 184.68L201.88 176.2L201.94 176.2C202.45 174.79 203.05 174.08 203.72 174.08Z" id="ergI8vaHX"></path><path d="M204.97 175.56C206.09 175.56 215.04 175.56 216.16 175.56C216.81 175.56 217.46 176.06 217.76 176.77C218.02 177.38 220.06 182.3 220.32 182.91C220.62 183.69 221.27 184.11 221.98 184.11C224.05 184.11 240.56 184.11 242.62 184.11C243.64 184.11 244.41 185.03 244.41 186.23C244.41 188.89 244.41 210.14 244.41 212.8C244.41 214 243.64 214.92 242.62 214.92C238.86 214.92 208.79 214.92 205.03 214.92C204.02 214.92 203.25 214 203.25 212.8C203.25 210.14 203.25 188.89 203.25 186.23C203.25 186.16 203.25 186.16 203.25 186.09C203.25 186.09 203.25 186.09 203.25 186.09L203.25 177.68L203.19 177.68C203.7 176.27 204.3 175.56 204.97 175.56Z" id="ausMVlKAU"></path><path d="M239.41 178.04C239.71 178.04 239.95 177.75 239.95 177.4C239.95 177.4 239.95 177.4 239.95 177.4C239.95 177.05 239.71 176.77 239.41 176.77C238.78 176.77 233.74 176.77 233.11 176.77C232.81 176.77 232.57 177.05 232.57 177.4C232.57 177.4 232.57 177.4 232.57 177.4C232.51 177.68 232.75 178.04 233.05 178.04C234.32 178.04 238.78 178.04 239.41 178.04Z" id="jQ0Dr6Mq"></path><path d="M230.79 180.16C231.08 180.16 231.32 179.87 231.32 179.52C231.32 179.52 231.32 179.52 231.32 179.52C231.32 179.17 231.08 178.89 230.79 178.89C230.51 178.89 228.27 178.89 227.99 178.89C227.69 178.89 227.46 179.17 227.46 179.52C227.46 179.52 227.46 179.52 227.46 179.52C227.46 179.87 227.69 180.16 227.99 180.16C228.55 180.16 230.51 180.16 230.79 180.16Z" id="bd80Gtt9V"></path><path d="M231.08 178.04C231.38 178.04 231.62 177.75 231.62 177.4C231.62 177.4 231.62 177.4 231.62 177.4C231.62 177.05 231.38 176.77 231.08 176.77C230.7 176.77 227.61 176.77 227.22 176.77C226.92 176.77 226.68 177.05 226.68 177.4C226.68 177.4 226.68 177.4 226.68 177.4C226.68 177.68 226.92 178.04 227.22 178.04C227.99 178.04 230.7 178.04 231.08 178.04Z" id="bFKNwsM5j"></path><path d="M239.41 180.16C239.71 180.16 239.95 179.87 239.95 179.52C239.95 179.52 239.95 179.52 239.95 179.52C239.95 179.17 239.71 178.89 239.41 178.89C239.03 178.89 235.93 178.89 235.55 178.89C235.25 178.89 235.01 179.17 235.01 179.52C235.01 179.52 235.01 179.52 235.01 179.52C234.95 179.87 235.19 180.16 235.49 180.16C236.27 180.16 239.02 180.16 239.41 180.16Z" id="c1eJd4NnVU"></path><path d="M225.32 178.04C225.61 178.04 225.85 177.75 225.85 177.4C225.85 177.4 225.85 177.4 225.85 177.4C225.85 177.05 225.61 176.77 225.32 176.77C225.21 176.77 224.41 176.77 224.3 176.77C224.01 176.77 223.77 177.05 223.77 177.4C223.77 177.4 223.77 177.4 223.77 177.4C223.71 177.68 223.95 178.04 224.3 178.04C224.51 178.04 225.21 178.04 225.32 178.04Z" id="c5P2cL9Axs"></path><path d="M233.64 180.16C233.94 180.16 234.18 179.87 234.18 179.52C234.18 179.52 234.18 179.52 234.18 179.52C234.18 179.17 233.94 178.89 233.64 178.89C233.54 178.89 232.73 178.89 232.63 178.89C232.33 178.89 232.1 179.17 232.1 179.52C232.1 179.52 232.1 179.52 232.1 179.52C232.1 179.87 232.33 180.16 232.63 180.16C232.83 180.16 233.54 180.16 233.64 180.16Z" id="afCInhCro"></path><path d="M234.48 167.37C234.06 168.5 234.48 169.77 235.43 170.27C237.34 171.27 252.61 179.3 254.52 180.3C255.47 180.79 256.54 180.3 256.96 179.17C257.54 177.61 262.15 165.11 262.73 163.55C263.14 162.42 262.73 161.15 261.78 160.66C259.87 159.65 244.59 151.63 242.68 150.62C241.79 150.13 240.66 150.62 240.24 151.75C239.09 154.88 235.05 165.81 234.48 167.37Z" id="cGOk4uy3v"></path><path d="M234 168.64C233.82 169.06 234 169.49 234.36 169.7C236.48 170.82 253.47 179.75 255.59 180.86C255.95 181.08 256.3 180.86 256.48 180.44C256.52 180.34 256.7 179.85 257.02 178.96C255.52 173.49 254.69 170.45 254.52 169.84C254.4 169.42 253.98 169.21 253.63 169.35C253.09 169.61 248.81 171.7 248.27 171.96C247.92 172.1 247.5 171.89 247.38 171.47C246.99 170.09 243.85 159.07 243.46 157.69C243.34 157.19 242.86 156.98 242.51 157.26C242.14 157.49 240.29 158.59 236.97 160.59C235.19 165.42 234.2 168.1 234 168.64Z" id="a1DFmuJ8jo"></path><path d="M256.54 160.94C257.89 160.94 258.98 162.24 258.98 163.84C258.98 165.44 257.89 166.73 256.54 166.73C255.2 166.73 254.1 165.44 254.1 163.84C254.1 162.24 255.2 160.94 256.54 160.94Z" id="j4np0z7Ip8"></path><path d="M252.74 155.85C252.74 155.85 252.74 155.92 253.09 155.78C253.09 155.78 253.45 156.35 253.98 155.99C253.98 155.99 256.01 155.22 256.01 155.22C256.54 154.86 257.85 154.23 258.33 152.46C258.33 152.46 267.55 146.81 268.38 145.25C269.15 143.7 269.45 136.21 269.45 136.21C269.05 136.09 265.86 135.13 265.46 135.01C265.46 135.01 265.76 141.65 264.63 143.06C263.56 144.48 257.43 150.48 257.43 150.48C257.43 150.48 255.83 149.78 255.29 149.92C255.06 149.99 253.09 150.91 253.21 151.47C253.27 151.82 253.81 151.75 254.1 151.68C254.46 151.54 255.41 151.12 255.47 151.12C255.53 151.12 255.47 151.19 255.41 151.33C255.11 151.68 254.04 152.53 253.45 153.1C252.68 153.8 252.14 154.51 252.08 154.72C251.96 154.93 252.26 155 252.38 154.93C252.38 155 252.26 155.85 252.74 155.85Z" id="b9dsmWmS5A"></path><path d="M279.44 214.28C279.56 214.64 283.55 215.56 287.29 214.71C287.59 214.64 287.83 214.28 287.83 213.86C287.83 213.83 287.81 213.66 287.77 213.37L279.32 213.15C279.28 213.58 279.32 213.95 279.44 214.28Z" id="d57E9S0UC"></path><path d="M284.68 211.53C286.16 211.46 284.8 210.33 285.99 210.47C287.18 210.61 287.18 210.61 287.18 210.61C287.18 210.61 287.65 211.6 287.71 213.08C287.71 213.15 287.71 213.29 287.71 213.37C287.71 214.43 285.15 214.28 282.83 214.28C281.29 214.28 280.04 214.21 279.32 213.37C279.32 213.29 279.32 213.22 279.32 213.08C279.56 212.24 283.37 211.6 284.68 211.53Z" id="dgLZr4ljC"></path><path d="M287.53 211.46C287.53 211.46 283.73 212.38 284.56 211.46C284.54 211.17 284.44 209.71 284.26 207.08L287.53 206.72C287.53 209.56 287.53 211.14 287.53 211.46Z" id="a6iaO883oO"></path><path d="M266.54 214.35C266.65 214.71 270.52 216.05 274.33 215.63C274.68 215.63 274.92 215.27 274.92 214.85C274.92 214.82 274.92 214.65 274.92 214.35L266.54 213.22C266.46 213.65 266.46 214.03 266.54 214.35Z" id="c10ogH2HAh"></path><path d="M272.01 212.16C273.49 212.24 272.19 210.96 273.44 211.32C274.62 211.6 274.62 211.6 274.62 211.6C274.62 211.6 275.04 212.59 274.98 214.14C274.98 214.21 274.98 214.35 274.98 214.43C274.92 215.41 272.36 215.06 270.04 214.78C268.5 214.57 267.25 214.35 266.65 213.51C266.54 213.37 266.48 213.22 266.54 213.15C266.83 212.31 270.64 212.09 272.01 212.16Z" id="g1xGoOPCKT"></path><path d="M274.86 212.45C274.86 212.45 271 212.94 271.89 212.16C271.89 211.87 271.91 210.41 271.95 207.78L275.22 207.71C275.01 210.55 274.89 212.13 274.86 212.45Z" id="clFFrgNKv"></path><path d="M291.76 151.12C296.63 162.07 288.66 181.57 288.6 189.13C288.54 195.28 288.48 201.14 288.19 209.34C287.77 209.32 284.44 209.21 284.02 209.2C284.02 209.2 282.65 201.07 281.94 189.63C281.64 184.54 282.36 177.26 282.95 169.06C282.84 169.07 281.93 169.13 281.82 169.13C281.82 169.13 278.25 181.71 277.48 188.35C276.77 194.71 276.17 202.13 275.81 209.27C275.34 209.25 271.59 209.08 271.12 209.06C271.12 209.06 270.28 195.14 270.34 188C270.4 178.6 270.34 161.86 272.84 154.23C276.62 153.6 285.87 144.55 291.76 151.12Z" id="bWnVkCJtb"></path><path d="M255.41 122.43C255.83 123.28 255.23 124.06 255.35 124.34C255.41 124.62 256.19 124.76 256.19 124.76C256.19 124.76 256.84 127.73 257.79 127.87C258.8 128.08 260.53 126.39 260.53 126.39C260.71 126.65 262.13 128.74 262.31 129C262.31 129 265.52 128.3 266.59 124.34C266.43 124.09 265.1 122.11 264.93 121.87C264.93 121.87 263.62 116 260.41 114.87C257.2 113.74 254.34 119.53 254.34 119.53C254.56 120.11 255 121.58 255.41 122.43Z" id="c4wBPVrEyH"></path><path d="M242.56 161.15C242.56 161.15 242.56 161.22 242.92 161.15C242.92 161.15 243.16 161.79 243.75 161.65C243.75 161.65 245.9 161.57 245.9 161.57C246.49 161.43 247.92 161.22 248.75 159.67C248.75 159.67 258.92 157.26 260.05 155.99C261.18 154.72 263.14 147.66 263.14 147.66C262.79 147.41 259.99 145.43 259.64 145.18C259.64 145.18 258.39 151.68 257.02 152.67C255.65 153.66 248.39 157.41 248.39 157.41C248.39 157.41 246.97 156.2 246.43 156.2C246.19 156.2 244.05 156.42 243.99 156.91C243.99 157.26 244.29 157.34 244.59 157.41C245.12 157.55 246.19 157.34 246.25 157.41C246.31 157.48 246.25 157.48 246.13 157.55C245.78 157.83 244.59 158.25 243.87 158.61C242.98 159.03 242.27 159.6 242.21 159.74C242.09 160.02 242.33 160.16 242.45 160.16C242.45 160.23 242.15 161.01 242.56 161.15Z" id="c10BlHMJdf"></path><path d="M257.67 146.31C259.28 143.13 257.61 132.39 263.68 126.6C264.51 125.75 267.25 123.07 269.93 124.13C284.5 129.99 293.66 152.6 293.66 152.6C286.16 158.32 270.76 160.44 270.76 160.44C270.4 158.82 272.54 154.16 271.17 150.76C269.99 147.94 265.58 146.88 264.57 142.85C264.63 146.45 263.44 150.98 263.44 150.98C261.84 148.29 258.83 147.25 257.67 146.31Z" id="b3RSEWcCGV"></path><path d="M261.24 110.49C258.98 108.51 256.36 110.28 254.64 111.9C253.33 113.18 252.62 115.01 251.49 116.14C250.36 117.27 249.23 115.58 249.11 116.28C248.99 116.99 249.58 118.62 251.72 119.39C252.97 119.82 253.81 119.46 254.34 119.11C255 119.53 255.77 119.96 256.66 119.96C258.8 119.96 259.87 121.44 259.64 123.07C259.4 124.69 260.47 125.33 261.54 125.82C262.67 126.32 262.37 131.97 264.75 132.68C267.13 133.38 269.57 132.54 270.88 134.73C272.19 136.92 278.13 138.26 280.16 134.37C282.18 130.49 283.73 122.22 279.32 120.45C274.98 118.76 273.08 117.2 272.3 115.44C271.65 113.74 270.04 110.98 267.25 111.2C264.39 111.48 262.61 111.76 261.24 110.49Z" id="c2J96tRQpR"></path><path d="M67.57 187.86C65.37 186.8 65.43 185.24 65.37 183.76C65.31 181.57 63.59 180.3 62.16 180.44C60.97 180.58 61.27 177.97 60.73 176.84C59.96 175.07 57.1 174.65 57.28 178.04C57.34 179.95 60.02 180.09 59.72 182.21C59.42 184.33 60.49 186.73 61.68 186.94C64.24 187.36 62.4 190.83 63.65 192.38C64.9 194.08 66.74 193.94 68.17 192.88C68.05 191.87 69.48 188.78 67.57 187.86Z" id="a2R8iA741J"></path><path d="M84.23 186.16C83.57 180.86 82.68 178.96 85.83 177.33C88.99 175.71 89.88 170.69 87.97 167.58C86.49 165.11 87.62 161.43 88.15 158.82C88.81 156.06 86.61 148.79 80.36 153.87C76.79 156.77 80.36 161.93 75.36 164.33C70.37 166.73 71.2 173.52 72.81 176.34C74.12 178.67 68.17 180.37 67.93 185.1C67.63 189.77 70.43 193.09 75.78 194.43C77.47 192.78 84.88 191.46 84.23 186.16Z" id="b9Ok0qi9D"></path><path d="M74.65 192.38C76.02 183.55 83.22 160.87 83.28 160.59C83.33 160.37 83.28 160.23 83.1 160.16C82.92 160.09 82.8 160.16 82.74 160.37C82.68 160.59 75.48 183.34 74.06 192.24C74.06 192.38 74.17 192.59 74.35 192.66C74.35 192.66 74.35 192.66 74.35 192.66C74.47 192.66 74.65 192.52 74.65 192.38Z" id="dVX67dsTW"></path><path d="M79.23 174.01C80.78 171.89 84.35 171.61 84.35 171.61C84.52 171.61 84.64 171.4 84.64 171.25C84.64 171.04 84.46 170.9 84.35 170.9C84.17 170.9 80.48 171.25 78.81 173.52C78.7 173.66 78.7 173.87 78.81 174.01C78.87 174.15 78.93 174.15 78.99 174.15C79.05 174.15 79.17 174.15 79.23 174.01Z" id="exQGrg2FF"></path><path d="M77.57 179.17C77.74 179.17 77.86 179.03 77.86 178.81C77.98 175.56 76.02 169.49 75.96 169.28C75.9 169.06 75.72 168.99 75.6 169.06C75.42 169.13 75.36 169.35 75.42 169.49C75.42 169.56 77.45 175.64 77.33 178.74C77.27 179.03 77.39 179.17 77.57 179.17C77.57 179.17 77.57 179.17 77.57 179.17Z" id="a6FDhIHuJD"></path><path d="M76.02 185.74C77.21 183.62 81.73 182.98 81.79 182.98C81.97 182.98 82.09 182.77 82.03 182.63C82.03 182.42 81.85 182.28 81.73 182.35C81.55 182.35 76.85 183.05 75.54 185.46C75.42 185.6 75.48 185.81 75.6 185.95C75.72 185.88 75.78 185.88 75.78 185.88C75.9 185.88 75.96 185.81 76.02 185.74Z" id="bTPFUMVl8"></path><path d="M74.12 186.23C72.57 182.42 72.51 180.23 73.52 177.9C75.01 174.36 74.95 170.9 72.93 168.78C71.26 167.09 72.09 166.38 72.09 164.19C72.09 160.73 66.03 158.18 63.77 163.69C62.52 166.8 64.9 168.43 63.77 170.9C62.16 174.5 63.65 177.75 64.9 179.73C66.44 182.06 63.23 186.52 64.12 190.12C65.07 193.65 68.17 194.99 71.38 194.64C71.93 192.96 75.66 190.05 74.12 186.23Z" id="cDTz3mXgi"></path><path d="M69.59 193.02C69.77 193.02 69.89 192.95 69.89 192.73C70.78 179.66 68.35 170.48 68.35 170.34C68.29 170.19 68.17 170.12 68.05 170.12C67.93 170.19 67.87 170.34 67.87 170.48C67.87 170.55 70.31 179.66 69.42 192.66C69.42 192.88 69.48 193.02 69.59 193.02C69.65 193.02 69.65 193.02 69.59 193.02Z" id="adMqpX6VM"></path><path d="M69.18 177.05C69.3 177.05 69.42 176.98 69.48 176.84C69.71 174.93 72.03 172.67 72.03 172.67C72.15 172.6 72.15 172.39 72.03 172.24C71.97 172.1 71.8 172.1 71.68 172.24C71.56 172.31 69.24 174.65 68.94 176.77C69 176.91 69.06 177.05 69.18 177.05C69.18 177.05 69.18 177.05 69.18 177.05Z" id="a1cXhJYIz7"></path><path d="M69.71 181.29C69.83 181.22 69.89 181.08 69.83 180.93C69.3 179.17 65.85 175.21 65.73 175.07C65.61 174.93 65.49 175 65.37 175.07C65.25 175.21 65.31 175.35 65.37 175.49C65.43 175.56 68.82 179.52 69.36 181.15C69.48 181.22 69.54 181.29 69.59 181.29C69.65 181.29 69.65 181.29 69.71 181.29Z" id="c1pARuctVb"></path><path d="M70.07 190.05C70.31 188.99 71.97 188.14 72.57 187.86C72.69 187.79 72.75 187.65 72.75 187.51C72.69 187.36 72.57 187.29 72.45 187.29C72.33 187.36 69.95 188.28 69.59 189.84C69.54 190.12 69.59 190.26 69.77 190.26C69.77 190.26 69.77 190.26 69.77 190.26C69.89 190.26 70.01 190.19 70.07 190.05Z" id="c1pc3I603T"></path><path d="M69.89 188.21C70.01 188.14 70.07 188 70.01 187.86C69.59 186.94 67.27 185.32 67.04 185.1C66.92 185.03 66.8 185.03 66.74 185.17C66.68 185.32 66.68 185.46 66.8 185.53C67.45 186.02 69.3 187.43 69.59 188.07C69.59 188.21 69.65 188.21 69.71 188.21C69.77 188.21 69.83 188.21 69.89 188.21Z" id="bSLDZlJaW"></path><path d="M64.54 214.71C61.51 211.39 60.2 205.95 61.68 200.86C61.82 200.41 62.49 198.17 63.71 194.15L79.65 194.15C80.86 198.17 81.53 200.41 81.67 200.86C83.22 205.95 81.91 211.32 78.87 214.71C76.01 214.71 65.97 214.71 64.54 214.71Z" id="klUuY97Qw"></path><path d="M80.06 194.99C80.48 194.99 80.78 194.57 80.78 194.15C80.78 194.15 80.78 194.15 80.78 194.15C80.78 193.65 80.42 193.3 80.06 193.3C78.4 193.3 65.07 193.3 63.41 193.3C62.99 193.3 62.69 193.72 62.69 194.15C62.69 194.15 62.69 194.15 62.69 194.15C62.64 194.57 62.99 194.99 63.41 194.99C66.74 194.99 78.4 194.99 80.06 194.99Z" id="h6fE99YII"></path><path d="M81.82 147.06C82.47 147.06 82.89 146.56 82.71 145.86C82.71 145.86 82.71 145.86 82.71 145.86C82.53 145.22 81.88 144.65 81.22 144.65C79.58 144.65 66.39 144.65 64.75 144.65C64.09 144.65 63.68 145.15 63.85 145.86C63.85 145.86 63.85 145.86 63.85 145.86C64.03 146.56 64.69 147.06 65.34 147.06C68.64 147.06 80.17 147.06 81.82 147.06Z" id="b2f3tBpGDZ"></path></defs><g><g><use xlink:href="#iJrsxUK3g" opacity="1" fill="#b8d0d7" fill-opacity="1"></use><g><use xlink:href="#iJrsxUK3g" opacity="1" fill-opacity="0" stroke="#000000" stroke-width="1" stroke-opacity="0"></use></g></g><g><use xlink:href="#h8VsbnVja" opacity="1" fill="#8fa8bb" fill-opacity="1"></use><g><use xlink:href="#h8VsbnVja" opacity="1" fill-opacity="0" stroke="#000000" stroke-width="1" stroke-opacity="0"></use></g></g><g><use xlink:href="#b5JEx7hpH" opacity="1" fill="#e8f3f5" fill-opacity="1"></use><g><use xlink:href="#b5JEx7hpH" opacity="1" fill-opacity="0" stroke="#000000" stroke-width="1" stroke-opacity="0"></use></g></g><g><use xlink:href="#a4MFrxKaFc" opacity="1" fill="#136ca0" fill-opacity="1"></use><g><use xlink:href="#a4MFrxKaFc" opacity="1" fill-opacity="0" stroke="#000000" stroke-width="1" stroke-opacity="0"></use></g></g><g><use xlink:href="#b3k9OJnDzb" opacity="1" fill="#291a6d" fill-opacity="1"></use><g><use xlink:href="#b3k9OJnDzb" opacity="1" fill-opacity="0" stroke="#000000" stroke-width="1" stroke-opacity="0"></use></g></g><g><use xlink:href="#cNVUvbEeS" opacity="1" fill="#f7d3c8" fill-opacity="1"></use><g><use xlink:href="#cNVUvbEeS" opacity="1" fill-opacity="0" stroke="#000000" stroke-width="1" stroke-opacity="0"></use></g></g><g><use xlink:href="#anI7Oz2Wc" opacity="1" fill="#291a6d" fill-opacity="1"></use><g><use xlink:href="#anI7Oz2Wc" opacity="1" fill-opacity="0" stroke="#000000" stroke-width="1" stroke-opacity="0"></use></g></g><g><use xlink:href="#f3cX2O4OKi" opacity="1" fill="#f7d3c8" fill-opacity="1"></use><g><use xlink:href="#f3cX2O4OKi" opacity="1" fill-opacity="0" stroke="#000000" stroke-width="1" stroke-opacity="0"></use></g></g><g><use xlink:href="#a3stoQsBBb" opacity="1" fill="#420181" fill-opacity="1"></use><g><use xlink:href="#a3stoQsBBb" opacity="1" fill-opacity="0" stroke="#000000" stroke-width="1" stroke-opacity="0"></use></g></g><g><use xlink:href="#a43HHaRXJ" opacity="1" fill="#f7d3c8" fill-opacity="1"></use><g><use xlink:href="#a43HHaRXJ" opacity="1" fill-opacity="0" stroke="#000000" stroke-width="1" stroke-opacity="0"></use></g></g><g><use xlink:href="#g3hZsNcwkU" opacity="1" fill="#4144c0" fill-opacity="1"></use><g><use xlink:href="#g3hZsNcwkU" opacity="1" fill-opacity="0" stroke="#000000" stroke-width="1" stroke-opacity="0"></use></g></g><g><use xlink:href="#a1BMy5UbP" opacity="1" fill="#f7d3c8" fill-opacity="1"></use><g><use xlink:href="#a1BMy5UbP" opacity="1" fill-opacity="0" stroke="#000000" stroke-width="1" stroke-opacity="0"></use></g></g><g><use xlink:href="#aOpCBfqB" opacity="1" fill="#4144c0" fill-opacity="1"></use><g><use xlink:href="#aOpCBfqB" opacity="1" fill-opacity="0" stroke="#000000" stroke-width="1" stroke-opacity="0"></use></g></g><g><use xlink:href="#d65k48p6j" opacity="1" fill="#f7d3c8" fill-opacity="1"></use><g><use xlink:href="#d65k48p6j" opacity="1" fill-opacity="0" stroke="#000000" stroke-width="1" stroke-opacity="0"></use></g></g><g><use xlink:href="#b4l9YvrQ" opacity="1" fill="#291a6d" fill-opacity="1"></use><g><use xlink:href="#b4l9YvrQ" opacity="1" fill-opacity="0" stroke="#000000" stroke-width="1" stroke-opacity="0"></use></g></g><g><use xlink:href="#ckteqHGBo" opacity="1" fill="#ffffff" fill-opacity="1"></use><g><use xlink:href="#ckteqHGBo" opacity="1" fill-opacity="0" stroke="#000000" stroke-width="1" stroke-opacity="0"></use></g></g><g><use xlink:href="#bXFXTwa6a" opacity="1" fill="#b8d0d7" fill-opacity="1"></use><g><use xlink:href="#bXFXTwa6a" opacity="1" fill-opacity="0" stroke="#000000" stroke-width="1" stroke-opacity="0"></use></g></g><g><use xlink:href="#jnFZi5Ejp" opacity="1" fill="#b8d0d7" fill-opacity="1"></use><g><use xlink:href="#jnFZi5Ejp" opacity="1" fill-opacity="0" stroke="#000000" stroke-width="1" stroke-opacity="0"></use></g></g><g><use xlink:href="#a2YupzWxPX" opacity="1" fill="#b8d0d7" fill-opacity="1"></use><g><use xlink:href="#a2YupzWxPX" opacity="1" fill-opacity="0" stroke="#000000" stroke-width="1" stroke-opacity="0"></use></g></g><g><use xlink:href="#aBoltdjJi" opacity="1" fill="#b8d0d7" fill-opacity="1"></use><g><use xlink:href="#aBoltdjJi" opacity="1" fill-opacity="0" stroke="#000000" stroke-width="1" stroke-opacity="0"></use></g></g><g><use xlink:href="#e6QtYtcHI2" opacity="1" fill="#b8d0d7" fill-opacity="1"></use><g><use xlink:href="#e6QtYtcHI2" opacity="1" fill-opacity="0" stroke="#000000" stroke-width="1" stroke-opacity="0"></use></g></g><g><use xlink:href="#ahtLNJW6m" opacity="1" fill="#b8d0d7" fill-opacity="1"></use><g><use xlink:href="#ahtLNJW6m" opacity="1" fill-opacity="0" stroke="#000000" stroke-width="1" stroke-opacity="0"></use></g></g><g><use xlink:href="#b1PQbl5tcS" opacity="1" fill="#b8d0d7" fill-opacity="1"></use><g><use xlink:href="#b1PQbl5tcS" opacity="1" fill-opacity="0" stroke="#000000" stroke-width="1" stroke-opacity="0"></use></g></g><g><use xlink:href="#k9jH3mCt9" opacity="1" fill="#b8d0d7" fill-opacity="1"></use><g><use xlink:href="#k9jH3mCt9" opacity="1" fill-opacity="0" stroke="#000000" stroke-width="1" stroke-opacity="0"></use></g></g><g><use xlink:href="#hTHZjruzB" opacity="1" fill="#b8d0d7" fill-opacity="1"></use><g><use xlink:href="#hTHZjruzB" opacity="1" fill-opacity="0" stroke="#000000" stroke-width="1" stroke-opacity="0"></use></g></g><g><use xlink:href="#dRhKx3VtE" opacity="1" fill="#b8d0d7" fill-opacity="1"></use><g><use xlink:href="#dRhKx3VtE" opacity="1" fill-opacity="0" stroke="#000000" stroke-width="1" stroke-opacity="0"></use></g></g><g><use xlink:href="#a5ax4TiuXB" opacity="1" fill="#b8d0d7" fill-opacity="1"></use><g><use xlink:href="#a5ax4TiuXB" opacity="1" fill-opacity="0" stroke="#000000" stroke-width="1" stroke-opacity="0"></use></g></g><g><use xlink:href="#d56M6lC60x" opacity="1" fill="#b8d0d7" fill-opacity="1"></use><g><use xlink:href="#d56M6lC60x" opacity="1" fill-opacity="0" stroke="#000000" stroke-width="1" stroke-opacity="0"></use></g></g><g><use xlink:href="#a5BocIKH4s" opacity="1" fill="#b8d0d7" fill-opacity="1"></use><g><use xlink:href="#a5BocIKH4s" opacity="1" fill-opacity="0" stroke="#000000" stroke-width="1" stroke-opacity="0"></use></g></g><g><use xlink:href="#b37GhhHJR" opacity="1" fill="#b8d0d7" fill-opacity="1"></use><g><use xlink:href="#b37GhhHJR" opacity="1" fill-opacity="0" stroke="#000000" stroke-width="1" stroke-opacity="0"></use></g></g><g><use xlink:href="#e1W9vXgtIR" opacity="1" fill="#b8d0d7" fill-opacity="1"></use><g><use xlink:href="#e1W9vXgtIR" opacity="1" fill-opacity="0" stroke="#000000" stroke-width="1" stroke-opacity="0"></use></g></g><g><use xlink:href="#b13Vj0EnVO" opacity="1" fill="#b8d0d7" fill-opacity="1"></use><g><use xlink:href="#b13Vj0EnVO" opacity="1" fill-opacity="0" stroke="#000000" stroke-width="1" stroke-opacity="0"></use></g></g><g><use xlink:href="#b7zJH1nIgA" opacity="1" fill="#b8d0d7" fill-opacity="1"></use><g><use xlink:href="#b7zJH1nIgA" opacity="1" fill-opacity="0" stroke="#000000" stroke-width="1" stroke-opacity="0"></use></g></g><g><use xlink:href="#axCslqudX" opacity="1" fill="#b8d0d7" fill-opacity="1"></use><g><use xlink:href="#axCslqudX" opacity="1" fill-opacity="0" stroke="#000000" stroke-width="1" stroke-opacity="0"></use></g></g><g><use xlink:href="#ejY5WD9zo" opacity="1" fill="#b8d0d7" fill-opacity="1"></use><g><use xlink:href="#ejY5WD9zo" opacity="1" fill-opacity="0" stroke="#000000" stroke-width="1" stroke-opacity="0"></use></g></g><g><use xlink:href="#d52rmk7Pu" opacity="1" fill="#b8d0d7" fill-opacity="1"></use><g><use xlink:href="#d52rmk7Pu" opacity="1" fill-opacity="0" stroke="#000000" stroke-width="1" stroke-opacity="0"></use></g></g><g><use xlink:href="#ar5xAtvP4" opacity="1" fill="#b8d0d7" fill-opacity="1"></use><g><use xlink:href="#ar5xAtvP4" opacity="1" fill-opacity="0" stroke="#000000" stroke-width="1" stroke-opacity="0"></use></g></g><g><use xlink:href="#cwvB27FW" opacity="1" fill="#b8d0d7" fill-opacity="1"></use><g><use xlink:href="#cwvB27FW" opacity="1" fill-opacity="0" stroke="#000000" stroke-width="1" stroke-opacity="0"></use></g></g><g><use xlink:href="#e3iAJEyWuh" opacity="1" fill="#b8d0d7" fill-opacity="1"></use><g><use xlink:href="#e3iAJEyWuh" opacity="1" fill-opacity="0" stroke="#000000" stroke-width="1" stroke-opacity="0"></use></g></g><g><use xlink:href="#csVR5bN0F" opacity="1" fill="#b8d0d7" fill-opacity="1"></use><g><use xlink:href="#csVR5bN0F" opacity="1" fill-opacity="0" stroke="#000000" stroke-width="1" stroke-opacity="0"></use></g></g><g><use xlink:href="#d1q1aU0IMB" opacity="1" fill="#b8d0d7" fill-opacity="1"></use><g><use xlink:href="#d1q1aU0IMB" opacity="1" fill-opacity="0" stroke="#000000" stroke-width="1" stroke-opacity="0"></use></g></g><g><use xlink:href="#a2b5l8xyR7" opacity="1" fill="#b8d0d7" fill-opacity="1"></use><g><use xlink:href="#a2b5l8xyR7" opacity="1" fill-opacity="0" stroke="#000000" stroke-width="1" stroke-opacity="0"></use></g></g><g><use xlink:href="#b2mBj10B2D" opacity="1" fill="#b8d0d7" fill-opacity="1"></use><g><use xlink:href="#b2mBj10B2D" opacity="1" fill-opacity="0" stroke="#000000" stroke-width="1" stroke-opacity="0"></use></g></g><g><use xlink:href="#aKwMXgrLb" opacity="1" fill="#b8d0d7" fill-opacity="1"></use><g><use xlink:href="#aKwMXgrLb" opacity="1" fill-opacity="0" stroke="#000000" stroke-width="1" stroke-opacity="0"></use></g></g><g><use xlink:href="#c3HIxWnH9w" opacity="1" fill="#b8d0d7" fill-opacity="1"></use><g><use xlink:href="#c3HIxWnH9w" opacity="1" fill-opacity="0" stroke="#000000" stroke-width="1" stroke-opacity="0"></use></g></g><g><use xlink:href="#d177yoC2mi" opacity="1" fill="#b8d0d7" fill-opacity="1"></use><g><use xlink:href="#d177yoC2mi" opacity="1" fill-opacity="0" stroke="#000000" stroke-width="1" stroke-opacity="0"></use></g></g><g><use xlink:href="#b1774drYpV" opacity="1" fill="#b8d0d7" fill-opacity="1"></use><g><use xlink:href="#b1774drYpV" opacity="1" fill-opacity="0" stroke="#000000" stroke-width="1" stroke-opacity="0"></use></g></g><g><use xlink:href="#aG1uxZocd" opacity="1" fill="#b8d0d7" fill-opacity="1"></use><g><use xlink:href="#aG1uxZocd" opacity="1" fill-opacity="0" stroke="#000000" stroke-width="1" stroke-opacity="0"></use></g></g><g><use xlink:href="#arPVSRsJP" opacity="1" fill="#b8d0d7" fill-opacity="1"></use><g><use xlink:href="#arPVSRsJP" opacity="1" fill-opacity="0" stroke="#000000" stroke-width="1" stroke-opacity="0"></use></g></g><g><use xlink:href="#b6parPN15w" opacity="1" fill="#b8d0d7" fill-opacity="1"></use><g><use xlink:href="#b6parPN15w" opacity="1" fill-opacity="0" stroke="#000000" stroke-width="1" stroke-opacity="0"></use></g></g><g><use xlink:href="#cfKYFXgAf" opacity="1" fill="#b8d0d7" fill-opacity="1"></use><g><use xlink:href="#cfKYFXgAf" opacity="1" fill-opacity="0" stroke="#000000" stroke-width="1" stroke-opacity="0"></use></g></g><g><use xlink:href="#aDeBAJ2Bh" opacity="1" fill="#b8d0d7" fill-opacity="1"></use><g><use xlink:href="#aDeBAJ2Bh" opacity="1" fill-opacity="0" stroke="#000000" stroke-width="1" stroke-opacity="0"></use></g></g><g><use xlink:href="#d1wsnnqTte" opacity="1" fill="#b8d0d7" fill-opacity="1"></use><g><use xlink:href="#d1wsnnqTte" opacity="1" fill-opacity="0" stroke="#000000" stroke-width="1" stroke-opacity="0"></use></g></g><g><use xlink:href="#a1sYcX869C" opacity="1" fill="#b8d0d7" fill-opacity="1"></use><g><use xlink:href="#a1sYcX869C" opacity="1" fill-opacity="0" stroke="#000000" stroke-width="1" stroke-opacity="0"></use></g></g><g><use xlink:href="#a4qwdaQhUY" opacity="1" fill="#b8d0d7" fill-opacity="1"></use><g><use xlink:href="#a4qwdaQhUY" opacity="1" fill-opacity="0" stroke="#000000" stroke-width="1" stroke-opacity="0"></use></g></g><g><use xlink:href="#i1DIqLZ6Xz" opacity="1" fill="#b8d0d7" fill-opacity="1"></use><g><use xlink:href="#i1DIqLZ6Xz" opacity="1" fill-opacity="0" stroke="#000000" stroke-width="1" stroke-opacity="0"></use></g></g><g><use xlink:href="#c4jr2a4AQ" opacity="1" fill="#b8d0d7" fill-opacity="1"></use><g><use xlink:href="#c4jr2a4AQ" opacity="1" fill-opacity="0" stroke="#000000" stroke-width="1" stroke-opacity="0"></use></g></g><g><use xlink:href="#a4J78oWZ2a" opacity="1" fill="#44accc" fill-opacity="1"></use><g><use xlink:href="#a4J78oWZ2a" opacity="1" fill-opacity="0" stroke="#000000" stroke-width="1" stroke-opacity="0"></use></g></g><g><use xlink:href="#a4S6Cn5FIS" opacity="1" fill="#44accc" fill-opacity="1"></use><g><use xlink:href="#a4S6Cn5FIS" opacity="1" fill-opacity="0" stroke="#000000" stroke-width="1" stroke-opacity="0"></use></g></g><g><use xlink:href="#d1cTuHTFrm" opacity="1" fill="#6f808c" fill-opacity="1"></use><g><use xlink:href="#d1cTuHTFrm" opacity="1" fill-opacity="0" stroke="#000000" stroke-width="1" stroke-opacity="0"></use></g></g><g><use xlink:href="#fVQBcMpkL" opacity="1" fill="#7a8fa2" fill-opacity="1"></use><g><use xlink:href="#fVQBcMpkL" opacity="1" fill-opacity="0" stroke="#000000" stroke-width="1" stroke-opacity="0"></use></g></g><g><use xlink:href="#aM5AXxz6" opacity="1" fill="#8fa8bb" fill-opacity="1"></use><g><use xlink:href="#aM5AXxz6" opacity="1" fill-opacity="0" stroke="#000000" stroke-width="1" stroke-opacity="0"></use></g></g><g><use xlink:href="#b5TFr1R9fk" opacity="1" fill="#b8d0d7" fill-opacity="1"></use><g><use xlink:href="#b5TFr1R9fk" opacity="1" fill-opacity="0" stroke="#000000" stroke-width="1" stroke-opacity="0"></use></g></g><g><use xlink:href="#a2ClCyiUNj" opacity="1" fill="#7a8fa2" fill-opacity="1"></use><g><use xlink:href="#a2ClCyiUNj" opacity="1" fill-opacity="0" stroke="#000000" stroke-width="1" stroke-opacity="0"></use></g></g><g><use xlink:href="#bhHIvC1YR" opacity="1" fill="#e8f3f5" fill-opacity="1"></use><g><use xlink:href="#bhHIvC1YR" opacity="1" fill-opacity="0" stroke="#000000" stroke-width="1" stroke-opacity="0"></use></g></g><g><use xlink:href="#d2lJAy3bOn" opacity="1" fill="#3f8ff3" fill-opacity="1"></use><g><use xlink:href="#d2lJAy3bOn" opacity="1" fill-opacity="0" stroke="#000000" stroke-width="1" stroke-opacity="0"></use></g></g><g><use xlink:href="#d1uurxYuAi" opacity="1" fill="#ffffff" fill-opacity="1"></use><g><use xlink:href="#d1uurxYuAi" opacity="1" fill-opacity="0" stroke="#000000" stroke-width="1" stroke-opacity="0"></use></g></g><g><use xlink:href="#c5VJLi6yb" opacity="1" fill="#cae2e9" fill-opacity="1"></use><g><use xlink:href="#c5VJLi6yb" opacity="1" fill-opacity="0" stroke="#000000" stroke-width="1" stroke-opacity="0"></use></g></g><g><use xlink:href="#g688Ea3RUM" opacity="1" fill="#3f83f3" fill-opacity="1"></use><g><use xlink:href="#g688Ea3RUM" opacity="1" fill-opacity="0" stroke="#000000" stroke-width="1" stroke-opacity="0"></use></g></g><g><use xlink:href="#d4WgRwF3r" opacity="1" fill="#f9c5b3" fill-opacity="1"></use><g><use xlink:href="#d4WgRwF3r" opacity="1" fill-opacity="0" stroke="#000000" stroke-width="1" stroke-opacity="0"></use></g></g><g><use xlink:href="#c36aFlqWEu" opacity="1" fill="#8fa8bb" fill-opacity="1"></use><g><use xlink:href="#c36aFlqWEu" opacity="1" fill-opacity="0" stroke="#000000" stroke-width="1" stroke-opacity="0"></use></g></g><g><use xlink:href="#i8eRGq9TQ" opacity="1" fill="#8fa8bb" fill-opacity="1"></use><g><use xlink:href="#i8eRGq9TQ" opacity="1" fill-opacity="0" stroke="#000000" stroke-width="1" stroke-opacity="0"></use></g></g><g><use xlink:href="#a122X9KfwP" opacity="1" fill="#291a6d" fill-opacity="1"></use><g><use xlink:href="#a122X9KfwP" opacity="1" fill-opacity="0" stroke="#000000" stroke-width="1" stroke-opacity="0"></use></g></g><g><use xlink:href="#k2LDfIuF4j" opacity="1" fill="#f9c5b3" fill-opacity="1"></use><g><use xlink:href="#k2LDfIuF4j" opacity="1" fill-opacity="0" stroke="#000000" stroke-width="1" stroke-opacity="0"></use></g></g><g><use xlink:href="#c3IcmERAq9" opacity="1" fill="#291a6d" fill-opacity="1"></use><g><use xlink:href="#c3IcmERAq9" opacity="1" fill-opacity="0" stroke="#000000" stroke-width="1" stroke-opacity="0"></use></g></g><g><use xlink:href="#bdjKGQbDf" opacity="1" fill="#f9c5b3" fill-opacity="1"></use><g><use xlink:href="#bdjKGQbDf" opacity="1" fill-opacity="0" stroke="#000000" stroke-width="1" stroke-opacity="0"></use></g></g><g><use xlink:href="#i1hEJsnE6C" opacity="1" fill="#161052" fill-opacity="1"></use><g><use xlink:href="#i1hEJsnE6C" opacity="1" fill-opacity="0" stroke="#000000" stroke-width="1" stroke-opacity="0"></use></g></g><g><use xlink:href="#cAkCfnQEf" opacity="1" fill="#291a6d" fill-opacity="1"></use><g><use xlink:href="#cAkCfnQEf" opacity="1" fill-opacity="0" stroke="#000000" stroke-width="1" stroke-opacity="0"></use></g></g><g><use xlink:href="#bNuBKr898" opacity="1" fill="#4144c0" fill-opacity="1"></use><g><use xlink:href="#bNuBKr898" opacity="1" fill-opacity="0" stroke="#000000" stroke-width="1" stroke-opacity="0"></use></g></g><g><use xlink:href="#afbN2GFLo" opacity="1" fill="#f9c5b3" fill-opacity="1"></use><g><use xlink:href="#afbN2GFLo" opacity="1" fill-opacity="0" stroke="#000000" stroke-width="1" stroke-opacity="0"></use></g></g><g><g><use xlink:href="#d5ZiAv0yD" opacity="1" fill-opacity="0" stroke="#000000" stroke-width="1" stroke-opacity="0"></use></g></g><g><use xlink:href="#g1YSYUxJFd" opacity="1" fill="#0268f9" fill-opacity="1"></use><g><use xlink:href="#g1YSYUxJFd" opacity="1" fill-opacity="0" stroke="#000000" stroke-width="1" stroke-opacity="0"></use></g></g><g><use xlink:href="#dlTtErctH" opacity="1" fill="#0273c2" fill-opacity="1"></use><g><use xlink:href="#dlTtErctH" opacity="1" fill-opacity="0" stroke="#000000" stroke-width="1" stroke-opacity="0"></use></g></g><g><use xlink:href="#ckm9ARirN" opacity="1" fill="#0268f9" fill-opacity="1"></use><g><use xlink:href="#ckm9ARirN" opacity="1" fill-opacity="0" stroke="#000000" stroke-width="1" stroke-opacity="0"></use></g></g><g><use xlink:href="#b2eKkX0K4Q" opacity="1" fill="#e1e7f0" fill-opacity="1"></use><g><use xlink:href="#b2eKkX0K4Q" opacity="1" fill-opacity="0" stroke="#000000" stroke-width="1" stroke-opacity="0"></use></g></g><g><use xlink:href="#c5PeclnNr" opacity="1" fill="#310078" fill-opacity="1"></use><g><use xlink:href="#c5PeclnNr" opacity="1" fill-opacity="0" stroke="#000000" stroke-width="1" stroke-opacity="0"></use></g></g><g><use xlink:href="#a2cDYoD2JN" opacity="1" fill="#f9c5b3" fill-opacity="1"></use><g><use xlink:href="#a2cDYoD2JN" opacity="1" fill-opacity="0" stroke="#000000" stroke-width="1" stroke-opacity="0"></use></g></g><g><use xlink:href="#a1LyISGXVJ" opacity="1" fill="#4a84f3" fill-opacity="1"></use><g><use xlink:href="#a1LyISGXVJ" opacity="1" fill-opacity="0" stroke="#000000" stroke-width="1" stroke-opacity="0"></use></g></g><g><use xlink:href="#d3sWlXC2BN" opacity="1" fill="#8fa8bb" fill-opacity="1"></use><g><use xlink:href="#d3sWlXC2BN" opacity="1" fill-opacity="0" stroke="#000000" stroke-width="1" stroke-opacity="0"></use></g></g><g><use xlink:href="#i49g5wTIhU" opacity="1" fill="#4676e4" fill-opacity="1"></use><g><use xlink:href="#i49g5wTIhU" opacity="1" fill-opacity="0" stroke="#000000" stroke-width="1" stroke-opacity="0"></use></g></g><g><use xlink:href="#aeoKqWoQR" opacity="1" fill="#52b4f9" fill-opacity="1"></use><g><use xlink:href="#aeoKqWoQR" opacity="1" fill-opacity="0" stroke="#000000" stroke-width="1" stroke-opacity="0"></use></g></g><g><use xlink:href="#a27ex1vO6H" opacity="1" fill="#ffffff" fill-opacity="1"></use><g><use xlink:href="#a27ex1vO6H" opacity="1" fill-opacity="0" stroke="#000000" stroke-width="1" stroke-opacity="0"></use></g></g><g><use xlink:href="#ergI8vaHX" opacity="1" fill="#4676e4" fill-opacity="1"></use><g><use xlink:href="#ergI8vaHX" opacity="1" fill-opacity="0" stroke="#000000" stroke-width="1" stroke-opacity="0"></use></g></g><g><use xlink:href="#ausMVlKAU" opacity="1" fill="#52b4f9" fill-opacity="1"></use><g><use xlink:href="#ausMVlKAU" opacity="1" fill-opacity="0" stroke="#000000" stroke-width="1" stroke-opacity="0"></use></g></g><g><use xlink:href="#jQ0Dr6Mq" opacity="1" fill="#b8d0d7" fill-opacity="1"></use><g><use xlink:href="#jQ0Dr6Mq" opacity="1" fill-opacity="0" stroke="#000000" stroke-width="1" stroke-opacity="0"></use></g></g><g><use xlink:href="#bd80Gtt9V" opacity="1" fill="#b8d0d7" fill-opacity="1"></use><g><use xlink:href="#bd80Gtt9V" opacity="1" fill-opacity="0" stroke="#000000" stroke-width="1" stroke-opacity="0"></use></g></g><g><use xlink:href="#bFKNwsM5j" opacity="1" fill="#b8d0d7" fill-opacity="1"></use><g><use xlink:href="#bFKNwsM5j" opacity="1" fill-opacity="0" stroke="#000000" stroke-width="1" stroke-opacity="0"></use></g></g><g><use xlink:href="#c1eJd4NnVU" opacity="1" fill="#b8d0d7" fill-opacity="1"></use><g><use xlink:href="#c1eJd4NnVU" opacity="1" fill-opacity="0" stroke="#000000" stroke-width="1" stroke-opacity="0"></use></g></g><g><use xlink:href="#c5P2cL9Axs" opacity="1" fill="#b8d0d7" fill-opacity="1"></use><g><use xlink:href="#c5P2cL9Axs" opacity="1" fill-opacity="0" stroke="#000000" stroke-width="1" stroke-opacity="0"></use></g></g><g><use xlink:href="#afCInhCro" opacity="1" fill="#b8d0d7" fill-opacity="1"></use><g><use xlink:href="#afCInhCro" opacity="1" fill-opacity="0" stroke="#000000" stroke-width="1" stroke-opacity="0"></use></g></g><g><use xlink:href="#cGOk4uy3v" opacity="1" fill="#b8d0d7" fill-opacity="1"></use><g><use xlink:href="#cGOk4uy3v" opacity="1" fill-opacity="0" stroke="#000000" stroke-width="1" stroke-opacity="0"></use></g></g><g><use xlink:href="#a1DFmuJ8jo" opacity="1" fill="#e8f3f5" fill-opacity="1"></use><g><use xlink:href="#a1DFmuJ8jo" opacity="1" fill-opacity="0" stroke="#000000" stroke-width="1" stroke-opacity="0"></use></g></g><g><use xlink:href="#j4np0z7Ip8" opacity="1" fill="#e8f3f5" fill-opacity="1"></use><g><use xlink:href="#j4np0z7Ip8" opacity="1" fill-opacity="0" stroke="#000000" stroke-width="1" stroke-opacity="0"></use></g></g><g><use xlink:href="#b9dsmWmS5A" opacity="1" fill="#f0c6bb" fill-opacity="1"></use><g><use xlink:href="#b9dsmWmS5A" opacity="1" fill-opacity="0" stroke="#000000" stroke-width="1" stroke-opacity="0"></use></g></g><g><use xlink:href="#d57E9S0UC" opacity="1" fill="#000000" fill-opacity="1"></use><g><use xlink:href="#d57E9S0UC" opacity="1" fill-opacity="0" stroke="#000000" stroke-width="1" stroke-opacity="0"></use></g></g><g><use xlink:href="#dgLZr4ljC" opacity="1" fill="#000000" fill-opacity="1"></use><g><use xlink:href="#dgLZr4ljC" opacity="1" fill-opacity="0" stroke="#000000" stroke-width="1" stroke-opacity="0"></use></g></g><g><use xlink:href="#a6iaO883oO" opacity="1" fill="#f2beac" fill-opacity="1"></use><g><use xlink:href="#a6iaO883oO" opacity="1" fill-opacity="0" stroke="#000000" stroke-width="1" stroke-opacity="0"></use></g></g><g><use xlink:href="#c10ogH2HAh" opacity="1" fill="#000000" fill-opacity="1"></use><g><use xlink:href="#c10ogH2HAh" opacity="1" fill-opacity="0" stroke="#000000" stroke-width="1" stroke-opacity="0"></use></g></g><g><use xlink:href="#g1xGoOPCKT" opacity="1" fill="#000000" fill-opacity="1"></use><g><use xlink:href="#g1xGoOPCKT" opacity="1" fill-opacity="0" stroke="#000000" stroke-width="1" stroke-opacity="0"></use></g></g><g><use xlink:href="#clFFrgNKv" opacity="1" fill="#f2beac" fill-opacity="1"></use><g><use xlink:href="#clFFrgNKv" opacity="1" fill-opacity="0" stroke="#000000" stroke-width="1" stroke-opacity="0"></use></g></g><g><use xlink:href="#bWnVkCJtb" opacity="1" fill="#291a6d" fill-opacity="1"></use><g><use xlink:href="#bWnVkCJtb" opacity="1" fill-opacity="0" stroke="#000000" stroke-width="1" stroke-opacity="0"></use></g></g><g><use xlink:href="#c4wBPVrEyH" opacity="1" fill="#f3ccbe" fill-opacity="1"></use><g><use xlink:href="#c4wBPVrEyH" opacity="1" fill-opacity="0" stroke="#000000" stroke-width="1" stroke-opacity="0"></use></g></g><g><use xlink:href="#c10BlHMJdf" opacity="1" fill="#f3ccbe" fill-opacity="1"></use><g><use xlink:href="#c10BlHMJdf" opacity="1" fill-opacity="0" stroke="#000000" stroke-width="1" stroke-opacity="0"></use></g></g><g><use xlink:href="#b3RSEWcCGV" opacity="1" fill="#4144c0" fill-opacity="1"></use><g><use xlink:href="#b3RSEWcCGV" opacity="1" fill-opacity="0" stroke="#000000" stroke-width="1" stroke-opacity="0"></use></g></g><g><use xlink:href="#c2J96tRQpR" opacity="1" fill="#291a6d" fill-opacity="1"></use><g><use xlink:href="#c2J96tRQpR" opacity="1" fill-opacity="0" stroke="#000000" stroke-width="1" stroke-opacity="0"></use></g></g><g><use xlink:href="#a2R8iA741J" opacity="1" fill="#4144c0" fill-opacity="1"></use><g><use xlink:href="#a2R8iA741J" opacity="1" fill-opacity="0" stroke="#000000" stroke-width="1" stroke-opacity="0"></use></g></g><g><use xlink:href="#b9Ok0qi9D" opacity="1" fill="#4144c0" fill-opacity="1"></use><g><use xlink:href="#b9Ok0qi9D" opacity="1" fill-opacity="0" stroke="#000000" stroke-width="1" stroke-opacity="0"></use></g></g><g><use xlink:href="#dVX67dsTW" opacity="1" fill="#ffffff" fill-opacity="1"></use><g><use xlink:href="#dVX67dsTW" opacity="1" fill-opacity="0" stroke="#000000" stroke-width="1" stroke-opacity="0"></use></g></g><g><use xlink:href="#exQGrg2FF" opacity="1" fill="#ffffff" fill-opacity="1"></use><g><use xlink:href="#exQGrg2FF" opacity="1" fill-opacity="0" stroke="#000000" stroke-width="1" stroke-opacity="0"></use></g></g><g><use xlink:href="#a6FDhIHuJD" opacity="1" fill="#ffffff" fill-opacity="1"></use><g><use xlink:href="#a6FDhIHuJD" opacity="1" fill-opacity="0" stroke="#000000" stroke-width="1" stroke-opacity="0"></use></g></g><g><use xlink:href="#bTPFUMVl8" opacity="1" fill="#ffffff" fill-opacity="1"></use><g><use xlink:href="#bTPFUMVl8" opacity="1" fill-opacity="0" stroke="#000000" stroke-width="1" stroke-opacity="0"></use></g></g><g><use xlink:href="#cDTz3mXgi" opacity="1" fill="#4144c0" fill-opacity="1"></use><g><use xlink:href="#cDTz3mXgi" opacity="1" fill-opacity="0" stroke="#000000" stroke-width="1" stroke-opacity="0"></use></g></g><g><use xlink:href="#adMqpX6VM" opacity="1" fill="#ffffff" fill-opacity="1"></use><g><use xlink:href="#adMqpX6VM" opacity="1" fill-opacity="0" stroke="#000000" stroke-width="1" stroke-opacity="0"></use></g></g><g><use xlink:href="#a1cXhJYIz7" opacity="1" fill="#ffffff" fill-opacity="1"></use><g><use xlink:href="#a1cXhJYIz7" opacity="1" fill-opacity="0" stroke="#000000" stroke-width="1" stroke-opacity="0"></use></g></g><g><use xlink:href="#c1pARuctVb" opacity="1" fill="#ffffff" fill-opacity="1"></use><g><use xlink:href="#c1pARuctVb" opacity="1" fill-opacity="0" stroke="#000000" stroke-width="1" stroke-opacity="0"></use></g></g><g><use xlink:href="#c1pc3I603T" opacity="1" fill="#ffffff" fill-opacity="1"></use><g><use xlink:href="#c1pc3I603T" opacity="1" fill-opacity="0" stroke="#000000" stroke-width="1" stroke-opacity="0"></use></g></g><g><use xlink:href="#bSLDZlJaW" opacity="1" fill="#ffffff" fill-opacity="1"></use><g><use xlink:href="#bSLDZlJaW" opacity="1" fill-opacity="0" stroke="#000000" stroke-width="1" stroke-opacity="0"></use></g></g><g><use xlink:href="#klUuY97Qw" opacity="1" fill="#828795" fill-opacity="1"></use><g><use xlink:href="#klUuY97Qw" opacity="1" fill-opacity="0" stroke="#000000" stroke-width="1" stroke-opacity="0"></use></g></g><g><use xlink:href="#h6fE99YII" opacity="1" fill="#7893a5" fill-opacity="1"></use><g><use xlink:href="#h6fE99YII" opacity="1" fill-opacity="0" stroke="#000000" stroke-width="1" stroke-opacity="0"></use></g></g><g><use xlink:href="#b2f3tBpGDZ" opacity="1" fill="#b8d0d7" fill-opacity="1"></use><g><use xlink:href="#b2f3tBpGDZ" opacity="1" fill-opacity="0" stroke="#000000" stroke-width="1" stroke-opacity="0"></use></g></g></g></svg>