<?xml version="1.0" encoding="UTF-8"?>
<svg xmlns="http://www.w3.org/2000/svg" xmlns:xlink="http://www.w3.org/1999/xlink" width="200pt" height="115pt" viewBox="0 0 200 115" version="1.1">
<defs>
<filter id="alpha" filterUnits="objectBoundingBox" x="0%" y="0%" width="100%" height="100%">
  <feColorMatrix type="matrix" in="SourceGraphic" values="0 0 0 0 1 0 0 0 0 1 0 0 0 0 1 0 0 0 1 0"/>
</filter>
<mask id="mask0">
  <g filter="url(#alpha)">
<rect x="0" y="0" width="200" height="115" style="fill:rgb(0%,0%,0%);fill-opacity:0.101961;stroke:none;"/>
  </g>
</mask>
<clipPath id="clip1">
  <rect x="0" y="0" width="200" height="115"/>
</clipPath>
<g id="surface5" clip-path="url(#clip1)">
<path style=" stroke:none;fill-rule:nonzero;fill:rgb(0%,0%,0%);fill-opacity:1;" d="M 87.511719 70.871094 L 8.851562 70.871094 L 8.851562 8.734375 Z M 87.511719 70.871094 "/>
</g>
<mask id="mask1">
  <g filter="url(#alpha)">
<rect x="0" y="0" width="200" height="115" style="fill:rgb(0%,0%,0%);fill-opacity:0.101961;stroke:none;"/>
  </g>
</mask>
<clipPath id="clip2">
  <rect x="0" y="0" width="200" height="115"/>
</clipPath>
<g id="surface8" clip-path="url(#clip2)">
<path style=" stroke:none;fill-rule:nonzero;fill:rgb(0%,0%,0%);fill-opacity:1;" d="M 183.804688 85.652344 L 183.804688 92.347656 C 183.804688 95.078125 181.589844 97.292969 178.859375 97.292969 L 154.5 97.292969 C 151.769531 97.292969 149.554688 95.078125 149.554688 92.347656 L 149.554688 58.601562 L 170.078125 74.808594 L 170.429688 75.085938 L 174.246094 78.101562 L 174.601562 78.386719 Z M 183.804688 85.652344 "/>
</g>
</defs>
<g id="surface1">
<path style=" stroke:none;fill-rule:nonzero;fill:rgb(94.901961%,94.901961%,94.901961%);fill-opacity:1;" d="M 53.742188 91.609375 C 53.742188 97.351562 49.085938 102.007812 43.339844 102.007812 C 37.597656 102.007812 32.9375 97.351562 32.9375 91.609375 C 32.9375 85.863281 37.597656 81.207031 43.339844 81.207031 C 49.085938 81.207031 53.742188 85.863281 53.742188 91.609375 Z M 53.742188 91.609375 "/>
<path style=" stroke:none;fill-rule:nonzero;fill:rgb(42.352941%,38.823529%,100%);fill-opacity:1;" d="M 55.433594 90.085938 C 55.433594 95.828125 50.777344 100.488281 45.03125 100.488281 C 39.289062 100.488281 34.628906 95.828125 34.628906 90.085938 C 34.628906 84.339844 39.289062 79.683594 45.03125 79.683594 C 50.777344 79.683594 55.433594 84.339844 55.433594 90.085938 Z M 55.433594 90.085938 "/>
<path style=" stroke:none;fill-rule:nonzero;fill:rgb(24.705882%,23.921569%,33.72549%);fill-opacity:1;" d="M 53.410156 78.578125 L 182.121094 78.578125 L 182.121094 78.925781 L 53.410156 78.925781 Z M 53.410156 78.578125 "/>
<path style=" stroke:none;fill-rule:nonzero;fill:rgb(24.705882%,23.921569%,33.72549%);fill-opacity:1;" d="M 120.070312 3.273438 L 74.386719 3.273438 L 74.386719 2.332031 L 53.671875 2.332031 L 53.671875 3.273438 L 7.796875 3.273438 C 6.089844 3.273438 4.707031 4.65625 4.707031 6.363281 L 4.707031 68.914062 C 4.707031 70.621094 6.089844 72.003906 7.796875 72.003906 L 120.070312 72.003906 C 121.777344 72.003906 123.160156 70.621094 123.160156 68.914062 L 123.160156 6.363281 C 123.160156 4.65625 121.777344 3.273438 120.070312 3.273438 Z M 120.070312 3.273438 "/>
<path style=" stroke:none;fill-rule:nonzero;fill:rgb(42.352941%,38.823529%,100%);fill-opacity:1;" d="M 8.851562 8.734375 L 119.015625 8.734375 L 119.015625 70.871094 L 8.851562 70.871094 Z M 8.851562 8.734375 "/>
<path style=" stroke:none;fill-rule:nonzero;fill:rgb(42.352941%,38.823529%,100%);fill-opacity:1;" d="M 64.96875 5.910156 C 64.96875 6.535156 64.464844 7.039062 63.839844 7.039062 C 63.214844 7.039062 62.710938 6.535156 62.710938 5.910156 C 62.710938 5.285156 63.214844 4.78125 63.839844 4.78125 C 64.464844 4.78125 64.96875 5.285156 64.96875 5.910156 Z M 64.96875 5.910156 "/>
<use xlink:href="#surface5" mask="url(#mask0)"/>
<path style=" stroke:none;fill-rule:nonzero;fill:rgb(94.901961%,94.901961%,94.901961%);fill-opacity:1;" d="M 36.679688 55.636719 C 36.679688 61.484375 31.9375 66.222656 26.089844 66.222656 C 20.238281 66.222656 15.5 61.484375 15.5 55.636719 C 15.5 49.785156 20.238281 45.046875 26.089844 45.046875 C 31.9375 45.046875 36.679688 49.785156 36.679688 55.636719 Z M 36.679688 55.636719 "/>
<path style=" stroke:none;fill-rule:nonzero;fill:rgb(24.705882%,23.921569%,33.72549%);fill-opacity:1;" d="M 89.542969 42.246094 L 99.835938 42.246094 L 99.835938 44.398438 L 89.542969 44.398438 Z M 89.542969 42.246094 "/>
<path style=" stroke:none;fill-rule:nonzero;fill:rgb(24.705882%,23.921569%,33.72549%);fill-opacity:1;" d="M 77.101562 25.507812 L 112.277344 25.507812 L 112.277344 26.429688 L 77.101562 26.429688 Z M 77.101562 25.507812 "/>
<path style=" stroke:none;fill-rule:nonzero;fill:rgb(24.705882%,23.921569%,33.72549%);fill-opacity:1;" d="M 77.101562 28.425781 L 112.277344 28.425781 L 112.277344 29.347656 L 77.101562 29.347656 Z M 77.101562 28.425781 "/>
<path style=" stroke:none;fill-rule:nonzero;fill:rgb(24.705882%,23.921569%,33.72549%);fill-opacity:1;" d="M 77.101562 31.34375 L 112.277344 31.34375 L 112.277344 32.265625 L 77.101562 32.265625 Z M 77.101562 31.34375 "/>
<path style=" stroke:none;fill-rule:nonzero;fill:rgb(24.705882%,23.921569%,33.72549%);fill-opacity:1;" d="M 77.101562 34.261719 L 112.277344 34.261719 L 112.277344 35.183594 L 77.101562 35.183594 Z M 77.101562 34.261719 "/>
<path style=" stroke:none;fill-rule:nonzero;fill:rgb(24.705882%,23.921569%,33.72549%);fill-opacity:1;" d="M 77.101562 37.179688 L 112.277344 37.179688 L 112.277344 38.101562 L 77.101562 38.101562 Z M 77.101562 37.179688 "/>
<path style=" stroke:none;fill-rule:nonzero;fill:rgb(94.901961%,94.901961%,94.901961%);fill-opacity:1;" d="M 107.976562 9.996094 L 112.277344 9.996094 L 112.277344 14.296875 L 107.976562 14.296875 Z M 107.976562 9.996094 "/>
<path style=" stroke:none;fill-rule:nonzero;fill:rgb(24.705882%,23.921569%,33.72549%);fill-opacity:1;" d="M 114.273438 16.292969 L 109.050781 16.292969 L 109.050781 11.070312 L 114.273438 11.070312 Z M 109.277344 16.066406 L 114.046875 16.066406 L 114.046875 11.296875 L 109.277344 11.296875 Z M 109.277344 16.066406 "/>
<path style=" stroke:none;fill-rule:nonzero;fill:rgb(24.705882%,23.921569%,33.72549%);fill-opacity:1;" d="M 126.253906 69.742188 L 115.5 69.742188 L 115.5 68.96875 C 115.5 68.882812 115.433594 68.816406 115.347656 68.816406 L 111.660156 68.816406 C 111.578125 68.816406 111.507812 68.882812 111.507812 68.96875 L 111.507812 69.742188 L 109.203125 69.742188 L 109.203125 68.96875 C 109.203125 68.882812 109.136719 68.816406 109.050781 68.816406 L 105.363281 68.816406 C 105.277344 68.816406 105.210938 68.882812 105.210938 68.96875 L 105.210938 69.742188 L 102.90625 69.742188 L 102.90625 68.96875 C 102.90625 68.882812 102.835938 68.816406 102.753906 68.816406 L 99.066406 68.816406 C 98.980469 68.816406 98.914062 68.882812 98.914062 68.96875 L 98.914062 69.742188 L 96.609375 69.742188 L 96.609375 68.96875 C 96.609375 68.882812 96.539062 68.816406 96.457031 68.816406 L 92.769531 68.816406 C 92.683594 68.816406 92.617188 68.882812 92.617188 68.96875 L 92.617188 69.742188 L 90.3125 69.742188 L 90.3125 68.96875 C 90.3125 68.882812 90.242188 68.816406 90.160156 68.816406 L 86.472656 68.816406 C 86.386719 68.816406 86.320312 68.882812 86.320312 68.96875 L 86.320312 69.742188 L 84.015625 69.742188 L 84.015625 68.96875 C 84.015625 68.882812 83.945312 68.816406 83.859375 68.816406 L 80.175781 68.816406 C 80.089844 68.816406 80.019531 68.882812 80.019531 68.96875 L 80.019531 69.742188 L 77.71875 69.742188 L 77.71875 68.96875 C 77.71875 68.882812 77.648438 68.816406 77.5625 68.816406 L 48.6875 68.816406 C 48.605469 68.816406 48.535156 68.882812 48.535156 68.96875 L 48.535156 69.742188 L 46.230469 69.742188 L 46.230469 68.96875 C 46.230469 68.882812 46.164062 68.816406 46.078125 68.816406 L 42.390625 68.816406 C 42.304688 68.816406 42.238281 68.882812 42.238281 68.96875 L 42.238281 69.742188 L 39.933594 69.742188 L 39.933594 68.96875 C 39.933594 68.882812 39.863281 68.816406 39.78125 68.816406 L 36.09375 68.816406 C 36.007812 68.816406 35.941406 68.882812 35.941406 68.96875 L 35.941406 69.742188 L 33.636719 69.742188 L 33.636719 68.96875 C 33.636719 68.882812 33.566406 68.816406 33.484375 68.816406 L 29.796875 68.816406 C 29.710938 68.816406 29.644531 68.882812 29.644531 68.96875 L 29.644531 69.742188 L 27.339844 69.742188 L 27.339844 68.96875 C 27.339844 68.882812 27.269531 68.816406 27.1875 68.816406 L 23.5 68.816406 C 23.414062 68.816406 23.347656 68.882812 23.347656 68.96875 L 23.347656 69.742188 L 21.042969 69.742188 L 21.042969 68.96875 C 21.042969 68.882812 20.972656 68.816406 20.886719 68.816406 L 17.203125 68.816406 C 17.117188 68.816406 17.046875 68.882812 17.046875 68.96875 L 17.046875 69.742188 L 14.746094 69.742188 L 14.746094 68.96875 C 14.746094 68.882812 14.675781 68.816406 14.589844 68.816406 L 10.90625 68.816406 C 10.820312 68.816406 10.75 68.882812 10.75 68.96875 L 10.75 69.742188 L 3.6875 69.742188 C 1.648438 69.742188 0 71.394531 0 73.429688 L 0 75.09375 C 0 77.132812 1.648438 78.78125 3.6875 78.78125 L 126.253906 78.78125 C 128.289062 78.78125 129.9375 77.132812 129.9375 75.09375 L 129.9375 73.429688 C 129.9375 71.394531 128.289062 69.742188 126.253906 69.742188 Z M 126.253906 69.742188 "/>
<path style=" stroke:none;fill-rule:nonzero;fill:rgb(24.705882%,23.921569%,33.72549%);fill-opacity:1;" d="M 28.652344 62.25 C 21.28125 62.25 15.308594 56.273438 15.308594 48.90625 C 15.308594 41.535156 21.28125 35.5625 28.652344 35.5625 C 36.023438 35.5625 41.996094 41.535156 41.996094 48.90625 C 41.988281 56.269531 36.019531 62.238281 28.652344 62.25 Z M 28.652344 35.914062 C 21.476562 35.914062 15.65625 41.730469 15.65625 48.90625 C 15.65625 56.078125 21.476562 61.898438 28.652344 61.898438 C 35.828125 61.898438 41.644531 56.078125 41.644531 48.90625 C 41.636719 41.730469 35.824219 35.921875 28.652344 35.914062 Z M 28.652344 35.914062 "/>
<path style=" stroke:none;fill-rule:nonzero;fill:rgb(24.705882%,23.921569%,33.72549%);fill-opacity:1;" d="M 102.925781 5.714844 L 147.703125 5.714844 L 147.703125 6.066406 L 102.925781 6.066406 Z M 102.925781 5.714844 "/>
<path style=" stroke:none;fill-rule:nonzero;fill:rgb(24.705882%,23.921569%,33.72549%);fill-opacity:1;" d="M 71.320312 98.414062 L 200.03125 98.414062 L 200.03125 98.765625 L 71.320312 98.765625 Z M 71.320312 98.414062 "/>
<path style=" stroke:none;fill-rule:nonzero;fill:rgb(24.705882%,23.921569%,33.72549%);fill-opacity:1;" d="M 33.832031 114.570312 L 78.609375 114.570312 L 78.609375 114.917969 L 33.832031 114.917969 Z M 33.832031 114.570312 "/>
<path style=" stroke:none;fill-rule:nonzero;fill:rgb(42.352941%,38.823529%,100%);fill-opacity:1;" d="M 82.703125 96.566406 L 87.621094 96.566406 L 87.621094 101.480469 L 82.703125 101.480469 Z M 82.703125 96.566406 "/>
<path style=" stroke:none;fill-rule:nonzero;fill:rgb(24.705882%,23.921569%,33.72549%);fill-opacity:1;" d="M 90.605469 98.671875 L 84.636719 98.671875 L 84.636719 92.703125 L 90.605469 92.703125 Z M 84.894531 98.414062 L 90.347656 98.414062 L 90.347656 92.960938 L 84.894531 92.960938 Z M 84.894531 98.414062 "/>
<path style=" stroke:none;fill-rule:nonzero;fill:rgb(42.352941%,38.823529%,100%);fill-opacity:1;" d="M 139.773438 3.863281 L 144.6875 3.863281 L 144.6875 8.777344 L 139.773438 8.777344 Z M 139.773438 3.863281 "/>
<path style=" stroke:none;fill-rule:nonzero;fill:rgb(24.705882%,23.921569%,33.72549%);fill-opacity:1;" d="M 147.671875 5.96875 L 141.703125 5.96875 L 141.703125 0 L 147.671875 0 Z M 141.960938 5.710938 L 147.414062 5.710938 L 147.414062 0.257812 L 141.960938 0.257812 Z M 141.960938 5.710938 "/>
<path style=" stroke:none;fill-rule:nonzero;fill:rgb(42.352941%,38.823529%,100%);fill-opacity:1;" d="M 189.289062 96.566406 L 194.207031 96.566406 L 194.207031 101.480469 L 189.289062 101.480469 Z M 189.289062 96.566406 "/>
<path style=" stroke:none;fill-rule:nonzero;fill:rgb(24.705882%,23.921569%,33.72549%);fill-opacity:1;" d="M 197.191406 98.671875 L 191.21875 98.671875 L 191.21875 92.703125 L 197.191406 92.703125 Z M 191.480469 98.414062 L 196.929688 98.414062 L 196.929688 92.960938 L 191.480469 92.960938 Z M 191.480469 98.414062 "/>
<path style=" stroke:none;fill-rule:nonzero;fill:rgb(24.705882%,23.921569%,33.72549%);fill-opacity:1;" d="M 185.632812 40.726562 L 185.214844 40.726562 L 185.214844 29.285156 C 185.214844 25.628906 182.25 22.664062 178.589844 22.664062 L 154.351562 22.664062 C 150.691406 22.664062 147.726562 25.628906 147.726562 29.285156 L 147.726562 92.046875 C 147.726562 95.707031 150.691406 98.671875 154.351562 98.671875 L 178.589844 98.671875 C 182.25 98.671875 185.214844 95.707031 185.214844 92.046875 L 185.214844 48.867188 L 185.632812 48.867188 Z M 185.632812 40.726562 "/>
<path style=" stroke:none;fill-rule:nonzero;fill:rgb(42.352941%,38.823529%,100%);fill-opacity:1;" d="M 183.804688 29.675781 L 183.804688 92.347656 C 183.804688 95.078125 181.589844 97.292969 178.859375 97.292969 L 154.5 97.292969 C 151.769531 97.292969 149.554688 95.078125 149.554688 92.347656 L 149.554688 29.675781 C 149.554688 26.945312 151.769531 24.730469 154.5 24.730469 L 157.457031 24.730469 C 157.160156 25.453125 157.246094 26.277344 157.683594 26.925781 C 158.117188 27.578125 158.847656 27.964844 159.632812 27.964844 L 173.519531 27.964844 C 174.300781 27.964844 175.03125 27.578125 175.46875 26.925781 C 175.90625 26.277344 175.988281 25.453125 175.695312 24.730469 L 178.859375 24.730469 C 181.589844 24.730469 183.804688 26.945312 183.804688 29.675781 Z M 183.804688 29.675781 "/>
<path style=" stroke:none;fill-rule:nonzero;fill:rgb(24.705882%,23.921569%,33.72549%);fill-opacity:1;" d="M 163.050781 66.054688 L 170.308594 66.054688 L 170.308594 68.203125 L 163.050781 68.203125 Z M 163.050781 66.054688 "/>
<path style=" stroke:none;fill-rule:nonzero;fill:rgb(24.705882%,23.921569%,33.72549%);fill-opacity:1;" d="M 154.28125 49.3125 L 179.082031 49.3125 L 179.082031 50.234375 L 154.28125 50.234375 Z M 154.28125 49.3125 "/>
<path style=" stroke:none;fill-rule:nonzero;fill:rgb(24.705882%,23.921569%,33.72549%);fill-opacity:1;" d="M 154.28125 52.230469 L 179.082031 52.230469 L 179.082031 53.152344 L 154.28125 53.152344 Z M 154.28125 52.230469 "/>
<path style=" stroke:none;fill-rule:nonzero;fill:rgb(24.705882%,23.921569%,33.72549%);fill-opacity:1;" d="M 154.28125 55.148438 L 179.082031 55.148438 L 179.082031 56.070312 L 154.28125 56.070312 Z M 154.28125 55.148438 "/>
<path style=" stroke:none;fill-rule:nonzero;fill:rgb(24.705882%,23.921569%,33.72549%);fill-opacity:1;" d="M 154.28125 58.066406 L 179.082031 58.066406 L 179.082031 58.988281 L 154.28125 58.988281 Z M 154.28125 58.066406 "/>
<path style=" stroke:none;fill-rule:nonzero;fill:rgb(24.705882%,23.921569%,33.72549%);fill-opacity:1;" d="M 154.28125 60.984375 L 179.082031 60.984375 L 179.082031 61.90625 L 154.28125 61.90625 Z M 154.28125 60.984375 "/>
<path style=" stroke:none;fill-rule:nonzero;fill:rgb(94.901961%,94.901961%,94.901961%);fill-opacity:1;" d="M 163.246094 37.078125 L 167.546875 37.078125 L 167.546875 41.378906 L 163.246094 41.378906 Z M 163.246094 37.078125 "/>
<path style=" stroke:none;fill-rule:nonzero;fill:rgb(24.705882%,23.921569%,33.72549%);fill-opacity:1;" d="M 164.890625 38.152344 L 164.890625 43.375 L 170.113281 43.375 L 170.113281 38.152344 Z M 169.886719 43.148438 L 165.117188 43.148438 L 165.117188 38.378906 L 169.886719 38.378906 Z M 169.886719 43.148438 "/>
<use xlink:href="#surface8" mask="url(#mask1)"/>
<path style=" stroke:none;fill-rule:nonzero;fill:rgb(94.901961%,94.901961%,94.901961%);fill-opacity:1;" d="M 172.277344 87.558594 C 172.277344 91.8125 168.828125 95.261719 164.574219 95.261719 C 160.320312 95.261719 156.871094 91.8125 156.871094 87.558594 C 156.871094 83.304688 160.320312 79.855469 164.574219 79.855469 C 168.828125 79.855469 172.277344 83.304688 172.277344 87.558594 Z M 172.277344 87.558594 "/>
<path style=" stroke:none;fill-rule:nonzero;fill:rgb(24.705882%,23.921569%,33.72549%);fill-opacity:1;" d="M 56.21875 114.917969 C 47.78125 114.917969 40.941406 108.082031 40.941406 99.644531 C 40.941406 91.207031 47.78125 84.371094 56.21875 84.371094 C 64.65625 84.371094 71.496094 91.207031 71.496094 99.644531 C 71.488281 108.078125 64.652344 114.910156 56.21875 114.917969 Z M 56.21875 84.722656 C 47.976562 84.722656 41.292969 91.402344 41.292969 99.644531 C 41.292969 107.886719 47.976562 114.570312 56.21875 114.570312 C 64.460938 114.570312 71.144531 107.886719 71.144531 99.644531 C 71.136719 91.40625 64.457031 84.730469 56.21875 84.722656 Z M 56.21875 84.722656 "/>
<path style=" stroke:none;fill-rule:nonzero;fill:rgb(24.705882%,23.921569%,33.72549%);fill-opacity:1;" d="M 166.84375 93.5 C 161.507812 93.5 157.183594 89.175781 157.183594 83.84375 C 157.183594 78.511719 161.507812 74.1875 166.84375 74.1875 C 172.175781 74.1875 176.5 78.511719 176.5 83.84375 C 176.496094 89.175781 172.175781 93.492188 166.84375 93.5 Z M 166.84375 74.539062 C 161.703125 74.539062 157.535156 78.703125 157.535156 83.84375 C 157.535156 88.984375 161.703125 93.148438 166.84375 93.148438 C 171.984375 93.148438 176.148438 88.984375 176.148438 83.84375 C 176.144531 78.707031 171.980469 74.542969 166.84375 74.539062 Z M 166.84375 74.539062 "/>
</g>
</svg>
